<svg width="28" height="26" viewBox="0 0 28 26" fill="none" xmlns="http://www.w3.org/2000/svg">
<mask id="mask0_2337_1092" style="mask-type:luminance" maskUnits="userSpaceOnUse" x="0" y="0" width="28" height="26">
<path fill-rule="evenodd" clip-rule="evenodd" d="M0.25 0.166992H27.1163V25.2431H0.25V0.166992Z" fill="white"/>
</mask>
<g mask="url(#mask0_2337_1092)">
<path fill-rule="evenodd" clip-rule="evenodd" d="M6.63555 21.9545C7.36055 21.9545 8.0443 22.2112 8.76805 22.483C13.2018 24.3963 18.4455 23.526 21.8618 20.3387C26.3693 16.1293 26.3693 9.28216 21.8618 5.07516C19.6793 3.03816 16.7768 1.91699 13.6868 1.91699C10.5955 1.91699 7.6918 3.03933 5.51055 5.07633C2.09305 8.26366 1.16305 13.1578 3.1943 17.2563C3.4868 17.9318 3.7693 18.5898 3.7693 19.2735C3.7693 19.956 3.51805 20.6432 3.2968 21.2498C3.1143 21.7492 2.83805 22.5028 3.01555 22.6685C3.1893 22.8365 4.0018 22.5717 4.53805 22.4002C5.1818 22.1948 5.9118 21.9592 6.63555 21.9545V21.9545ZM13.6555 25.2433C11.7455 25.2433 9.82305 24.8665 8.0243 24.0895C7.4943 23.8912 6.99805 23.7045 6.6418 23.7045C6.2318 23.7068 5.68055 23.8842 5.14805 24.0557C4.05555 24.4057 2.69555 24.842 1.6893 23.9063C0.686796 22.9695 1.1493 21.7037 1.5218 20.6852C1.70555 20.1835 1.8943 19.6655 1.8943 19.2735C1.8943 18.9515 1.72805 18.5408 1.47305 17.9493C-0.868204 13.2302 0.214297 7.54266 4.18555 3.83849C6.72055 1.47133 10.0943 0.166992 13.6855 0.166992C17.2768 0.166992 20.6518 1.47016 23.1868 3.83733C28.4268 8.72799 28.4268 16.6847 23.1868 21.5753C20.618 23.974 17.1593 25.2433 13.6555 25.2433V25.2433Z" fill="black"/>
</g>
<path fill-rule="evenodd" clip-rule="evenodd" d="M18.6202 14.3568C17.9302 14.3568 17.3652 13.8353 17.3652 13.1901C17.3652 12.5449 17.919 12.0234 18.609 12.0234H18.6202C19.3102 12.0234 19.8702 12.5449 19.8702 13.1901C19.8702 13.8353 19.3102 14.3568 18.6202 14.3568Z" fill="black"/>
<path fill-rule="evenodd" clip-rule="evenodd" d="M13.6095 14.3568C12.9195 14.3568 12.3545 13.8353 12.3545 13.1901C12.3545 12.5449 12.907 12.0234 13.5982 12.0234H13.6095C14.2995 12.0234 14.8595 12.5449 14.8595 13.1901C14.8595 13.8353 14.2995 14.3568 13.6095 14.3568Z" fill="black"/>
<path fill-rule="evenodd" clip-rule="evenodd" d="M8.59777 14.3568C7.90777 14.3568 7.34277 13.8353 7.34277 13.1901C7.34277 12.5449 7.89652 12.0234 8.58652 12.0234H8.59777C9.28777 12.0234 9.84777 12.5449 9.84777 13.1901C9.84777 13.8353 9.28777 14.3568 8.59777 14.3568Z" fill="black"/>
</svg>
