<svg width="14" height="14" viewBox="0 0 14 14" fill="none" xmlns="http://www.w3.org/2000/svg">
<path fill-rule="evenodd" clip-rule="evenodd" d="M7.14314 12.8333C6.35272 12.8333 5.58214 12.8246 4.81972 12.8088C3.84439 12.7896 3.16947 12.1573 3.05922 11.1586C2.87547 9.50192 2.56105 5.59709 2.55814 5.55801C2.5383 5.31709 2.71797 5.10592 2.95889 5.08667C3.1963 5.08026 3.41097 5.24709 3.43022 5.48742C3.43314 5.52709 3.74697 9.41851 3.92897 11.0623C3.99139 11.6299 4.29764 11.9228 4.8378 11.9338C6.29614 11.9648 7.78422 11.9665 9.38839 11.9373C9.96239 11.9263 10.2727 11.6393 10.3369 11.0583C10.5177 9.42842 10.8327 5.52709 10.8362 5.48742C10.8555 5.24709 11.0684 5.07909 11.307 5.08667C11.5479 5.10651 11.7276 5.31709 11.7083 5.55801C11.7048 5.59767 11.3886 9.51242 11.2066 11.1545C11.0935 12.1736 10.4203 12.7937 9.40414 12.8123C8.62655 12.8258 7.87639 12.8333 7.14314 12.8333Z" fill="white"/>
<path fill-rule="evenodd" clip-rule="evenodd" d="M12.0797 4.07715H2.1875C1.946 4.07715 1.75 3.88115 1.75 3.63965C1.75 3.39815 1.946 3.20215 2.1875 3.20215H12.0797C12.3212 3.20215 12.5172 3.39815 12.5172 3.63965C12.5172 3.88115 12.3212 4.07715 12.0797 4.07715Z" fill="white"/>
<path fill-rule="evenodd" clip-rule="evenodd" d="M10.1738 4.07724C9.51 4.07724 8.93367 3.60416 8.803 2.95316L8.66125 2.24383C8.6315 2.13591 8.50842 2.04199 8.36842 2.04199H5.89917C5.75917 2.04199 5.63608 2.13591 5.6005 2.27066L5.46458 2.95316C5.3345 3.60416 4.75758 4.07724 4.09375 4.07724C3.85225 4.07724 3.65625 3.88124 3.65625 3.63974C3.65625 3.39824 3.85225 3.20224 4.09375 3.20224C4.34225 3.20224 4.55808 3.02491 4.60708 2.78108L4.74883 2.07174C4.89292 1.52808 5.36367 1.16699 5.89917 1.16699H8.36842C8.90392 1.16699 9.37467 1.52808 9.51292 2.04549L9.66108 2.78108C9.7095 3.02491 9.92533 3.20224 10.1738 3.20224C10.4153 3.20224 10.6113 3.39824 10.6113 3.63974C10.6113 3.88124 10.4153 4.07724 10.1738 4.07724Z" fill="white"/>
</svg>
