<svg width="25" height="24" viewBox="0 0 25 24" fill="none" xmlns="http://www.w3.org/2000/svg">
<path fill-rule="evenodd" clip-rule="evenodd" d="M17.0752 6.54794C15.8259 5.36623 14.1586 4.72247 12.4336 4.74893C9.27692 4.74893 6.59598 6.86098 5.64007 9.70498C5.13323 11.1953 5.13323 12.8092 5.64007 14.2996H5.64451C6.60485 17.1392 9.28136 19.2512 12.438 19.2512C14.0675 19.2512 15.4664 18.8379 16.5506 18.1078V18.1048C17.8266 17.2671 18.6981 15.9487 18.9693 14.4583H12.4336V9.83734H23.8466C23.9888 10.6398 24.0555 11.46 24.0555 12.2757C24.0555 15.9255 22.7403 19.0113 20.4518 21.1013L20.4542 21.1032C18.4491 22.9374 15.697 24.0001 12.4336 24.0001C7.85863 24.0001 3.67492 21.4427 1.62085 17.3905C-0.0953013 13.9997 -0.0952971 10.0049 1.62086 6.61411C3.67493 2.55752 7.85863 7.62441e-05 12.4336 7.62441e-05C15.4391 -0.0351984 18.3424 1.08477 20.5298 3.12188L17.0752 6.54794Z" fill="white"/>
</svg>
