<svg width="24" height="24" viewBox="0 0 24 24" fill="none" xmlns="http://www.w3.org/2000/svg">
<g clip-path="url(#clip0)">
<path d="M12 10.5312C12.2934 10.5312 12.5312 10.2934 12.5312 10C12.5312 9.7066 12.2934 9.46875 12 9.46875C11.7066 9.46875 11.4688 9.7066 11.4688 10C11.4688 10.2934 11.7066 10.5312 12 10.5312Z" fill="white"/>
<path d="M16 14.5312C16.2934 14.5312 16.5312 14.2934 16.5312 14C16.5312 13.7066 16.2934 13.4688 16 13.4688C15.7066 13.4688 15.4688 13.7066 15.4688 14C15.4688 14.2934 15.7066 14.5312 16 14.5312Z" fill="white"/>
<path d="M18.9999 7H9.00012C9.00012 7.55234 8.55234 8.00012 8 8.00012C7.44766 8.00012 6.99988 7.55234 6.99988 7H5.00013C5.00013 7.55234 4.55234 8.00012 4 8.00012V15.9999C4.55234 15.9999 5.00013 16.4477 5.00013 17H6.99988C6.99988 16.4477 7.44766 15.9999 8 15.9999C8.55234 15.9999 9.00012 16.4477 9.00012 17H18.9999C18.9999 16.4477 19.4477 15.9999 20 15.9999V8.00012C19.4477 8.00012 18.9999 7.55234 18.9999 7ZM8.49794 14.4688H7.50209V13.5312H8.49794V14.4688ZM8.49794 12.4688H7.50209V11.5312H8.49794V12.4688ZM8.49794 10.4688H7.50209V9.53125H8.49794V10.4688ZM12 8.53125C12.8099 8.53125 13.4688 9.19012 13.4688 10C13.4688 10.8099 12.8099 11.4688 12 11.4688C11.1901 11.4688 10.5312 10.8099 10.5312 10C10.5312 9.19012 11.1901 8.53125 12 8.53125ZM10.6686 14.6686L16.6686 8.66856L17.3315 9.33147L11.3315 15.3315L10.6686 14.6686ZM16 15.4688C15.1901 15.4688 14.5312 14.8099 14.5312 14C14.5312 13.1901 15.1901 12.5312 16 12.5312C16.8099 12.5312 17.4688 13.1901 17.4688 14C17.4688 14.8099 16.8099 15.4688 16 15.4688Z" fill="white"/>
</g>
<defs>
<clipPath id="clip0">
<rect width="16" height="16" fill="white" transform="translate(4 4)"/>
</clipPath>
</defs>
</svg>
