<svg width="15" height="15" viewBox="0 0 15 15" fill="none" xmlns="http://www.w3.org/2000/svg">
<path d="M7.49812 4.99894C6.12094 4.99894 4.99706 6.12282 4.99706 7.5C4.99706 8.87718 6.12094 10.0011 7.49812 10.0011C8.8753 10.0011 9.99919 8.87718 9.99919 7.5C9.99919 6.12282 8.8753 4.99894 7.49812 4.99894ZM14.9994 7.5C14.9994 6.4643 15.0088 5.43798 14.9507 4.40416C14.8925 3.20335 14.6186 2.13763 13.7405 1.25953C12.8605 0.379564 11.7967 0.107505 10.5958 0.049341C9.56014 -0.00882328 8.53382 0.000558085 7.5 0.000558085C6.4643 0.000558085 5.43798 -0.00882328 4.40416 0.049341C3.20335 0.107505 2.13763 0.38144 1.25953 1.25953C0.379564 2.1395 0.107505 3.20335 0.049341 4.40416C-0.00882328 5.43986 0.000558085 6.46618 0.000558085 7.5C0.000558085 8.53382 -0.00882328 9.56202 0.049341 10.5958C0.107505 11.7967 0.38144 12.8624 1.25953 13.7405C2.1395 14.6204 3.20335 14.8925 4.40416 14.9507C5.43986 15.0088 6.46618 14.9994 7.5 14.9994C8.5357 14.9994 9.56202 15.0088 10.5958 14.9507C11.7967 14.8925 12.8624 14.6186 13.7405 13.7405C14.6204 12.8605 14.8925 11.7967 14.9507 10.5958C15.0107 9.56202 14.9994 8.5357 14.9994 7.5ZM7.49812 11.3482C5.36856 11.3482 3.6499 9.62956 3.6499 7.5C3.6499 5.37044 5.36856 3.65177 7.49812 3.65177C9.62769 3.65177 11.3463 5.37044 11.3463 7.5C11.3463 9.62956 9.62769 11.3482 7.49812 11.3482ZM11.504 4.3929C11.0067 4.3929 10.6052 3.99138 10.6052 3.49417C10.6052 2.99696 11.0067 2.59544 11.504 2.59544C12.0012 2.59544 12.4027 2.99696 12.4027 3.49417C12.4028 3.61223 12.3797 3.72917 12.3346 3.83827C12.2895 3.94738 12.2233 4.04651 12.1398 4.13C12.0563 4.21348 11.9572 4.27968 11.8481 4.32479C11.739 4.3699 11.622 4.39305 11.504 4.3929Z" fill="#fff"/>
</svg>
