<svg width="14" height="14" viewBox="0 0 14 14" fill="none" xmlns="http://www.w3.org/2000/svg">
<path fill-rule="evenodd" clip-rule="evenodd" d="M1.70037e-07 1.14875C1.70037e-07 0.844084 0.121029 0.551895 0.336461 0.336463C0.551894 0.12103 0.844083 1.53145e-06 1.14875 1.53145e-06H12.6C12.751 -0.000245063 12.9005 0.0292909 13.0401 0.0869182C13.1796 0.144546 13.3065 0.229133 13.4133 0.335837C13.5201 0.442541 13.6048 0.569266 13.6626 0.708758C13.7204 0.848249 13.7501 0.997767 13.75 1.14875V12.6C13.7502 12.751 13.7206 12.9006 13.6629 13.0401C13.6052 13.1797 13.5205 13.3065 13.4138 13.4133C13.307 13.5201 13.1802 13.6048 13.0407 13.6626C12.9012 13.7204 12.7516 13.7501 12.6006 13.75H1.14875C0.997842 13.75 0.848412 13.7203 0.708998 13.6625C0.569585 13.6047 0.44292 13.5201 0.33624 13.4133C0.229561 13.3066 0.144957 13.1799 0.0872641 13.0404C0.0295708 12.901 -8.19348e-05 12.7515 1.70037e-07 12.6006V1.14875ZM5.4425 5.2425H7.30438V6.1775C7.57313 5.64 8.26063 5.15625 9.29375 5.15625C11.2744 5.15625 11.7438 6.22688 11.7438 8.19125V11.83H9.73938V8.63875C9.73938 7.52 9.47063 6.88875 8.78813 6.88875C7.84125 6.88875 7.4475 7.56938 7.4475 8.63875V11.83H5.4425V5.2425ZM2.005 11.7444H4.01V5.15625H2.005V11.7438V11.7444ZM4.29688 3.0075C4.30066 3.17917 4.27011 3.34987 4.20703 3.50957C4.14394 3.66928 4.0496 3.81477 3.92952 3.93752C3.80945 4.06027 3.66606 4.1578 3.50778 4.22438C3.34951 4.29096 3.17953 4.32526 3.00781 4.32526C2.8361 4.32526 2.66612 4.29096 2.50784 4.22438C2.34956 4.1578 2.20618 4.06027 2.08611 3.93752C1.96603 3.81477 1.87168 3.66928 1.8086 3.50957C1.74552 3.34987 1.71497 3.17917 1.71875 3.0075C1.72617 2.67054 1.86524 2.34987 2.10618 2.11418C2.34712 1.87849 2.67077 1.74651 3.00781 1.74651C3.34486 1.74651 3.66851 1.87849 3.90945 2.11418C4.15038 2.34987 4.28946 2.67054 4.29688 3.0075Z" fill="#fff"/>
</svg>
