<svg width="80" height="68" viewBox="0 0 80 68" fill="none" xmlns="http://www.w3.org/2000/svg">
<path d="M74.375 0.40625H5.625C4.1746 0.40625 2.7836 0.982421 1.75801 2.00801C0.732421 3.0336 0.15625 4.4246 0.15625 5.875V62.125C0.15625 63.5754 0.732421 64.9664 1.75801 65.992C2.7836 67.0176 4.1746 67.5938 5.625 67.5938H74.375C75.8254 67.5938 77.2164 67.0176 78.242 65.992C79.2676 64.9664 79.8438 63.5754 79.8438 62.125V5.875C79.8438 4.4246 79.2676 3.0336 78.242 2.00801C77.2164 0.982421 75.8254 0.40625 74.375 0.40625ZM5.625 5.09375H74.375C74.5822 5.09375 74.7809 5.17606 74.9274 5.32257C75.0739 5.46909 75.1562 5.6678 75.1562 5.875V50.2109L62.6172 37.6719C61.5866 36.6556 60.1974 36.0859 58.75 36.0859C57.3026 36.0859 55.9134 36.6556 54.8828 37.6719L46.7969 45.7578C46.7273 45.8336 46.6428 45.8941 46.5487 45.9355C46.4546 45.9769 46.3528 45.9982 46.25 45.9982C46.1472 45.9982 46.0454 45.9769 45.9513 45.9355C45.8572 45.8941 45.7727 45.8336 45.7031 45.7578L28.2422 28.2969C27.2116 27.2806 25.8224 26.7109 24.375 26.7109C22.9276 26.7109 21.5384 27.2806 20.5078 28.2969L4.84375 43.9609V5.875C4.84375 5.6678 4.92606 5.46909 5.07257 5.32257C5.21909 5.17606 5.4178 5.09375 5.625 5.09375ZM74.375 62.9062H5.625C5.4178 62.9062 5.21909 62.8239 5.07257 62.6774C4.92606 62.5309 4.84375 62.3322 4.84375 62.125V50.6016L23.8281 31.6172C23.8976 31.5414 23.9822 31.4809 24.0763 31.4395C24.1704 31.3981 24.2722 31.3768 24.375 31.3768C24.4778 31.3768 24.5796 31.3981 24.6737 31.4395C24.7678 31.4809 24.8524 31.5414 24.9219 31.6172L42.3828 49.0781C43.4134 50.0944 44.8026 50.6641 46.25 50.6641C47.6974 50.6641 49.0866 50.0944 50.1172 49.0781L58.2031 40.9922C58.2727 40.9164 58.3572 40.8559 58.4513 40.8145C58.5454 40.7731 58.6472 40.7518 58.75 40.7518C58.8528 40.7518 58.9546 40.7731 59.0487 40.8145C59.1428 40.8559 59.2273 40.9164 59.2969 40.9922L75.1562 56.8516V62.125C75.1562 62.3322 75.0739 62.5309 74.9274 62.6774C74.7809 62.8239 74.5822 62.9062 74.375 62.9062ZM48.1641 25.8359C47.8003 25.4722 47.5127 25.0396 47.3182 24.5634C47.1237 24.0871 47.0261 23.5769 47.0312 23.0625C47.0312 22.0265 47.4428 21.0329 48.1754 20.3004C48.9079 19.5678 49.9015 19.1562 50.9375 19.1562C51.9735 19.1562 52.9671 19.5678 53.6996 20.3004C54.4322 21.0329 54.8438 22.0265 54.8438 23.0625C54.8438 24.0985 54.4322 25.0921 53.6996 25.8246C52.9671 26.5572 51.9735 26.9688 50.9375 26.9688C50.4231 26.9739 49.9129 26.8763 49.4366 26.6818C48.9604 26.4873 48.5278 26.1997 48.1641 25.8359Z" fill="#555555"/>
</svg>
