<svg width="27" height="26" viewBox="0 0 27 26" fill="none" xmlns="http://www.w3.org/2000/svg">
<path d="M13.5 0C6.33187 0 0.5 5.83187 0.5 13C0.5 20.1681 6.33187 26 13.5 26C20.6681 26 26.5 20.1681 26.5 13C26.5 5.83187 20.6681 0 13.5 0ZM21 11.9231H15.4375L17.7425 9.61812L17.3925 9.21125C16.7665 8.56132 15.9891 8.07666 15.13 7.80059C14.2708 7.52452 13.3566 7.46565 12.4692 7.62924C11.5817 7.79283 10.7486 8.17379 10.0444 8.73805C9.34016 9.30232 8.78672 10.0323 8.43356 10.8627C8.0804 11.6932 7.93853 12.5982 8.02063 13.4968C8.10272 14.3955 8.40623 15.2598 8.90402 16.0125C9.40181 16.7652 10.0784 17.3828 10.8732 17.8102C11.668 18.2375 12.5563 18.4612 13.4587 18.4613C14.5881 18.4602 15.6895 18.1097 16.6118 17.4579C17.534 16.8061 18.232 15.8849 18.61 14.8206L18.9456 13.875L20.8312 14.5419L20.5 15.4875C20.0442 16.7774 19.2426 17.9172 18.1828 18.7823C17.123 19.6474 15.8458 20.2045 14.4907 20.3928C13.1357 20.581 11.7549 20.3931 10.4995 19.8497C9.24396 19.3063 8.16202 18.4281 7.37187 17.3113C6.58173 16.1945 6.11379 14.882 6.0192 13.5172C5.92462 12.1524 6.20702 10.7879 6.83555 9.57276C7.46408 8.35762 8.41454 7.33865 9.58306 6.62721C10.7516 5.91576 12.0932 5.53923 13.4613 5.53875C14.4709 5.53489 15.4707 5.7378 16.3989 6.13497C17.3272 6.53214 18.1643 7.11516 18.8587 7.84813L18.8937 7.88688L19.1631 8.19938L21 6.36312V11.9231Z" fill="#116FDC"/>
</svg>
