<svg width="42" height="42" viewBox="0 0 42 42" fill="none" xmlns="http://www.w3.org/2000/svg">
<g clip-path="url(#clip0)">
<path d="M30.4287 27.9176L41.3901 17.1365L41.5291 16.9781C41.7348 16.7019 41.834 16.3608 41.8084 16.0174C41.7829 15.674 41.6344 15.3513 41.3901 15.1085L30.4287 4.33233L30.2776 4.20314C29.4001 3.54502 28.1082 4.17877 28.1082 5.34633V10.5382L27.5597 10.5748C18.8749 11.2621 13.7879 16.7587 12.574 26.7281C12.418 28.0078 13.8854 28.8097 14.836 27.9615C18.3241 24.8463 21.9291 22.911 25.6707 22.1358C26.2703 22.0115 26.8724 21.9165 27.4793 21.8507L28.1082 21.7946V26.9036L28.1204 27.1035C28.2666 28.2077 29.6048 28.7268 30.4287 27.9176ZM27.7377 13.005L30.5457 12.8173V7.86183L38.9453 16.1201L30.5457 24.3832V19.1255L27.2404 19.4229H27.2209C23.0699 19.869 19.1528 21.5313 15.4551 24.3028C16.1815 21.039 17.4222 18.5844 19.0529 16.827C21.076 14.6454 23.9035 13.3096 27.7377 13.0025V13.005Z" fill="black"/>
<path d="M11.3438 6.375C9.72759 6.375 8.17762 7.01702 7.03482 8.15982C5.89202 9.30262 5.25 10.8526 5.25 12.4688V31.9688C5.25 33.5849 5.89202 35.1349 7.03482 36.2777C8.17762 37.4205 9.72759 38.0625 11.3438 38.0625H30.8438C32.4599 38.0625 34.0099 37.4205 35.1527 36.2777C36.2955 35.1349 36.9375 33.5849 36.9375 31.9688V29.5313C36.9375 29.208 36.8091 28.898 36.5806 28.6695C36.352 28.4409 36.042 28.3125 35.7188 28.3125C35.3955 28.3125 35.0855 28.4409 34.857 28.6695C34.6284 28.898 34.5 29.208 34.5 29.5313V31.9688C34.5 32.9385 34.1148 33.8685 33.4291 34.5541C32.7435 35.2398 31.8135 35.625 30.8438 35.625H11.3438C10.3741 35.625 9.44407 35.2398 8.75839 34.5541C8.07271 33.8685 7.6875 32.9385 7.6875 31.9688V12.4688C7.6875 11.4991 8.07271 10.5691 8.75839 9.88339C9.44407 9.19771 10.3741 8.8125 11.3438 8.8125H18.6563C18.9795 8.8125 19.2895 8.6841 19.5181 8.45554C19.7466 8.22698 19.875 7.91698 19.875 7.59375C19.875 7.27052 19.7466 6.96052 19.5181 6.73196C19.2895 6.5034 18.9795 6.375 18.6563 6.375H11.3438Z" fill="black"/>
</g>
<defs>
<clipPath id="clip0">
<rect width="42" height="42" fill="white"/>
</clipPath>
</defs>
</svg>
