<svg width="39" height="39" viewBox="0 0 39 39" fill="none" xmlns="http://www.w3.org/2000/svg">
<path d="M28.5345 34.1253C28.2746 34.1264 28.0183 34.0651 27.787 33.9466L19.4995 29.6078L11.212 33.9466C10.9429 34.0881 10.6395 34.1513 10.3362 34.1289C10.033 34.1066 9.74214 33.9996 9.49669 33.8202C9.25123 33.6407 9.06104 33.396 8.94774 33.1139C8.83444 32.8317 8.80256 32.5234 8.85574 32.2241L10.4807 23.0753L3.78574 16.5753C3.57686 16.3669 3.42868 16.1055 3.35711 15.8192C3.28554 15.5329 3.29328 15.2326 3.37949 14.9503C3.47368 14.6615 3.64693 14.4049 3.87959 14.2096C4.11224 14.0143 4.39499 13.8881 4.69574 13.8453L13.9582 12.4966L18.037 4.16033C18.1701 3.88559 18.3778 3.65389 18.6365 3.49176C18.8951 3.32964 19.1942 3.24365 19.4995 3.24365C19.8048 3.24365 20.1039 3.32964 20.3625 3.49176C20.6212 3.65389 20.8289 3.88559 20.962 4.16033L25.0895 12.4803L34.352 13.8291C34.6527 13.8718 34.9355 13.998 35.1681 14.1933C35.4008 14.3887 35.5741 14.6453 35.6682 14.9341C35.7545 15.2163 35.7622 15.5167 35.6906 15.803C35.619 16.0892 35.4709 16.3506 35.262 16.5591L28.567 23.0591L30.192 32.2078C30.25 32.5125 30.2196 32.8274 30.1045 33.1153C29.9893 33.4033 29.7941 33.6522 29.542 33.8328C29.2477 34.039 28.8934 34.1419 28.5345 34.1253Z" fill="#8DCACF"/>
</svg>
