<svg width="15" height="15" viewBox="0 0 15 15" fill="none" xmlns="http://www.w3.org/2000/svg">
<path d="M15 7.5C15 9.48912 14.2098 11.3968 12.8033 12.8033C11.3968 14.2098 9.48912 15 7.5 15C5.51088 15 3.60322 14.2098 2.1967 12.8033C0.790176 11.3968 0 9.48912 0 7.5C0 5.51088 0.790176 3.60322 2.1967 2.1967C3.60322 0.790176 5.51088 0 7.5 0C9.48912 0 11.3968 0.790176 12.8033 2.1967C14.2098 3.60322 15 5.51088 15 7.5ZM7.76906 5.53688C7.03969 5.84063 5.58094 6.46875 3.39469 7.42125C3.04031 7.56187 2.85375 7.70062 2.83687 7.83562C2.80875 8.06344 3.09469 8.15344 3.48375 8.27625L3.64781 8.32781C4.03031 8.4525 4.54594 8.59781 4.81312 8.60344C5.05687 8.60906 5.32781 8.50969 5.62687 8.30344C7.66969 6.92438 8.72438 6.22781 8.79 6.21281C8.83687 6.20156 8.9025 6.18844 8.94563 6.22781C8.98969 6.26625 8.985 6.34031 8.98031 6.36C8.95219 6.48094 7.83 7.52344 7.24969 8.06344C7.06875 8.23219 6.94031 8.35125 6.91406 8.37844C6.85626 8.43751 6.7975 8.49564 6.73781 8.55281C6.38156 8.89594 6.11531 9.15281 6.75187 9.57281C7.05844 9.77531 7.30406 9.94125 7.54875 10.1081C7.815 10.29 8.08125 10.4709 8.42625 10.6978C8.51344 10.7541 8.59781 10.815 8.67938 10.8731C8.98969 11.0944 9.27 11.2931 9.61406 11.2613C9.81469 11.2425 10.0219 11.055 10.1269 10.4925C10.3753 9.16406 10.8638 6.28687 10.9762 5.10094C10.9831 5.00235 10.979 4.90331 10.9641 4.80562C10.9552 4.7268 10.9171 4.65418 10.8572 4.60219C10.7719 4.5433 10.6702 4.5128 10.5666 4.515C10.2853 4.51969 9.85125 4.67063 7.76906 5.53688Z" fill="#90A4AE"/>
</svg>
