<svg width="28" height="32" viewBox="0 0 28 32" fill="none" xmlns="http://www.w3.org/2000/svg">
<path fill-rule="evenodd" clip-rule="evenodd" d="M18.7168 1.10238C18.5905 0.849439 18.4119 0.626271 18.1927 0.447705C17.9735 0.26914 17.7188 0.139267 17.4456 0.066717C17.1724 -0.00583269 16.8868 -0.0193972 16.6079 0.0269247C16.329 0.0732466 16.0632 0.178394 15.8281 0.335379C15.1408 0.793587 14.6049 1.44703 14.1905 2.08852C13.7642 2.74595 13.3876 3.50897 13.0549 4.31182C12.3895 5.91356 11.8317 7.83405 11.3815 9.75852C10.837 12.1103 10.4292 14.4917 10.1603 16.8906C9.3497 16.3681 8.69842 15.6327 8.27763 14.7649C7.62419 13.4102 7.48473 11.7089 7.48473 9.47762C7.48465 9.08366 7.36776 8.69857 7.14885 8.37103C6.92994 8.04349 6.61883 7.78821 6.25485 7.63746C5.89088 7.48671 5.49038 7.44726 5.10398 7.52409C4.71759 7.60093 4.36265 7.7906 4.08404 8.06913C2.78743 9.36294 1.75918 10.9001 1.05832 12.5925C0.357468 14.2848 -0.00218767 16.0989 1.00111e-05 17.9306C0.000175485 20.2238 0.565889 22.4817 1.64704 24.5041C2.7282 26.5265 4.29143 28.2511 6.19826 29.5251C8.1051 30.7991 10.2967 31.5832 12.5789 31.8079C14.8612 32.0326 17.1636 31.691 19.2823 30.8134C21.401 29.9358 23.2706 28.5492 24.7254 26.7765C26.1802 25.0038 27.1755 22.8996 27.6229 20.6504C28.0703 18.4012 27.9562 16.0764 27.2906 13.8819C26.6249 11.6873 25.4284 9.6908 23.8069 8.06913C22.6275 6.89173 21.8545 6.1068 21.1214 5.14656C20.3982 4.19827 19.679 3.02884 18.7168 1.10238ZM18.1689 26.1384C17.3331 26.9732 16.2687 27.5416 15.11 27.7718C13.9513 28.002 12.7505 27.8836 11.659 27.4317C10.5676 26.9798 9.63454 26.2145 8.97775 25.2326C8.32096 24.2508 7.96988 23.0963 7.96884 21.915C7.96884 21.915 9.71999 22.9111 12.9494 22.9111C12.9494 20.9189 13.9455 14.9422 15.4396 13.9461C16.4357 15.9383 17.0055 16.5221 18.1709 17.6895C18.7268 18.2437 19.1677 18.9023 19.4682 19.6275C19.7688 20.3526 19.923 21.13 19.9221 21.915C19.923 22.6999 19.7688 23.4773 19.4682 24.2025C19.1677 24.9276 18.7268 25.5862 18.1709 26.1404L18.1689 26.1384Z" fill="#0A929E"/>
</svg>
