<svg width="22" height="15" viewBox="0 0 22 15" fill="none" xmlns="http://www.w3.org/2000/svg">
<path d="M10.7452 0H10.864C11.961 0.00400391 17.5198 0.0440433 19.0186 0.447104C19.4717 0.570116 19.8846 0.809888 20.216 1.14246C20.5474 1.47503 20.7857 1.88876 20.9071 2.34229C21.0419 2.84945 21.1367 3.52078 21.2007 4.21345L21.2141 4.35226L21.2434 4.69926L21.2541 4.83806C21.3409 6.05792 21.3515 7.20037 21.3529 7.44995V7.55005C21.3515 7.80897 21.3395 9.02883 21.2434 10.2994L21.2328 10.4395L21.2207 10.5783C21.154 11.3418 21.0553 12.0998 20.9071 12.6577C20.7861 13.1114 20.5479 13.5253 20.2164 13.858C19.885 14.1906 19.4719 14.4303 19.0186 14.5529C17.4704 14.9693 11.586 14.9987 10.7705 15H10.581C10.1686 15 8.46294 14.992 6.67453 14.9306L6.44764 14.9226L6.33152 14.9173L6.1033 14.9079L5.87508 14.8986C4.39363 14.8332 2.98292 14.7277 2.33295 14.5516C1.87982 14.429 1.46685 14.1896 1.13541 13.8572C0.803964 13.5248 0.565682 13.1112 0.444435 12.6577C0.29629 12.1012 0.197526 11.3418 0.130795 10.5783L0.120117 10.4382L0.10944 10.2994C0.0435727 9.39505 0.0070734 8.4888 0 7.58208L0 7.41925C0.00266928 7.13231 0.0133464 6.14067 0.0854169 5.04627L0.0947593 4.9088L0.0987632 4.8394L0.10944 4.7006L0.138802 4.35359L0.152149 4.21479C0.216211 3.52211 0.310971 2.84945 0.445769 2.34363C0.566812 1.88991 0.805003 1.47599 1.13646 1.14336C1.46792 0.810731 1.881 0.571081 2.33428 0.448439C2.98425 0.274936 4.39496 0.168165 5.87641 0.101433L6.1033 0.0920902L6.33286 0.0840823L6.44764 0.0800784L6.67586 0.070736C7.94604 0.0294171 9.21675 0.00628093 10.4876 0.0013347H10.7452V0ZM8.54169 4.28419V10.7145L14.0898 7.50067L8.54169 4.28419Z" fill="#fff"/>
</svg>
