<svg width="230" height="131" viewBox="0 0 230 131" fill="none" xmlns="http://www.w3.org/2000/svg">
<g clip-path="url(#clip0_1770_17128)">
<path d="M124.809 69.2982V69.5826C124.809 72.1953 123.822 74.7008 122.065 76.548C120.309 78.3951 117.926 79.4326 115.443 79.4322H9.72006C7.23674 79.4319 4.85521 78.3941 3.09924 76.547C1.34328 74.6999 0.356682 72.1948 0.356445 69.5826V69.2982H124.809Z" fill="#F2F2F2"/>
<path d="M22.4687 22.4102C14.8286 24.3951 7.96998 18.2122 6.77246 12.4762L7.30439 12.3762C13.744 10.8789 20.9324 15.7209 22.4687 22.4102Z" fill="#89A8CC"/>
<path d="M207.145 128.637C204.935 127.633 204.433 123.977 206.283 122.357C208.132 120.736 211.46 121.917 211.999 124.385L209.937 108.875C209.463 105.309 209.084 101.323 211.133 98.4386C213.051 95.7376 216.799 94.8722 219.808 96.0349C222.816 97.1976 225.04 100.098 225.983 103.32C226.927 106.543 226.704 110.044 225.88 113.303C225.056 116.561 223.657 119.621 222.242 122.646C220.791 125.746 219.032 129.105 215.932 130.246C212.97 131.336 207.145 128.637 207.145 128.637Z" fill="#F2F2F2"/>
<path d="M216.828 95.7407C218.183 100.188 218.827 104.84 218.737 109.508C218.651 114.156 217.858 118.759 216.386 123.143C215.548 125.629 214.486 128.026 213.215 130.301C213.16 130.408 213.147 130.533 213.178 130.65C213.209 130.767 213.283 130.867 213.383 130.929C213.482 130.99 213.601 131.008 213.713 130.979C213.826 130.95 213.923 130.877 213.985 130.774C216.267 126.672 217.888 122.202 218.783 117.544C219.692 112.864 219.874 108.06 219.322 103.319C219.012 100.661 218.464 98.0409 217.688 95.4914C217.513 94.9193 216.652 95.164 216.828 95.7407Z" fill="white"/>
<path d="M205.835 122.927L212.891 130.727C213.287 131.165 213.917 130.501 213.521 130.064L206.466 122.264C206.069 121.826 205.44 122.49 205.835 122.927Z" fill="white"/>
<path d="M199.841 93.4783C199.59 93.4787 199.347 93.3837 199.157 93.2107C194.8 90.2266 190.922 86.5328 187.668 82.2676C187.469 82.0688 187.351 81.7961 187.341 81.5076C187.331 81.2191 187.428 80.9378 187.612 80.7239L189.751 78.2395L190.192 78.6592L188.053 81.1436C187.972 81.238 187.929 81.3624 187.935 81.4896C187.941 81.6168 187.995 81.7362 188.085 81.8217L188.116 81.8564C191.338 86.0835 195.179 89.7432 199.497 92.6975L199.536 92.7288C199.625 92.8143 199.744 92.8587 199.865 92.8525C199.985 92.8462 200.099 92.7896 200.18 92.6952L204.353 87.8477C204.431 87.7576 204.473 87.6398 204.471 87.5182C204.47 87.3966 204.424 87.2802 204.344 87.1926C203.377 86.6384 202.433 86.0342 201.539 85.3963L201.872 84.8789C202.762 85.5131 203.7 86.1134 204.663 86.6633L204.72 86.7063C204.822 86.8038 204.906 86.9214 204.965 87.0526C205.024 87.1838 205.058 87.3259 205.064 87.4709C205.071 87.6158 205.051 87.7608 205.004 87.8975C204.958 88.0341 204.886 88.1599 204.794 88.2674L200.621 93.115C200.528 93.2229 200.417 93.3104 200.292 93.3725C200.167 93.4347 200.032 93.4701 199.894 93.4769C199.876 93.4778 199.859 93.4783 199.841 93.4783Z" fill="#3F3D56"/>
<path d="M195.241 85.3178C196.552 86.565 197.898 87.2495 198.248 86.8432C198.294 86.7743 198.323 86.6945 198.332 86.6111C198.341 86.5277 198.331 86.4431 198.302 86.3649C198.16 85.9048 197.932 85.4788 197.633 85.1115C196.468 84.2393 195.336 83.2984 194.237 82.2888C193.892 82.17 193.627 82.1731 193.5 82.3232C193.481 82.3446 193.466 82.3689 193.455 82.3951C193.235 82.8671 193.999 84.1331 195.241 85.3178Z" fill="#89A8CC"/>
<path d="M187.342 75.2681C187.353 75.5527 187.471 75.8212 187.669 76.0152C189.43 78.3037 191.365 80.4373 193.455 82.3951C194.985 83.8304 196.604 85.1567 198.302 86.3649C198.584 86.5681 198.869 86.765 199.158 86.9588C199.347 87.133 199.59 87.2286 199.841 87.2276C199.859 87.2276 199.877 87.2245 199.895 87.2245C200.033 87.2178 200.168 87.1823 200.293 87.12C200.418 87.0578 200.53 86.97 200.623 86.8619L204.795 82.0168C204.982 81.7992 205.079 81.5123 205.065 81.2192C205.051 80.9261 204.927 80.6508 204.72 80.4539L204.664 80.4101C200.109 77.8221 196.216 74.1149 193.315 69.604L193.271 69.5478C193.064 69.351 192.791 69.2487 192.512 69.2633C192.234 69.278 191.972 69.4084 191.785 69.6259L187.613 74.471C187.52 74.5786 187.448 74.7043 187.402 74.8411C187.355 74.9779 187.335 75.123 187.342 75.2681ZM187.937 75.2368C187.933 75.1743 187.942 75.1118 187.962 75.0528C187.982 74.9938 188.013 74.9395 188.052 74.893L192.225 70.0448C192.265 69.9978 192.314 69.9597 192.369 69.9329C192.423 69.906 192.482 69.8909 192.543 69.8885C192.652 69.8815 192.76 69.9171 192.846 69.9885C195.789 74.5554 199.732 78.3118 204.343 80.9415C204.423 81.0286 204.469 81.1445 204.471 81.2657C204.474 81.387 204.432 81.5046 204.355 81.5948L200.18 86.4431C200.14 86.4903 200.092 86.5285 200.038 86.5554C199.983 86.5822 199.925 86.5972 199.865 86.5993C199.744 86.6055 199.626 86.5618 199.535 86.4775L199.496 86.4462C198.866 86.0211 198.245 85.5762 197.633 85.1115C196.468 84.2393 195.336 83.2984 194.236 82.2888C192.016 80.2515 189.968 78.0154 188.115 75.6057L188.085 75.5713C187.996 75.4845 187.943 75.3645 187.937 75.2368Z" fill="#3F3D56"/>
<path d="M198.248 80.5926C198.597 80.187 197.817 78.8457 196.506 77.5969C195.195 76.348 193.849 75.6645 193.5 76.0701C193.151 76.4757 193.931 77.817 195.242 79.0658C196.553 80.3147 197.899 80.9982 198.248 80.5926Z" fill="#89A8CC"/>
<path d="M172.03 127.082L168.387 127.082L166.654 112.3L172.031 112.3L172.03 127.082Z" fill="#FFB8B8"/>
<path d="M172.96 130.797L161.212 130.796V130.64C161.212 130.008 161.331 129.383 161.56 128.799C161.79 128.216 162.127 127.686 162.552 127.239C162.976 126.792 163.48 126.438 164.035 126.197C164.59 125.955 165.184 125.83 165.785 125.83H165.785L172.96 125.831L172.96 130.797Z" fill="#2F2E41"/>
<path d="M182.728 127.082L179.085 127.082L177.352 112.3L182.729 112.3L182.728 127.082Z" fill="#FFB8B8"/>
<path d="M183.657 130.797L171.91 130.796V130.64C171.91 130.008 172.028 129.383 172.258 128.799C172.488 128.216 172.825 127.686 173.249 127.239C173.674 126.792 174.178 126.438 174.733 126.197C175.287 125.955 175.882 125.83 176.482 125.83H176.483L183.657 125.831L183.657 130.797Z" fill="#2F2E41"/>
<path d="M185.173 67.3443L184.303 121.639C184.301 121.811 184.264 121.98 184.196 122.137C184.129 122.293 184.031 122.433 183.909 122.548C183.787 122.663 183.645 122.75 183.489 122.804C183.334 122.858 183.17 122.878 183.007 122.863L178.744 122.455C178.464 122.428 178.203 122.298 178.006 122.088C177.808 121.878 177.688 121.601 177.667 121.306L175.171 87.4393C175.165 87.3597 175.13 87.2855 175.074 87.2319C175.018 87.1783 174.944 87.1493 174.869 87.1509C174.793 87.1524 174.72 87.1845 174.666 87.2404C174.612 87.2963 174.58 87.3719 174.578 87.4516L173.33 122.094C173.318 122.417 173.188 122.723 172.967 122.948C172.745 123.172 172.45 123.297 172.142 123.297H167.57C167.267 123.297 166.976 123.176 166.756 122.958C166.535 122.739 166.402 122.441 166.384 122.123L163.183 67.0317L182.202 62.0303L185.173 67.3443Z" fill="#2F2E41"/>
<path d="M171.379 16.3625C175.41 16.3625 178.677 12.9252 178.677 8.6851C178.677 4.44497 175.41 1.00766 171.379 1.00766C167.348 1.00766 164.08 4.44497 164.08 8.6851C164.08 12.9252 167.348 16.3625 171.379 16.3625Z" fill="#FFB8B8"/>
<path d="M162.532 68.9594C162.405 68.8309 162.304 68.6773 162.235 68.5075C162.165 68.3376 162.128 68.155 162.126 67.97L161.634 30.9466C161.604 29.0632 162.143 27.2185 163.173 25.6773C164.202 24.1361 165.669 22.9778 167.364 22.3688C168.048 19.1055 171.687 18.6968 173.809 18.7456C174.338 18.7576 174.857 18.9038 175.322 19.1716C175.786 19.4395 176.182 19.8212 176.476 20.2845L177.997 22.6841L181.349 24.751C182.901 25.7035 184.124 27.1497 184.844 28.881C185.563 30.6123 185.741 32.5392 185.352 34.3838L184.836 36.8531C183.019 45.5928 183.192 54.6606 185.341 63.3167L186.379 67.4816C186.433 67.6985 186.437 67.9259 186.391 68.1448C186.345 68.3637 186.249 68.5677 186.112 68.7398C185.976 68.912 185.802 69.0473 185.606 69.1344C185.409 69.2216 185.196 69.2581 184.983 69.2408L183.777 69.1432C183.464 69.1182 183.169 68.978 182.945 68.7472C182.72 68.5163 182.58 68.2096 182.549 67.8809L182.349 65.7813C182.346 65.7428 182.329 65.707 182.301 65.681C182.274 65.655 182.238 65.6406 182.202 65.6406C182.165 65.6406 182.129 65.655 182.102 65.681C182.075 65.707 182.057 65.7428 182.054 65.7813L181.861 67.814C181.828 68.1575 181.676 68.4763 181.435 68.7098C181.193 68.9433 180.879 69.0753 180.551 69.0806L163.484 69.3568C163.477 69.3568 163.47 69.3571 163.463 69.3571C163.115 69.3579 162.781 69.215 162.532 68.9594Z" fill="#3F3D56"/>
<path d="M171.95 13.1105C171.979 14.1958 172.696 14.8237 173.575 15.3922C174.455 15.9607 175.483 16.2071 176.49 16.4449C176.625 16.5205 176.777 16.5581 176.93 16.5541C177.083 16.5502 177.232 16.5048 177.364 16.4223C177.495 16.3399 177.605 16.2231 177.681 16.0834C177.757 15.9436 177.798 15.7856 177.799 15.6245L178.723 11.9287C179.049 10.7481 179.287 9.5423 179.434 8.32241C179.656 5.97515 179.127 3.4501 177.57 1.75299C176.012 0.0558665 173.311 -0.547008 171.445 0.760594C169.23 -2.21516 159.105 4.3594 161.603 6.42866C162.047 6.79678 162.726 6.33098 163.29 6.28583C163.854 6.24068 164.486 6.34502 164.844 6.80541C165.312 7.40689 165.109 8.30286 165.302 9.05318C165.381 9.31718 165.51 9.56196 165.68 9.7734C165.85 9.98484 166.059 10.1588 166.293 10.2851C166.527 10.4115 166.783 10.4878 167.046 10.5096C167.308 10.5315 167.572 10.4984 167.823 10.4124C168.289 10.1707 168.727 9.8741 169.13 9.52823C169.563 9.22515 170.109 9.00121 170.596 9.19236C171.238 9.44433 171.466 10.2709 171.524 10.989C171.622 11.7051 171.764 12.4138 171.95 13.1105Z" fill="#2F2E41"/>
<path opacity="0.2" d="M170.245 33.6868L169.056 49.0035L162.816 64.9454L172.028 49.3161L170.245 33.6868Z" fill="black"/>
<path d="M161.357 70.8822C161.697 70.5944 161.974 70.2317 162.167 69.8194C162.36 69.4071 162.464 68.9553 162.473 68.4959C162.482 68.0365 162.395 67.5806 162.219 67.1603C162.042 66.74 161.78 66.3655 161.451 66.0633L165.427 55.7054L160.018 56.8544L157.072 66.5143C156.625 67.1295 156.409 67.8954 156.464 68.6669C156.519 69.4384 156.842 70.1619 157.37 70.7003C157.898 71.2387 158.596 71.5546 159.33 71.5881C160.065 71.6216 160.786 71.3704 161.357 70.8822Z" fill="#FFB8B8"/>
<path d="M161.067 66.314L158.005 65.1532C157.69 65.0318 157.429 64.7906 157.274 64.4771C157.12 64.1635 157.082 63.8004 157.169 63.4591L162.22 44.0102L162.99 26.4327C163.013 25.9021 163.136 25.3817 163.353 24.9017C163.569 24.4217 163.873 23.9917 164.249 23.6367C164.624 23.2817 165.063 23.0087 165.54 22.8337C166.017 22.6587 166.522 22.5851 167.026 22.6172C167.53 22.6494 168.023 22.7866 168.476 23.0209C168.929 23.2552 169.333 23.5819 169.665 23.9821C169.997 24.3822 170.25 24.8478 170.41 25.3518C170.569 25.8557 170.632 26.388 170.594 26.9176L169.218 46.1646L162.783 65.4569C162.685 65.7483 162.499 65.998 162.253 66.1674C162.008 66.3368 161.716 66.4166 161.423 66.3944C161.301 66.3847 161.182 66.3576 161.067 66.314Z" fill="#3F3D56"/>
<path d="M192.622 71.8981C192.831 71.4945 192.953 71.0477 192.98 70.589C193.007 70.1304 192.938 69.6711 192.778 69.2435C192.618 68.8159 192.371 68.4303 192.054 68.1141C191.737 67.7978 191.358 67.5585 190.944 67.413L190.819 56.2435L186.248 59.496L187.068 69.6041C186.881 70.3525 186.963 71.1468 187.296 71.8365C187.629 72.5262 188.191 73.0633 188.876 73.3461C189.561 73.6288 190.32 73.6376 191.01 73.3707C191.701 73.1039 192.274 72.5799 192.622 71.8981Z" fill="#FFB8B8"/>
<path d="M190.681 67.7999L187.431 67.9696C187.095 67.9854 186.766 67.8685 186.508 67.6419C186.251 67.4153 186.083 67.0955 186.038 66.7453L183.576 46.7508L177.848 30.2182C177.675 29.7192 177.598 29.1891 177.622 28.6586C177.645 28.128 177.769 27.6077 177.986 27.1279C178.202 26.6481 178.507 26.2184 178.883 25.8637C179.259 25.509 179.698 25.2365 180.175 25.0619C180.652 24.8873 181.157 24.8141 181.661 24.8467C182.165 24.8793 182.657 25.0169 183.11 25.2516C183.563 25.4863 183.967 25.8133 184.299 26.2138C184.631 26.6142 184.883 27.08 185.042 27.584L190.823 45.9025L191.95 66.3137C191.967 66.6223 191.887 66.928 191.722 67.1839C191.557 67.4398 191.317 67.6317 191.039 67.73C190.923 67.7702 190.803 67.7937 190.681 67.7999Z" fill="#3F3D56"/>
<path d="M229.703 130.955H116.483C116.404 130.955 116.328 130.922 116.273 130.864C116.217 130.805 116.186 130.726 116.186 130.643C116.186 130.56 116.217 130.48 116.273 130.422C116.328 130.363 116.404 130.33 116.483 130.33H229.703C229.782 130.33 229.857 130.363 229.913 130.422C229.969 130.48 230 130.56 230 130.643C230 130.726 229.969 130.805 229.913 130.864C229.857 130.922 229.782 130.955 229.703 130.955Z" fill="#3F3D56"/>
<path d="M96.0492 63.4684C94.3424 63.4684 92.9852 62.9345 92.0146 61.8814C89.821 59.501 89.9585 54.9128 90.0689 51.226C90.1009 50.1535 90.1313 49.1403 90.1007 48.2917L90.1004 48.2789C90.1082 46.6208 90.7376 45.0329 91.8519 43.8602C92.9662 42.6874 94.4755 42.0245 96.0517 42.0155H110.201C111.906 42.0155 113.262 42.5487 114.232 43.6004C116.425 45.9789 116.289 50.566 116.18 54.2519C116.148 55.3267 116.118 56.342 116.15 57.1921C116.144 58.8527 115.515 60.4437 114.4 61.6191C113.285 62.7945 111.774 63.4592 110.196 63.4684H96.0492ZM90.6948 48.2744C90.7258 49.1433 90.6953 50.1646 90.6628 51.2457C90.556 54.8145 90.423 59.256 92.4413 61.4462C93.3077 62.3863 94.4878 62.8433 96.0491 62.8433H110.195C111.614 62.8354 112.974 62.2386 113.977 61.1826C114.981 60.1265 115.548 58.6966 115.556 57.2033C115.524 56.3443 115.554 55.3184 115.586 54.2323C115.692 50.6644 115.823 46.224 113.805 44.0357C112.94 43.0971 111.761 42.6407 110.202 42.6407H96.0526C94.6344 42.649 93.2765 43.2452 92.2735 44.2999C91.2705 45.3545 90.7032 46.7826 90.6948 48.2744Z" fill="#3F3D56"/>
<path d="M19.3426 22.9855C16.8615 22.9696 14.4344 22.2219 12.3372 20.8271C9.26488 18.819 6.94509 15.6027 6.28314 12.434L6.2168 12.1164L7.04706 11.9601C13.5827 10.4428 20.9748 15.3323 22.5585 22.2243L22.6279 22.5265L22.341 22.6011C21.36 22.8565 20.3532 22.9856 19.3426 22.9855ZM6.93552 12.6162C7.64865 15.5231 9.81297 18.4411 12.6509 20.2961C15.3948 22.1433 18.72 22.7792 21.9064 22.0662C20.2495 15.6452 13.3116 11.1394 7.16959 12.572L6.93552 12.6162Z" fill="#3F3D56"/>
<path d="M11.0985 58.5084C9.15421 58.5084 7.57466 57.5932 6.64732 55.9238C6.12755 54.9525 5.85433 53.8568 5.854 52.7422C5.85367 51.6276 6.12624 50.5318 6.64543 49.5602C7.5876 47.8621 9.20482 46.941 11.2021 46.9732H30.0554C32.0459 46.9465 33.6643 47.8635 34.6071 49.5635C35.1263 50.5349 35.399 51.6305 35.3989 52.7449C35.3988 53.8593 35.1259 54.9549 34.6065 55.9262C33.6642 57.6222 32.0462 58.5281 30.0509 58.5076H11.1973C11.1642 58.5081 11.1313 58.5083 11.0985 58.5084ZM11.1095 47.5976C9.3756 47.5976 7.97502 48.4041 7.15872 49.8753C6.69099 50.7507 6.44545 51.7379 6.44576 52.7421C6.44608 53.7462 6.69223 54.7333 7.16051 55.6083C7.99056 57.1028 9.41983 57.9118 11.1928 57.8825H30.0554C31.8302 57.9122 33.2639 57.1036 34.0934 55.6107C34.5613 54.7357 34.8071 53.7486 34.8072 52.7447C34.8072 51.7407 34.5615 50.7536 34.0937 49.8785C33.2637 48.3819 31.8297 47.576 30.0596 47.5984H11.1959C11.167 47.5979 11.1381 47.5976 11.1095 47.5976Z" fill="#3F3D56"/>
<path d="M100.888 49.4489H94.9443C94.5503 49.4489 94.1723 49.2843 93.8937 48.9912C93.615 48.698 93.4585 48.3005 93.4585 47.886C93.4585 47.4715 93.615 47.0739 93.8937 46.7808C94.1723 46.4877 94.5503 46.3231 94.9443 46.3231H100.888C101.282 46.3231 101.66 46.4877 101.938 46.7808C102.217 47.0739 102.373 47.4715 102.373 47.886C102.373 48.3005 102.217 48.698 101.938 48.9912C101.66 49.2843 101.282 49.4489 100.888 49.4489Z" fill="#89A8CC"/>
<path d="M100.888 54.4503H94.9443C94.5503 54.4503 94.1723 54.2856 93.8937 53.9925C93.615 53.6994 93.4585 53.3019 93.4585 52.8874C93.4585 52.4728 93.615 52.0753 93.8937 51.7822C94.1723 51.4891 94.5503 51.3244 94.9443 51.3244H100.888C101.282 51.3244 101.66 51.4891 101.938 51.7822C102.217 52.0753 102.373 52.4728 102.373 52.8874C102.373 53.3019 102.217 53.6994 101.938 53.9925C101.66 54.2856 101.282 54.4503 100.888 54.4503Z" fill="#89A8CC"/>
<path d="M100.888 59.4517H94.9443C94.5503 59.4517 94.1723 59.287 93.8937 58.9939C93.615 58.7008 93.4585 58.3033 93.4585 57.8887C93.4585 57.4742 93.615 57.0767 93.8937 56.7836C94.1723 56.4905 94.5503 56.3258 94.9443 56.3258H100.888C101.282 56.3258 101.66 56.4905 101.938 56.7836C102.217 57.0767 102.373 57.4742 102.373 57.8887C102.373 58.3033 102.217 58.7008 101.938 58.9939C101.66 59.287 101.282 59.4517 100.888 59.4517Z" fill="#89A8CC"/>
<path d="M111.289 49.4489H105.345C104.951 49.4489 104.573 49.2843 104.295 48.9912C104.016 48.698 103.859 48.3005 103.859 47.886C103.859 47.4715 104.016 47.0739 104.295 46.7808C104.573 46.4877 104.951 46.3231 105.345 46.3231H111.289C111.683 46.3231 112.061 46.4877 112.339 46.7808C112.618 47.0739 112.774 47.4715 112.774 47.886C112.774 48.3005 112.618 48.698 112.339 48.9912C112.061 49.2843 111.683 49.4489 111.289 49.4489Z" fill="#89A8CC"/>
<path d="M111.289 54.4503H105.345C104.951 54.4503 104.573 54.2856 104.295 53.9925C104.016 53.6994 103.859 53.3019 103.859 52.8874C103.859 52.4728 104.016 52.0753 104.295 51.7822C104.573 51.4891 104.951 51.3244 105.345 51.3244H111.289C111.683 51.3244 112.061 51.4891 112.339 51.7822C112.618 52.0753 112.774 52.4728 112.774 52.8874C112.774 53.3019 112.618 53.6994 112.339 53.9925C112.061 54.2856 111.683 54.4503 111.289 54.4503Z" fill="#89A8CC"/>
<path d="M111.289 59.4517H105.345C104.951 59.4517 104.573 59.287 104.295 58.9939C104.016 58.7008 103.859 58.3033 103.859 57.8887C103.859 57.4742 104.016 57.0767 104.295 56.7836C104.573 56.4905 104.951 56.3258 105.345 56.3258H111.289C111.683 56.3258 112.061 56.4905 112.339 56.7836C112.618 57.0767 112.774 57.4742 112.774 57.8887C112.774 58.3033 112.618 58.7008 112.339 58.9939C112.061 59.287 111.683 59.4517 111.289 59.4517Z" fill="#89A8CC"/>
<path d="M124.809 27.2368H0.356445V27.862H124.809V27.2368Z" fill="#3F3D56"/>
<path d="M115.003 79.6135H9.80646C7.20653 79.6104 4.71392 78.5226 2.87549 76.5888C1.03706 74.655 0.00293688 72.033 0 69.2981V15.5333C0.00293688 12.7985 1.03706 10.1765 2.87549 8.24266C4.71392 6.30883 7.20653 5.22105 9.80646 5.21796H115.003C117.603 5.22105 120.096 6.30883 121.934 8.24266C123.772 10.1765 124.807 12.7985 124.81 15.5333V69.2981C124.807 72.033 123.772 74.655 121.934 76.5888C120.096 78.5226 117.603 79.6104 115.003 79.6135ZM9.80646 5.84313C7.3641 5.84605 5.02257 6.86792 3.29556 8.68455C1.56856 10.5012 0.597106 12.9642 0.594331 15.5333V69.2981C0.597107 71.8672 1.56856 74.3303 3.29557 76.1469C5.02258 77.9635 7.3641 78.9854 9.80646 78.9883H115.003C117.445 78.9854 119.787 77.9636 121.514 76.1469C123.241 74.3303 124.212 71.8672 124.215 69.2981V15.5333C124.212 12.9642 123.241 10.5012 121.514 8.68454C119.787 6.86791 117.445 5.84604 115.003 5.84313H9.80646Z" fill="#3F3D56"/>
</g>
<defs>
<clipPath id="clip0_1770_17128">
<rect width="230" height="131" fill="white"/>
</clipPath>
</defs>
</svg>
