<svg width="225" height="120" viewBox="0 0 225 120" fill="none" xmlns="http://www.w3.org/2000/svg">
<g clip-path="url(#clip0_1770_17040)">
<g opacity="0.1">
<path d="M165.427 118.23C167.829 118.23 169.775 115.89 169.775 113.003C169.775 110.116 167.829 107.776 165.427 107.776C163.025 107.776 161.079 110.116 161.079 113.003C161.079 115.89 163.025 118.23 165.427 118.23Z" fill="#3F3D56"/>
<path d="M168.868 90.6423C169.477 89.6712 169.793 88.5683 169.784 87.4476C169.784 84.5549 167.837 82.2208 165.435 82.2208C163.034 82.2208 161.089 84.5603 161.089 87.4476C161.076 88.5677 161.39 89.6705 161.996 90.6423C161.401 91.618 161.089 92.7177 161.089 93.836C161.089 94.9544 161.401 96.0541 161.996 97.0298C161.401 98.0059 161.089 99.1058 161.089 100.224C161.089 101.343 161.401 102.443 161.996 103.419C161.39 104.391 161.076 105.494 161.089 106.614C161.089 109.507 163.036 111.841 165.435 111.841C167.835 111.841 169.784 109.501 169.784 106.614C169.796 105.494 169.483 104.391 168.876 103.419C169.471 102.443 169.784 101.343 169.784 100.224C169.784 99.1058 169.471 98.0059 168.876 97.0298C169.471 96.0541 169.784 94.9544 169.784 93.836C169.784 92.7177 169.471 91.618 168.876 90.6423H168.868Z" fill="#3F3D56"/>
<path d="M165.427 86.2869C167.829 86.2869 169.775 83.9468 169.775 81.0601C169.775 78.1734 167.829 75.8333 165.427 75.8333C163.025 75.8333 161.079 78.1734 161.079 81.0601C161.079 83.9468 163.025 86.2869 165.427 86.2869Z" fill="#3F3D56"/>
<path d="M165.427 79.8976C167.829 79.8976 169.775 77.5574 169.775 74.6707C169.775 71.784 167.829 69.4439 165.427 69.4439C163.025 69.4439 161.079 71.784 161.079 74.6707C161.079 77.5574 163.025 79.8976 165.427 79.8976Z" fill="#3F3D56"/>
<path d="M181.703 30.9505C182.296 30.2557 182.837 29.5241 183.321 28.7611L171.904 27.0381L184.26 27.1231C185.444 24.7544 186.09 22.1888 186.157 19.5832C186.225 16.9775 185.713 14.3865 184.654 11.9687L168.075 19.8623L183.366 9.54604C181.933 7.27468 180.006 5.29853 177.706 3.74062C175.405 2.1827 172.78 1.07635 169.994 0.490449C167.208 -0.0954548 164.321 -0.148377 161.511 0.334979C158.702 0.818335 156.031 1.82762 153.665 3.30001C151.298 4.7724 149.287 6.67638 147.757 8.89343C146.226 11.1105 145.209 13.5931 144.768 16.1869C144.328 18.7806 144.473 21.4299 145.195 23.9698C145.917 26.5098 147.201 28.886 148.967 30.9505C148.041 32.0315 147.245 33.2007 146.593 34.4381L161.421 41.5145L145.61 36.633C144.498 39.6461 144.221 42.8665 144.805 46.0026C145.39 49.1387 146.817 52.0914 148.957 54.5933C146.541 57.4145 145.038 60.8032 144.619 64.372C144.201 67.9408 144.885 71.5456 146.593 74.7743C148.3 78.003 150.962 80.7252 154.275 82.6298C157.587 84.5344 161.417 85.5444 165.325 85.5444C169.233 85.5444 173.062 84.5344 176.375 82.6298C179.687 80.7252 182.349 78.003 184.057 74.7743C185.764 71.5456 186.448 67.9408 186.03 64.372C185.612 60.8032 184.109 57.4145 181.693 54.5933C184.58 51.2221 186.15 47.0574 186.15 42.7683C186.15 38.4791 184.58 34.3145 181.693 30.9433L181.703 30.9505Z" fill="#89A8CC"/>
<path opacity="0.1" d="M144.51 42.7764C144.503 47.0664 146.073 51.2329 148.966 54.6005C146.55 57.4218 145.047 60.8105 144.629 64.3793C144.211 67.9481 144.895 71.5529 146.602 74.7815C148.31 78.0102 150.972 80.7325 154.285 82.6371C157.597 84.5416 161.426 85.5517 165.335 85.5517C169.243 85.5517 173.072 84.5416 176.385 82.6371C179.697 80.7325 182.359 78.0102 184.067 74.7815C185.774 71.5529 186.458 67.9481 186.04 64.3793C185.622 60.8105 184.119 57.4218 181.703 54.6005C184.494 51.3462 144.51 40.6286 144.51 42.7764Z" fill="black"/>
</g>
<g opacity="0.1">
<path d="M43.4665 112.64C44.9276 112.64 46.1121 111.215 46.1121 109.458C46.1121 107.7 44.9276 106.276 43.4665 106.276C42.0053 106.276 40.8208 107.7 40.8208 109.458C40.8208 111.215 42.0053 112.64 43.4665 112.64Z" fill="#3F3D56"/>
<path d="M45.571 95.8456C45.9403 95.2538 46.1312 94.5823 46.1241 93.9003C46.1241 92.1429 44.943 90.7182 43.4765 90.7182C42.0099 90.7182 40.8308 92.1429 40.8308 93.9003C40.8231 94.5822 41.0134 95.2537 41.382 95.8456C41.0206 96.44 40.8309 97.1094 40.8309 97.7901C40.8309 98.4708 41.0206 99.1402 41.382 99.7346C41.0206 100.329 40.8309 100.998 40.8309 101.679C40.8309 102.36 41.0206 103.029 41.382 103.623C41.0131 104.215 40.8228 104.886 40.8308 105.567C40.8308 107.326 42.0119 108.751 43.4765 108.751C44.941 108.751 46.1241 107.326 46.1241 105.567C46.1315 104.885 45.9406 104.215 45.571 103.623C45.9334 103.029 46.1237 102.36 46.1237 101.679C46.1237 100.998 45.9334 100.329 45.571 99.7346C45.9334 99.1405 46.1237 98.471 46.1237 97.7901C46.1237 97.1092 45.9334 96.4396 45.571 95.8456Z" fill="#3F3D56"/>
<path d="M43.4665 93.1933C44.9276 93.1933 46.1121 91.7687 46.1121 90.0113C46.1121 88.2539 44.9276 86.8293 43.4665 86.8293C42.0053 86.8293 40.8208 88.2539 40.8208 90.0113C40.8208 91.7687 42.0053 93.1933 43.4665 93.1933Z" fill="#3F3D56"/>
<path d="M43.4665 89.3044C44.9276 89.3044 46.1121 87.8798 46.1121 86.1224C46.1121 84.365 44.9276 82.9404 43.4665 82.9404C42.0053 82.9404 40.8208 84.365 40.8208 86.1224C40.8208 87.8798 42.0053 89.3044 43.4665 89.3044Z" fill="#3F3D56"/>
<path d="M33.5629 59.5055C33.2016 59.0829 32.8727 58.6376 32.5787 58.1731L39.5334 57.1244L32.0117 57.1769C31.2917 55.7356 30.8988 54.1747 30.8572 52.5895C30.8156 51.0042 31.126 49.4277 31.7696 47.9563L41.8543 52.7672L32.5492 46.4755C33.4219 45.0937 34.5949 43.8917 35.9952 42.9441C37.3955 41.9965 38.9931 41.3238 40.6887 40.9676C42.3842 40.6115 44.1414 40.5796 45.8509 40.874C47.5605 41.1684 49.1857 41.7827 50.6257 42.6788C52.0656 43.5748 53.2894 44.7334 54.2208 46.0825C55.1523 47.4316 55.7716 48.9423 56.04 50.5206C56.3085 52.0989 56.2205 53.7111 55.7815 55.2568C55.3425 56.8025 54.5618 58.2488 53.4881 59.5055C54.0514 60.1627 54.5358 60.8737 54.933 61.6263L45.9055 65.9365L55.5314 62.9696C56.2075 64.8045 56.3747 66.7654 56.0179 68.6746C55.6611 70.5838 54.7916 72.3812 53.4881 73.9042C54.9588 75.6216 55.8737 77.6845 56.128 79.857C56.3824 82.0294 55.9661 84.2238 54.9267 86.1892C53.8872 88.1546 52.2666 89.8117 50.2501 90.9711C48.2336 92.1304 45.9026 92.7453 43.5236 92.7453C41.1445 92.7453 38.8135 92.1304 36.797 90.9711C34.7805 89.8117 33.1599 88.1546 32.1205 86.1892C31.081 84.2238 30.6647 82.0294 30.9191 79.857C31.1735 77.6845 32.0883 75.6216 33.559 73.9042C31.8016 71.8515 30.8462 69.3161 30.8462 66.7048C30.8462 64.0936 31.8016 61.5581 33.559 59.5055H33.5629Z" fill="#89A8CC"/>
<path opacity="0.1" d="M56.2005 66.7048C56.2047 69.3167 55.2489 71.8533 53.4879 73.9041C54.9586 75.6216 55.8735 77.6845 56.1278 79.857C56.3822 82.0294 55.9659 84.2238 54.9265 86.1892C53.887 88.1546 52.2664 89.8117 50.2499 90.9711C48.2334 92.1304 45.9024 92.7452 43.5234 92.7452C41.1444 92.7452 38.8133 92.1304 36.7968 90.9711C34.7803 89.8117 33.1597 88.1546 32.1203 86.1892C31.0808 84.2238 30.6645 82.0294 30.9189 79.857C31.1733 77.6845 32.0881 75.6216 33.5588 73.9041C31.86 71.9316 56.2005 65.3977 56.2005 66.7048Z" fill="black"/>
</g>
<g opacity="0.1">
<path d="M103.113 115.41C105.068 115.41 106.654 113.503 106.654 111.152C106.654 108.8 105.068 106.894 103.113 106.894C101.157 106.894 99.5713 108.8 99.5713 111.152C99.5713 113.503 101.157 115.41 103.113 115.41Z" fill="#3F3D56"/>
<path d="M105.916 92.9348C106.409 92.1426 106.664 91.244 106.654 90.3313C106.654 87.981 105.079 86.0735 103.111 86.0735C101.142 86.0735 99.5672 87.981 99.5672 90.3313C99.5568 91.2442 99.8123 92.1431 100.307 92.9348C99.8221 93.7298 99.5673 94.6259 99.5673 95.5373C99.5673 96.4487 99.8221 97.3449 100.307 98.1399C99.8221 98.9346 99.5673 99.8304 99.5673 100.742C99.5673 101.653 99.8221 102.549 100.307 103.343C99.8123 104.135 99.5568 105.034 99.5672 105.947C99.5672 108.297 101.154 110.204 103.111 110.204C105.067 110.204 106.654 108.297 106.654 105.947C106.664 105.034 106.409 104.135 105.916 103.343C106.4 102.548 106.654 101.652 106.654 100.742C106.654 99.8306 106.4 98.9349 105.916 98.1399C106.4 97.3446 106.654 96.4485 106.654 95.5373C106.654 94.6261 106.4 93.7301 105.916 92.9348Z" fill="#3F3D56"/>
<path d="M103.113 89.3858C105.068 89.3858 106.654 87.4795 106.654 85.128C106.654 82.7765 105.068 80.8702 103.113 80.8702C101.157 80.8702 99.5713 82.7765 99.5713 85.128C99.5713 87.4795 101.157 89.3858 103.113 89.3858Z" fill="#3F3D56"/>
<path d="M103.113 84.1806C105.068 84.1806 106.654 82.2744 106.654 79.9229C106.654 77.5714 105.068 75.6651 103.113 75.6651C101.157 75.6651 99.5713 77.5714 99.5713 79.9229C99.5713 82.2744 101.157 84.1806 103.113 84.1806Z" fill="#3F3D56"/>
<path d="M89.8624 44.306C89.3784 43.7405 88.9377 43.1449 88.5435 42.5233L97.8486 41.1203L87.7856 41.189C86.8201 39.2596 86.2933 37.1694 86.2374 35.0465C86.1816 32.9236 86.5979 30.8125 87.4608 28.8425L100.965 35.2752L88.5101 26.8682C89.6737 25.011 91.2418 23.3941 93.1165 22.1186C94.9912 20.8432 97.1321 19.9365 99.4055 19.4553C101.679 18.9741 104.036 18.9287 106.329 19.322C108.623 19.7152 110.803 20.5386 112.734 21.7408C114.666 22.9429 116.306 24.498 117.554 26.3088C118.801 28.1195 119.628 30.1471 119.984 32.2648C120.34 34.3826 120.216 36.5449 119.621 38.6167C119.025 40.6885 117.971 42.6253 116.524 44.306C117.277 45.1869 117.925 46.1398 118.457 47.1481L106.378 52.9119L119.258 48.9344C120.163 51.3897 120.387 54.0136 119.909 56.5684C119.432 59.1233 118.268 61.5284 116.524 63.5662C118.492 65.8645 119.716 68.6251 120.056 71.5323C120.397 74.4394 119.84 77.3759 118.449 80.006C117.058 82.6361 114.889 84.8536 112.191 86.4051C109.492 87.9565 106.373 88.7793 103.189 88.7793C100.006 88.7793 96.8863 87.9565 94.1878 86.4051C91.4893 84.8536 89.3206 82.6361 87.9296 80.006C86.5386 77.3759 85.9815 74.4394 86.3219 71.5323C86.6623 68.6251 87.8865 65.8645 89.8545 63.5662C87.5031 60.8194 86.2248 57.4266 86.2248 53.9325C86.2248 50.4383 87.5031 47.0455 89.8545 44.2987L89.8624 44.306Z" fill="#89A8CC"/>
<path opacity="0.1" d="M120.154 53.9406C120.16 57.4354 118.881 60.8297 116.524 63.5735C118.492 65.8718 119.716 68.6323 120.056 71.5395C120.397 74.4467 119.84 77.3832 118.449 80.0133C117.058 82.6434 114.889 84.8609 112.191 86.4123C109.492 87.9638 106.373 88.7865 103.189 88.7865C100.006 88.7865 96.8863 87.9638 94.1878 86.4123C91.4893 84.8609 89.3206 82.6434 87.9296 80.0133C86.5386 77.3832 85.9815 74.4467 86.3219 71.5395C86.6623 68.6323 87.8865 65.8718 89.8545 63.5735C87.5809 60.923 120.154 52.1905 120.154 53.9406Z" fill="black"/>
</g>
<path d="M225 115.026C225 116.268 215.114 117.404 198.77 118.281C195.797 118.438 192.612 118.588 189.234 118.729C186.316 118.85 183.257 118.963 180.057 119.071C176.958 119.172 173.739 119.266 170.402 119.353C159.862 119.629 148.211 119.828 135.833 119.928C132.829 119.953 129.785 119.972 126.701 119.986C123.488 119.999 120.239 120.005 116.953 120.004C57.2798 120.004 8.90771 117.778 8.90771 115.032C8.90771 112.285 57.2798 110.06 116.953 110.06C142.644 110.06 166.236 110.474 184.78 111.161L186.807 111.237H186.819C210.177 112.146 225 113.515 225 115.026Z" fill="#3F3D56"/>
<path opacity="0.15" d="M225 115.026C225 116.268 215.114 117.404 198.77 118.281C195.797 118.438 192.612 118.588 189.234 118.729C186.316 118.85 183.257 118.963 180.057 119.071C176.958 119.172 173.739 119.266 170.402 119.353C159.862 119.629 148.211 119.828 135.833 119.928C132.829 119.953 129.785 119.972 126.701 119.986C123.488 119.999 120.239 120.005 116.953 120.004C57.2798 120.004 8.90771 117.778 8.90771 115.032C8.90771 112.285 57.2798 110.06 116.953 110.06C142.644 110.06 166.236 110.474 184.78 111.161L186.807 111.237H186.819C210.177 112.146 225 113.515 225 115.026Z" fill="black"/>
<path d="M216.093 114.151C216.093 115.189 206.207 116.14 189.862 116.863C186.892 116.995 183.705 117.12 180.329 117.237C177.409 117.339 174.35 117.434 171.152 117.523C168.052 117.607 164.833 117.686 161.496 117.76C150.955 117.991 139.303 118.158 126.925 118.241C123.924 118.261 120.88 118.277 117.793 118.288C114.581 118.299 111.332 118.304 108.047 118.304C48.374 118.304 0 116.444 0 114.146C0 111.848 48.374 109.987 108.047 109.987C133.736 109.987 157.329 110.333 175.872 110.908L177.9 110.971H177.913C201.28 111.743 216.093 112.88 216.093 114.151Z" fill="#3F3D56"/>
<path d="M27.9055 76.3774L25.1929 68.7496L90.1535 68.097L92.8149 75.6488L27.9055 76.3774Z" fill="#3F3D56"/>
<path opacity="0.15" d="M27.9055 76.3774L25.1929 68.7496L90.1535 68.097L92.8149 75.6488L27.9055 76.3774Z" fill="black"/>
<path d="M23.5749 76.3774L20.8623 68.7496L85.8229 68.097L88.4844 75.6488L23.5749 76.3774Z" fill="#3F3D56"/>
<path d="M134.471 64.6564C127.754 64.6564 122.461 62.2078 118.591 57.3106C114.721 52.4135 112.786 46.4809 112.786 39.5131C112.786 32.4981 114.657 26.5777 118.4 21.7516C122.143 16.9255 127.422 14.5149 134.238 14.5198C141.467 14.5198 146.913 17.0624 150.577 22.1476C154.241 27.2328 156.074 33.1183 156.075 39.8041C156.075 46.4418 154.179 52.2441 150.386 57.2112C146.593 62.1783 141.288 64.66 134.471 64.6564ZM134.668 59.1475C139.086 59.1475 142.389 57.3787 144.575 53.8412C146.761 50.3036 147.855 45.8439 147.855 40.4622C147.855 34.4718 146.736 29.5668 144.498 25.7472C142.261 21.9276 138.829 20.0172 134.203 20.016C125.41 20.016 121.014 26.4306 121.014 39.2599C121.014 52.5195 125.564 59.1487 134.664 59.1475H134.668ZM136.88 111.902H127.166L190.764 15.5015H200.295L136.88 111.902ZM193.144 112.891C186.326 112.891 181.011 110.42 177.199 105.478C173.387 100.537 171.473 94.6035 171.457 87.679C171.457 80.7111 173.315 74.8142 177.032 69.9881C180.748 65.162 186.041 62.7514 192.91 62.7562C200.087 62.7562 205.495 65.2988 209.134 70.384C212.773 75.4692 214.593 81.3542 214.595 88.0388C214.595 94.6331 212.711 100.425 208.943 105.413C205.175 110.402 199.908 112.895 193.14 112.891H193.144ZM193.258 107.241C197.656 107.241 200.941 105.503 203.112 102.025C205.284 98.5479 206.37 94.1063 206.37 88.7005C206.37 82.915 205.271 78.0631 203.073 74.1446C200.875 70.2261 197.45 68.2639 192.799 68.2579C183.956 68.2579 179.534 74.6725 179.534 87.5018C179.531 100.663 184.105 107.242 193.254 107.241H193.258Z" fill="#3F3D56"/>
<path d="M134.471 64.6564C127.754 64.6564 122.461 62.2078 118.591 57.3106C114.721 52.4135 112.786 46.4809 112.786 39.5131C112.786 32.4981 114.657 26.5777 118.4 21.7516C122.143 16.9255 127.422 14.5149 134.238 14.5198C141.467 14.5198 146.913 17.0624 150.577 22.1476C154.241 27.2328 156.074 33.1183 156.075 39.8041C156.075 46.4418 154.179 52.2441 150.386 57.2112C146.593 62.1783 141.288 64.66 134.471 64.6564ZM134.668 59.1475C139.086 59.1475 142.389 57.3787 144.575 53.8412C146.761 50.3036 147.855 45.8439 147.855 40.4622C147.855 34.4718 146.736 29.5668 144.498 25.7472C142.261 21.9276 138.829 20.0172 134.203 20.016C125.41 20.016 121.014 26.4306 121.014 39.2599C121.014 52.5195 125.564 59.1487 134.664 59.1475H134.668ZM136.88 111.902H127.166L190.764 15.5015H200.295L136.88 111.902ZM193.144 112.891C186.326 112.891 181.011 110.42 177.199 105.478C173.387 100.537 171.473 94.6035 171.457 87.679C171.457 80.7111 173.315 74.8142 177.032 69.9881C180.748 65.162 186.041 62.7514 192.91 62.7562C200.087 62.7562 205.495 65.2988 209.134 70.384C212.773 75.4692 214.593 81.3542 214.595 88.0388C214.595 94.6331 212.711 100.425 208.943 105.413C205.175 110.402 199.908 112.895 193.14 112.891H193.144ZM193.258 107.241C197.656 107.241 200.941 105.503 203.112 102.025C205.284 98.5479 206.37 94.1063 206.37 88.7005C206.37 82.915 205.271 78.0631 203.073 74.1446C200.875 70.2261 197.45 68.2639 192.799 68.2579C183.956 68.2579 179.534 74.6725 179.534 87.5018C179.531 100.663 184.105 107.242 193.254 107.241H193.258Z" fill="#3F3D56"/>
<path opacity="0.15" d="M134.471 64.6564C127.754 64.6564 122.461 62.2078 118.591 57.3106C114.721 52.4135 112.786 46.4809 112.786 39.5131C112.786 32.4981 114.657 26.5777 118.4 21.7516C122.143 16.9255 127.422 14.5149 134.238 14.5198C141.467 14.5198 146.913 17.0624 150.577 22.1476C154.241 27.2328 156.074 33.1183 156.075 39.8041C156.075 46.4418 154.179 52.2441 150.386 57.2112C146.593 62.1783 141.288 64.66 134.471 64.6564ZM134.668 59.1475C139.086 59.1475 142.389 57.3787 144.575 53.8412C146.761 50.3036 147.855 45.8439 147.855 40.4622C147.855 34.4718 146.736 29.5668 144.498 25.7472C142.261 21.9276 138.829 20.0172 134.203 20.016C125.41 20.016 121.014 26.4306 121.014 39.2599C121.014 52.5195 125.564 59.1487 134.664 59.1475H134.668ZM136.88 111.902H127.166L190.764 15.5015H200.295L136.88 111.902ZM193.144 112.891C186.326 112.891 181.011 110.42 177.199 105.478C173.387 100.537 171.473 94.6035 171.457 87.679C171.457 80.7111 173.315 74.8142 177.032 69.9881C180.748 65.162 186.041 62.7514 192.91 62.7562C200.087 62.7562 205.495 65.2988 209.134 70.384C212.773 75.4692 214.593 81.3542 214.595 88.0388C214.595 94.6331 212.711 100.425 208.943 105.413C205.175 110.402 199.908 112.895 193.14 112.891H193.144ZM193.258 107.241C197.656 107.241 200.941 105.503 203.112 102.025C205.284 98.5479 206.37 94.1063 206.37 88.7005C206.37 82.915 205.271 78.0631 203.073 74.1446C200.875 70.2261 197.45 68.2639 192.799 68.2579C183.956 68.2579 179.534 74.6725 179.534 87.5018C179.531 100.663 184.105 107.242 193.254 107.241H193.258Z" fill="black"/>
<path d="M128.368 64.6564C121.652 64.6564 116.358 62.2078 112.488 57.3106C108.618 52.4135 106.683 46.4809 106.683 39.5131C106.683 32.4981 108.554 26.5777 112.297 21.7516C116.04 16.9255 121.32 14.5149 128.136 14.5198C135.364 14.5198 140.81 17.0624 144.474 22.1476C148.138 27.2328 149.971 33.1183 149.972 39.8041C149.972 46.4418 148.076 52.2441 144.284 57.2112C140.491 62.1783 135.186 64.66 128.368 64.6564ZM128.565 59.1475C132.984 59.1475 136.286 57.3787 138.472 53.8412C140.659 50.3036 141.752 45.8439 141.752 40.4622C141.752 34.4718 140.633 29.5668 138.396 25.7472C136.158 21.9276 132.726 20.0172 128.1 20.016C119.308 20.016 114.911 26.4306 114.911 39.2599C114.911 52.5195 119.461 59.1487 128.561 59.1475H128.565ZM130.778 111.902H121.063L184.661 15.5015H194.193L130.778 111.902ZM187.041 112.891C180.224 112.891 174.909 110.42 171.096 105.478C167.284 100.537 165.37 94.6035 165.354 87.679C165.354 80.7111 167.213 74.8142 170.929 69.9881C174.646 65.162 179.938 62.7514 186.807 62.7562C193.984 62.7562 199.392 65.2988 203.032 70.384C206.671 75.4692 208.491 81.3542 208.492 88.0388C208.492 94.6331 206.608 100.425 202.841 105.413C199.073 110.402 193.805 112.895 187.037 112.891H187.041ZM187.156 107.241C191.553 107.241 194.838 105.503 197.01 102.025C199.182 98.5479 200.268 94.1063 200.268 88.7005C200.268 82.915 199.169 78.0631 196.971 74.1446C194.772 70.2261 191.346 68.2639 186.693 68.2579C177.849 68.2579 173.427 74.6725 173.427 87.5018C173.427 100.663 178.002 107.242 187.152 107.241H187.156Z" fill="#3F3D56"/>
<path d="M149.62 114.321C150.431 112.94 149.51 111.248 148.451 110.015C147.392 108.782 146.1 107.502 146.128 105.93C146.167 103.676 148.774 102.343 150.852 101.147C152.398 100.26 153.824 99.2072 155.1 98.0116C155.635 97.551 156.076 97.0075 156.405 96.4061C156.837 95.5238 156.823 94.5204 156.799 93.5549C156.709 90.3343 156.535 87.1186 156.279 83.9076" stroke="#3F3D56" stroke-width="4" stroke-miterlimit="10"/>
<path d="M160.24 83.7304C160.211 83.1413 160.02 82.5685 159.686 82.0649C159.352 81.5612 158.885 81.1429 158.329 80.8485L157.471 82.407L157.496 80.5195C157.087 80.4096 156.66 80.3626 156.234 80.3803C155.478 80.4129 154.748 80.6508 154.139 81.0641C153.529 81.4773 153.067 82.0473 152.81 82.7019C152.553 83.3565 152.513 84.0664 152.696 84.7418C152.878 85.4171 153.274 86.0276 153.835 86.4961C154.395 86.9646 155.094 87.27 155.843 87.3737C156.592 87.4774 157.358 87.3748 158.043 87.0787C158.729 86.7827 159.304 86.3066 159.695 85.7106C160.086 85.1146 160.276 84.4255 160.24 83.7304Z" fill="#89A8CC"/>
<path d="M153.409 107.549C153.007 108.266 152.349 108.834 151.545 109.159C150.741 109.483 149.84 109.544 148.993 109.331C148.146 109.117 147.404 108.643 146.893 107.987C146.381 107.331 146.131 106.534 146.183 105.729C146.236 104.924 146.588 104.159 147.181 103.564C147.775 102.969 148.572 102.58 149.441 102.461C150.31 102.342 151.197 102.502 151.953 102.912C152.709 103.322 153.289 103.959 153.594 104.715L151.201 106.504L153.838 105.939C153.837 106.5 153.69 107.051 153.409 107.549Z" fill="#89A8CC"/>
<path d="M151.518 100.713C151.015 100.734 150.513 100.665 150.04 100.508C149.566 100.351 149.131 100.111 148.759 99.7996C148.387 99.4885 148.086 99.1132 147.872 98.695C147.658 98.2769 147.535 97.824 147.512 97.3625C147.482 96.8114 147.596 96.2617 147.843 95.7588C148.072 95.2888 148.41 94.8706 148.833 94.5336C149.257 94.1965 149.756 93.9489 150.295 93.808L150.274 95.2544L151.142 93.6779C152.157 93.6342 153.149 93.9627 153.9 94.5909C154.652 95.2192 155.1 96.0959 155.148 97.028C155.195 97.9602 154.838 98.8715 154.154 99.5615C153.47 100.251 152.515 100.664 151.5 100.707L151.518 100.713Z" fill="#89A8CC"/>
<path d="M160.817 95.0302C160.309 95.0612 159.798 94.9988 159.317 94.8465C158.835 94.6943 158.391 94.4553 158.011 94.1436C157.63 93.8319 157.322 93.4536 157.103 93.031C156.884 92.6084 156.758 92.1499 156.735 91.6824C156.711 91.2148 156.789 90.7476 156.964 90.3081C157.139 89.8685 157.408 89.4655 157.755 89.1225C158.101 88.7795 158.519 88.5035 158.984 88.3106C159.448 88.1177 159.949 88.0118 160.459 87.999C161.175 87.967 161.886 88.1218 162.51 88.4456L161.833 90.1487L163.227 88.9211C163.975 89.5473 164.421 90.4206 164.469 91.3492C164.486 91.6749 164.453 92.0012 164.37 92.3183C164.18 93.0637 163.73 93.7318 163.089 94.2212C162.447 94.7106 161.65 94.9946 160.817 95.0302Z" fill="#89A8CC"/>
<path opacity="0.1" d="M159.725 84.6688C158.841 84.7574 157.982 85.0105 157.095 85.0611C156.207 85.1117 155.232 84.9165 154.671 84.2819C154.368 83.942 154.219 83.5099 153.963 83.1374C153.721 82.7907 153.39 82.5044 152.998 82.304C152.752 82.7499 152.613 83.2389 152.589 83.7383C152.565 84.2377 152.657 84.736 152.859 85.2002C153.061 85.6643 153.369 86.0835 153.761 86.43C154.153 86.7764 154.622 87.042 155.135 87.2092C155.647 87.3764 156.193 87.4413 156.736 87.3995C157.278 87.3577 157.805 87.2103 158.28 86.967C158.755 86.7237 159.169 86.3902 159.493 85.9886C159.817 85.587 160.044 85.1266 160.16 84.638C160.014 84.6453 159.87 84.6543 159.725 84.6688Z" fill="black"/>
<path opacity="0.1" d="M160.817 95.0302C160.157 95.0578 159.5 94.9283 158.91 94.6542C158.321 94.3801 157.818 93.9707 157.452 93.4658C157.085 92.9608 156.867 92.3774 156.818 91.7722C156.769 91.1669 156.892 90.5604 157.173 90.0113C157.477 90.2002 157.738 90.4408 157.943 90.72C158.216 91.0979 158.382 91.5354 158.703 91.8825C159.293 92.528 160.319 92.7377 161.242 92.6997C162.165 92.6618 163.059 92.4195 163.98 92.3381C164.108 92.3273 164.238 92.3201 164.374 92.3164C164.184 93.0628 163.733 93.7317 163.091 94.2215C162.449 94.7113 161.651 94.9953 160.817 95.0302Z" fill="black"/>
<path opacity="0.1" d="M151.518 100.713C151.015 100.734 150.513 100.665 150.04 100.508C149.566 100.351 149.131 100.111 148.759 99.7996C148.387 99.4885 148.086 99.1132 147.872 98.695C147.658 98.2769 147.535 97.824 147.512 97.3625C147.482 96.8114 147.596 96.2617 147.843 95.7588C148.159 95.9521 148.433 96.1973 148.652 96.482C148.949 96.8671 149.136 97.3119 149.484 97.668C150.13 98.3279 151.217 98.5612 152.195 98.5395C153.173 98.5178 154.057 98.3081 155 98.2412C154.766 98.9318 154.307 99.5395 153.684 99.9817C153.061 100.424 152.304 100.679 151.518 100.713Z" fill="black"/>
<path opacity="0.1" d="M153.409 107.549C152.964 108.353 152.198 108.97 151.271 109.27C150.345 109.571 149.327 109.533 148.43 109.164C147.533 108.796 146.825 108.124 146.451 107.289C146.078 106.454 146.069 105.519 146.425 104.677C146.741 104.868 147.024 105.1 147.266 105.366C147.63 105.775 147.87 106.238 148.291 106.617C149.079 107.323 150.339 107.614 151.465 107.641C152.114 107.646 152.764 107.615 153.409 107.549Z" fill="black"/>
<path d="M208.872 114.14C209.683 112.759 208.762 111.067 207.703 109.834C206.644 108.601 205.352 107.321 205.38 105.75C205.419 103.495 208.025 102.163 210.104 100.966C211.65 100.079 213.076 99.0264 214.352 97.8307C214.887 97.3702 215.328 96.8267 215.657 96.2253C216.089 95.343 216.075 94.3396 216.051 93.3741C215.961 90.1535 215.787 86.9378 215.531 83.7268" stroke="#3F3D56" stroke-width="4" stroke-miterlimit="10"/>
<path d="M219.492 83.5496C219.463 82.9605 219.272 82.3878 218.938 81.8841C218.604 81.3805 218.137 80.9621 217.581 80.6678L216.723 82.2262L216.748 80.3387C216.339 80.2289 215.912 80.1818 215.486 80.1995C214.73 80.2321 214 80.47 213.391 80.8833C212.781 81.2965 212.319 81.8665 212.062 82.5211C211.805 83.1757 211.765 83.8856 211.948 84.561C212.13 85.2363 212.526 85.8469 213.087 86.3153C213.647 86.7838 214.346 87.0892 215.095 87.1929C215.844 87.2966 216.61 87.194 217.295 86.8979C217.981 86.6019 218.556 86.1258 218.947 85.5298C219.338 84.9338 219.528 84.2447 219.492 83.5496Z" fill="#89A8CC"/>
<path d="M212.661 107.368C212.259 108.085 211.601 108.654 210.797 108.978C209.993 109.303 209.092 109.363 208.245 109.15C207.397 108.937 206.656 108.462 206.144 107.806C205.633 107.151 205.383 106.353 205.435 105.548C205.488 104.743 205.84 103.979 206.433 103.384C207.027 102.789 207.824 102.399 208.693 102.28C209.562 102.162 210.449 102.321 211.205 102.731C211.961 103.142 212.541 103.778 212.846 104.535L210.453 106.323L213.09 105.759C213.089 106.319 212.942 106.871 212.661 107.368Z" fill="#89A8CC"/>
<path d="M210.77 100.532C210.267 100.553 209.765 100.484 209.292 100.327C208.818 100.171 208.383 99.9299 208.011 99.6188C207.639 99.3077 207.338 98.9324 207.124 98.5142C206.91 98.0961 206.787 97.6433 206.764 97.1817C206.734 96.6306 206.848 96.0809 207.095 95.578C207.324 95.108 207.662 94.6898 208.085 94.3528C208.509 94.0157 209.008 93.7681 209.547 93.6272L209.526 95.0736L210.394 93.4971H210.404C210.906 93.4755 211.408 93.545 211.882 93.7017C212.355 93.8583 212.79 94.0991 213.162 94.4102C213.534 94.7213 213.836 95.0966 214.05 95.5147C214.264 95.9329 214.386 96.3857 214.41 96.8472C214.433 97.3088 214.357 97.7701 214.187 98.2048C214.016 98.6395 213.754 99.039 213.415 99.3807C213.077 99.7223 212.668 99.9993 212.213 100.196C211.757 100.393 211.265 100.505 210.762 100.526L210.77 100.532Z" fill="#89A8CC"/>
<path d="M220.069 94.8494C219.561 94.8804 219.05 94.818 218.569 94.6658C218.087 94.5135 217.643 94.2745 217.262 93.9628C216.882 93.6511 216.574 93.2728 216.355 92.8502C216.136 92.4276 216.01 91.9692 215.987 91.5016C215.963 91.0341 216.041 90.5668 216.216 90.1273C216.391 89.6877 216.66 89.2847 217.007 88.9417C217.353 88.5987 217.771 88.3227 218.235 88.1298C218.7 87.9369 219.201 87.831 219.711 87.8182C220.427 87.7862 221.138 87.9411 221.762 88.2648L221.085 89.9679L222.478 88.7403C223.227 89.3665 223.673 90.2398 223.721 91.1684C223.738 91.4941 223.705 91.8204 223.622 92.1375C223.432 92.8829 222.982 93.551 222.341 94.0404C221.699 94.5298 220.902 94.8138 220.069 94.8494Z" fill="#89A8CC"/>
<path opacity="0.1" d="M218.977 84.488C218.093 84.5766 217.234 84.8297 216.347 84.8803C215.459 84.9309 214.484 84.7357 213.923 84.1011C213.62 83.7612 213.471 83.3291 213.215 82.9566C212.973 82.6099 212.642 82.3236 212.25 82.1232C212.004 82.5691 211.865 83.0581 211.841 83.5575C211.817 84.0569 211.909 84.5552 212.111 85.0194C212.313 85.4835 212.621 85.9028 213.013 86.2492C213.405 86.5956 213.874 86.8612 214.387 87.0284C214.899 87.1956 215.445 87.2605 215.988 87.2187C216.53 87.1769 217.056 87.0295 217.532 86.7862C218.007 86.5429 218.421 86.2094 218.745 85.8078C219.069 85.4062 219.296 84.9458 219.412 84.4573C219.266 84.4645 219.122 84.4735 218.977 84.488Z" fill="black"/>
<path opacity="0.1" d="M220.069 94.8494C219.409 94.877 218.752 94.7475 218.162 94.4734C217.573 94.1993 217.07 93.79 216.704 93.285C216.337 92.78 216.119 92.1966 216.07 91.5914C216.021 90.9861 216.144 90.3796 216.425 89.8305C216.729 90.0194 216.99 90.26 217.195 90.5392C217.468 90.9171 217.634 91.3546 217.955 91.7017C218.545 92.3472 219.571 92.5569 220.494 92.5189C221.417 92.481 222.311 92.2387 223.232 92.1574C223.36 92.1465 223.49 92.1393 223.626 92.1357C223.436 92.882 222.985 93.5509 222.343 94.0407C221.701 94.5306 220.903 94.8145 220.069 94.8494Z" fill="black"/>
<path opacity="0.1" d="M210.77 100.532C210.267 100.553 209.765 100.484 209.292 100.327C208.818 100.171 208.383 99.9299 208.011 99.6188C207.639 99.3077 207.338 98.9324 207.124 98.5142C206.91 98.096 206.787 97.6432 206.764 97.1817C206.734 96.6306 206.848 96.0809 207.095 95.578C207.411 95.7713 207.685 96.0164 207.904 96.3012C208.201 96.6863 208.388 97.131 208.736 97.4872C209.382 98.1471 210.469 98.3803 211.447 98.3587C212.396 98.3406 213.309 98.1272 214.252 98.0603C214.018 98.7509 213.559 99.3587 212.936 99.8009C212.313 100.243 211.556 100.498 210.77 100.532Z" fill="black"/>
<path opacity="0.1" d="M212.661 107.368C212.216 108.172 211.45 108.789 210.523 109.09C209.597 109.39 208.579 109.352 207.682 108.984C206.785 108.615 206.077 107.943 205.703 107.108C205.33 106.273 205.321 105.338 205.677 104.497C205.992 104.687 206.276 104.919 206.518 105.186C206.882 105.594 207.122 106.057 207.543 106.437C208.331 107.142 209.59 107.433 210.716 107.46C211.366 107.465 212.016 107.434 212.661 107.368Z" fill="black"/>
<path d="M21.6399 111.79C20.8288 110.409 21.7501 108.717 22.8091 107.483C23.8682 106.25 25.1595 104.97 25.132 103.399C25.0926 101.145 22.4863 99.8123 20.4076 98.6154C18.8616 97.7284 17.4356 96.676 16.1595 95.4804C15.6252 95.0198 15.1834 94.4764 14.8544 93.8749C14.4233 92.9926 14.4371 91.9892 14.4607 91.0238C14.5513 87.8032 14.7245 84.5874 14.9804 81.3765" stroke="#3F3D56" stroke-width="4" stroke-miterlimit="10"/>
<path d="M11.0198 81.1993C11.0494 80.6102 11.24 80.0374 11.5741 79.5337C11.9081 79.0301 12.3748 78.6118 12.9312 78.3174L13.7895 79.8758L13.7639 77.9883C14.1733 77.8785 14.5996 77.8314 15.0257 77.8491C15.7825 77.8817 16.5118 78.1197 17.1213 78.5329C17.7309 78.9461 18.1933 79.5161 18.4502 80.1707C18.707 80.8254 18.7468 81.5352 18.5644 82.2106C18.382 82.886 17.9856 83.4965 17.4254 83.965C16.8653 84.4335 16.1664 84.7389 15.4172 84.8426C14.6681 84.9463 13.9023 84.8436 13.2166 84.5476C12.531 84.2515 11.9563 83.7754 11.5653 83.1794C11.1743 82.5835 10.9844 81.8944 11.0198 81.1993Z" fill="#89A8CC"/>
<path d="M17.8505 105.017C18.2525 105.735 18.9107 106.303 19.7149 106.628C20.519 106.952 21.4202 107.013 22.2673 106.8C23.1144 106.586 23.8558 106.112 24.3673 105.456C24.8789 104.8 25.1293 104.003 25.0767 103.198C25.0241 102.392 24.6717 101.628 24.0785 101.033C23.4853 100.438 22.6874 100.049 21.8186 99.9301C20.9498 99.8113 20.063 99.9704 19.3069 100.381C18.5507 100.791 17.9712 101.428 17.6655 102.184L20.0592 103.972L17.4214 103.408C17.4225 103.968 17.5696 104.52 17.8505 105.017Z" fill="#89A8CC"/>
<path d="M19.742 98.1815C20.2446 98.2031 20.7468 98.1336 21.2201 97.977C21.6934 97.8203 22.1285 97.5796 22.5005 97.2685C22.8725 96.9574 23.1741 96.582 23.3882 96.1639C23.6022 95.7457 23.7244 95.2929 23.7479 94.8313C23.7777 94.2802 23.6644 93.7306 23.4172 93.2277C23.1884 92.7577 22.8502 92.3394 22.4264 92.0024C22.0027 91.6654 21.5036 91.4177 20.9645 91.2769L20.9861 92.7232L20.118 91.1467C19.1031 91.1031 18.1109 91.4315 17.3596 92.0598C16.6084 92.6881 16.1596 93.5647 16.1121 94.4969C16.0646 95.429 16.4222 96.3403 17.1063 97.0303C17.7903 97.7203 18.7448 98.1324 19.7597 98.1761L19.742 98.1815Z" fill="#89A8CC"/>
<path d="M10.4427 92.4991C10.9512 92.5301 11.4613 92.4676 11.9432 92.3154C12.4251 92.1632 12.8692 91.9242 13.2493 91.6125C13.6294 91.3007 13.9381 90.9225 14.1571 90.4999C14.3762 90.0773 14.5013 89.6188 14.5251 89.1513C14.549 88.6837 14.471 88.2165 14.2959 87.777C14.1208 87.3374 13.8519 86.9344 13.5051 86.5914C13.1584 86.2484 12.7406 85.9724 12.2763 85.7795C11.812 85.5866 11.3104 85.4806 10.801 85.4679C10.0884 85.4376 9.38086 85.5924 8.75964 85.9145L9.4368 87.6176L8.03326 86.3954C7.28666 87.0203 6.84003 87.8914 6.79113 88.8181C6.7737 89.1437 6.80684 89.47 6.88956 89.7871C7.08006 90.5326 7.53003 91.2007 8.17123 91.6901C8.81243 92.1795 9.6099 92.4635 10.4427 92.4991Z" fill="#89A8CC"/>
<path opacity="0.1" d="M11.5356 82.1376C12.4195 82.2262 13.2778 82.4793 14.1655 82.5299C15.0533 82.5806 16.0278 82.3853 16.5888 81.7507C16.8919 81.4108 17.0415 80.9787 17.2974 80.6063C17.5391 80.2596 17.8705 79.9732 18.262 79.7728C18.5079 80.2188 18.6475 80.7077 18.6715 81.2071C18.6955 81.7065 18.6034 82.2049 18.4013 82.669C18.1991 83.1331 17.8916 83.5524 17.4992 83.8988C17.1068 84.2452 16.6386 84.5109 16.1256 84.678C15.6127 84.8452 15.0669 84.9101 14.5245 84.8683C13.9821 84.8266 13.4557 84.6791 12.9802 84.4359C12.5048 84.1926 12.0912 83.859 11.7671 83.4574C11.443 83.0559 11.2158 82.5954 11.1006 82.1069C11.2463 82.1141 11.39 82.1232 11.5356 82.1376Z" fill="black"/>
<path opacity="0.1" d="M10.4428 92.4991C11.1029 92.5267 11.7596 92.3972 12.3492 92.1231C12.9388 91.849 13.4412 91.4396 13.8078 90.9347C14.1744 90.4297 14.3927 89.8463 14.4416 89.2411C14.4904 88.6358 14.3681 88.0292 14.0865 87.4802C13.783 87.6691 13.5218 87.9097 13.3168 88.1889C13.0432 88.5667 12.8779 89.0043 12.557 89.3514C11.9665 89.9968 10.9409 90.2066 10.0176 90.1686C9.0944 90.1306 8.2007 89.8884 7.27944 89.807C7.15149 89.7962 7.02157 89.7889 6.88574 89.7853C7.07606 90.5317 7.52646 91.2006 8.16848 91.6904C8.8105 92.1802 9.60907 92.4641 10.4428 92.4991Z" fill="black"/>
<path opacity="0.1" d="M19.742 98.1815C20.2446 98.2031 20.7469 98.1336 21.2202 97.977C21.6935 97.8203 22.1285 97.5796 22.5005 97.2685C22.8725 96.9574 23.1741 96.582 23.3882 96.1639C23.6022 95.7457 23.7245 95.2929 23.748 94.8313C23.7778 94.2802 23.6644 93.7306 23.4172 93.2277C23.1014 93.4209 22.8271 93.6661 22.6082 93.9508C22.3109 94.3359 22.1239 94.7807 21.7755 95.1369C21.1298 95.7968 20.0432 96.03 19.0649 96.0083C18.1161 95.9902 17.2027 95.7769 16.2598 95.71C16.4935 96.4006 16.9531 97.0083 17.5762 97.4505C18.1992 97.8927 18.9555 98.148 19.742 98.1815Z" fill="black"/>
<path opacity="0.1" d="M17.8506 105.017C18.2963 105.822 19.0618 106.438 19.9886 106.739C20.9153 107.04 21.9325 107.002 22.8297 106.633C23.7268 106.264 24.4353 105.593 24.8085 104.758C25.1818 103.923 25.1912 102.988 24.8348 102.146C24.5195 102.337 24.2363 102.569 23.9943 102.835C23.6301 103.244 23.39 103.707 22.9687 104.086C22.1813 104.791 20.9215 105.082 19.7955 105.11C19.1458 105.114 18.4963 105.084 17.8506 105.017Z" fill="black"/>
<path d="M132.579 94.8476C132.582 94.4093 132.474 93.9763 132.263 93.5832C132.052 93.1901 131.743 92.8479 131.362 92.584C131.315 90.9261 130.028 89.572 128.372 89.3622C128.244 88.799 127.957 88.2765 127.54 87.8475C127.122 87.4184 126.589 87.0978 125.994 86.9179C125.849 86.8758 125.701 86.8437 125.551 86.8221H125.508L125.431 86.813H125.366H125.301H125.217H125.165H125.026C123.337 86.813 121.931 87.999 121.642 89.5629C120.549 89.3315 119.547 89.6316 119.368 90.2662C119.322 90.4344 119.332 90.6115 119.398 90.7743C119.583 91.266 120.185 91.7361 121.002 91.9693L121.108 91.9983C121.161 92.0127 121.215 92.0236 121.268 92.0344H121.303C121.003 92.6226 120.96 93.2942 121.184 93.9104C121.408 94.5266 121.881 95.0402 122.506 95.3448C122.481 95.3572 122.458 95.3711 122.435 95.3864C122.334 95.4714 122.254 95.5749 122.199 95.6901C122.001 96.0083 121.848 96.3478 121.742 96.7008C121.663 97.0027 121.65 97.3191 121.545 97.6174C121.366 98.1598 120.905 98.6353 120.852 99.212C120.829 99.4688 120.874 99.7707 120.675 99.9461C120.626 99.9852 120.573 100.021 120.518 100.053C120.378 100.14 120.26 100.254 120.171 100.385C120.113 100.494 120.035 100.593 119.941 100.678C119.762 100.803 119.467 100.79 119.378 100.982C119.289 101.174 119.518 101.4 119.465 101.609C119.421 101.779 119.218 101.857 119.071 101.971C118.906 102.135 118.79 102.337 118.736 102.555C118.442 102.607 118.139 102.599 117.849 102.531C117.559 102.463 117.288 102.337 117.057 102.163C117.136 102.349 117.194 102.542 117.23 102.739C116.996 102.51 116.61 102.443 116.325 102.324C115.957 102.169 115.628 101.944 115.36 101.665L115.876 101.6L113.592 98.4183L112.919 98.2918L113.524 99.3567C113.474 99.3785 113.431 99.4103 113.397 99.4498C113.363 99.4892 113.339 99.5353 113.327 99.5845C113.294 99.7026 113.286 99.8252 113.303 99.9461C113.335 100.231 113.387 100.515 113.459 100.794L113.634 101.543C113.649 101.613 113.668 101.682 113.691 101.75C113.463 101.743 113.234 101.767 113.014 101.821C112.561 101.667 112.09 101.565 111.61 101.515C111.505 101.498 111.396 101.503 111.293 101.53C111.176 101.579 111.075 101.655 110.998 101.75C110.604 102.168 110.255 102.62 109.955 103.099C108.728 105.059 107.091 106.769 105.557 108.541C104.498 108.937 103.431 109.313 102.362 109.686L100.065 110.49C99.6063 110.651 99.1299 110.816 98.6417 110.787C98.4212 110.774 98.1535 110.743 98.0295 110.915C97.9691 111 97.9221 111.093 97.8898 111.19C97.809 111.19 97.7283 111.208 97.6535 111.211H97.6397C97.4941 110.879 97.3681 110.523 97.0886 110.28C97.0323 110.288 96.9791 110.309 96.9337 110.341C96.8884 110.372 96.8523 110.414 96.8287 110.461C96.7736 110.555 96.7401 110.658 96.6771 110.745C96.5531 110.911 96.3386 110.993 96.185 111.134C96.0315 111.275 95.935 111.495 95.7697 111.633C95.5381 111.787 95.2668 111.884 94.9823 111.913C94.5561 112.005 94.1451 112.149 93.7598 112.34C93.6178 112.42 93.4658 112.484 93.3071 112.531C93.1326 112.562 92.9539 112.568 92.7775 112.548L91.561 112.466C91.4528 112.453 91.3429 112.457 91.2362 112.479C91.1109 112.521 91.0043 112.6 90.9331 112.704C90.8618 112.808 90.83 112.93 90.8425 113.052C90.8573 113.173 90.899 113.29 90.9651 113.396C91.0311 113.502 91.12 113.594 91.2264 113.667C91.4375 113.809 91.6712 113.92 91.9193 113.998C92.9764 114.374 94.0662 114.667 95.1771 114.874V115.1C95.9472 115.457 96.7973 115.642 97.6594 115.643C97.723 115.647 97.7867 115.637 97.8445 115.612C97.9242 115.557 97.9794 115.477 98 115.388C98.2581 114.679 98.4214 113.944 98.4862 113.198C98.6382 113.189 98.7871 113.154 98.9252 113.095C99.3445 112.991 99.7598 113.254 100.191 113.298C100.722 113.35 101.217 113.066 101.718 112.891C101.791 112.866 101.864 112.844 101.937 112.822C101.794 112.993 101.625 113.143 101.435 113.269C101.226 113.406 100.992 113.508 100.787 113.65C100.617 113.793 100.435 113.923 100.242 114.039C100.106 114.097 99.9661 114.147 99.8228 114.187C99.6151 114.257 99.4169 114.349 99.2323 114.46C99.0669 114.55 98.9267 114.674 98.8228 114.822C98.7705 114.891 98.7384 114.972 98.7294 115.055C98.7205 115.139 98.7351 115.224 98.7718 115.301C98.8085 115.378 98.8661 115.445 98.9391 115.496C99.0121 115.547 99.0981 115.58 99.189 115.592C99.3534 115.619 99.5212 115.623 99.687 115.605C100.344 115.56 101 115.504 101.655 115.449C101.933 115.432 102.209 115.396 102.48 115.341C102.624 115.308 102.766 115.265 102.909 115.231C103.155 115.171 103.406 115.137 103.659 115.128C103.733 115.122 103.807 115.129 103.878 115.147C104.031 115.193 104.14 115.328 104.295 115.364C104.396 115.373 104.498 115.36 104.593 115.326C105.072 115.231 105.562 115.183 106.053 115.184C106.268 115.173 106.52 115.135 106.62 114.952C106.742 114.726 106.537 114.473 106.457 114.229C106.416 114.074 106.393 113.915 106.39 113.755C106.352 113.361 106.229 112.978 106.028 112.629C105.92 112.466 105.83 112.294 105.758 112.115C106.699 111.787 107.599 111.367 108.443 110.864C108.927 110.588 109.427 110.289 109.974 110.188C110.612 110.071 111.27 110.226 111.898 110.392C113.393 110.79 114.865 111.261 116.305 111.805C116.994 112.063 117.683 112.338 118.388 112.528C118.594 112.783 118.843 113.006 119.126 113.189C119.598 113.47 120.175 113.551 120.73 113.591C121.48 113.654 122.233 113.68 122.986 113.669C123.561 113.659 124.154 113.623 124.667 113.383C124.793 113.324 124.911 113.252 125.02 113.17C125.413 113.235 125.817 113.041 126.126 112.793C126.535 112.474 126.83 112.049 126.972 111.573C127.154 110.92 127.014 110.159 127.451 109.626C127.567 109.483 127.718 109.367 127.833 109.223C127.973 109.029 128.042 108.799 128.03 108.566L128.049 108.539C128.148 108.33 128.214 108.108 128.246 107.881C128.298 107.704 128.364 107.531 128.443 107.362C128.665 106.858 128.858 106.343 129.022 105.82C129.135 105.473 129.225 105.12 129.289 104.762C129.337 104.477 129.364 104.189 129.39 103.902C129.421 103.452 129.517 103.008 129.673 102.58C130.062 101.56 130.281 100.493 130.325 99.4127C130.325 99.391 130.325 99.3711 130.325 99.3494C130.896 99.2919 131.424 99.0406 131.804 98.6447C132.185 98.2488 132.391 97.7368 132.382 97.2088C132.382 96.8906 132.31 96.5758 132.169 96.2849C132.441 95.8472 132.582 95.3514 132.579 94.8476ZM121.447 107.27C121.48 107.38 121.52 107.491 121.559 107.601C121.378 107.436 121.199 107.267 121.016 107.104C121.089 107.124 121.161 107.145 121.232 107.169C121.308 107.196 121.38 107.23 121.449 107.27H121.447ZM120.565 106.728C119.49 105.871 118.246 105.205 117.146 104.377C117.736 104.65 118.327 104.967 118.917 105.271C119.605 105.632 120.301 105.978 121.004 106.308C120.889 106.469 120.742 106.609 120.571 106.721L120.565 106.728ZM121.024 104.569L121.075 104.52C121.075 104.641 121.075 104.755 121.075 104.858C120.978 104.829 120.878 104.8 120.785 104.768C120.87 104.704 120.951 104.635 121.026 104.562L121.024 104.569ZM111.561 106.89C112.004 106.431 112.389 105.927 112.709 105.388C113.134 106.073 113.827 106.567 114.417 107.14C113.468 107.017 112.518 106.921 111.563 106.883L111.561 106.89Z" fill="url(#paint0_linear_1770_17040)"/>
<path d="M113.097 98.5557L113.776 98.6823L116.089 101.821L115.067 101.947L113.097 98.5557Z" fill="#2F2E41"/>
<path d="M96.6494 111.295C96.8325 111.851 97.0582 112.395 97.3246 112.922C98.091 112.775 98.8449 112.577 99.5805 112.331C99.4381 112.127 99.2817 111.932 99.112 111.747C98.9312 111.562 98.715 111.409 98.4742 111.296C98.24 111.202 97.9506 111.273 97.7006 111.286C97.3502 111.298 96.9998 111.301 96.6494 111.295Z" fill="#FBBEBE"/>
<path d="M98.4784 112.134C98.0965 112.023 97.8622 111.669 97.7067 111.327C97.5512 110.986 97.4252 110.613 97.1299 110.362C97.0737 110.37 97.0206 110.391 96.9753 110.422C96.9299 110.454 96.8938 110.495 96.8701 110.543C96.813 110.633 96.7795 110.736 96.7146 110.823C96.5925 110.986 96.376 111.065 96.2205 111.204C96.065 111.343 95.9685 111.555 95.8012 111.694C95.5691 111.848 95.2979 111.943 95.0138 111.973C94.5847 112.062 94.1703 112.203 93.7815 112.392C93.6376 112.469 93.4843 112.529 93.3248 112.573C93.149 112.604 92.969 112.609 92.7914 112.589L91.565 112.508C91.456 112.495 91.3454 112.5 91.2382 112.522C91.1133 112.562 91.0066 112.64 90.9352 112.742C90.8638 112.844 90.8319 112.965 90.8445 113.086C90.8608 113.207 90.9042 113.323 90.972 113.427C91.0397 113.532 91.1304 113.622 91.2382 113.692C91.4514 113.832 91.6863 113.942 91.9351 114.017C93.0035 114.386 94.103 114.675 95.2225 114.88V115.102C96.0005 115.456 96.8563 115.641 97.7244 115.645C97.7918 115.65 97.8596 115.64 97.9213 115.614C98.001 115.56 98.057 115.482 98.0788 115.393C98.373 114.603 98.5446 113.779 98.5886 112.945C98.6112 112.734 98.5939 112.522 98.5374 112.316C98.4705 112.114 98.6988 112.199 98.4862 112.119" fill="#2F2E41"/>
<path d="M121.99 107.888C118.354 108.091 114.764 107.111 111.122 107.006C110.67 106.981 110.217 107.008 109.772 107.086C109.308 107.2 108.859 107.36 108.433 107.563C106.482 108.396 104.463 109.087 102.445 109.778L100.13 110.57C99.6655 110.727 99.1871 110.888 98.693 110.861C98.4725 110.848 98.2029 110.817 98.0769 110.987C97.7009 111.499 97.88 112.253 98.1281 112.828C98.2088 113.009 98.3446 113.217 98.5611 113.238C98.7143 113.229 98.8644 113.194 99.004 113.135C99.4253 113.032 99.8466 113.292 100.28 113.334C100.817 113.386 101.315 113.106 101.821 112.934C102.66 112.651 103.577 112.66 104.459 112.524C105.939 112.298 107.309 111.667 108.593 110.948C109.081 110.675 109.577 110.382 110.136 110.282C110.78 110.166 111.443 110.318 112.075 110.483C113.581 110.875 115.064 111.339 116.518 111.873C117.274 112.175 118.05 112.435 118.841 112.651C120.564 113.067 122.387 112.97 124.045 112.372C124.636 112.161 125.258 111.788 125.291 111.211C125.311 110.882 125.034 110.593 124.849 110.308C124.728 110.127 124.61 109.946 124.48 109.774C123.854 108.935 123.095 107.827 121.99 107.888Z" fill="#2F2E41"/>
<path opacity="0.1" d="M121.99 107.888C118.354 108.091 114.764 107.111 111.122 107.006C110.67 106.981 110.217 107.008 109.772 107.086C109.308 107.2 108.859 107.36 108.433 107.563C106.482 108.396 104.463 109.087 102.445 109.778L100.13 110.57C99.6655 110.727 99.1871 110.888 98.693 110.861C98.4725 110.848 98.2029 110.817 98.0769 110.987C97.7009 111.499 97.88 112.253 98.1281 112.828C98.2088 113.009 98.3446 113.217 98.5611 113.238C98.7143 113.229 98.8644 113.194 99.004 113.135C99.4253 113.032 99.8466 113.292 100.28 113.334C100.817 113.386 101.315 113.106 101.821 112.934C102.66 112.651 103.577 112.66 104.459 112.524C105.939 112.298 107.309 111.667 108.593 110.948C109.081 110.675 109.577 110.382 110.136 110.282C110.78 110.166 111.443 110.318 112.075 110.483C113.581 110.875 115.064 111.339 116.518 111.873C117.274 112.175 118.05 112.435 118.841 112.651C120.564 113.067 122.387 112.97 124.045 112.372C124.636 112.161 125.258 111.788 125.291 111.211C125.311 110.882 125.034 110.593 124.849 110.308C124.728 110.127 124.61 109.946 124.48 109.774C123.854 108.935 123.095 107.827 121.99 107.888Z" fill="black"/>
<path d="M103.628 111.457C104.197 111.635 104.771 111.798 105.348 111.949C105.673 111.459 106.28 111.119 106.417 110.561C106.425 110.536 106.425 110.511 106.417 110.487C106.402 110.463 106.38 110.444 106.352 110.432C105.937 110.222 105.477 110.099 105.004 110.071C104.63 110.049 104.461 110.407 104.291 110.658C104.232 110.76 103.78 111.504 103.628 111.457Z" fill="#FBBEBE"/>
<path d="M104.429 111.099C104.259 111.073 104.097 111.015 103.953 110.928C103.809 110.841 103.686 110.728 103.592 110.595C103.512 110.467 103.427 110.293 103.266 110.302C103.104 110.311 103.049 110.474 103.016 110.609C102.907 111.116 102.749 111.613 102.545 112.094C102.339 112.576 101.991 112.996 101.539 113.307C101.329 113.441 101.094 113.542 100.888 113.683C100.715 113.824 100.531 113.952 100.336 114.066C100.199 114.124 100.058 114.172 99.9132 114.211C99.701 114.279 99.4982 114.369 99.3088 114.48C99.1428 114.57 99.0019 114.693 98.8974 114.842C98.847 114.917 98.8175 115.003 98.8113 115.091C98.8051 115.179 98.8225 115.267 98.862 115.348C98.9044 115.414 98.9614 115.47 99.0292 115.514C99.0971 115.558 99.1742 115.588 99.2557 115.603C99.4216 115.628 99.5906 115.632 99.7576 115.614C100.421 115.569 101.082 115.514 101.744 115.46C102.024 115.444 102.302 115.409 102.577 115.355C102.722 115.323 102.864 115.279 103.008 115.245C103.256 115.187 103.51 115.153 103.766 115.144C103.84 115.139 103.914 115.145 103.986 115.164C104.14 115.209 104.248 115.344 104.405 115.377C104.507 115.387 104.609 115.374 104.704 115.341C105.189 115.247 105.682 115.2 106.177 115.2C106.393 115.189 106.649 115.151 106.748 114.972C106.872 114.75 106.667 114.5 106.584 114.262C106.544 114.109 106.52 113.952 106.516 113.795C106.478 113.407 106.354 113.029 106.151 112.687C105.982 112.401 105.758 112.087 105.87 111.783C105.93 111.688 105.968 111.583 105.982 111.474C105.954 110.984 104.728 111.164 104.429 111.099Z" fill="#2F2E41"/>
<path d="M116.54 102.533C115.896 102.272 115.379 101.801 115.091 101.212C115.032 101.085 114.981 100.953 114.923 100.825C114.732 100.4 114.435 100.023 114.057 99.7219C114.017 99.681 113.967 99.6486 113.912 99.6271C113.856 99.6056 113.797 99.5953 113.736 99.5971C113.678 99.613 113.626 99.6428 113.584 99.6835C113.543 99.7241 113.514 99.7742 113.5 99.8285C113.467 99.9464 113.458 100.069 113.475 100.19C113.508 100.471 113.561 100.749 113.632 101.024L113.809 101.761C113.832 101.875 113.869 101.985 113.92 102.09C113.995 102.214 114.095 102.324 114.215 102.414C114.376 102.551 114.54 102.683 114.705 102.812C114.796 102.887 114.896 102.954 115.002 103.011C115.177 103.087 115.364 103.137 115.555 103.159C116.278 103.282 117.012 103.459 117.62 103.882C117.62 103.882 117.62 103.388 117.607 103.34C117.599 103.197 117.546 103.059 117.453 102.944C117.225 102.718 116.831 102.651 116.54 102.533Z" fill="#FBBEBE"/>
<path opacity="0.1" d="M116.54 102.533C115.896 102.272 115.379 101.801 115.091 101.212C115.032 101.085 114.981 100.953 114.923 100.825C114.732 100.4 114.435 100.023 114.057 99.7219C114.017 99.681 113.967 99.6486 113.912 99.6271C113.856 99.6056 113.797 99.5953 113.736 99.5971C113.678 99.613 113.626 99.6428 113.584 99.6835C113.543 99.7241 113.514 99.7742 113.5 99.8285C113.467 99.9464 113.458 100.069 113.475 100.19C113.508 100.471 113.561 100.749 113.632 101.024L113.809 101.761C113.832 101.875 113.869 101.985 113.92 102.09C113.995 102.214 114.095 102.324 114.215 102.414C114.376 102.551 114.54 102.683 114.705 102.812C114.796 102.887 114.896 102.954 115.002 103.011C115.177 103.087 115.364 103.137 115.555 103.159C116.278 103.282 117.012 103.459 117.62 103.882C117.62 103.882 117.62 103.388 117.607 103.34C117.599 103.197 117.546 103.059 117.453 102.944C117.225 102.718 116.831 102.651 116.54 102.533Z" fill="black"/>
<path d="M123.941 96.8924C124.429 96.8924 124.825 96.5266 124.825 96.0752C124.825 95.6239 124.429 95.258 123.941 95.258C123.453 95.258 123.057 95.6239 123.057 96.0752C123.057 96.5266 123.453 96.8924 123.941 96.8924Z" fill="#2F2E41"/>
<path d="M123.394 95.5816C123.156 95.5319 122.907 95.5648 122.695 95.6738C122.593 95.7568 122.511 95.8592 122.457 95.974C122.258 96.2861 122.103 96.6203 121.996 96.9683C121.917 97.2667 121.903 97.5776 121.799 97.8723C121.618 98.4147 121.153 98.8757 121.1 99.4416C121.077 99.6947 121.122 99.9931 120.921 100.165C120.871 100.203 120.818 100.238 120.762 100.268C120.622 100.354 120.503 100.466 120.413 100.597C120.353 100.714 120.27 100.82 120.167 100.91C119.986 101.033 119.689 101.02 119.6 101.21C119.512 101.4 119.74 101.62 119.687 101.826C119.644 101.994 119.439 102.072 119.293 102.188C119.127 102.349 119.011 102.548 118.957 102.765C118.661 102.816 118.357 102.808 118.065 102.74C117.773 102.673 117.5 102.549 117.266 102.376C117.512 102.935 117.518 103.551 117.527 104.153C117.556 104.346 117.5 104.541 117.372 104.696C118.077 104.71 118.762 104.876 119.449 105.026C119.743 105.117 120.06 105.117 120.354 105.026C120.511 104.949 120.652 104.846 120.77 104.723C121.144 104.374 121.535 104 121.626 103.513C121.65 103.24 121.655 102.965 121.642 102.691C121.678 102.352 121.754 102.018 121.868 101.694C122.066 101.023 122.197 100.336 122.262 99.6423C122.303 99.2138 122.705 98.8703 122.917 98.487C123.311 97.7638 123.724 97.0135 123.756 96.2036C123.783 95.9396 123.685 95.616 123.394 95.5816Z" fill="#2F2E41"/>
<path opacity="0.1" d="M123.394 95.5816C123.156 95.5319 122.907 95.5648 122.695 95.6738C122.593 95.7568 122.511 95.8592 122.457 95.974C122.258 96.2861 122.103 96.6203 121.996 96.9683C121.917 97.2667 121.903 97.5776 121.799 97.8723C121.618 98.4147 121.153 98.8757 121.1 99.4416C121.077 99.6947 121.122 99.9931 120.921 100.165C120.871 100.203 120.818 100.238 120.762 100.268C120.622 100.354 120.503 100.466 120.413 100.597C120.353 100.714 120.27 100.82 120.167 100.91C119.986 101.033 119.689 101.02 119.6 101.21C119.512 101.4 119.74 101.62 119.687 101.826C119.644 101.994 119.439 102.072 119.293 102.188C119.127 102.349 119.011 102.548 118.957 102.765C118.661 102.816 118.357 102.808 118.065 102.74C117.773 102.673 117.5 102.549 117.266 102.376C117.512 102.935 117.518 103.551 117.527 104.153C117.556 104.346 117.5 104.541 117.372 104.696C118.077 104.71 118.762 104.876 119.449 105.026C119.743 105.117 120.06 105.117 120.354 105.026C120.511 104.949 120.652 104.846 120.77 104.723C121.144 104.374 121.535 104 121.626 103.513C121.65 103.24 121.655 102.965 121.642 102.691C121.678 102.352 121.754 102.018 121.868 101.694C122.066 101.023 122.197 100.336 122.262 99.6423C122.303 99.2138 122.705 98.8703 122.917 98.487C123.311 97.7638 123.724 97.0135 123.756 96.2036C123.783 95.9396 123.685 95.616 123.394 95.5816Z" fill="black"/>
<path d="M122.567 108.592C121.809 108.261 121.256 107.644 120.644 107.116C119.474 106.108 118.045 105.395 116.817 104.45C116.004 103.824 115.275 103.096 114.38 102.571C113.592 102.11 112.699 101.822 111.77 101.731C111.663 101.714 111.554 101.718 111.451 101.745C111.333 101.793 111.231 101.868 111.153 101.962C110.757 102.373 110.404 102.818 110.1 103.291C108.543 105.717 106.333 107.758 104.5 110.016C104.441 110.07 104.406 110.141 104.402 110.217C104.398 110.293 104.425 110.367 104.478 110.425L104.85 111.096C105.059 111.47 105.394 111.908 105.835 111.833C106.037 111.78 106.218 111.674 106.356 111.528L108.029 110.058L109.783 108.518C110.811 107.614 111.856 106.692 112.527 105.538C113.051 106.372 113.98 106.918 114.618 107.682C114.86 107.972 115.057 108.292 115.274 108.599C115.622 109.093 116.016 109.555 116.409 110.016L118.423 112.376C118.677 112.712 118.992 113.005 119.354 113.244C119.831 113.52 120.411 113.594 120.972 113.64C121.728 113.703 122.487 113.728 123.246 113.716C123.825 113.706 124.427 113.672 124.939 113.435C125.451 113.198 125.886 112.712 125.858 112.182C125.827 111.905 125.728 111.637 125.569 111.4C124.858 110.188 123.917 109.176 122.567 108.592Z" fill="#2F2E41"/>
<path d="M124.484 97.2685C124.859 97.2685 125.163 96.9876 125.163 96.6411C125.163 96.2946 124.859 96.0137 124.484 96.0137C124.109 96.0137 123.805 96.2946 123.805 96.6411C123.805 96.9876 124.109 97.2685 124.484 97.2685Z" fill="#E8E8F0"/>
<path d="M124.334 96.1692C124.488 96.4498 124.515 96.7746 124.409 97.0732C124.304 97.367 124.157 97.6466 123.972 97.9049C123.813 98.1716 123.622 98.4214 123.403 98.6498C124.453 98.6968 125.47 98.3189 126.395 97.8597C127.142 97.4981 127.886 97.037 128.283 96.3482C128.165 96.3741 128.042 96.377 127.922 96.3568C127.803 96.3366 127.689 96.2936 127.588 96.2307C127.388 96.1025 127.209 95.9492 127.055 95.7751L126.529 95.2327C126.405 95.1137 126.296 94.9821 126.204 94.8404C126.089 94.6479 126.041 94.4279 126.065 94.2094C125.855 94.4106 125.622 94.589 125.368 94.7409C124.992 94.9669 124.58 95.1296 124.201 95.352C124.067 95.4316 123.769 95.5599 123.846 95.7136C123.923 95.8673 124.228 95.9957 124.334 96.1692Z" fill="#FBBEBE"/>
<path opacity="0.1" d="M124.334 96.1692C124.488 96.4498 124.515 96.7746 124.409 97.0732C124.304 97.367 124.157 97.6466 123.972 97.9049C123.813 98.1716 123.622 98.4214 123.403 98.6498C124.453 98.6968 125.47 98.3189 126.395 97.8597C127.142 97.4981 127.886 97.037 128.283 96.3482C128.165 96.3741 128.042 96.377 127.922 96.3568C127.803 96.3366 127.689 96.2936 127.588 96.2307C127.388 96.1025 127.209 95.9492 127.055 95.7751L126.529 95.2327C126.405 95.1137 126.296 94.9821 126.204 94.8404C126.089 94.6479 126.041 94.4279 126.065 94.2094C125.855 94.4106 125.622 94.589 125.368 94.7409C124.992 94.9669 124.58 95.1296 124.201 95.352C124.067 95.4316 123.769 95.5599 123.846 95.7136C123.923 95.8673 124.228 95.9957 124.334 96.1692Z" fill="black"/>
<path d="M124.348 96.2632C124.242 96.401 124.185 96.5655 124.185 96.7342C124.185 96.9029 124.242 97.0675 124.348 97.2052C124.378 97.2395 124.49 97.4547 124.545 97.4565C124.592 97.4529 124.635 97.4328 124.665 97.4004C124.903 97.1722 125.125 96.9307 125.331 96.6773C125.538 96.4205 125.838 96.2398 126.177 96.1674C126.589 96.1077 126.984 96.3084 127.344 96.5001C127.499 96.5707 127.634 96.6735 127.738 96.8002C127.814 96.9259 127.859 97.0654 127.87 97.2088C127.973 98.0708 128.013 98.9382 127.988 99.805C128.007 100.43 127.962 101.055 127.854 101.673C127.787 101.991 127.687 102.302 127.64 102.624C127.605 102.907 127.591 103.192 127.598 103.477V104.67C127.59 104.889 127.607 105.108 127.65 105.323C127.731 105.58 127.826 105.833 127.935 106.08C128.031 106.376 128.097 106.678 128.132 106.984L128.309 108.219C128.366 108.61 128.407 109.035 128.15 109.347C128.035 109.49 127.882 109.602 127.756 109.743C127.313 110.26 127.461 111.011 127.264 111.653C127.118 112.124 126.82 112.543 126.409 112.855C126.096 113.099 125.691 113.292 125.285 113.217C124.74 113.122 124.411 112.6 124.262 112.106C124.112 111.613 124.065 111.074 123.736 110.66C123.472 110.318 123.065 110.105 122.697 109.861C122.329 109.617 121.966 109.304 121.886 108.892C121.85 108.711 121.872 108.53 121.852 108.349C121.823 108.119 121.727 107.9 121.574 107.716C121.421 107.531 121.216 107.388 120.982 107.301C120.703 107.201 120.356 107.165 120.195 106.939C120.596 106.708 120.888 106.348 121.014 105.929C121.136 105.516 121.202 105.091 121.211 104.663L121.305 103.228C121.346 102.586 121.366 101.949 121.673 101.373C121.811 101.116 121.982 100.874 122.124 100.619C122.314 100.261 122.476 99.8911 122.608 99.5121C122.831 98.9246 123.055 98.3352 123.254 97.7403C123.333 97.4523 123.452 97.1746 123.608 96.9141C123.791 96.6429 124.033 96.3175 124.348 96.2632Z" fill="#E8E8F0"/>
<path d="M120.878 105.591L121.291 105.603L121.38 105.03C121.392 104.915 121.421 104.803 121.466 104.696C121.535 104.582 121.615 104.475 121.705 104.376C122.112 103.848 122.083 103.146 122.183 102.504C122.317 101.649 122.707 100.846 123.092 100.058L123.896 98.4147C123.967 98.2796 124.024 98.1386 124.067 97.9935C124.102 97.8334 124.118 97.6704 124.116 97.5071C124.116 97.254 124.207 96.3301 124.213 96.0752C124.213 95.9812 123.988 96.0336 123.941 95.9505C123.84 95.7697 123.703 96.2614 123.514 96.3699C123.336 96.495 123.206 96.6693 123.144 96.8671C122.97 97.2811 122.864 97.7168 122.703 98.1327C122.561 98.5585 122.303 98.9438 121.953 99.2518C121.789 99.3856 121.598 99.4905 121.443 99.6315C120.943 100.085 120.896 100.801 120.878 101.439C120.866 101.835 120.785 105.591 120.878 105.591Z" fill="#2F2E41"/>
<path d="M126.833 95.578C126.439 95.7226 126.211 96.1204 126.098 96.5073C125.986 96.8942 125.939 97.3028 125.722 97.6463C125.219 98.4527 123.933 98.6877 123.577 99.5591C123.486 99.8534 123.438 100.157 123.433 100.463C123.37 101.087 123.146 101.691 123.079 102.314C123.044 102.8 123.057 103.287 123.116 103.77L123.567 108.693C123.654 109.418 123.608 110.151 123.431 110.863C123.893 110.924 124.365 110.852 124.782 110.658C125.205 110.477 125.591 110.239 125.996 110.033C126.695 109.671 127.467 109.427 128.077 108.948C128.187 108.869 128.283 108.773 128.358 108.664C128.456 108.457 128.522 108.239 128.555 108.015C128.607 107.841 128.673 107.67 128.752 107.505C128.978 107.009 129.175 106.502 129.343 105.986C129.457 105.645 129.547 105.296 129.612 104.943C129.661 104.663 129.687 104.379 129.715 104.097C129.746 103.653 129.842 103.216 130 102.795C130.39 101.793 130.612 100.741 130.656 99.6767C130.669 99.5229 130.658 99.3682 130.622 99.2174C130.554 99.0347 130.463 98.8599 130.35 98.6967C130.163 98.3731 130.051 98.0169 129.874 97.6897C129.48 96.9484 128.774 96.3862 128.035 95.9143C127.657 95.6847 127.242 95.4352 126.833 95.578Z" fill="#2F2E41"/>
<path d="M117.435 103.611C117.115 103.457 116.826 103.256 116.579 103.014C116.467 102.893 116.382 102.757 116.26 102.638C115.971 102.355 115.596 102.159 115.183 102.074C114.774 101.991 114.354 101.954 113.935 101.964C113.655 101.946 113.374 101.977 113.106 102.056C112.972 102.096 112.851 102.167 112.755 102.262C112.658 102.357 112.59 102.473 112.555 102.598C112.494 102.906 112.713 103.204 112.975 103.399C113.218 103.582 113.504 103.71 113.811 103.774C114.061 103.813 114.314 103.84 114.567 103.855C116.055 103.998 117.384 104.741 118.687 105.419C119.833 106.013 121.001 106.569 122.191 107.088C122.238 106.76 122.258 106.43 122.25 106.1C122.25 105.854 122.23 105.478 121.977 105.334C121.681 105.164 121.189 105.126 120.862 105.025C120.095 104.795 119.346 104.517 118.62 104.193C118.209 104.01 117.815 103.817 117.435 103.611Z" fill="#FBBEBE"/>
<path d="M123.941 95.889C125.406 95.889 126.593 94.7922 126.593 93.4392C126.593 92.0862 125.406 90.9894 123.941 90.9894C122.477 90.9894 121.29 92.0862 121.29 93.4392C121.29 94.7922 122.477 95.889 123.941 95.889Z" fill="#FBBEBE"/>
<path d="M127.591 98.355C127.38 98.6274 127.207 98.9233 127.077 99.2355C126.748 99.8557 126.234 100.387 125.978 101.043C125.707 101.725 125.717 102.537 125.191 103.074C125.085 103.155 125.006 103.261 124.961 103.381C124.957 103.456 124.948 103.53 124.933 103.604C124.858 103.799 124.51 103.808 124.445 104.007C124.427 104.065 124.445 104.128 124.413 104.188C124.36 104.316 124.177 104.334 124.053 104.412C123.795 104.573 123.856 104.945 123.66 105.176C123.579 105.262 123.476 105.327 123.36 105.365C123.244 105.402 123.119 105.411 122.998 105.39C122.757 105.343 122.525 105.263 122.309 105.153C122.233 105.114 122.15 105.09 122.063 105.082C121.96 105.084 121.861 105.115 121.778 105.171C121.287 105.457 121.057 106.024 121.061 106.56C121.096 107.095 121.234 107.62 121.469 108.111C121.496 108.196 121.542 108.274 121.604 108.342C121.766 108.5 122.049 108.474 122.266 108.386C122.469 108.275 122.685 108.187 122.91 108.122C123.319 108.053 123.721 108.313 124.136 108.292C124.44 108.249 124.726 108.133 124.965 107.955C125.386 107.72 125.764 107.424 126.083 107.078C126.264 106.86 126.398 106.61 126.557 106.377C126.761 106.09 126.984 105.816 127.226 105.556L128.756 103.837C128.909 103.674 129.047 103.499 129.167 103.314C129.305 103.064 129.413 102.801 129.488 102.53C129.652 102.077 129.758 101.608 129.805 101.132C129.813 100.738 129.775 100.345 129.693 99.9587C129.642 99.5744 129.531 99.1988 129.364 98.8432C129.024 98.2104 128.215 97.6861 127.591 98.355Z" fill="#2F2E41"/>
<path d="M132.917 95.164C132.92 94.7296 132.809 94.301 132.596 93.9135C132.382 93.5259 132.071 93.1905 131.689 92.9348C131.678 92.1637 131.368 91.4214 130.816 90.8403C130.264 90.2592 129.506 89.877 128.675 89.7618C128.515 89.0314 128.079 88.3764 127.444 87.9124C126.809 87.4483 126.017 87.2048 125.206 87.2249C124.395 87.245 123.617 87.5274 123.011 88.0222C122.404 88.5171 122.007 89.1926 121.89 89.9299C120.788 89.7021 119.78 89.9986 119.597 90.6224C119.4 91.2751 120.187 92.038 121.352 92.3273C121.718 92.4221 122.098 92.457 122.476 92.4304C122.747 92.7958 123.099 93.1052 123.507 93.3388C123.916 93.5723 124.374 93.7247 124.851 93.7863C124.991 94.3761 125.307 94.9182 125.764 95.3517C126.222 95.7851 126.802 96.0927 127.439 96.2397C127.615 96.6311 127.889 96.9791 128.238 97.2558C128.238 97.3318 128.225 97.4095 128.225 97.489C128.212 97.767 128.261 98.0444 128.368 98.3046C128.475 98.5648 128.638 98.8024 128.848 99.0032C129.057 99.204 129.309 99.3637 129.587 99.4729C129.866 99.582 130.166 99.6383 130.469 99.6383C130.771 99.6383 131.071 99.582 131.35 99.4729C131.628 99.3637 131.88 99.204 132.09 99.0032C132.299 98.8024 132.463 98.5648 132.57 98.3046C132.677 98.0444 132.725 97.767 132.713 97.489C132.713 97.177 132.64 96.8687 132.498 96.5851C132.775 96.1548 132.92 95.6637 132.917 95.164Z" fill="#F86D70"/>
<path opacity="0.1" d="M120.345 90.7471C120.528 90.1234 121.526 89.8269 122.638 90.0547C122.767 89.3059 123.181 88.6231 123.805 88.1269C124.429 87.6307 125.224 87.353 126.049 87.3427C126.126 87.3427 126.203 87.3427 126.278 87.3427C125.959 87.2534 125.627 87.2083 125.293 87.209C124.468 87.2192 123.673 87.4969 123.049 87.9931C122.425 88.4893 122.011 89.1721 121.882 89.9209C120.78 89.6931 119.772 89.9896 119.589 90.6134C119.392 91.266 120.179 92.029 121.345 92.3183C121.561 92.3735 121.784 92.4086 122.008 92.4231C120.902 92.1266 120.158 91.3854 120.345 90.7471Z" fill="black"/>
<path opacity="0.1" d="M128.972 97.6156C128.972 97.536 128.972 97.4583 128.986 97.3806C128.637 97.1046 128.363 96.7572 128.187 96.3663C127.55 96.2178 126.971 95.9095 126.514 95.4759C126.056 95.0423 125.74 94.5005 125.598 93.9111C125.122 93.8498 124.664 93.6975 124.255 93.4639C123.846 93.2304 123.495 92.9208 123.224 92.5551C123.004 92.5711 122.782 92.5656 122.563 92.5388C122.835 92.8757 123.177 93.1595 123.57 93.3737C123.963 93.5878 124.398 93.7281 124.85 93.7863C124.99 94.3761 125.307 94.9182 125.764 95.3516C126.222 95.7851 126.802 96.0927 127.439 96.2397C127.615 96.6311 127.889 96.9791 128.238 97.2558C128.238 97.3317 128.224 97.4095 128.224 97.489C128.214 98.0433 128.443 98.5787 128.862 98.9784C129.28 99.3781 129.853 99.6096 130.457 99.6224C130.016 99.4664 129.638 99.1907 129.373 98.8321C129.108 98.4735 128.968 98.0491 128.972 97.6156Z" fill="black"/>
<path d="M125.154 94.3368C125.334 94.2112 125.333 93.9308 125.15 93.7105C124.968 93.4903 124.675 93.4136 124.495 93.5392C124.314 93.6648 124.316 93.9452 124.498 94.1655C124.68 94.3857 124.974 94.4624 125.154 94.3368Z" fill="#FBBEBE"/>
<path d="M61.7719 106.527L64.3939 105.111C64.0396 104.555 63.5865 104.057 63.0534 103.638L58.1085 105.05L61.9825 102.958C61.0232 102.476 59.9436 102.231 58.8501 102.248C57.7565 102.265 56.6866 102.543 55.7457 103.055C54.8047 103.567 54.0252 104.296 53.4837 105.168C52.9423 106.041 52.6576 107.029 52.6577 108.033C52.6577 111.228 55.4786 111.338 58.9569 111.338C62.4353 111.338 65.2561 111.228 65.2561 108.033C65.2582 107.223 65.0737 106.422 64.7148 105.683L61.7719 106.527Z" fill="#89A8CC"/>
<path opacity="0.1" d="M62.4392 109.633C62.16 109.376 61.848 109.151 61.5101 108.962C61.0357 108.671 60.5416 108.375 59.9806 108.277C59.4884 108.19 58.9806 108.264 58.4786 108.237C57.607 108.189 56.7865 107.843 56.1774 107.268C55.8191 106.928 55.5376 106.511 55.1065 106.25C54.6247 105.987 54.0562 105.892 53.5042 105.981C53.3442 106.002 53.1858 106.031 53.0298 106.07C52.783 106.699 52.6571 107.364 52.6577 108.033C52.6577 111.228 55.4786 111.338 58.9569 111.338C60.6459 111.338 62.1774 111.313 63.3093 110.92L63.1124 110.597C62.9336 110.251 62.7074 109.927 62.4392 109.633Z" fill="black"/>
</g>
<defs>
<linearGradient id="paint0_linear_1770_17040" x1="111.713" y1="115.645" x2="111.713" y2="86.7823" gradientUnits="userSpaceOnUse">
<stop stop-color="#808080" stop-opacity="0.25"/>
<stop offset="0.54" stop-color="#808080" stop-opacity="0.12"/>
<stop offset="1" stop-color="#808080" stop-opacity="0.1"/>
</linearGradient>
<clipPath id="clip0_1770_17040">
<rect width="225" height="120" fill="white"/>
</clipPath>
</defs>
</svg>
