<svg xmlns="http://www.w3.org/2000/svg" viewBox="0 0 825.75 502.78"><defs><style>.cls-1{fill:#dedede;}.cls-2{fill:#f7f7f7;}.cls-3{fill:#e1e1e1;}.cls-4{fill:#c7c7c7;}.cls-5{fill:#d8d8d8;}.cls-6{fill:#d0d0d0;}.cls-7{fill:#ebebeb;}.cls-8{fill:#e2e2e2;}.cls-9{fill:#dee5e9;}.cls-10{fill:#f2f2f2;}.cls-11{fill:#cc8caf;}.cls-12{fill:#e9f1f4;}.cls-13{fill:#f9f9f9;}.cls-14{fill:#efefef;}.cls-15{fill:#898989;}.cls-16{fill:#d1d1d1;}.cls-17{fill:#9c9c9c;}.cls-18{fill:#f05a28;}.cls-19{fill:#f8b3a0;}.cls-20{fill:#4fae48;}.cls-21{fill:#e6e7e8;}.cls-22{fill:#c1c1c1;}.cls-23{fill:#ffcdc2;}.cls-24{fill:#e0a4ab;}.cls-25{fill:#121e21;}.cls-26{fill:#6c273d;}.cls-27{fill:#ff8c50;}.cls-28{fill:#00a99d;}.cls-29{fill:#ea5f2f;}.cls-30{fill:#414042;}.cls-31{fill:#e5707f;}.cls-32{fill:#ffc5c0;}.cls-33{fill:#ffe6a6;}.cls-34{fill:#efb000;}.cls-35{fill:#ffb000;}.cls-36{fill:#d87600;}.cls-37{fill:#35332e;}.cls-38{fill:#737771;}.cls-39{fill:#ead19b;}.cls-40{fill:#dd6680;}.cls-41{fill:#1b2d37;}.cls-42{fill:#22393d;}.cls-43{fill:#a7c3ea;}.cls-44{fill:#96b4e0;}.cls-45{fill:#688eba;}.cls-46{fill:#12b89f;}.cls-47{fill:#cce0ff;}.cls-48{fill:#ffc300;}.cls-49{fill:#333;}.cls-50{fill:#bc5b35;}.cls-51{fill:#842f14;}.cls-52{fill:#6fce5b;}.cls-53{fill:#449935;}.cls-54{fill:#ef8560;}</style></defs><g id="Layer_2" data-name="Layer 2"><g id="Layer_1-2" data-name="Layer 1"><polyline class="cls-1" points="0 502.78 825.75 502.78 825.75 497.78 0 497.78"/><path class="cls-2" d="M550.41,351.37h-257a3.34,3.34,0,0,0-.19,6.68v-.21H550.41v.21h0v-6.68"/><path class="cls-2" d="M465.38,360.73H389.61v30.51h75.77V360.73m85-2.68h0v2.68H468.27V481.34h-2.89V394.13H389.61v87.21h-2.89V360.73H293.24V481.34H550.41V358.05"/><polyline class="cls-3" points="468.27 360.73 386.72 360.73 386.72 481.34 389.61 481.34 389.61 394.13 388.17 394.13 388.17 391.25 389.61 391.25 389.61 360.73 465.38 360.73 465.38 391.25 466.83 391.25 466.83 394.13 465.38 394.13 465.38 481.34 468.27 481.34 468.27 360.73"/><polyline class="cls-3" points="550.41 357.84 293.24 357.84 293.24 358.05 293.24 358.05 293.24 360.73 386.72 360.73 468.27 360.73 550.41 360.73 550.41 358.05 550.41 357.84"/><polyline class="cls-3" points="466.83 391.25 465.38 391.25 389.61 391.25 388.17 391.25 388.17 394.13 389.61 394.13 465.38 394.13 466.83 394.13 466.83 391.25"/><path class="cls-3" d="M557.27,351.37h-6.86v130h6.86a6,6,0,0,0,6-6v-118a6,6,0,0,0-6-6"/><path class="cls-3" d="M317.44,481.34h-12.1v12.59a2.92,2.92,0,0,0,2.92,2.92h6.27a2.91,2.91,0,0,0,2.91-2.92V481.34"/><path class="cls-3" d="M380.94,481.34h-12.1v12.59a2.92,2.92,0,0,0,2.92,2.92H378a2.91,2.91,0,0,0,2.91-2.92V481.34"/><path class="cls-3" d="M494.75,481.34h-12.1v12.59a2.91,2.91,0,0,0,2.91,2.92h6.27a2.92,2.92,0,0,0,2.92-2.92V481.34"/><path class="cls-3" d="M546.7,481.34H534.6v12.59a2.92,2.92,0,0,0,2.92,2.92h6.27a2.91,2.91,0,0,0,2.91-2.92V481.34"/><path class="cls-4" d="M418,344.46a4.55,4.55,0,1,1,4.55-4.55,4.55,4.55,0,0,1-4.55,4.55m8.64-61.33H409.27v68.24h17.39V283.13"/><path class="cls-5" d="M400.2,344.46a4.55,4.55,0,1,1,4.55-4.55,4.55,4.55,0,0,1-4.55,4.55m9.07-61.33H391.13v68.24h18.14V283.13"/><polyline class="cls-5" points="436.1 283.13 426.66 283.13 426.66 351.37 427.36 351.37 449.15 351.37 449.15 307.13 436.1 283.13"/><path class="cls-6" d="M418,335.36a4.55,4.55,0,1,0,4.55,4.55,4.55,4.55,0,0,0-4.55-4.55"/><path class="cls-1" d="M400.2,335.36a4.55,4.55,0,1,0,4.55,4.55,4.55,4.55,0,0,0-4.55-4.55"/><polyline class="cls-7" points="343.34 296.27 317.77 296.27 317.77 350.55 308.95 350.55 308.95 296.27 308.95 350.55 343.34 350.55 322.75 350.55 322.75 304.02 331.82 304.02 343.34 304.02 343.34 296.27"/><polyline class="cls-5" points="317.77 296.27 309.85 296.27 308.95 296.27 308.95 350.55 317.77 350.55 317.77 296.27"/><polyline class="cls-5" points="352.74 304.02 343.34 304.02 331.82 304.02 331.82 350.55 322.75 350.55 322.75 304.02 322.75 350.55 343.34 350.55 352.74 350.55 350 350.55 337.64 313.59 345.03 309.93 352.74 309.93 352.74 304.02"/><polyline class="cls-4" points="331.82 304.02 322.75 304.02 322.75 350.55 331.82 350.55 331.82 304.02"/><polyline class="cls-8" points="366.27 309.93 352.74 309.93 345.03 309.93 357.9 346.79 380.77 346.79 366.27 309.93"/><polyline class="cls-4" points="345.03 309.93 337.64 313.59 350 350.55 357.9 346.79 345.03 309.93"/><polyline class="cls-7" points="380.77 346.79 380.77 346.79 357.9 346.79 350 350.55 373.9 350.55 380.77 346.79"/><polyline class="cls-9" points="465.95 343.19 465.95 343.19 465.95 344.69 465.95 344.6 515.33 344.6 515.33 343.94 515.33 343.94 515.33 343.94 515.33 343.27 465.95 343.27 465.95 343.19"/><polyline class="cls-9" points="465.95 348.84 465.95 348.84 465.95 350.34 515.33 350.34 515.33 349.59 515.33 349.59 515.33 349.59 515.33 348.93 465.95 348.93 465.95 348.84"/><polyline class="cls-10" points="465.95 347.43 465.95 347.43 465.95 348.84 465.95 348.93 515.33 348.93 515.33 348.18 515.33 348.18 515.33 348.18 515.33 347.51 465.95 347.51 465.95 347.43"/><polyline class="cls-9" points="465.95 346.02 465.95 346.02 465.95 347.43 465.95 347.51 515.33 347.51 515.33 346.76 515.33 346.76 515.33 346.76 515.33 346.1 465.95 346.1 465.95 346.02"/><polyline class="cls-10" points="515.33 344.6 515.33 344.6 465.95 344.6 465.95 344.69 465.95 346.02 465.95 346.1 515.33 346.1 515.33 345.35 515.33 345.35 515.33 345.35 515.33 344.6"/><polyline class="cls-9" points="465.95 343.01 462.84 343.01 465.95 343.19 465.95 343.01"/><polyline class="cls-10" points="465.95 341.78 465.95 341.78 465.95 343.01 465.95 343.19 465.95 343.27 515.33 343.27 515.33 342.52 515.33 342.52 515.33 342.52 515.33 341.86 465.95 341.86 465.95 341.78"/><polyline class="cls-9" points="465.95 340.36 465.95 340.36 465.95 341.78 465.95 341.86 515.33 341.86 515.33 341.11 515.33 341.11 515.33 341.11 515.33 340.44 465.95 340.44 465.95 340.36"/><polyline class="cls-10" points="465.95 338.95 465.95 338.95 465.95 340.36 465.95 340.44 515.33 340.44 515.33 339.7 515.33 339.7 515.33 339.7 515.33 339.03 465.95 339.03 465.95 338.95"/><polyline class="cls-9" points="465.95 337.54 465.95 337.54 465.95 338.95 465.95 339.03 515.33 339.03 515.33 338.28 515.33 338.28 515.33 338.28 515.33 337.62 465.95 337.62 465.95 337.54"/><polyline class="cls-10" points="465.95 336.12 465.95 336.12 465.95 337.54 465.95 337.62 515.33 337.62 515.33 336.87 515.33 336.87 515.33 336.87 515.33 336.2 465.95 336.2 465.95 336.12"/><polyline class="cls-9" points="465.95 334.71 465.95 334.71 465.95 336.12 465.95 336.2 515.33 336.2 515.33 335.46 515.33 335.46 515.33 335.46 515.33 334.79 465.95 334.79 465.95 334.71"/><polyline class="cls-10" points="465.95 333.29 465.95 333.29 465.95 334.71 465.95 334.79 515.33 334.79 515.33 334.04 515.33 334.04 515.33 334.04 515.33 333.38 465.95 333.38 465.95 333.29"/><polyline class="cls-9" points="465.95 331.88 465.95 331.88 465.95 333.29 465.95 333.38 515.33 333.38 515.33 332.63 515.33 332.63 515.33 332.63 515.33 331.96 465.95 331.96 465.95 331.88"/><polyline class="cls-10" points="465.95 330.47 465.95 330.47 465.95 331.88 465.95 331.96 515.33 331.96 515.33 331.22 515.33 331.22 515.33 331.22 515.33 330.55 465.95 330.55 465.95 330.47"/><polyline class="cls-9" points="465.95 329.05 465.95 329.05 465.95 330.47 465.95 330.55 515.33 330.55 515.33 329.8 515.33 329.8 515.33 329.8 515.33 329.14 465.95 329.14 465.95 329.05"/><polyline class="cls-10" points="465.95 327.64 465.95 327.64 465.95 329.05 465.95 329.14 515.33 329.14 515.33 328.39 515.33 328.39 515.33 328.39 515.33 327.72 465.95 327.72 465.95 327.64"/><polyline class="cls-9" points="465.95 326.23 465.95 326.23 465.95 327.64 465.95 327.72 515.33 327.72 515.33 326.98 515.33 326.98 515.33 326.98 515.33 326.31 465.95 326.31 465.95 326.23"/><polyline class="cls-10" points="465.95 324.81 465.95 324.81 465.95 326.23 465.95 326.31 515.33 326.31 515.33 325.56 515.33 325.56 515.33 325.56 515.33 324.89 465.95 324.89 465.95 324.81"/><polyline class="cls-9" points="465.95 323.4 465.95 323.4 465.95 324.81 465.95 324.89 515.33 324.89 515.33 324.15 515.33 324.15 515.33 324.15 515.33 323.48 465.95 323.48 465.95 323.4"/><polyline class="cls-10" points="465.95 321.99 465.95 321.99 465.95 323.4 465.95 323.48 515.33 323.48 515.33 322.73 515.33 322.73 515.33 322.73 515.33 322.07 465.95 322.07 465.95 321.99"/><polyline class="cls-9" points="465.95 320.57 465.95 320.57 465.95 321.99 465.95 322.07 515.33 322.07 515.33 321.32 515.33 321.32 515.33 321.32 515.33 320.65 465.95 320.65 465.95 320.57"/><polyline class="cls-10" points="515.33 319.16 465.95 319.16 465.95 320.57 465.95 320.65 515.33 320.65 515.33 319.91 515.33 319.91 515.33 319.91 515.33 319.16"/><polyline class="cls-11" points="515.33 349.59 515.33 349.59 515.33 349.59 515.33 349.59"/><polyline class="cls-12" points="515.33 348.84 515.33 348.84 515.33 349.59 515.33 350.34 535.04 350.34 535.04 348.93 515.33 348.93 515.33 348.84"/><polyline class="cls-11" points="515.33 348.18 515.33 348.18 515.33 348.18 515.33 348.18"/><polyline class="cls-13" points="515.33 347.43 515.33 347.43 515.33 348.18 515.33 348.84 515.33 348.93 535.04 348.93 535.04 347.51 515.33 347.51 515.33 347.43"/><polyline class="cls-11" points="515.33 346.76 515.33 346.76 515.33 346.76 515.33 346.76"/><polyline class="cls-12" points="515.33 346.02 515.33 346.02 515.33 346.76 515.33 347.43 515.33 347.51 535.04 347.51 535.04 346.1 515.33 346.1 515.33 346.02"/><polyline class="cls-11" points="515.33 345.35 515.33 345.35 515.33 345.35 515.33 345.35"/><polyline class="cls-13" points="515.33 344.6 515.33 344.6 515.33 345.35 515.33 346.02 515.33 346.1 535.04 346.1 535.04 344.69 515.33 344.69 515.33 344.6"/><polyline class="cls-11" points="515.33 343.94 515.33 343.94 515.33 343.94 515.33 343.94"/><polyline class="cls-12" points="515.33 343.19 515.33 343.19 515.33 343.94 515.33 344.6 515.33 344.69 535.04 344.69 535.04 343.27 515.33 343.27 515.33 343.19"/><polyline class="cls-11" points="515.33 342.52 515.33 342.52 515.33 342.52 515.33 342.52"/><polyline class="cls-13" points="515.33 341.78 515.33 341.78 515.33 342.52 515.33 343.19 515.33 343.27 535.04 343.27 535.04 341.86 515.33 341.86 515.33 341.78"/><polyline class="cls-11" points="515.33 341.11 515.33 341.11 515.33 341.11 515.33 341.11"/><polyline class="cls-12" points="515.33 340.36 515.33 340.36 515.33 341.11 515.33 341.78 515.33 341.86 535.04 341.86 535.04 340.44 515.33 340.44 515.33 340.36"/><polyline class="cls-11" points="515.33 339.7 515.33 339.7 515.33 339.7 515.33 339.7"/><polyline class="cls-13" points="515.33 338.95 515.33 338.95 515.33 339.7 515.33 340.36 515.33 340.44 535.04 340.44 535.04 339.03 515.33 339.03 515.33 338.95"/><polyline class="cls-11" points="515.33 338.28 515.33 338.28 515.33 338.28 515.33 338.28"/><polyline class="cls-12" points="515.33 337.54 515.33 337.54 515.33 338.28 515.33 338.95 515.33 339.03 535.04 339.03 535.04 337.62 515.33 337.62 515.33 337.54"/><polyline class="cls-11" points="515.33 336.87 515.33 336.87 515.33 336.87 515.33 336.87"/><polyline class="cls-13" points="515.33 336.12 515.33 336.12 515.33 336.87 515.33 337.54 515.33 337.62 535.04 337.62 535.04 336.2 515.33 336.2 515.33 336.12"/><polyline class="cls-11" points="515.33 335.46 515.33 335.46 515.33 335.46 515.33 335.46"/><polyline class="cls-12" points="515.33 334.71 515.33 334.71 515.33 335.46 515.33 336.12 515.33 336.2 535.04 336.2 535.04 334.79 515.33 334.79 515.33 334.71"/><polyline class="cls-11" points="515.33 334.04 515.33 334.04 515.33 334.04 515.33 334.04"/><polyline class="cls-13" points="515.33 333.29 515.33 333.29 515.33 334.04 515.33 334.71 515.33 334.79 535.04 334.79 535.04 333.38 515.33 333.38 515.33 333.29"/><polyline class="cls-11" points="515.33 332.63 515.33 332.63 515.33 332.63 515.33 332.63"/><polyline class="cls-12" points="515.33 331.88 515.33 331.88 515.33 332.63 515.33 333.29 515.33 333.38 535.04 333.38 535.04 331.96 515.33 331.96 515.33 331.88"/><polyline class="cls-11" points="515.33 331.22 515.33 331.22 515.33 331.22 515.33 331.22"/><polyline class="cls-13" points="515.33 330.47 515.33 330.47 515.33 331.22 515.33 331.88 515.33 331.96 535.04 331.96 535.04 330.55 515.33 330.55 515.33 330.47"/><polyline class="cls-11" points="515.33 329.8 515.33 329.8 515.33 329.8 515.33 329.8"/><polyline class="cls-12" points="515.33 329.05 515.33 329.05 515.33 329.8 515.33 330.47 515.33 330.55 535.04 330.55 535.04 329.14 515.33 329.14 515.33 329.05"/><polyline class="cls-11" points="515.33 328.39 515.33 328.39 515.33 328.39 515.33 328.39"/><polyline class="cls-13" points="515.33 327.64 515.33 327.64 515.33 328.39 515.33 329.05 515.33 329.14 535.04 329.14 535.04 327.72 515.33 327.72 515.33 327.64"/><polyline class="cls-11" points="515.33 326.98 515.33 326.98 515.33 326.98 515.33 326.98"/><polyline class="cls-12" points="515.33 326.23 515.33 326.23 515.33 326.98 515.33 327.64 515.33 327.72 535.04 327.72 535.04 326.31 515.33 326.31 515.33 326.23"/><polyline class="cls-11" points="515.33 325.56 515.33 325.56 515.33 325.56 515.33 325.56"/><polyline class="cls-13" points="515.33 324.81 515.33 324.81 515.33 325.56 515.33 326.23 515.33 326.31 535.04 326.31 535.04 324.89 515.33 324.89 515.33 324.81"/><polyline class="cls-11" points="515.33 324.15 515.33 324.15 515.33 324.15 515.33 324.15"/><polyline class="cls-12" points="515.33 323.4 515.33 323.4 515.33 324.15 515.33 324.81 515.33 324.89 535.04 324.89 535.04 323.48 515.33 323.48 515.33 323.4"/><polyline class="cls-11" points="515.33 322.73 515.33 322.73 515.33 322.73 515.33 322.73"/><polyline class="cls-13" points="515.33 321.99 515.33 321.99 515.33 322.73 515.33 323.4 515.33 323.48 535.04 323.48 535.04 322.07 515.33 322.07 515.33 321.99"/><polyline class="cls-11" points="515.33 321.32 515.33 321.32 515.33 321.32 515.33 321.32"/><polyline class="cls-12" points="515.33 320.57 515.33 320.57 515.33 321.32 515.33 321.99 515.33 322.07 535.04 322.07 535.04 320.65 515.33 320.65 515.33 320.57"/><polyline class="cls-11" points="515.33 319.91 515.33 319.91 515.33 319.91 515.33 319.91"/><polyline class="cls-13" points="535.04 319.16 515.33 319.16 515.33 319.91 515.33 320.57 515.33 320.65 535.04 320.65 535.04 319.16"/><rect class="cls-14" x="119.29" y="0.99" width="70.04" height="110.91"/><rect class="cls-14" x="119.29" y="121.88" width="70.04" height="110.91"/><rect class="cls-14" x="199.33" y="0.99" width="70.04" height="110.91"/><polyline class="cls-14" points="269.37 232.79 199.33 232.79 199.33 121.88 269.37 121.88 269.37 232.79"/><rect class="cls-14" x="119.29" y="243.12" width="70.04" height="110.91"/><rect class="cls-14" x="199.33" y="243.12" width="70.04" height="110.91"/><path class="cls-1" d="M678.54,227.24v-.5H354.45a14.17,14.17,0,0,1-14.16-14.16V15.17A14.17,14.17,0,0,1,354.45,1H678.54a14.17,14.17,0,0,1,14.17,14.17V212.58a14.17,14.17,0,0,1-14.17,14.16v1a15.17,15.17,0,0,0,15.17-15.16V15.17A15.17,15.17,0,0,0,678.54,0H354.45a15.17,15.17,0,0,0-15.16,15.17V212.58a15.16,15.16,0,0,0,15.16,15.16H678.54Z"/><path class="cls-1" d="M693.21,26.84H339.79V14.42A13.43,13.43,0,0,1,353.22,1H679.78a13.43,13.43,0,0,1,13.43,13.43Z"/><circle class="cls-15" cx="360.92" cy="14.66" r="4.31"/><circle class="cls-16" cx="372.95" cy="14.66" r="4.31"/><circle class="cls-17" cx="384.98" cy="14.66" r="4.31"/><path class="cls-18" d="M430.62,53.67V82.84h29.17a29.17,29.17,0,1,1-29.17-29.17Z"/><path class="cls-19" d="M438.21,46.08a29.17,29.17,0,0,1,29.17,29.17H438.21Z"/><rect class="cls-20" x="387.35" y="173.75" width="5.37" height="25.01"/><rect class="cls-20" x="399.39" y="148.01" width="5.37" height="50.76"/><rect class="cls-20" x="411.44" y="165.96" width="5.37" height="32.81"/><rect class="cls-20" x="423.48" y="153.96" width="5.37" height="44.8"/><rect class="cls-20" x="435.53" y="163.89" width="5.37" height="34.88"/><polygon class="cls-20" points="452.83 198.76 447.68 198.76 447.57 198.66 447.57 139.95 447.68 139.85 452.83 139.85 452.94 139.95 452.94 198.66 452.83 198.76"/><rect class="cls-20" x="459.61" y="155.37" width="5.37" height="43.39" rx="0.19"/><rect class="cls-20" x="471.66" y="168.04" width="5.37" height="30.72" rx="0.19"/><rect class="cls-20" x="483.7" y="153.96" width="5.37" height="44.8" rx="0.19"/><rect class="cls-20" x="495.75" y="144.56" width="5.37" height="54.2"/><polygon class="cls-21" points="641.02 49.88 641.02 116.74 541.42 116.74 541.42 117.74 642.02 117.74 642.02 49.88 641.02 49.88 641.02 49.88"/><path class="cls-20" d="M575.1,88l13.68,8.37a2.24,2.24,0,0,0,3-.62l14.17-20.08a2.23,2.23,0,0,1,3.5-.19l12.91,14.64a2.24,2.24,0,0,0,3.69-.5l11.24-23a2.23,2.23,0,0,1,4.24,1v44.6h-92l22.81-23.8A2.23,2.23,0,0,1,575.1,88Z"/><rect class="cls-22" x="539.19" y="145.91" width="35.73" height="3.71"/><rect class="cls-1" x="553.81" y="155.42" width="43.61" height="3.71"/><rect class="cls-1" x="603.68" y="155.42" width="36.73" height="3.71"/><rect class="cls-1" x="553.81" y="164.99" width="19.14" height="3.71"/><rect class="cls-1" x="579.21" y="164.99" width="69.33" height="3.71"/><rect class="cls-1" x="553.81" y="174.56" width="36.54" height="3.71"/><rect class="cls-1" x="596.61" y="174.56" width="45.9" height="3.71"/><rect class="cls-1" x="553.81" y="184.13" width="25.75" height="3.71"/><rect class="cls-1" x="585.82" y="184.13" width="52.74" height="3.71"/><rect class="cls-1" x="553.81" y="193.7" width="33.99" height="3.71"/><rect class="cls-1" x="594.06" y="193.7" width="29.66" height="3.71"/><path class="cls-23" d="M317.37,132.66s31.09-8.85,39.46-22.84a8.36,8.36,0,0,1,2.61-2.74s7.86-5,14.26-8c5.41-2.58,9.65-3.54,8.46-1.74-3.45,5.22-9.84,7.66-9.84,7.66s5.37,2,2.73,6.44c0,0,3.25,1.67.71,5.55,0,0,4.77,2.45-1,5.89A25.61,25.61,0,0,1,357.53,129a5.59,5.59,0,0,0-3.17.35l-27.46,17.3Z"/><path class="cls-24" d="M375.76,117a15.71,15.71,0,0,0-3.15.89,11.33,11.33,0,0,0-2.91,1.63,2.66,2.66,0,0,0-1,1.58,2.11,2.11,0,0,0,.66,1.75,3.07,3.07,0,0,0,1.54.83,1.87,1.87,0,0,0,1.61-.39,1.79,1.79,0,0,1-1.5,0,2.79,2.79,0,0,1-1.16-.86,1.52,1.52,0,0,1-.37-1.21,2,2,0,0,1,.76-1,16.47,16.47,0,0,1,2.64-1.68Z"/><path class="cls-24" d="M362.35,105.55a33.06,33.06,0,0,1,3.87.54,14.54,14.54,0,0,1,3.66,1.12,4.82,4.82,0,0,1,1.46,1.06,2,2,0,0,1,.51,1.52,3.16,3.16,0,0,1-.21.83l-.37.89c-.26.6-.53,1.18-.81,1.77s-.57,1.15-.88,1.71q-.24.41-.51.81l-.26.38a.49.49,0,0,1-.22.19c-.33.18-.8-.19-.74-.65a14.09,14.09,0,0,0,.14-2,4.59,4.59,0,0,0-.41-2,1.6,1.6,0,0,0-.81-.73,4.24,4.24,0,0,0-1-.32,7.69,7.69,0,0,0-3.9.44,8,8,0,0,1,3.83-.11,4,4,0,0,1,.85.35,1.21,1.21,0,0,1,.59.59,4.12,4.12,0,0,1,.23,1.8,11.78,11.78,0,0,1-.25,1.91,1.41,1.41,0,0,0,.44,1.2,1.25,1.25,0,0,0,1.84-.19,3.91,3.91,0,0,0,.3-.41,9.38,9.38,0,0,0,.54-.85c.34-.57.65-1.16.94-1.75s.56-1.2.81-1.81l.37-.91a3.48,3.48,0,0,0,.25-1.07,2.74,2.74,0,0,0-.74-2.07,4.92,4.92,0,0,0-1.74-1.16A19,19,0,0,0,362.35,105.55Z"/><path class="cls-24" d="M357.43,122.92c.07,0,7.78.46,7.87-10.49C365.3,112.43,364,121.17,357.43,122.92Z"/><path class="cls-24" d="M369.18,120.17a10.36,10.36,0,0,1-1.31-1.5,2.34,2.34,0,0,1-.31-.8,6,6,0,0,1-.1-1,1.64,1.64,0,0,0-.55,1,1.8,1.8,0,0,0,.25,1.22,2.32,2.32,0,0,0,.89.82A2.21,2.21,0,0,0,369.18,120.17Z"/><path class="cls-24" d="M372.36,105.55a3.53,3.53,0,0,0-1.31.13,4.6,4.6,0,0,0-1.2.5,1.47,1.47,0,0,0,1.42.3A1.58,1.58,0,0,0,372.36,105.55Z"/><path class="cls-25" d="M253.54,473.48l0,.14c.3,1.27,2.5,10.9,2,15.63-.54,5.07-7.14,6.15-7.14,6.15l-4.78-16.08"/><path class="cls-24" d="M268,356.47s-12.1,24.9-12,28.08c.43,11.76.75,41.18-5.15,67.63,0,0,.07,16.18,2.71,21.3,0,0-2.24,7.87-8.6,4.91l-4.54-15.23.54-31.18-.13-15.37,2.5-31,.34-21.16.81-3.78Z"/><path class="cls-25" d="M251.14,450.78s-2.36,3.66-8.71,3.72l-.1,4.13s8.12-1.62,8.58-3.15l-.06-2.71Z"/><path class="cls-25" d="M228.06,476.47c-.42.08-.51.53-.77.88-1.34,1.79-3.06,9.73-.48,14.82,3.25,6.42,13.59,6.42,22.12,3.13,1.3-.51,1.6-2.85,1.59-4.29,0-3.71-.49-11.5-3.35-18a.67.67,0,0,0-.76-.39Z"/><path class="cls-23" d="M214.94,360.06s7.72,10.09,6.82,19.07c-1.2,12-3,41.48,6.79,72.06,0,0,1.29,14.83-.81,25.26,0,0,10.43,11.78,19.09-2.78,0,0-4.33-12.19-4.46-20.85-.12-7.12.87-14.51.1-23.61a72.67,72.67,0,0,1,.2-14,463.77,463.77,0,0,0,2.2-53.4Z"/><path class="cls-25" d="M242.36,450.32a17.45,17.45,0,0,1-13.81.87l.24,3.88s7.79,2.42,13.63-.9Z"/><path class="cls-26" d="M206.58,256.7c-2.81,3.32-5.22,19.33-6.28,31.17a131.57,131.57,0,0,0,10.51,64.63c2.2,5,3.83,7.86,3.83,7.86,43.6,4.61,53.49-1.08,53.49-1.08,29.94-62,2.47-102.92,2.47-102.92Z"/><path class="cls-27" d="M249.14,150.5c23,2,48-7.21,73.86-21.26l6.3,17.27-55.65,29c-1.9,1.72.23,19.18-2.39,32.58-5.22,26.68,2.43,51,3.54,52.82,0,0-20,12.24-72.38,2,6.73-36.27-2.65-49.47.94-69.67l-7.05,34.59,8.89,2.25a.51.51,0,0,1,.34.7c-.87,1.89-3.54,8.58-3,18.56a.39.39,0,0,1-.36.42c-2.93.15-21.5.63-26.43-12a6.21,6.21,0,0,1-.27-3.52l9-44.53s4.16-20.1,13.4-24.07l27-13.81Z"/><polygon class="cls-28" points="245.28 173.46 224.49 173.32 237.29 226.68 245.28 173.46"/><path class="cls-29" d="M259.68,150.4s-.25,8.8-2.28,35.31c0,0-4-.61-5,.24s3.76,6.4,3.76,6.4l-18.82,34.32,8.38-55,3.47-21.15S249.88,151.26,259.68,150.4Z"/><polygon class="cls-29" points="206.01 161.44 214.34 183.68 220.12 186.88 217.38 189.77 237.29 226.68 220.07 154.69 206.01 161.44"/><path class="cls-24" d="M249.68,141.84s-3.18,5.41-.54,8.66l-3.86,23-20.79-.14-6-25.93,4.95-10.49L237.36,145h4.26Z"/><path class="cls-23" d="M259.53,115.18s-.2,7.83-.71,14c-.56,6.76-10.21,15.69-16.81,17.07s-19.75-9-19.75-9l-8.64-7.42-1-10L221,117l10.41-7.72,8.94-1.43,4.92-6.14,1.78-2.54,4.36,6.15,4.17,4.77,3.91,5.13"/><path class="cls-30" d="M255.7,117.4a2.6,2.6,0,0,0-.49-1.71,3.06,3.06,0,0,0-1.49-1.13,2.65,2.65,0,0,0-1.92,0,2.5,2.5,0,0,0-1.31,1.23c.63,0,1.12,0,1.56.06a4.43,4.43,0,0,1,1.14.24A18.2,18.2,0,0,1,255.7,117.4Z"/><path class="cls-30" d="M237.29,116a3.63,3.63,0,0,0-1.57-1.31,4.29,4.29,0,0,0-2.08-.38,3.54,3.54,0,0,0-2,.82,3,3,0,0,0-1,1.82,15.23,15.23,0,0,1,1.7-.69,6.5,6.5,0,0,1,1.5-.28C234.8,115.86,235.89,116,237.29,116Z"/><ellipse class="cls-30" cx="235.87" cy="123.05" rx="1.52" ry="2.06"/><path class="cls-30" d="M251.1,123.12a1.58,1.58,0,1,0,1.52-2A1.8,1.8,0,0,0,251.1,123.12Z"/><path class="cls-31" d="M245.79,137.23c.54-.8.6-1.63-1.67-1.55l-.31,0a8,8,0,0,1-4.62-.63,1.28,1.28,0,0,0-1.71.49c-.38.74,2.25,2.79,3.84,3a3.69,3.69,0,0,0,1.17.21A3.75,3.75,0,0,0,245.79,137.23Z"/><path class="cls-24" d="M245.11,131.38a1.56,1.56,0,0,0,1.55-.14,1.65,1.65,0,0,0,.59-.77,1.88,1.88,0,0,0,.08-1,2.28,2.28,0,0,0-.79-1.35,2.39,2.39,0,0,0-1.33-.59,5.91,5.91,0,0,0,.24,1.32,7.38,7.38,0,0,1,.23.89,1.3,1.3,0,0,1,0,.56A3.82,3.82,0,0,1,245.11,131.38Z"/><path class="cls-30" d="M259.83,113.91s2.95-27.73-24.57-26.31c-12.29.64-19.54,6.17-23.8,12.1a26.14,26.14,0,0,0-1.18,28.56c1.26,2.1,3,4.41,4.82,5.2a12.32,12.32,0,0,1,2.42-.86c.3-.06.7-.07.5-.31-1.43-1.7-5.83-7.6-3.24-10.36a3.41,3.41,0,0,1,5.33.67,5.78,5.78,0,0,1,.88,2.89s-2.87-11.33,20.78-16.65c4.42-1,4.81-8.19,4.81-8.19a13,13,0,0,0,6,10.79c6.25,3.81,7,5.74,7,5.74Z"/><path class="cls-24" d="M371.58,112.2c2.2,1.19,3.15-.64,3.15-.64S372.81,112.58,371.58,112.2Z"/><path class="cls-30" d="M236.07,121.13a6.7,6.7,0,0,0-1.42-.1l-.67,0a3.38,3.38,0,0,0-.75.16,1.77,1.77,0,0,0,1.44.63,1.93,1.93,0,0,0,.78-.18A1.42,1.42,0,0,0,236.07,121.13Z"/><path class="cls-30" d="M255.31,121.07a6.7,6.7,0,0,0-1.42-.1l-.67,0a3.57,3.57,0,0,0-.76.16,1.75,1.75,0,0,0,1.45.63,2,2,0,0,0,.78-.18A1.42,1.42,0,0,0,255.31,121.07Z"/><path class="cls-32" d="M230.48,128c-1.92,0-3.48,1.12-3.48,2.5s1.56,2.51,3.48,2.51,3.49-1.12,3.49-2.51-1.56-2.5-3.49-2.5"/><path class="cls-32" d="M253.2,128a2.5,2.5,0,1,0,2.59,2.5,2.54,2.54,0,0,0-2.59-2.5"/><path class="cls-24" d="M216.13,124.23s2.1-1.66,2.64.51.17,5.38-.81,3.86.54-3.59.54-3.59S218.18,123.35,216.13,124.23Z"/><path class="cls-23" d="M204.34,231.27c6.79,1.86,20.48,5.13,31.64,4.76l2-.11c.51,0,1-.09,1.51-.15v.06c4.88-.3,11.1-.77,13-1.31,3.19-.93,4.94-2,6.21-.86a15.8,15.8,0,0,0,4.13,2.13.86.86,0,0,1,.54.74c.06.87-.24,2.42-3.14,2.73v.1c1.29.27,5.42,1.23,5.56,2.49.17,1.5-.6,3.06-2.63,2.85,0,0-.06,2.49-1.43,2.92a3.1,3.1,0,0,1-1.95.18s-.46,2.14-1.81,2.24-2,.23-2,.23a2.51,2.51,0,0,1-2.27,1.5c-3,0-7.41-1.73-10.86-2.74-10.67-2.64-21,1-41.66-.16C199.94,241.52,201.37,235.12,204.34,231.27Z"/><path class="cls-24" d="M260.12,239.27c.15,0,1-.39.81-.46s-4.4-2-7.37-1.18c-.19.05,6.43,1.61,6.47,1.62Z"/><path class="cls-24" d="M262.89,245.05a.45.45,0,0,0,.4-.24.52.52,0,0,0-.16-.68,11.94,11.94,0,0,0-5.26-1.8.47.47,0,0,0-.48.48.48.48,0,0,0,.44.51,11.25,11.25,0,0,1,4.83,1.66Z"/><path class="cls-24" d="M255.93,250.54a.5.5,0,0,0,.17-.65c-.06-.12-.65-1.17-3.24-1.72a.46.46,0,0,0-.53.4.49.49,0,0,0,.36.58c2.13.45,2.61,1.22,2.61,1.23A.78.78,0,0,0,255.93,250.54Z"/><path class="cls-24" d="M259.52,248.15a.44.44,0,0,0,.37-.21.51.51,0,0,0-.11-.69,10.28,10.28,0,0,0-4.42-1.84.47.47,0,0,0-.52.43.49.49,0,0,0,.4.55,9.53,9.53,0,0,1,4,1.67A.44.44,0,0,0,259.52,248.15Z"/><path class="cls-30" d="M214.13,133.75a3,3,0,0,1,1.28-.8l2.38-.7h.07a37.19,37.19,0,0,0,5.09,5.57c-2.53,27.16,18.21,38.71,19.39,40.31,0,0-24.76,1.41-33.46-15.79C203.83,152.36,207.6,140.51,214.13,133.75Z"/><path class="cls-33" d="M583.28,409.52s2.93,29.81,14.91,25.53S640,413.27,640,413.27l-6.75-11.75s-31.07,27-36.41,12.25S583.28,409.52,583.28,409.52Z"/><path class="cls-33" d="M608.32,324.48h0l-19.64,3.82a21.65,21.65,0,0,0-12.74,6.51,15.82,15.82,0,0,0-3,17.92l16.23,33.95h10.33L587,350.51A10.15,10.15,0,0,1,589.18,340c2.27-2.31,4.74-2.55,14.55.68a12.91,12.91,0,0,1,1.36.55h0C592.66,332.68,608.32,324.48,608.32,324.48Z"/><path class="cls-33" d="M708.37,267.72l-4.17-6.39a9.84,9.84,0,0,0-8.09-4.44l-22.7-.35S624.65,365.05,625,369.38a86.49,86.49,0,0,0-5-10.23,176.39,176.39,0,0,1,10.86,25.53h58.48l-6.52-38.09,11.43-14.34Z"/><path class="cls-33" d="M673.41,256.54h0l-17.6-.16c-3.55.4-7.48,1.85-8.95,5.14C637.78,281.8,633.13,299.93,627,313c-2.16,4.63-5.17,8.82-10.24,9.81l-8.48,1.66s-15.66,8.2-3.23,16.79h0c5.51,2.63,10.7,10,15,17.88a86.49,86.49,0,0,1,5,10.23C624.65,365.05,673.41,256.54,673.41,256.54Z"/><path class="cls-34" d="M702.5,418.49,699,420.66Z"/><path class="cls-34" d="M702.89,418.26l-.12.07Z"/><path class="cls-34" d="M703,418.2l-.09.06Z"/><path class="cls-34" d="M702.77,418.33l-.27.16Z"/><path class="cls-34" d="M699,420.66l-.61.37Z"/><path class="cls-34" d="M698.37,421l-.19.12Z"/><path class="cls-35" d="M689.39,418.86H558.46A18.48,18.48,0,0,1,540,400.38V389.47a4.79,4.79,0,0,1,4.79-4.79H689.39Z"/><path class="cls-36" d="M689.39,418.86H623.16a18.48,18.48,0,0,1-18.48-18.48v-8.61a7.09,7.09,0,0,1,7.09-7.09h77.62Z"/><path class="cls-37" d="M625,428.57H614.25a4.83,4.83,0,0,1-4.83-4.83v-4.88H629.8v4.88A4.83,4.83,0,0,1,625,428.57Z"/><path d="M563.5,490.12a8.26,8.26,0,1,1-8.26-8.16A8.21,8.21,0,0,1,563.5,490.12Z"/><path class="cls-38" d="M561,490.12a8.26,8.26,0,1,1-8.26-8.16A8.21,8.21,0,0,1,561,490.12Z"/><path d="M622.83,489.12c0,4.51-1.57,8.16-3.5,8.16-.94,0-3.93-.07-3.93-.07-.69-3.56.32-13.95.32-16.25h3.61C621.26,481,622.83,484.62,622.83,489.12Z"/><path class="cls-38" d="M618.33,489.12c0,4.51-1.17,8.16-2.61,8.16s-2.6-3.65-2.6-8.16,1.17-8.16,2.6-8.16S618.33,484.62,618.33,489.12Z"/><rect class="cls-37" x="615.4" y="428.57" width="8.43" height="52.4"/><path d="M687.3,476.89l-.65-4.19a2.17,2.17,0,0,0-1.47-1.82L621,452.76V428.57h1a5,5,0,0,0,5-4.93v-4.78H606.55v4.78a5,5,0,0,0,5,4.93h1v24.25l-64,18.06A2.18,2.18,0,0,0,547,472.7l-.65,4.19c-.42,2.57.64,4.87,1.81,4.95l9.93.74a2.65,2.65,0,0,0,.8-.06,3.48,3.48,0,0,0,2.36-2.84l.6-3a3.29,3.29,0,0,1,2.23-1.88l48.41-10.06V481H621V464.72l48.63,10.11a3.26,3.26,0,0,1,2.22,1.88l.6,3a3.49,3.49,0,0,0,2.36,2.84,2.68,2.68,0,0,0,.8.06l9.93-.74C686.67,481.76,687.72,479.46,687.3,476.89Z"/><path d="M691,490.12a8.26,8.26,0,1,1-8.26-8.16A8.21,8.21,0,0,1,691,490.12Z"/><path class="cls-38" d="M688.54,490.12a8.26,8.26,0,1,1-8.26-8.16A8.21,8.21,0,0,1,688.54,490.12Z"/><path class="cls-33" d="M658.25,354.62s-25.54-9.67-19.57,18l9,41.56a11.21,11.21,0,0,0,14.86,8.07l25.85-9.48a11.56,11.56,0,0,0,7.45-12.73C693.72,387.47,686.05,365.76,658.25,354.62Z"/><path class="cls-36" d="M654.45,418.86h17.39s17.83-5.6,20-8.12V389.1a4.45,4.45,0,0,0-4.47-4.42H641.27l6.53,30.2s1.08,3.69,2.06,4A23.64,23.64,0,0,0,654.45,418.86Z"/><path class="cls-39" d="M605.09,341.27c6.43,4.44,11.53,11.8,15,17.88C615.79,351.24,610.6,343.9,605.09,341.27Z"/><path class="cls-24" d="M616.59,229.63s3.58,9.38.46,16.46c0,0,20-.75,25.05-9.84l-9.83-30.51s-22.22-3.21-20.87,9.15S616.59,229.63,616.59,229.63Z"/><path class="cls-23" d="M593.24,190.73s4.6,20.47.8,25.34-3.18,5.74.6,6.63c0,0,.63,10.72,6.69,12.38s15.59-1.32,19.52-6.26a96.75,96.75,0,0,0,6.2-8.64s5.58,0,6.34-7.35-.06-25.62-13.45-27.79-21.51-7-24.63-2.33S593.24,190.73,593.24,190.73Z"/><path class="cls-30" d="M631.17,218.37s3.18,5.72,1,8.77c0,0,12.34-3.19,16.86-18.65,3.78-12.94.7-23-9.53-27.22,0,0-12.43-16.39-30.65-11s-26.55,25.18-13.12,33.6c0,0-1.79-12,.51-16.39,0,0-5.43,15.41,13,19.68,0,0-6-10.82-5.15-14.84,0,0,1.59,7.32,11,10.76,4.63,1.7,11.15,9.42,7.38,13.36,0,0,4.26-4,4.66-7.72S637.77,209.89,631.17,218.37Z"/><path class="cls-30" d="M597.36,206.54a2.68,2.68,0,0,1,1.7-1.34,3.37,3.37,0,0,1,2.29.19,3.81,3.81,0,0,1,1.65,1.49,5.17,5.17,0,0,1,.4,1,4.22,4.22,0,0,1,.09,1.07,6,6,0,0,1-.89-.51c-.28-.16-.53-.33-.76-.48-.48-.29-.9-.53-1.31-.73A8.35,8.35,0,0,0,597.36,206.54Z"/><path class="cls-30" d="M600.13,210.92c0,1.06-.54,1.91-1.08,1.88s-.94-.92-.89-2,.54-1.91,1.08-1.88S600.18,209.85,600.13,210.92Z"/><path class="cls-40" d="M596.36,225.4a14.33,14.33,0,0,1,1.93-.31l1.11-.14c.28,0,.58,0,1-.1s1-.19,1.89-.27a2.74,2.74,0,0,1-.5,2.18,3.05,3.05,0,0,1-2.11,1.17,3.21,3.21,0,0,1-2.25-.63A3,3,0,0,1,596.36,225.4Z"/><path class="cls-23" d="M520.17,442l2.44,27.62,16.63-.43s1.41-32.86,1-33.48S520.17,442,520.17,442Z"/><path class="cls-41" d="M544,496.38c-16.18.47-36.11,1.2-56.47,1.59,0,0-8.95-15,11.36-16.51s19.43-12.95,19.43-12.95c6.29-.53,14.24-.5,23.94-1.31Z"/><path class="cls-23" d="M499.65,437.37l-14.11,26,15,9.42s20.64-28.41,20.63-29.21S499.65,437.37,499.65,437.37Z"/><path class="cls-41" d="M493.51,494.45c-14.86-8.83-33.24-19.57-51.82-30.86,0,0,.53-18.67,19.69-8.4s24.91-.55,24.91-.55c6,3.12,13.13,7.7,22.34,12.52Z"/><polygon class="cls-25" points="497.37 303.28 500.24 303.77 475.4 251.23 461.26 247.09 461.65 247.98 485.27 301.17 497.37 303.28"/><rect class="cls-42" x="485.27" y="301.17" width="63.47" height="5.21"/><path class="cls-24" d="M580.15,287.29s-4,4.39-13.92,4.5-28.06.77-32.45-.88,14.47,8.55,25.65,9.21,23.25,2.8,21.71-3.54S580.15,287.29,580.15,287.29Z"/><path class="cls-23" d="M578.73,294.86s-23.08,1-32.86-2.36-14.65-6.38-17.52-5.67a18.55,18.55,0,0,0-9.69,5.26c-2.13,2.33-3.08,6.36-1.06,7,0,.87,1.07,1.1,1.73.7.28.9,1.93.89,2.43,0,1.26.52,1.82-2,3.79-3.25,5-3.24,6.34,1.81,9.79,4s11.1,2.55,16.94,4.44,20,7.65,24.75,7.4Z"/><path class="cls-25" d="M599.21,346.27s-48-2-62.89,1.14c-13.11,2.74-17.43,5-20,31.8C514,404,511.76,432,513.56,449.11c0,0,15.46,4.05,31.25-2.2l1.51-63.47Z"/><path class="cls-42" d="M605.74,329.54s-7,14.28-12.12,16.11c-23.38,8.26-46.79,7.39-60.51,18.47s-22.48,54.6-42.89,79.26c0,0,14.92,15,28.1,16.87,0,0,27.12-64.2,33.36-64.92s96.87,6.58,109-25.66C670.47,343.78,605.74,329.54,605.74,329.54Z"/><path class="cls-43" d="M634.29,235.1s16.5,7,18.55,8.73c3.18,2.63,13,67.29,12,85.38s1.94,42.37-9.24,48.62c0,0-8.85-36.29-56.37-38.1,0,0,6.6-11,3.14-27.58s24.31-45.68,23.57-53.63S634.29,235.1,634.29,235.1Z"/><path class="cls-44" d="M603.83,275.89s-4.27,8.44-16.28,10.86l-.12,9.83s20.88-9.14,19.69-14.11S603.83,275.89,603.83,275.89Z"/><polygon class="cls-45" points="578.51 291.24 579.17 284.55 588.05 284.55 588.05 295.63 578.51 295.63 578.51 291.24"/><path class="cls-44" d="M620.77,237.21l-9,5,3.91,9.1s7.46-6.83,8.59-6.58Z"/><path class="cls-46" d="M642.85,229.87s11.77,5.68,19.19,24.29c11.37,28.51,7.16,115.87-4.3,122.18,0,0-9.68-37.6-57.21-39.4,0,0,5-11.22,1.49-27.83s26-46.1,25.22-54.05S642.85,229.87,642.85,229.87Z"/><path class="cls-46" d="M607.17,325.39l-4-8.08s-4.38-53.37,7.16-63.58,15.12-19.86,26.55-20.93c11.64-1.09,20.19,18.37,20.19,18.37Z"/><path class="cls-43" d="M622.74,249.42s20.62-15.24,29.77,3.45c7.47,15.27-7,37.49-11.12,43.3a1,1,0,0,1-1.71-.21l-7.56-18.75Z"/><path class="cls-47" d="M583.28,292.17s15.62-4.93,24.34-16.77,18.41-34.7,34.69-29.76-3.78,34.53-3.78,34.53-21.87,28.28-30.59,32.89-26.8,1.31-26.8,1.31Z"/><path class="cls-43" d="M577.3,290.36s-1.2,23.22-2.85,25.15c0,0,8,1.82,10.86.51,0,0,3.18-21.93,2-26.2Z"/><polygon class="cls-42" points="487.9 301.17 464.29 247.98 461.26 247.09 485.27 301.17 500.24 303.77 500 303.28 487.9 301.17"/><path class="cls-47" d="M644.21,225.73l-28.52,13.08,1.72,9.13s28.53-14.6,29.81-15.08Z"/><path class="cls-24" d="M626.52,217.07a1.5,1.5,0,0,0,1,.54,1.7,1.7,0,0,0,1-.34,6.72,6.72,0,0,0,1.56-1.71,3.64,3.64,0,0,0,.39-4.05,1.43,1.43,0,0,0-1.55-.71c-.56.13-1,.83-1.37,1.48a4.71,4.71,0,0,0-.5,2.21c0,.36.1.78.37.92s.7-.16,1-.42c-.22.31-.5.75-1.06.67a1.34,1.34,0,0,1-.78-1.11,4.74,4.74,0,0,1,.27-2.58,4.94,4.94,0,0,1,.64-1.17,2.44,2.44,0,0,1,1.16-.91,2.1,2.1,0,0,1,1.54.09,2.86,2.86,0,0,1,1.13,1,3.82,3.82,0,0,1,.54,2.7,5.27,5.27,0,0,1-1.13,2.38,6.33,6.33,0,0,1-2,1.68,2,2,0,0,1-1.31.17A1.46,1.46,0,0,1,626.52,217.07Z"/><path class="cls-24" d="M626.74,214.11a1.85,1.85,0,0,1,.25-.86.89.89,0,0,1,.92-.45,1.48,1.48,0,0,1,1.22,1.56,2.51,2.51,0,0,1-.87,1.69,1.89,1.89,0,0,1-1.69.54,2.45,2.45,0,0,0,1.24-1,2.73,2.73,0,0,0,.58-1.31,1,1,0,0,0-.58-1C627.45,213.15,627,213.62,626.74,214.11Z"/><path class="cls-24" d="M517.51,298.51a8.23,8.23,0,0,1,.74-3.57,7.86,7.86,0,0,1,2.27-3,15,15,0,0,1,3.16-1.84,13,13,0,0,1,3.48-1,40.78,40.78,0,0,0-6,3.65A11.74,11.74,0,0,0,517.51,298.51Z"/><path class="cls-24" d="M519.33,299.2a7.31,7.31,0,0,1,.57-3.15,7,7,0,0,1,1.89-2.67,12.78,12.78,0,0,1,2.72-1.71,10,10,0,0,1,3-.92c-.93.51-1.81,1-2.67,1.6a26.35,26.35,0,0,0-2.44,1.78,8.93,8.93,0,0,0-1.86,2.27A17.39,17.39,0,0,0,519.33,299.2Z"/><path class="cls-24" d="M521.89,299.26a5.19,5.19,0,0,1,.29-2.37,5.62,5.62,0,0,1,1.29-2.1,7.53,7.53,0,0,1,2-1.37,4.56,4.56,0,0,1,2.32-.57,11.57,11.57,0,0,0-1.91,1.23,16.17,16.17,0,0,0-1.69,1.41A11.71,11.71,0,0,0,521.89,299.26Z"/><path class="cls-48" d="M712.53,287.77s5.28-19.26.46-26.13c-3.34-4.75-16.07-4.85-16.86-4.75,0,0,11.13.78,7.94,14.49-2.5,10.77-6.23,35.67-10.43,49.79-5.49,18.46-16.27,16.94-16.27,16.94l-29.24,1.09c-26.38.65-22.64,19.55-22.64,19.55l14.66,70.09c2.54,12.8,11.61,12.64,15,11l.49-.21,44.27-18.73c10.15-4.23,6.81-21.57,4.58-29.46C699,372.1,693.28,353,695,348.76,702.93,328.51,712.53,287.77,712.53,287.77ZM695.79,400.08a11.56,11.56,0,0,1-7.45,12.73l-25.85,9.48a11.21,11.21,0,0,1-14.86-8.07l-9-41.56c-6-27.71,19.57-18,19.57-18C686.05,365.76,693.72,387.47,695.79,400.08Z"/><polygon class="cls-49" points="173.26 307.73 155.37 307.73 130.78 496.58 140.16 496.58 173.26 307.73"/><polygon class="cls-49" points="102.68 309.43 84.78 309.43 60.19 498.28 69.58 498.28 102.68 309.43"/><polygon class="cls-49" points="703.61 309.43 721.51 309.43 746.09 498.28 736.71 498.28 703.61 309.43"/><polygon class="cls-49" points="632.96 309.43 650.85 309.43 675.44 498.28 666.06 498.28 632.96 309.43"/><rect class="cls-50" x="43.25" y="305.82" width="726.5" height="14.55"/><rect class="cls-51" x="670.98" y="305.82" width="98.77" height="14.55"/><path class="cls-52" d="M117.68,282.91s3.24-6.48-4.62-13.88-4.63-19.89-13.42-24.51c0,0,8.33-3.24,12,10.17s9.71,20.35,6.71,27.75Z"/><path class="cls-53" d="M120.46,283.37s8.79-51.81-7.4-58.74c0,0,6.94,40.7,4.62,58.28Z"/><path class="cls-52" d="M120,283.83s-1.39-10.17,3.23-18,2.32-21.74,6.94-24.51c0,0,6.94,10.17.46,18S133.41,266.72,120,283.83Z"/><path class="cls-54" d="M109.82,282.44v22.21a3.23,3.23,0,0,0,3.24,3.23h12V282.44Z"/><path class="cls-50" d="M131.56,304.65V282.44h-6.48v25.44h3.24A3.23,3.23,0,0,0,131.56,304.65Z"/><path class="cls-54" d="M131.79,280.13h-22.2a3,3,0,0,0,0,6h22.2a3,3,0,1,0,0-6Z"/><rect class="cls-50" x="109.82" y="285.97" width="21.74" height="1.27"/></g></g></svg>