<svg xmlns="http://www.w3.org/2000/svg" viewBox="0 0 514.86 439.18"><defs><style>.cls-1{fill:#efefef;}.cls-2{fill:#e2e2e2;}.cls-3{fill:#fff;}.cls-4{fill:#d7d7d7;}.cls-5{fill:#333;}.cls-6{fill:#d7e1ff;}.cls-7{fill:#6483f4;}.cls-8{fill:#8398ff;}.cls-9{fill:#f7931e;}.cls-10{fill:#f4a15d;}.cls-11{fill:#ffcdc2;}.cls-12{fill:#6c273d;}.cls-13{fill:#5c0c21;}.cls-14{fill:#82063e;}.cls-15{fill:#e0a4ab;}.cls-16{fill:#121e21;}.cls-17{fill:#a00243;}.cls-18{fill:#56042d;}.cls-19{fill:#b70b5a;}.cls-20{fill:#afafaf;}.cls-21{fill:#ffc300;}.cls-22{fill:#cfcfcf;}</style></defs><g id="Layer_2" data-name="Layer 2"><g id="Layer_1-2" data-name="Layer 1"><rect class="cls-1" x="198.39" width="78.75" height="136"/><rect class="cls-1" x="198.39" y="148.23" width="78.75" height="136"/><rect class="cls-1" x="286.62" width="78.75" height="136"/><rect class="cls-1" x="286.62" y="148.23" width="78.75" height="136"/><rect class="cls-1" x="108.54" width="78.75" height="136"/><rect class="cls-1" x="108.54" y="148.23" width="78.75" height="136"/><ellipse class="cls-2" cx="442.66" cy="43.4" rx="37.36" ry="37.29"/><path class="cls-3" d="M473,43.4a30.29,30.29,0,1,1-30.29-30.24A30.26,30.26,0,0,1,473,43.4Z"/><path class="cls-4" d="M446.13,43.4a3.47,3.47,0,1,1-3.47-3.46A3.46,3.46,0,0,1,446.13,43.4Z"/><path class="cls-4" d="M442.66,45.9H425.11a2.5,2.5,0,0,1,0-5h16.52l14.74-14.72a2.5,2.5,0,1,1,3.53,3.54L444.43,45.17A2.51,2.51,0,0,1,442.66,45.9Z"/><path class="cls-5" d="M313.78,436.68h-9.09a1.71,1.71,0,0,1-1.68-1.35L297.56,410h17.93v25A1.7,1.7,0,0,1,313.78,436.68Z"/><path class="cls-5" d="M418.53,436.68h-9.1a1.7,1.7,0,0,1-1.67-1.35L402.31,410h17.93v25A1.71,1.71,0,0,1,418.53,436.68Z"/><path class="cls-5" d="M59.82,436.68h-9.1A1.71,1.71,0,0,1,49,435.33L43.6,410H61.53v25A1.71,1.71,0,0,1,59.82,436.68Z"/><path class="cls-5" d="M148.78,436.68h-9.1a1.69,1.69,0,0,1-1.67-1.35L132.56,410h17.93v25A1.71,1.71,0,0,1,148.78,436.68Z"/><path class="cls-6" d="M296.33,410.73V330.58H26.05a7.87,7.87,0,0,0-7.84,7.91v72.24H296.33"/><path class="cls-6" d="M407.13,242.38l-242.56.74a14.33,14.33,0,0,0-14.32,14.26v73.28H407.13Z"/><path class="cls-7" d="M400.33,242.29h8.32a3.27,3.27,0,0,1,3.27,3.27v32.72H385.49V257.13A14.84,14.84,0,0,1,400.33,242.29Z"/><path class="cls-8" d="M359.41,277.89a1.66,1.66,0,0,1,1.69-1.67l61.95,1.39a13.87,13.87,0,0,1,13.88,13.87V408.34a1.65,1.65,0,0,1-1.65,1.65l-73,.73a1.66,1.66,0,0,1-1.67-1.65Z"/><polygon class="cls-6" points="331.54 410.65 276.37 410.65 276.37 395.63 329.57 395.63 331.54 410.65"/><path class="cls-6" d="M276.37,409.38V349.44c0-10.42,7.19-18.86,16.06-18.86l38.34.08.26,78.72"/><path class="cls-8" d="M276.37,410.36a1,1,0,0,1-1-1V349.44c0-10.94,7.64-19.85,17-19.85l39.32.09.26,79.69a1,1,0,0,1-1,1h0a1,1,0,0,1-1-1l-.26-77.74-37.36-.08c-8.31,0-15.08,8-15.08,17.88v59.94A1,1,0,0,1,276.37,410.36Z"/><rect class="cls-8" x="384.67" y="251.97" width="1.97" height="52.54" transform="translate(99.94 658.4) rotate(-88.88)"/><path class="cls-8" d="M303.57,331.56H56.84a1,1,0,0,1,0-2H303.57a1,1,0,0,1,0,2Z"/><path class="cls-9" d="M360.11,243.1s12.67,2.14,16.27,9.65c0,0,4.52,1,6.3,2.73s-3.24,8.55-9.86,12.63-13.08,14.68-13.08,14.68-7.45,13.14-14.16,27.22-24.4,31.21-45.24,34.64-29.68-6.34-29.68-6.34l36.52-31.22L326.8,279.4l11-21.7,17-12.91Z"/><path class="cls-10" d="M325.48,247s18.75-5,34.63-3.85c0,0-16,8-25.48,35a26.56,26.56,0,0,1-2.48,5.22L315.9,309.58s-16.55,19.89-45.24,28.73a21.91,21.91,0,0,1-4.75-10.12c-1.07-6.08,20.17-50.25,20.17-50.25l12.1-17.73,16.68-12.92Z"/><path class="cls-11" d="M69,247.51s-13.24,9-26.5,20.09C40.82,269,35.82,275.37,3,275.72c-6.37.07-1.07,5.81,2,7,8.4,2.17,11.75.6,28.48,7.85,0,0,4.43,3,9.76-5.67,5.67-9.17,28.27-17.16,38.21-21.41Z"/><path class="cls-11" d="M72.49,272.68c.89-.77-12.47,24.64-25.53,33.76-5.64,3.94-14.59,8.24-22.08,9.62-11.74,2.16-23.31-1.54-14.41,7.27,2.64,2.61,17.18,1.3,28.92,7.54,4.71,2.5,9.71-.69,11-5.5,2.18-13.7,34-28.17,38.64-38.93Z"/><path class="cls-12" d="M67,273.25a88.16,88.16,0,0,0,20.24,18.93.62.62,0,0,0,.7,0c1-.71,4-2.68,13.38-16.76,0,0,10.83,46.31,47.94,61.88,0,0,13.22,4.31,22.32-.47l-1.52-41.28-29.73-33.79-20.06-11.29L106,243.75S66.85,273,67,273.25Z"/><path class="cls-13" d="M64.15,247.7l10,28.49a.61.61,0,0,0,.82.36C79,274.76,103.15,264,115.62,251.7a2.55,2.55,0,0,1,3.09,0l8.49,6.43s30.15,21.5,41.28,37.22l8.08-13.94s-19.05-19.64-24.64-27.17c-.55-.73-1.11-1.44-1.71-2.13-4.16-4.85-19-21.78-28.84-27.83,0,0-6.78-4.64-29,8.07L64.65,246.46A1,1,0,0,0,64.15,247.7Z"/><path class="cls-14" d="M252.54,265.3s-1.17-11.41,4.18-18.19a10,10,0,0,1,5.53-3.47c4.88-1.15,15.92-3.64,17.25-2.9l-3.85,23.84-3.28,4.09Z"/><path class="cls-11" d="M274.56,264c-.61,1.89-1.47,3.5-2.66,3.85-3.2.94-19.27,3.05-19.27,3.05l-1.7,4.16s32.76,21.6,36.4,12.14a135.44,135.44,0,0,1,9.56-19.07l.17-4.66C288.25,269,278.67,265.81,274.56,264Z"/><path class="cls-15" d="M275.92,256.78a37,37,0,0,1-1.36,7.19c4.11,1.84,13.69,5,22.5-.53l.16-4.2Z"/><path class="cls-11" d="M286.74,223.65s-10.83,6.17-16.28,21.11,14.2,16.94,14.2,16.94,9.82,1.22,13.2-.51l10.42-14.14-4.86-8.75Z"/><path class="cls-12" d="M285.11,221.53c4.87-4.06,19.74-13.24,31.74-2.1.27.25,11.69,9.22,9.67,26.56-2.16,18.57-30.83,24.58-30.83,24.58s-2.37-10.72,10.72-24.79a.77.77,0,0,0,.09-.93,67.76,67.76,0,0,0-21.16-20.39A1.8,1.8,0,0,1,285.11,221.53Z"/><path class="cls-16" d="M275.57,246.48c1.16.69,2,1.41,2.95,2.07.45.33.9.64,1.37,1s1,.59,1.57,1a3.37,3.37,0,0,1-2,.13,4.85,4.85,0,0,1-1.83-.84,5.6,5.6,0,0,1-1.35-1.44A4.29,4.29,0,0,1,275.57,246.48Z"/><path class="cls-16" d="M278.89,243.17a.38.38,0,0,1-.26-.11,2,2,0,0,1-.68-1.84c.34-1.46,2.62-2.28,2.88-2.37a.38.38,0,1,1,.25.71c-.59.21-2.18.94-2.39,1.83a1.22,1.22,0,0,0,.48,1.13.39.39,0,0,1,0,.54A.43.43,0,0,1,278.89,243.17Z"/><path class="cls-16" d="M283.48,235.92a.66.66,0,0,1-.27-.06,4.13,4.13,0,0,1-2.18-3.25.76.76,0,0,1,1.51-.15s.19,1.56,1.25,2a.75.75,0,0,1,.41,1A.75.75,0,0,1,283.48,235.92Z"/><path class="cls-16" d="M296.17,245.28l-.26-.05c-4.91-1.9-5.73-4.65-5.77-4.76a.77.77,0,0,1,.53-.94.76.76,0,0,1,.93.52c0,.06.76,2.19,4.86,3.76a.76.76,0,0,1-.29,1.47Z"/><path class="cls-16" d="M294.05,235.68a4.55,4.55,0,0,1,2.25.36,5.61,5.61,0,0,1,1.92,1.34,4.43,4.43,0,0,1,1.1,2.11,3.69,3.69,0,0,1-.23,2.3,14.59,14.59,0,0,0-.89-1.89,8.72,8.72,0,0,0-1.1-1.51A33,33,0,0,0,294.05,235.68Z"/><path class="cls-16" d="M284.21,229.49a2,2,0,0,1,1.14-.7,2.69,2.69,0,0,1,1.32,0,2.07,2.07,0,0,1,1.59,2c-.49-.11-.81-.24-1.14-.31l-.88-.25-.92-.3A9.55,9.55,0,0,1,284.21,229.49Z"/><path class="cls-17" d="M176.18,281s23.11,6.25,45.44-2.74c0,0,9.5-21.66,29.1-14.54a14.28,14.28,0,0,0,1.69.51c3,.67,12.85,2.88,18.31,3.76v.14a134.14,134.14,0,0,1-17.84,5,.2.2,0,0,0-.11.32c1.28,1.47,8.53,8.74,27.94,10a19.29,19.29,0,0,1,8,2.39c4.38,2.29,8.28,15.07,1.48,23.42-.66.81-1.33,1.6-2,2.42-3.48,4.46-15.42,18.78-31.41,27-19.1,9.83-16.44-5.84-16.44-5.84s-16.6.48-40.84.48c0,0-22.45,1-29,4.36C170.54,337.73,151.5,295.59,176.18,281Z"/><path class="cls-18" d="M272.81,266.41c-2-2-2.05-7.21-2.05-7.43h.75s.05,5.09,1.84,6.9Z"/><path class="cls-12" d="M318,257.82s-2,33.71-36.79,28.73c0,0-2.52-14,17.25-19.49S318,257.82,318,257.82Z"/><path class="cls-11" d="M303.33,288.82c-.47-.41-.14-1.71-.87-2.18a12.68,12.68,0,0,0-2-.84c-.69-.29-.21-.76-.89-1.36s-2.08-.38-4,.17c-.07-.38-.58-2.58-2.48-.9-2.08,1.82-6.1,1.87-9.21,5.4S259,307.45,256.49,309.25l11.13,12.4s14.44-27,24.93-25.06c6.24,1.14,11.26-.69,11.73-2.88.2-.92,0-1.53.13-2.37A2.57,2.57,0,0,0,303.33,288.82Z"/><path class="cls-13" d="M100.6,270.58a2.76,2.76,0,0,1,.66,1,9.36,9.36,0,0,1,.37,1.17,15.3,15.3,0,0,1,.33,2.42l-1.22-.16a23.48,23.48,0,0,1,.83-3.12,20.77,20.77,0,0,1,1.25-3,15.48,15.48,0,0,1,1.73-2.75,7.93,7.93,0,0,1,2.46-2.12,16.09,16.09,0,0,0-1.64,2.65c-.47.91-.88,1.86-1.27,2.81s-.76,1.91-1.12,2.88-.72,1.95-1,2.92l0,.09a.61.61,0,0,1-.77.39.62.62,0,0,1-.42-.64c.06-.77.11-1.54.13-2.31,0-.39,0-.77,0-1.16A3.44,3.44,0,0,0,100.6,270.58Z"/><path class="cls-15" d="M296.3,284.32a15,15,0,0,1-1.77,1.34c-.62.39-1.25.77-1.89,1.11l.19-.36a6.54,6.54,0,0,0,.14.83,6.94,6.94,0,0,0,.25.81,2.45,2.45,0,0,0,1.06,1.32,1.71,1.71,0,0,1-.9-.33,2.67,2.67,0,0,1-.65-.73,3.74,3.74,0,0,1-.42-.88,4.24,4.24,0,0,1-.22-.95l0-.23.23-.13c.63-.37,1.28-.7,2-1A16.07,16.07,0,0,1,296.3,284.32Z"/><path class="cls-15" d="M299.53,285.41a30.9,30.9,0,0,1-4.51,2.47l.13-.09a2.65,2.65,0,0,0-.49.87,2.22,2.22,0,0,0-.13,1,3.67,3.67,0,0,0,1,1.94,2.86,2.86,0,0,1-1.57-1.83,2.53,2.53,0,0,1,0-1.31,3.31,3.31,0,0,1,.62-1.17l0,0,.08,0A32.33,32.33,0,0,1,299.53,285.41Z"/><path class="cls-15" d="M301.93,287a25.68,25.68,0,0,1-2.51,1.51q-1.29.69-2.61,1.29l.06,0a1.58,1.58,0,0,0-.59,1.52,3.36,3.36,0,0,0,.3.93c.16.3.35.6.54.9a4,4,0,0,1-.82-.71,2.85,2.85,0,0,1-.57-1,2,2,0,0,1,0-1.22,2.14,2.14,0,0,1,.71-1h0l0,0c.88-.42,1.77-.81,2.67-1.18A25.82,25.82,0,0,1,301.93,287Z"/><path class="cls-15" d="M302.4,289.35c-1.41.74-2.85,1.4-4.31,2l.17-.14a3,3,0,0,0-.28.93,2.1,2.1,0,0,0,.57,1.74.36.36,0,0,0,.16.11s.13-.08.17-.18l0,.12c0-.32,0-.64.08-1l0-.23.19,0c.45-.1.9-.19,1.36-.27s.92-.16,1.39-.21c-.43.2-.86.36-1.29.55s-.87.33-1.31.48l.21-.27c0,.32,0,.65,0,1V294l0,.06a1,1,0,0,1-.59.6.87.87,0,0,1-.85-.25,2.86,2.86,0,0,1-.71-1.09,2.94,2.94,0,0,1-.1-1.28,3.24,3.24,0,0,1,.44-1.19l.06-.1.1,0C299.35,290.22,300.86,289.74,302.4,289.35Z"/><path class="cls-15" d="M289.42,292.94a4.34,4.34,0,0,1,3.88-2,5,5,0,0,1,2.18.7,7.51,7.51,0,0,1,.9.67c.26.27.51.55.74.83-.34-.16-.64-.35-.95-.53s-.63-.32-.95-.44a6,6,0,0,0-2-.47,5,5,0,0,0-2,.28A8.14,8.14,0,0,0,289.42,292.94Z"/><path class="cls-19" d="M253.82,307.53c-3.9,2.39-19.63,12.9-22.28,28.22a6,6,0,0,0,.73,4.16c1.46,2.42,4.83,5.63,12,3.51a43.11,43.11,0,0,0,13.32-6.65,30.09,30.09,0,0,0,5.61-5.38c2.32-2.88,6.31-7.95,6.28-8.86,0-1.12-11.16-12-14.12-14.83A1.31,1.31,0,0,0,253.82,307.53Z"/><path class="cls-15" d="M291.19,288a1.08,1.08,0,0,1,.43.76,1.48,1.48,0,0,1-.14.9,1.6,1.6,0,0,1-.6.66,1.46,1.46,0,0,1-.82.24,7.24,7.24,0,0,1,.42-.67c.12-.2.24-.38.33-.57A4,4,0,0,0,291.19,288Z"/><path class="cls-6" d="M366.19,410.73l-3.84-133-1.75-.1a32.72,32.72,0,0,0-29.83,32.67V410.73"/><path class="cls-8" d="M365.21,410.76l-3.82-132.12-.78-.05a31.56,31.56,0,0,0-28.86,31.69V410.73h-2V310.28a33.5,33.5,0,0,1,30.73-33.65h.07l2.73.17,3.86,133.91Z"/><rect class="cls-20" x="468.56" y="183.74" width="5.08" height="248.71"/><path class="cls-20" d="M449.06,432h0a3.71,3.71,0,0,1,3.71-3.7h35.89a3.71,3.71,0,1,1,0,7.41H452.77A3.71,3.71,0,0,1,449.06,432Z"/><polygon class="cls-21" points="509.21 199.98 433 199.98 438.77 123.77 503.44 123.77 509.21 199.98"/><path class="cls-8" d="M55.93,275.41H102c10.37,30.16,22.78,44.61,35.69,55.17H55.93"/><path class="cls-6" d="M55.93,275.41h0c20.36,0,36.85,17.44,36.85,39v17.85H55.93"/><rect class="cls-22" x="4.11" y="434.18" width="510.75" height="5"/></g></g></svg>