<svg width="268" height="148" viewBox="0 0 268 148" fill="none" xmlns="http://www.w3.org/2000/svg">
<g clip-path="url(#clip0_1770_16867)">
<path d="M50.3218 143.869H46.3431L45.7485 128.882L50.3225 128.883L50.3218 143.869Z" fill="#FFB8B8"/>
<path d="M51.3368 147.635L38.5078 147.635V147.476C38.5078 146.836 38.637 146.202 38.8879 145.61C39.1388 145.018 39.5067 144.481 39.9703 144.028C40.434 143.575 40.9845 143.216 41.5903 142.971C42.1962 142.726 42.8455 142.6 43.5012 142.6H43.5016L51.337 142.6L51.3368 147.635Z" fill="#2F2E41"/>
<path d="M72.7324 143.869H76.7109L77.3057 128.882L72.7314 128.883L72.7324 143.869Z" fill="#FFB8B8"/>
<path d="M71.7173 142.6L79.5527 142.6H79.5531C80.2088 142.6 80.8581 142.726 81.4639 142.971C82.0698 143.216 82.6203 143.575 83.0839 144.028C83.5476 144.481 83.9154 145.018 84.1664 145.61C84.4173 146.202 84.5465 146.836 84.5465 147.476V147.635L71.7175 147.635L71.7173 142.6Z" fill="#2F2E41"/>
<path d="M72.8367 141.948C72.5048 141.947 72.183 141.836 71.9239 141.633C71.6649 141.431 71.484 141.148 71.4107 140.832L61.5493 98.828C61.5277 98.7213 61.4681 98.6254 61.3812 98.5574C61.2943 98.4893 61.1856 98.4534 61.0742 98.456H61.0717C60.9599 98.454 60.8509 98.4907 60.7642 98.5596C60.6775 98.6286 60.6185 98.7253 60.5978 98.8326L51.5419 140.553C51.4713 140.872 51.2911 141.158 51.0313 141.364C50.7715 141.57 50.4476 141.682 50.1132 141.684H45.7993C45.6002 141.684 45.4033 141.644 45.2206 141.567C45.0378 141.49 44.8731 141.377 44.7366 141.236C44.6001 141.094 44.4946 140.927 44.4266 140.744C44.3587 140.562 44.3297 140.367 44.3414 140.173L47.5546 87.294L48.8475 86.9204L48.8718 86.9207L74.2691 87.1377L79.6782 139.959C79.6971 140.147 79.6774 140.337 79.6202 140.518C79.563 140.699 79.4695 140.867 79.3452 141.012C79.2208 141.157 79.0681 141.277 78.8959 141.364C78.7237 141.451 78.5355 141.503 78.3423 141.519L72.9538 141.943C72.9145 141.947 72.8755 141.948 72.8367 141.948Z" fill="#2F2E41"/>
<path d="M62.3488 38.518C66.751 38.518 70.3196 35.033 70.3196 30.7342C70.3196 26.4353 66.751 22.9504 62.3488 22.9504C57.9466 22.9504 54.3779 26.4353 54.3779 30.7342C54.3779 35.033 57.9466 38.518 62.3488 38.518Z" fill="#A0616A"/>
<path d="M57.4658 93.0916C56.0675 93.1085 54.6746 92.9171 53.3353 92.524C52.1442 92.1732 51.0391 91.588 50.0882 90.8046C49.1373 90.0211 48.3606 89.0559 47.8059 87.9683C47.6302 87.641 47.5912 87.26 47.6972 86.9052C48.5763 83.9753 52.8244 68.7456 50.1139 56.6388C49.7313 54.9569 49.6996 53.217 50.0204 51.5229C50.3413 49.8288 51.0083 48.2151 51.9817 46.7781C52.9323 45.3525 54.1673 44.1284 55.6129 43.1789C57.0585 42.2293 58.6852 41.5739 60.3958 41.2516L60.3959 41.2513C60.8455 41.1656 61.2975 41.0953 61.7392 41.0421C63.6301 40.8148 65.5492 40.9984 67.359 41.5799C69.1687 42.1614 70.8245 43.1263 72.2079 44.4056C73.6323 45.71 74.7438 47.3058 75.4629 49.0788C76.1819 50.8518 76.4906 52.758 76.367 54.6611L74.2838 87.3048C74.2695 87.5495 74.1902 87.7863 74.0538 87.9921C73.9173 88.1978 73.7284 88.3654 73.5056 88.4783C71.1065 89.7061 63.8996 93.0916 57.4658 93.0916Z" fill="#CCCCCC"/>
<path d="M49.5579 87.7315C50.0142 87.5098 50.4152 87.193 50.7325 86.8036C51.0499 86.4142 51.276 85.9615 51.3949 85.4775C51.5137 84.9935 51.5225 84.49 51.4205 84.0023C51.3185 83.5146 51.1083 83.0548 50.8046 82.655L53.4116 57.7644H47.7776L45.7058 82.0688C45.052 82.6115 44.6247 83.3696 44.505 84.1994C44.3853 85.0291 44.5814 85.873 45.0562 86.571C45.531 87.269 46.2515 87.7727 47.0812 87.9866C47.9109 88.2005 48.7921 88.1097 49.5579 87.7315Z" fill="#A0616A"/>
<path d="M53.8104 45.9808C54.9106 46.1967 55.8926 46.7965 56.573 47.6679C57.2533 48.5394 57.5854 49.623 57.5072 50.7161L56.7307 61.5683C56.7171 61.7586 56.6597 61.9434 56.5628 62.109C56.4658 62.2746 56.3319 62.4167 56.1709 62.5248C56.0099 62.6328 55.826 62.7039 55.6329 62.7329C55.4398 62.7619 55.2425 62.7479 55.0558 62.6921L45.7014 59.8957C45.531 59.8448 45.3732 59.7602 45.2378 59.6471C45.1024 59.5341 44.9923 59.3951 44.9143 59.2387C44.8363 59.0823 44.7921 58.9119 44.7844 58.7381C44.7767 58.5643 44.8058 58.3908 44.8698 58.2284L48.5909 48.7827C48.9823 47.7892 49.721 46.963 50.6762 46.4502C51.6315 45.9374 52.7417 45.7711 53.8104 45.9808Z" fill="#CCCCCC"/>
<path d="M71.3532 25.0046C70.5252 22.9725 69.0085 21.2793 67.0563 20.2075C65.1042 19.1356 62.8346 18.7501 60.6265 19.1151L63.1397 21.0983C60.0171 21.201 56.7303 20.9827 54.5008 23.12C55.2106 23.1008 56.1408 24.5833 56.8506 24.5641C55.5236 24.5897 54.3203 25.5002 53.7342 26.6631C53.1913 27.8578 53.0643 29.1933 53.3727 30.4652C53.6347 31.7358 55.634 34.7124 56.1722 35.8972C56.0796 32.8009 62.3218 25.4153 65.37 26.1861C63.8214 26.7472 62.4775 27.7436 61.5079 29.0495C63.5816 28.0276 65.927 27.6528 68.2261 27.9761C68.751 28.0937 69.2925 28.1233 69.8276 28.0637C70.1556 28.0003 70.4614 27.8559 70.716 27.6442C70.9705 27.4326 71.1652 27.1607 71.2814 26.8546C71.3977 26.5486 71.4317 26.2185 71.3801 25.8959C71.3286 25.5734 71.1932 25.2691 70.9869 25.0122L71.3532 25.0046Z" fill="#2F2E41"/>
<path d="M123.971 148H0.324533C0.238461 148 0.155915 147.967 0.0950531 147.907C0.0341915 147.848 0 147.767 0 147.683C0 147.599 0.0341915 147.518 0.0950531 147.459C0.155915 147.4 0.238461 147.366 0.324533 147.366H123.971C124.058 147.366 124.14 147.4 124.201 147.459C124.262 147.518 124.296 147.599 124.296 147.683C124.296 147.767 124.262 147.848 124.201 147.907C124.14 147.967 124.058 148 123.971 148Z" fill="#3F3D56"/>
<path d="M265.728 9.19055H263.781V9.50747H265.728V9.19055Z" fill="#E6E6E6"/>
<path d="M259.847 9.50747H255.914V9.19055H259.847V9.50747ZM251.98 9.50747H248.046V9.19055H251.98L251.98 9.50747ZM244.113 9.50747H240.179V9.19055H244.113V9.50747ZM236.245 9.50747H232.311V9.19055H236.245V9.50747ZM228.378 9.50747H224.444V9.19055H228.378V9.50747ZM220.51 9.50747H216.577V9.19055H220.51V9.50747ZM212.643 9.50747H208.709V9.19055H212.643V9.50747ZM204.775 9.50747H200.842V9.19055H204.775V9.50747ZM196.908 9.50747H192.974V9.19055H196.908V9.50747ZM189.04 9.50747H185.107V9.19055H189.04V9.50747ZM181.173 9.50747H177.239V9.19055H181.173V9.50747ZM173.305 9.50747H169.372V9.19055H173.305V9.50747ZM165.438 9.50747H161.504V9.19055H165.438V9.50747ZM157.571 9.50747H153.637V9.19055H157.571V9.50747ZM149.703 9.50747H145.769V9.19055H149.703V9.50747ZM141.836 9.50747H137.902V9.19055H141.836V9.50747Z" fill="#E6E6E6"/>
<path d="M133.968 9.19055H132.021V9.50747H133.968V9.19055Z" fill="#E6E6E6"/>
<path d="M201.795 38.6638H199.848V38.9807H201.795V38.6638Z" fill="#E6E6E6"/>
<path d="M195.973 38.9807H192.097V38.6638H195.973V38.9807ZM188.222 38.9807H184.347V38.6638H188.222V38.9807ZM180.472 38.9807H176.596V38.6638H180.472V38.9807ZM172.721 38.9807H168.846V38.6638H172.721V38.9807ZM164.97 38.9807H161.095V38.6638H164.97V38.9807ZM157.22 38.9807H153.344V38.6638H157.22V38.9807ZM149.469 38.9807H145.594V38.6638H149.469L149.469 38.9807ZM141.719 38.9807H137.843V38.6638H141.719V38.9807Z" fill="#E6E6E6"/>
<path d="M133.968 38.6638H132.021V38.9807H133.968V38.6638Z" fill="#E6E6E6"/>
<path d="M163.825 52.6082H161.878V52.9251H163.825V52.6082Z" fill="#E6E6E6"/>
<path d="M157.891 52.9251H153.904V52.6082H157.891V52.9251ZM149.916 52.9251H145.929V52.6082H149.916V52.9251ZM141.942 52.9251H137.955V52.6082H141.942V52.9251Z" fill="#E6E6E6"/>
<path d="M133.968 52.6082H132.021V52.9251H133.968V52.6082Z" fill="#E6E6E6"/>
<path d="M265.784 12.6798V66.9549C265.78 69.6856 264.668 72.3036 262.691 74.2345C260.714 76.1654 258.033 77.2515 255.236 77.2547H142.299C140.818 77.2557 139.354 76.9513 138.003 76.3615C136.651 75.7717 135.442 74.9097 134.455 73.832V73.3471C135.405 74.4633 136.594 75.3631 137.938 75.9833C139.281 76.6036 140.748 76.9294 142.234 76.9378L161.768 57.8626C162.024 57.6124 162.328 57.414 162.663 57.2786C162.997 57.1432 163.356 57.0735 163.718 57.0735C164.08 57.0735 164.439 57.1432 164.774 57.2786C165.108 57.414 165.413 57.6124 165.669 57.8626L176.05 67.9976L200.387 44.2352C200.643 43.985 200.947 43.7865 201.282 43.6511C201.617 43.5158 201.975 43.4461 202.338 43.4461C202.7 43.4461 203.059 43.5158 203.393 43.6511C203.728 43.7865 204.032 43.985 204.288 44.2352L218.564 58.1732L265.138 12.6957L265.459 12.6861L265.608 12.683L265.784 12.6798Z" fill="#89A8CC"/>
<path d="M255.343 77.3276H142.406C139.609 77.3245 136.928 76.2384 134.951 74.3075C132.974 72.3766 131.862 69.7586 131.858 67.0278V10.2998C131.862 7.56906 132.974 4.95107 134.951 3.02015C136.928 1.08924 139.609 0.00309097 142.406 0H255.343C258.139 0.00309013 260.82 1.08924 262.798 3.02015C264.775 4.95107 265.887 7.56906 265.89 10.2998V67.0278C265.887 69.7586 264.775 72.3766 262.798 74.3075C260.82 76.2384 258.139 77.3245 255.343 77.3276ZM142.406 0.316916C139.695 0.319911 137.097 1.37264 135.18 3.24414C133.264 5.11564 132.186 7.65308 132.183 10.2998V67.0278C132.186 69.6745 133.264 72.212 135.18 74.0835C137.097 75.955 139.695 77.0077 142.406 77.0107H255.343C258.053 77.0077 260.652 75.955 262.568 74.0835C264.485 72.212 265.563 69.6745 265.566 67.0278V10.2998C265.563 7.65308 264.485 5.11564 262.568 3.24414C260.652 1.37264 258.053 0.31991 255.343 0.316916H142.406Z" fill="#3F3D56"/>
<path d="M142.52 77.2812L142.291 77.0572L161.874 57.9334C162.392 57.4289 163.094 57.1456 163.825 57.1456C164.556 57.1456 165.258 57.4289 165.775 57.9334L176.157 68.0715L200.494 44.306C201.011 43.8015 201.713 43.5182 202.444 43.5182C203.176 43.5182 203.877 43.8015 204.395 44.306L218.671 58.247L265.613 12.4062L265.843 12.6302L218.671 58.6952L204.165 44.53C203.939 44.3093 203.671 44.1342 203.376 44.0148C203.08 43.8953 202.764 43.8338 202.444 43.8338C202.125 43.8338 201.808 43.8953 201.513 44.0148C201.218 44.1342 200.949 44.3093 200.723 44.53L176.157 68.5196L165.546 58.1574C165.089 57.7124 164.47 57.4625 163.825 57.4625C163.18 57.4625 162.561 57.7124 162.104 58.1574L142.52 77.2812Z" fill="#3F3D56"/>
<path d="M163.825 54.985C165.08 54.985 166.097 53.9918 166.097 52.7666C166.097 51.5414 165.08 50.5482 163.825 50.5482C162.57 50.5482 161.553 51.5414 161.553 52.7666C161.553 53.9918 162.57 54.985 163.825 54.985Z" fill="#3F3D56"/>
<path d="M201.795 41.0407C203.05 41.0407 204.067 40.0475 204.067 38.8223C204.067 37.5971 203.05 36.6039 201.795 36.6039C200.541 36.6039 199.523 37.5971 199.523 38.8223C199.523 40.0475 200.541 41.0407 201.795 41.0407Z" fill="#3F3D56"/>
<path d="M265.728 11.5674C266.983 11.5674 268 10.5742 268 9.34903C268 8.12383 266.983 7.13062 265.728 7.13062C264.474 7.13062 263.457 8.12383 263.457 9.34903C263.457 10.5742 264.474 11.5674 265.728 11.5674Z" fill="#3F3D56"/>
<path d="M55.6471 92.5745C60.3591 92.5745 64.1789 87.2656 64.1789 80.7168C64.1789 74.1679 60.3591 68.859 55.6471 68.859C50.9351 68.859 47.1152 74.1679 47.1152 80.7168C47.1152 87.2656 50.9351 92.5745 55.6471 92.5745Z" fill="#3F3D56"/>
<path opacity="0.1" d="M55.6471 92.5745C60.3591 92.5745 64.1789 87.2656 64.1789 80.7168C64.1789 74.1679 60.3591 68.859 55.6471 68.859C50.9351 68.859 47.1152 74.1679 47.1152 80.7168C47.1152 87.2656 50.9351 92.5745 55.6471 92.5745Z" fill="black"/>
<path d="M56.7975 92.5745C61.5095 92.5745 65.3293 87.2656 65.3293 80.7168C65.3293 74.1679 61.5095 68.859 56.7975 68.859C52.0855 68.859 48.2656 74.1679 48.2656 80.7168C48.2656 87.2656 52.0855 92.5745 56.7975 92.5745Z" fill="#3F3D56"/>
<path opacity="0.1" d="M56.7976 90.8869C60.839 90.8869 64.1151 86.3336 64.1151 80.7168C64.1151 75.1 60.839 70.5466 56.7976 70.5466C52.7562 70.5466 49.48 75.1 49.48 80.7168C49.48 86.3336 52.7562 90.8869 56.7976 90.8869Z" fill="black"/>
<path d="M56.7342 85.6157V84.4219C56.1489 84.4168 55.5795 84.2351 55.104 83.9018L55.3597 83.1099C55.8028 83.4342 56.3403 83.6122 56.894 83.6181C57.0569 83.6307 57.2207 83.61 57.3749 83.5573C57.5291 83.5046 57.6704 83.4211 57.7897 83.3121C57.909 83.2031 58.0038 83.071 58.0679 82.9243C58.132 82.7775 58.164 82.6193 58.162 82.4597C58.162 81.8096 57.7464 81.4078 56.9579 81.0531C55.8711 80.5804 55.1999 80.0366 55.1999 79.0083C55.1831 78.5538 55.3377 78.109 55.6342 77.7583C55.9307 77.4076 56.3486 77.1752 56.8088 77.1052V75.9114H57.4694V77.0579C57.962 77.0645 58.4425 77.208 58.8545 77.4716L58.5881 78.2518C58.1929 77.9876 57.7246 77.8474 57.2456 77.8499C57.1011 77.8351 56.955 77.8505 56.817 77.8952C56.6791 77.9398 56.5524 78.0126 56.4456 78.1088C56.3387 78.205 56.2541 78.3223 56.1973 78.453C56.1405 78.5836 56.1128 78.7245 56.1162 78.8664C56.1162 79.4811 56.5104 79.7884 57.4374 80.2139C58.5349 80.7104 59.089 81.325 59.089 82.377C59.1037 82.8539 58.9414 83.3199 58.632 83.6891C58.3226 84.0584 57.887 84.306 57.4054 84.3864V85.6158L56.7342 85.6157Z" fill="#89A8CC"/>
<path d="M61.3647 73.9237C61.5431 73.9439 61.7195 73.9777 61.8925 74.0249L74.1099 63.7935L73.3957 60.0396L79.0564 58.2466L80.9821 64.7723C81.1376 65.2995 81.1139 65.8617 80.9144 66.3746C80.7149 66.8875 80.3504 67.3233 79.8756 67.6167L64.4027 77.1782C64.4137 77.8537 64.2138 78.5164 63.8297 79.0782C63.4455 79.6401 62.8953 80.0744 62.2523 80.3234C61.6092 80.5724 60.9037 80.6244 60.2297 80.4723C59.5556 80.3202 58.945 79.9714 58.4789 79.4721C58.0129 78.9729 57.7135 78.3469 57.6207 77.6775C57.5278 77.008 57.6459 76.3268 57.9592 75.7245C58.2724 75.1222 58.766 74.6273 59.3744 74.3056C59.9827 73.9839 60.6769 73.8507 61.3647 73.9237Z" fill="#A0616A"/>
<path d="M71.8327 46.3715C72.9312 46.148 74.0756 46.3228 75.0518 46.8633C76.028 47.4037 76.7693 48.2728 77.1371 49.3081L80.7885 59.5857C80.8525 59.7659 80.8741 59.9579 80.8515 60.1474C80.829 60.3369 80.763 60.5189 80.6584 60.68C80.5538 60.8411 80.4133 60.9771 80.2474 61.0778C80.0815 61.1785 79.8945 61.2414 79.7003 61.2617L69.9729 62.2785C69.7958 62.297 69.6167 62.2797 69.4467 62.2277C69.2767 62.1757 69.1195 62.0901 68.9848 61.9762C68.8502 61.8623 68.741 61.7226 68.664 61.5657C68.5871 61.4088 68.544 61.2381 68.5375 61.0642L68.1598 50.9504C68.1201 49.8866 68.467 48.8434 69.1392 48.0054C69.8114 47.1674 70.7655 46.5886 71.8327 46.3715Z" fill="#CCCCCC"/>
</g>
<defs>
<clipPath id="clip0_1770_16867">
<rect width="268" height="148" fill="white"/>
</clipPath>
</defs>
</svg>
