<svg width="125" height="148" viewBox="0 0 125 148" fill="none" xmlns="http://www.w3.org/2000/svg">
<g clip-path="url(#clip0_1770_16901)">
<path d="M116.02 12.5287H17.4195C13.8025 12.5287 10.8613 15.4097 10.8613 18.9528V85.1392C10.8613 88.6822 13.8025 91.5633 17.4195 91.5633H116.02C119.637 91.5633 122.578 88.6822 122.578 85.1392V18.9528C122.578 15.4097 119.637 12.5287 116.02 12.5287Z" fill="#F2F2F2"/>
<path d="M105.323 17.6268H6.72226C3.10526 17.6268 0.164062 20.5078 0.164062 24.0508V90.2373C0.164062 93.7803 3.10526 96.6613 6.72226 96.6613H105.323C108.94 96.6613 111.881 93.7803 111.881 90.2373V24.0508C111.881 20.5078 108.94 17.6268 105.323 17.6268ZM111.191 70.7568C111.191 84.6904 99.6601 95.9858 85.4356 95.9858H6.72226C3.48113 95.9858 0.853672 93.4121 0.853672 90.2373V24.0508C0.853672 20.876 3.48112 18.3023 6.72224 18.3023H105.323C108.564 18.3023 111.191 20.876 111.191 24.0509V70.7568Z" fill="#3F3D56"/>
<path d="M14.2481 82.3178L13.6646 81.9579C14.0439 81.3674 14.4353 80.7949 14.8276 80.2565L15.3889 80.649C15.0042 81.1767 14.6205 81.7381 14.2481 82.3178Z" fill="#CCCCCC"/>
<path d="M18.0508 77.5037L17.5571 77.0321C18.6094 75.9758 19.7169 75.0689 20.8486 74.3368L21.2288 74.9005C20.1379 75.606 19.0687 76.4819 18.0508 77.5037ZM35.255 73.2399C34.4315 73.2399 33.6813 73.1367 33.1197 73.0466L33.2311 72.38C33.8002 72.4712 34.4856 72.5644 35.255 72.5644C35.9345 72.5644 36.6024 72.4914 37.2967 72.3408L37.4455 73.0005C36.7017 73.1616 35.9852 73.2399 35.255 73.2399ZM24.9363 73.1505L24.7288 72.5064C25.4696 72.2775 26.237 72.1059 27.0096 71.9963C27.6732 71.9023 28.3075 71.8566 28.9488 71.8566H28.9913V72.5321H28.9488C28.3409 72.5321 27.739 72.5755 27.1085 72.6648C26.3726 72.7692 25.6415 72.9327 24.9363 73.1505ZM41.3736 71.1984L40.9328 70.6789C41.8844 69.9046 42.5664 68.9683 43.2887 67.977L43.5768 67.5827L44.1364 67.9775L43.85 68.3694C43.1011 69.3973 42.3937 70.3683 41.3736 71.1984ZM46.9039 65.0047L46.4797 64.472C47.4092 63.7615 48.4594 63.1858 49.6902 62.712C49.8998 62.6312 50.1001 62.5591 50.2924 62.4949L50.515 63.1342C50.3321 63.1953 50.1419 63.2638 49.9425 63.3406C48.7743 63.7904 47.7804 64.3346 46.9039 65.0047ZM55.2293 62.6584C54.9973 62.6584 54.7772 62.6562 54.5657 62.6539L54.5738 61.9784C54.79 61.9809 55.0156 61.9814 55.2543 61.9829C56.0658 61.9829 57.1961 61.9603 58.7463 61.7845L58.8258 62.4554C57.2243 62.6371 56.0763 62.6561 55.2293 62.6584ZM63.0207 61.7737L62.884 61.1118C64.1226 60.8664 65.5636 60.5743 66.99 60.2138L67.1624 60.8678C65.7197 61.2325 64.2681 61.5267 63.0207 61.7737ZM71.2246 59.5872L70.9667 58.9607C72.3495 58.4147 73.5501 57.7989 74.6373 57.0778L75.0239 57.6372C73.8959 58.3853 72.653 59.0232 71.2246 59.5872ZM78.1923 54.7604L77.6327 54.3656C77.8251 54.104 77.9914 53.8489 78.1522 53.6022C78.627 52.8739 79.1181 52.1207 80.2874 51.1962L80.3692 51.132L80.7965 51.6621L80.7206 51.7216C79.6387 52.5772 79.1991 53.2517 78.7334 53.9658C78.5676 54.2203 78.3958 54.4835 78.1923 54.7604ZM84.3788 49.6941L84.1272 49.0651C85.3563 48.5931 86.7444 48.2133 88.2531 47.936L88.3804 48.6C86.9141 48.8695 85.5677 49.2376 84.3788 49.6941Z" fill="#CCCCCC"/>
<path d="M92.5953 48.104L92.5522 47.4298C93.2223 47.3887 93.9229 47.3617 94.6345 47.3491L94.647 48.0246C93.9454 48.0368 93.2552 48.0636 92.5953 48.104Z" fill="#CCCCCC"/>
<path d="M21.9378 24.9463H12.2626C11.7764 24.9463 11.3799 25.3347 11.3799 25.8109C11.3799 26.2905 11.7764 26.679 12.2626 26.679H21.9378C22.424 26.679 22.8205 26.2906 22.8205 25.8109C22.8205 25.3347 22.424 24.9463 21.9378 24.9463Z" fill="#E6E6E6"/>
<path d="M38.1439 24.9463H28.4686C27.9825 24.9463 27.5859 25.3347 27.5859 25.8109C27.5859 26.2905 27.9825 26.679 28.4686 26.679H38.1439C38.63 26.679 39.0266 26.2906 39.0266 25.8109C39.0266 25.3347 38.6301 24.9463 38.1439 24.9463Z" fill="#E6E6E6"/>
<path d="M54.3495 24.9463H44.6742C44.188 24.9463 43.7915 25.3347 43.7915 25.8109C43.7915 26.2905 44.188 26.679 44.6742 26.679H54.3495C54.8356 26.679 55.2322 26.2906 55.2322 25.8109C55.2322 25.3347 54.8356 24.9463 54.3495 24.9463Z" fill="#E6E6E6"/>
<path d="M99.2954 81.8H11.3701V82.4756H99.2954V81.8Z" fill="#E6E6E6"/>
<path d="M94.6507 32.4879C88.3924 32.6467 83.7238 34.4503 80.7654 37.8413C79.6723 39.0978 79.2275 40.0874 78.7586 41.1345C78.2931 42.168 77.8173 43.2319 76.7104 44.6201V43.4717C77.3966 42.4855 77.7656 41.6614 78.1276 40.8609C78.6172 39.7666 79.0827 38.733 80.2412 37.4057C83.3307 33.8592 88.1718 31.9779 94.6299 31.8124L94.6507 32.4879Z" fill="#CCCCCC"/>
<path d="M78.7585 41.1344C78.2931 42.168 77.8172 43.2319 76.7104 44.6201C76.5794 44.7856 76.438 44.9578 76.2863 45.1368C72.2934 49.7877 66.9593 51.3144 62.6699 52.5438C62.401 52.6215 62.1389 52.6924 61.8838 52.7599C58.0702 53.7732 55.9807 53.736 54.4257 53.7124C52.8637 53.6854 51.8327 53.6685 49.988 54.702C46.6055 56.5901 45.2193 59.3529 43.8781 62.0246C42.4954 64.7739 41.192 67.3712 37.8681 68.5905C35.5614 69.4349 33.9408 69.0161 32.2271 68.577C30.7548 68.1953 28.1012 58.801 25.7517 57.4311C20.9003 58.4275 17.9522 73.9574 14.2731 82.2729L13.6387 82.0027C17.4143 73.4778 20.5244 57.8161 25.6068 56.7691C27.8722 56.303 30.8548 67.5232 32.403 67.9217C34.0097 68.3372 35.5234 68.7256 37.6268 67.9555C40.6955 66.8342 41.8816 64.4665 43.2574 61.7273C44.5815 59.0928 46.0814 56.1071 49.6432 54.1143C51.6534 52.9896 52.8223 53.0099 54.436 53.0369C55.9738 53.0639 58.0495 53.0977 61.8838 52.0608C62.0769 52.0068 62.2734 51.9527 62.4768 51.8953C66.6766 50.6929 71.9004 49.1966 75.7553 44.7045C76.1346 44.262 76.4483 43.8533 76.7104 43.4717C77.3965 42.4854 77.7655 41.6613 78.1275 40.8608C78.6172 39.7665 79.2275 40.0874 78.7585 41.1344Z" fill="#89A8CC"/>
<path d="M41.9888 118.406C41.7159 117.475 41.2485 116.681 40.692 116.114L38.6702 107.086L34.2632 108.144L36.7886 117.188C36.6225 117.953 36.6558 118.867 36.9287 119.798C37.5523 121.925 39.1905 123.337 40.5878 122.953C41.9851 122.569 42.6124 120.533 41.9888 118.406Z" fill="#FFB6B6"/>
<path d="M41.3793 59.1837C41.3793 59.1837 34.4196 59.0441 32.65 64.0087C31.0392 68.5275 29.1297 80.9422 30.162 81.6596L34.5557 112.221L40.8211 111.378L39.2131 74.7085L41.3793 59.1837Z" fill="#89A8CC"/>
<path d="M73.6075 115.913L72.3731 148H55.9948L55.3328 133.622L52.4227 148H34.8687L37.0582 123.283L39.3201 118.085L40.851 114.562L73.6075 115.913Z" fill="#2F2E41"/>
<path d="M60.5048 53.0909L49.1263 52.4154L45.3334 57.144L37.0581 60.1838L40.851 96.3235L39.1269 117.94C39.1269 117.94 63.2633 136.854 73.6074 115.913L70.849 90.5817L71.5386 61.197L63.6081 57.8195L60.5048 53.0909Z" fill="#89A8CC"/>
<path d="M82.4102 44.8704C82.5337 46.0414 82.3769 47.1426 82.0159 48.0255L83.9113 59.1079L78.5014 59.8371L77.1612 48.5166C76.6235 47.7246 76.2403 46.678 76.1168 45.507C75.8348 42.8319 77.015 40.5208 78.7529 40.345C80.4907 40.1692 82.1282 42.1953 82.4102 44.8704Z" fill="#FFB6B6"/>
<path d="M72.9871 62.4659C71.1222 59.3434 66.496 59.0491 64.424 62.0437C63.8576 62.8623 64.0154 63.7825 63.8802 64.8881C63.306 69.5817 72.488 83.4511 78.8413 85.048C79.6751 85.2576 80.15 86.1385 80.9915 86.3157C83.4843 86.8405 85.8052 84.9023 85.6707 82.4082L83.9449 50.4202L76.6946 52.8426L77.1586 69.4501L72.9871 62.4659Z" fill="#89A8CC"/>
<path d="M55.9963 51.5414C61.5317 51.5414 66.019 47.1458 66.019 41.7236C66.019 36.3014 61.5317 31.9059 55.9963 31.9059C50.4609 31.9059 45.9736 36.3014 45.9736 41.7236C45.9736 47.1458 50.4609 51.5414 55.9963 51.5414Z" fill="#FFB6B6"/>
<path d="M65.3319 34.5145C65.2457 34.5348 66.6512 33.1928 66.7111 33.1635C68.0903 32.4879 66.6732 39.091 65.6767 38.9053C63.2251 38.4493 62.1666 37.5441 61.2149 39.8037C60.9494 40.4319 60.7839 41.1412 60.2667 41.5904C59.5564 42.2018 58.3772 42.1511 57.7979 42.8806C57.3324 43.4684 57.4669 44.333 57.8117 44.995C58.1565 45.6604 58.6806 46.2244 58.9944 46.9033C59.3461 47.6666 57.8462 50.0951 57.2738 51.4596V51.463L57.2704 51.471C57.1183 51.8289 56.7569 50.7979 56.3753 50.6949C55.9187 50.5718 55.2461 51.6279 54.5188 51.436C54.5154 51.436 54.5119 51.4326 54.5085 51.4326C53.8154 51.2434 53.043 51.0408 52.2776 50.8381H52.2741C50.1191 50.264 49.5743 51.0881 49.4709 51.0644L48.133 49.6932C47.6739 49.3657 47.7258 48.3086 47.402 48.0247C47.1373 47.7925 46.4772 48.329 46.2827 48.1058C45.3288 47.0115 45.1093 45.9168 44.547 43.7554C44.0333 41.7796 42.9678 35.8655 45.1573 35.5987C47.2227 35.3453 45.7125 32.5285 47.7917 32.6332C47.6675 32.1198 47.8986 31.5692 48.2744 31.191C48.6468 30.8093 49.1433 30.5729 49.6433 30.3702C52.1086 29.384 51.6983 28.5362 54.2981 29.1104C54.5567 28.7558 58.3116 28.9922 58.7806 29.1104C58.8151 29.1171 57.6186 29.3975 59.4702 29.1104C59.4012 29.5259 60.5736 29.7082 60.5046 30.1237C60.7632 29.7825 63.5423 31.7415 63.6079 32.1502C63.6941 32.6602 62.9079 32.4001 63.432 32.4778C63.7423 32.5251 64.2733 33.1432 64.2216 33.4505C64.4457 33.1533 64.6699 32.8595 64.8974 32.5622C64.9388 32.5656 64.9767 32.5724 65.0181 32.5791C66.0663 32.775 64.8646 36.1316 64.9078 35.0853C64.9871 33.1635 66.3766 34.2882 65.3319 34.5145Z" fill="#2F2E41"/>
<path d="M103.729 86.769C103.807 86.9554 104.073 86.9553 104.15 86.769C104.689 85.4688 105.455 84.0128 106.289 82.9001C106.422 82.722 106.238 82.4839 106.026 82.5591L104.239 83.1924V72.3551H103.641V83.1925L101.853 82.559C101.641 82.4838 101.457 82.7219 101.59 82.9C102.424 84.0128 103.191 85.4688 103.729 86.769Z" fill="#3F3D56"/>
<path d="M115.45 97.9275C115.392 98.1204 115.601 98.2828 115.779 98.1839C117.027 97.4937 118.551 96.8205 119.911 96.457C120.128 96.3988 120.135 96.1003 119.921 96.0299L118.12 95.4372L125 86.9505L124.532 86.5861L117.651 95.0727L116.653 93.4875C116.535 93.2994 116.24 93.3737 116.231 93.5945C116.177 94.9738 115.853 96.5811 115.45 97.9275Z" fill="#3F3D56"/>
<path d="M109.853 105.16H98.2252C97.5033 105.16 96.916 104.584 96.916 103.877C95.3787 99.4756 95.4091 95.1627 96.916 90.9333C96.916 90.2262 97.5033 89.6509 98.2252 89.6509H109.853C110.574 89.6509 111.162 90.2262 111.162 90.9333V103.877C111.162 104.584 110.574 105.16 109.853 105.16Z" fill="#E6E6E6"/>
<path d="M100.717 90.033C98.833 90.033 97.3062 91.5286 97.3062 93.3736V103.602C97.3062 104.251 97.8432 104.777 98.5056 104.777H104.936C108.159 104.777 110.772 102.218 110.772 99.0606V91.2079C110.772 90.559 110.235 90.033 109.572 90.033H100.717Z" fill="white"/>
<path d="M106.747 93.7945H101.303C101.166 93.7945 101.054 93.6851 101.054 93.5507C101.054 93.4162 101.166 93.3069 101.303 93.3069H106.747C106.884 93.3069 106.996 93.4162 106.996 93.5507C106.996 93.6851 106.884 93.7945 106.747 93.7945Z" fill="#E6E6E6"/>
<path d="M106.747 98.9933H101.303C101.166 98.9933 101.054 98.8839 101.054 98.7495C101.054 98.6151 101.166 98.5057 101.303 98.5057H106.747C106.884 98.5057 106.996 98.6151 106.996 98.7495C106.996 98.8839 106.884 98.9933 106.747 98.9933Z" fill="#E6E6E6"/>
<path d="M109.668 96.3957H98.3817C98.2445 96.3957 98.1328 96.2863 98.1328 96.1519C98.1328 96.0174 98.2445 95.9081 98.3817 95.9081H109.668C109.805 95.9081 109.917 96.0174 109.917 96.1519C109.917 96.2863 109.805 96.3957 109.668 96.3957Z" fill="#E6E6E6"/>
<path d="M109.801 101.107H105.092C104.954 101.107 104.843 100.998 104.843 100.863C104.843 100.729 104.954 100.62 105.092 100.62H109.801C109.938 100.62 110.05 100.729 110.05 100.863C110.05 100.998 109.938 101.107 109.801 101.107Z" fill="#E6E6E6"/>
<path d="M4.2974 8.35014C6.67079 8.35014 8.5948 6.50518 8.5948 4.2293C8.5948 1.95342 6.67079 0.108459 4.2974 0.108459C1.92401 0.108459 0 1.95342 0 4.2293C0 6.50518 1.92401 8.35014 4.2974 8.35014Z" fill="#89A8CC"/>
<path d="M38.7477 2.81952H15.6164C14.8229 2.81952 14.1772 2.18708 14.1772 1.40976C14.1772 0.632442 14.8229 0 15.6164 0H38.7477C39.5412 0 40.1868 0.632442 40.1868 1.40976C40.1868 2.18708 39.5412 2.81952 38.7477 2.81952Z" fill="#F2F2F2"/>
<path d="M56.7994 7.59101H15.6164C14.8229 7.59101 14.1772 6.95856 14.1772 6.18124C14.1772 5.40393 14.8229 4.77148 15.6164 4.77148H56.7994C57.5929 4.77148 58.2385 5.40393 58.2385 6.18124C58.2385 6.95856 57.5929 7.59101 56.7994 7.59101Z" fill="#F2F2F2"/>
</g>
<defs>
<clipPath id="clip0_1770_16901">
<rect width="125" height="148" fill="white"/>
</clipPath>
</defs>
</svg>
