<svg xmlns="http://www.w3.org/2000/svg" viewBox="0 0 492.04 512.66"><defs><style>.cls-1{fill:#d9d9d9;}.cls-2{fill:#eee;}.cls-3{fill:#cdcdcd;}.cls-4{fill:#d1d1d1;}.cls-5{fill:#fff;}.cls-6{fill:#d7d7d7;}.cls-7{fill:#bdbdbd;}.cls-8{fill:#e5e5e5;}.cls-9{opacity:0.91;}.cls-10{fill:#0D47A1;}.cls-11{fill:#5c5c5c;}.cls-12{fill:#e0a4ab;}.cls-13{fill:#ffcdc2;}.cls-14{fill:#535254;}.cls-15{fill:#16242b;}.cls-16{fill:#414042;}.cls-17{fill:#ea7185;}.cls-18{opacity:0.4;}.cls-19{fill:#1b2d37;}.cls-20{fill:#22393d;}.cls-21{fill:#FFDE59;}.cls-22{fill:#f9bd48;}.cls-23{opacity:0.3;}.cls-24{fill:#FFDE59;}.cls-25{fill:#f9bd48;}.cls-26{fill:#0D47A1;}.cls-27{fill:#FFDE59;}.cls-28{fill:#231f20;}</style></defs><g id="Layer_2" data-name="Layer 2"><g id="Layer_1-2" data-name="Layer 1"><path class="cls-1" d="M270.38,133.48A30.82,30.82,0,1,0,301.2,164.3H270.38V133.48"/><path class="cls-2" d="M278.39,125.47v30.81h30.82a30.81,30.81,0,0,0-30.82-30.81"/><polyline class="cls-1" points="246.92 270.8 253.01 293.41 114.97 330.01 126.82 374 264.86 337.39 270.49 358.27 322.51 297.34 246.92 270.8"/><path class="cls-1" d="M183.9,105.89a10.83,10.83,0,1,1,10.83-10.83,10.83,10.83,0,0,1-10.83,10.83m3.14-40h-6.27a3.41,3.41,0,0,0-3.38,2.89l-.79,5A21.56,21.56,0,0,0,174,74.81l-4.09-3a3.37,3.37,0,0,0-2-.65,3.44,3.44,0,0,0-2.42,1L161,76.62a3.42,3.42,0,0,0-.35,4.43l3,4.08a24.19,24.19,0,0,0-1.08,2.63l-5,.79a3.42,3.42,0,0,0-2.89,3.38v6.26a3.42,3.42,0,0,0,2.89,3.38l5,.79a24.19,24.19,0,0,0,1.08,2.63l-3,4.08a3.42,3.42,0,0,0,.35,4.43l4.43,4.43a3.44,3.44,0,0,0,2.42,1,3.37,3.37,0,0,0,2-.65l4.09-3a20,20,0,0,0,2.62,1.08l.79,5a3.41,3.41,0,0,0,3.38,2.89H187a3.43,3.43,0,0,0,3.38-2.89l.78-5a20.75,20.75,0,0,0,2.63-1.08l4.08,3a3.43,3.43,0,0,0,4.43-.35l4.43-4.43a3.42,3.42,0,0,0,.35-4.43l-3-4.08a22.39,22.39,0,0,0,1.09-2.63l5-.79a3.41,3.41,0,0,0,2.89-3.38V91.93a3.41,3.41,0,0,0-2.89-3.38l-5-.79a22.39,22.39,0,0,0-1.09-2.63l3-4.08a3.42,3.42,0,0,0-.35-4.43l-4.43-4.43a3.43,3.43,0,0,0-4.43-.35l-4.08,3a22.39,22.39,0,0,0-2.63-1.09l-.78-5A3.43,3.43,0,0,0,187,65.85"/><path class="cls-3" d="M282,410.92h0a10.11,10.11,0,1,1,7.16-3,10.08,10.08,0,0,1-7.16,3m0-21.24a11.12,11.12,0,0,0,0,22.24h0a11.12,11.12,0,0,0,0-22.24m-9.78-8.15.27-.13a19.91,19.91,0,0,1,2.52-1l.28-.1.82-5.19a2.87,2.87,0,0,1,2.82-2.41h6.15a2.87,2.87,0,0,1,2.82,2.41l.82,5.19.28.1a20.4,20.4,0,0,1,2.51,1l.27.13,4.25-3.09a2.88,2.88,0,0,1,3.7.29l4.34,4.35a2.81,2.81,0,0,1,.84,2,2.86,2.86,0,0,1-.55,1.68L301.3,391l.13.27a21.5,21.5,0,0,1,1,2.52l.1.28,5.18.82.08-.49-.08.49a2.86,2.86,0,0,1,2.41,2.82v6.15a2.86,2.86,0,0,1-2.41,2.82l-5.18.82-.1.28a23,23,0,0,1-1,2.52l-.13.27,3.08,4.24a2.85,2.85,0,0,1-.29,3.7l-4.34,4.34a2.85,2.85,0,0,1-2,.84,2.81,2.81,0,0,1-1.68-.55l-4.25-3.08-.27.13a22.08,22.08,0,0,1-2.51,1l-.28.1-.82,5.18a2.86,2.86,0,0,1-2.82,2.41H279a2.86,2.86,0,0,1-2.82-2.41l-.82-5.18-.28-.1a21.5,21.5,0,0,1-2.52-1l-.27-.13L268,423.16a2.86,2.86,0,0,1-1.68.55,2.81,2.81,0,0,1-2-.84L260,418.53a2.88,2.88,0,0,1-.29-3.7l3.09-4.24-.13-.27a21.21,21.21,0,0,1-1-2.52l-.1-.28-5.19-.82a2.87,2.87,0,0,1-2.41-2.82v-6.15a2.87,2.87,0,0,1,2.41-2.82l5.19-.82.1-.28a19.91,19.91,0,0,1,1-2.52l.13-.27-3.09-4.24a2.9,2.9,0,0,1-.54-1.68,2.85,2.85,0,0,1,.83-2l4.35-4.35a2.85,2.85,0,0,1,2-.83,2.92,2.92,0,0,1,1.68.54l4.24,3.09m12.86-9.87H279a3.86,3.86,0,0,0-3.81,3.26l-.72,4.59a22.19,22.19,0,0,0-2.08.86l-3.76-2.74a3.85,3.85,0,0,0-2.26-.73h0a3.85,3.85,0,0,0-2.73,1.13l-4.34,4.34a3.86,3.86,0,0,0-.4,5l2.74,3.76a22.19,22.19,0,0,0-.86,2.08l-4.59.72a3.86,3.86,0,0,0-3.26,3.81v6.15a3.85,3.85,0,0,0,3.26,3.8l4.59.73a21,21,0,0,0,.86,2.07l-2.74,3.76a3.88,3.88,0,0,0,.4,5l4.34,4.34a3.84,3.84,0,0,0,2.73,1.13h0a3.8,3.8,0,0,0,2.26-.74l3.76-2.73c.68.32,1.37.6,2.08.86l.72,4.59a3.86,3.86,0,0,0,3.81,3.25h6.15a3.85,3.85,0,0,0,3.8-3.25l.73-4.59c.71-.26,1.4-.54,2.07-.86l3.76,2.73a3.82,3.82,0,0,0,2.27.74h0a3.85,3.85,0,0,0,2.73-1.13l4.34-4.34a3.86,3.86,0,0,0,.39-5l-2.73-3.76a20.89,20.89,0,0,0,.85-2.07l4.6-.73a3.85,3.85,0,0,0,3.25-3.8v-6.15a3.86,3.86,0,0,0-3.25-3.81h0l-4.59-.72c-.26-.71-.54-1.4-.86-2.08l2.73-3.76a3.77,3.77,0,0,0,.74-2.26,3.85,3.85,0,0,0-1.13-2.73L300.46,378a3.85,3.85,0,0,0-2.73-1.13h0a3.88,3.88,0,0,0-2.27.73l-3.76,2.74a21,21,0,0,0-2.07-.86l-.73-4.59a3.85,3.85,0,0,0-3.8-3.26"/><path class="cls-4" d="M348.84,318.14h0a.7.7,0,0,1,.74-.65h2a.7.7,0,0,1,.74.65v8.51h0a.7.7,0,0,1-.74.65h-2a.7.7,0,0,1-.74-.65v-8.51h0M357,311.8h0a1.7,1.7,0,1,1,3.39,0h0s-.06,3.88-.85,4.87l.13,0h7.07a1.52,1.52,0,0,1,1.42,1.63,3.12,3.12,0,0,1-.07.64l-2.12,6.67a1.1,1.1,0,0,1-1.09.91H354l0-7.35a12.34,12.34,0,0,0,2.95-7.38h0m1-9.47A17.11,17.11,0,1,0,375,319.44a17.1,17.1,0,0,0-17.11-17.11"/><path class="cls-5" d="M358.65,310.1a1.7,1.7,0,0,0-1.7,1.7h0a12.34,12.34,0,0,1-2.95,7.38l0,7.35h10.87a1.1,1.1,0,0,0,1.09-.91L368,319a3.12,3.12,0,0,0,.07-.64,1.52,1.52,0,0,0-1.42-1.63h-7.07l-.13,0c.79-1,.85-4.87.85-4.87h0a1.7,1.7,0,0,0-1.69-1.7"/><path class="cls-5" d="M351.58,317.49h-2a.7.7,0,0,0-.74.65h0v8.51a.7.7,0,0,0,.74.65h2a.7.7,0,0,0,.74-.65h0v-8.51a.7.7,0,0,0-.74-.65"/><path class="cls-6" d="M331.93,254.86a19.16,19.16,0,0,1-1.33-38.27c.46,0,.91-.05,1.36-.05a19.16,19.16,0,0,1,1.32,38.27c-.45,0-.9.05-1.35.05m0-42c-.54,0-1.07,0-1.62.05a22.88,22.88,0,0,0,1.59,45.71c.53,0,1.07,0,1.61-.05A22.88,22.88,0,0,0,332,212.82"/><path class="cls-6" d="M340.86,227.54a1.88,1.88,0,0,0-1.48.72l-9.52,12.37-5.25-4.13a1.86,1.86,0,0,0-2.3,2.92l6.73,5.3a1.85,1.85,0,0,0,1.15.4h.23a1.86,1.86,0,0,0,1.24-.71l10.67-13.85a1.87,1.87,0,0,0-1.47-3"/><polyline class="cls-7" points="170.5 193.59 139.01 193.59 139.01 196.86 170.5 196.86 170.5 193.59"/><polyline class="cls-8" points="201.37 201.97 151.89 201.97 151.89 205.24 201.37 205.24 201.37 201.97"/><polyline class="cls-8" points="218.74 201.97 206.89 201.97 206.89 205.24 218.74 205.24 218.74 201.97"/><polyline class="cls-8" points="181.74 210.4 151.89 210.4 151.89 213.67 181.74 213.67 181.74 210.4"/><polyline class="cls-8" points="214.86 210.4 187.26 210.4 187.26 213.67 214.86 213.67 214.86 210.4"/><polyline class="cls-8" points="173.15 218.83 151.89 218.83 151.89 222.1 173.15 222.1 173.15 218.83"/><polyline class="cls-8" points="215.06 218.83 178.67 218.83 178.67 222.1 215.06 222.1 215.06 218.83"/><polyline class="cls-8" points="185.22 227.27 151.89 227.27 151.89 230.54 185.22 230.54 185.22 227.27"/><polyline class="cls-8" points="206.07 227.27 190.74 227.27 190.74 230.54 206.07 230.54 206.07 227.27"/><polyline class="cls-8" points="195.23 235.7 151.89 235.7 151.89 238.97 195.23 238.97 195.23 235.7"/><polyline class="cls-8" points="211.59 235.7 200.75 235.7 200.75 238.97 211.59 238.97 211.59 235.7"/><polyline class="cls-8" points="179.08 244.13 151.89 244.13 151.89 247.4 179.08 247.4 179.08 244.13"/><polyline class="cls-8" points="218.74 244.13 184.6 244.13 184.6 247.4 218.74 247.4 218.74 244.13"/><polyline class="cls-8" points="172.34 252.57 151.89 252.57 151.89 255.84 172.34 255.84 172.34 252.57"/><polyline class="cls-8" points="207.5 252.57 177.85 252.57 177.85 255.84 207.5 255.84 207.5 252.57"/><polyline class="cls-8" points="176.63 261 151.89 261 151.89 264.27 176.63 264.27 176.63 261"/><polyline class="cls-8" points="199.12 261 182.15 261 182.15 264.27 199.12 264.27 199.12 261"/><g class="cls-9"><polygon class="cls-24" points="492.04 286.56 412.12 286.56 412.12 242.67 492.04 242.67 470.27 264.62 492.04 286.56"/><rect class="cls-11" x="410.56" y="242.67" width="3.13" height="175.59"/></g><path class="cls-12" d="M104.44,194.7s-4.87,8.15-3.69,13.45c0,0-16-10.25-19.67-13.87,0,0,2.38-1.52,1.85-10.33C82.23,172.29,105.47,191.83,104.44,194.7Z"/><path class="cls-13" d="M93,184.36s.22,9.63,8.24,11.77,14.32,5.42,13.69-2.9,4.91-9.58,4.79-11-3.91-2.77-3.41-8.82,1.26-14.87,1.26-14.87-27.73-4.08-30,4.79C82.44,183.36,93,184.36,93,184.36Z"/><path class="cls-14" d="M80,164.49s-6.07,11.54,3.38,24.9c0,0,7-.42,9.61-5,0,0-7.88-5.07-3.44-9.89,2-2.15,5.83,1.25,5.51,4.88.52.79,1.36,1.9,3.85,1.4,0,0-1.77-16,3.15-20S80,164.49,80,164.49Z"/><path class="cls-15" d="M98.39,148.86s5.17-5.29,7.19-.63c0,0,4.16-3.15,6,1.26,0,0,6.93-1.89,6.05,2.14,0,0,7.31-.63,3.78,4,0,0,7,1.76,1,5.42,0,0,3.58,3.28-1.46,3.4,0,0-1.52,4.16-5.68,1,0,0-4.28,2.9-7.31.13,0,0-4.28,4.16-8.06,0,0,0-3.79,3.78-7.32.25,0,0-6.17,3.65-9.58-.13,0,0-5,2.52-5.42-1.26S81.75,159,81.75,159s-5.29-2.4.76-6.06c0,0-.13-7.68,8.82-4.41C91.33,148.48,90.7,141.68,98.39,148.86Z"/><ellipse class="cls-16" cx="111.42" cy="175.84" rx="1.09" ry="2.06"/><path class="cls-17" d="M115.09,189.42s-3.22.23-4.76.49c0,0,.79,1.52,4.55,1.18Z"/><path class="cls-16" d="M108,171.51a3.61,3.61,0,0,1,1-1.92,3.57,3.57,0,0,1,2.1-1,3.25,3.25,0,0,1,2.29.62,4.24,4.24,0,0,1,.81.77,5.34,5.34,0,0,1,.52,1c-.36-.12-.66-.28-1-.41s-.6-.26-.89-.32a3.67,3.67,0,0,0-1.61-.19A8.28,8.28,0,0,0,108,171.51Z"/><g class="cls-18"><path class="cls-16" d="M97.66,182.85a2.07,2.07,0,0,1,.26,1,2,2,0,0,1-.24,1,2.07,2.07,0,0,1-.26-1A2,2,0,0,1,97.66,182.85Z"/></g><g class="cls-18"><path class="cls-16" d="M99.6,183.24a2,2,0,0,1,.27,1,2.08,2.08,0,0,1-.24,1,2.09,2.09,0,0,1-.27-1A2.2,2.2,0,0,1,99.6,183.24Z"/></g><g class="cls-18"><path class="cls-16" d="M101.55,183.63a2,2,0,0,1,.27,1,2,2,0,0,1-.24,1,2,2,0,0,1-.27-1A2.22,2.22,0,0,1,101.55,183.63Z"/></g><g class="cls-18"><path class="cls-16" d="M103.5,184a2,2,0,0,1,.27,1,2.16,2.16,0,0,1-.24,1,2,2,0,0,1-.27-1A2.16,2.16,0,0,1,103.5,184Z"/></g><g class="cls-18"><path class="cls-16" d="M105.45,184.42a2.06,2.06,0,0,1,.27,1,2.22,2.22,0,0,1-.24,1,2,2,0,0,1-.27-1A2.17,2.17,0,0,1,105.45,184.42Z"/></g><g class="cls-18"><path class="cls-16" d="M107.4,184.81a2.23,2.23,0,0,1,0,2.07,2,2,0,0,1-.27-1A2.08,2.08,0,0,1,107.4,184.81Z"/></g><g class="cls-18"><path class="cls-16" d="M109.66,185.45a2,2,0,0,1,.27,1,2.08,2.08,0,0,1-.24,1,2,2,0,0,1-.27-1A2.2,2.2,0,0,1,109.66,185.45Z"/></g><g class="cls-18"><path class="cls-16" d="M98.68,187a2,2,0,0,1,.26,1,2,2,0,0,1-.24,1,2.1,2.1,0,0,1-.26-1A2,2,0,0,1,98.68,187Z"/></g><g class="cls-18"><path class="cls-16" d="M96.8,186.32a2,2,0,0,1,.26,1,2,2,0,0,1-.24,1,2.25,2.25,0,0,1,0-2.06Z"/></g><g class="cls-18"><path class="cls-16" d="M100.62,187.35a2.23,2.23,0,0,1,0,2.07,2.09,2.09,0,0,1-.27-1A2.2,2.2,0,0,1,100.62,187.35Z"/></g><g class="cls-18"><path class="cls-16" d="M102.57,187.74a2,2,0,0,1,.27,1,2.08,2.08,0,0,1-.24,1,2,2,0,0,1-.27-1A2.2,2.2,0,0,1,102.57,187.74Z"/></g><g class="cls-18"><path class="cls-16" d="M104.52,188.13a2,2,0,0,1,.27,1,2.16,2.16,0,0,1-.24,1,2,2,0,0,1-.27-1A2.22,2.22,0,0,1,104.52,188.13Z"/></g><g class="cls-18"><path class="cls-16" d="M106.47,188.53a2.06,2.06,0,0,1,.27,1,2.16,2.16,0,0,1-.24,1,2,2,0,0,1-.27-1A2.16,2.16,0,0,1,106.47,188.53Z"/></g><g class="cls-18"><path class="cls-16" d="M108.42,188.92a2.17,2.17,0,0,1,.27,1,2.22,2.22,0,0,1-.24,1,2,2,0,0,1-.27-1A2.06,2.06,0,0,1,108.42,188.92Z"/></g><g class="cls-18"><path class="cls-16" d="M98.89,190.76a2,2,0,0,1,.24,1,2,2,0,0,1-.26,1,2.27,2.27,0,0,1,0-2.07Z"/></g><g class="cls-18"><path class="cls-16" d="M100.93,191.19a2.21,2.21,0,0,1,0,2.06,2.21,2.21,0,0,1,0-2.06Z"/></g><g class="cls-18"><path class="cls-16" d="M102.88,191.62a2,2,0,0,1,.24,1,2,2,0,0,1-.26,1,2.25,2.25,0,0,1,0-2.06Z"/></g><g class="cls-18"><path class="cls-16" d="M104.82,192a2.1,2.1,0,0,1,.25,1,2.07,2.07,0,0,1-.26,1,2.23,2.23,0,0,1,0-2.07Z"/></g><g class="cls-18"><path class="cls-16" d="M106.77,192.47a2,2,0,0,1,.24,1,1.86,1.86,0,0,1-.26,1,2,2,0,0,1-.24-1A2.07,2.07,0,0,1,106.77,192.47Z"/></g><g class="cls-18"><path class="cls-16" d="M108.71,192.9a2.21,2.21,0,0,1,0,2.06,2.06,2.06,0,0,1-.25-1A2.16,2.16,0,0,1,108.71,192.9Z"/></g><g class="cls-18"><path class="cls-16" d="M110.74,193.37a2.21,2.21,0,0,1,0,2.06,2.09,2.09,0,0,1-.25-1A2,2,0,0,1,110.74,193.37Z"/></g><g class="cls-18"><path class="cls-16" d="M112.89,193.5a2.23,2.23,0,0,1,0,2.07,2.23,2.23,0,0,1,0-2.07Z"/></g><path class="cls-15" d="M31.73,498.85c12.46.33,29.52,1,46.91-.32,0,0,7.2-12.56-9.63-13.52s-16.26-10.43-16.26-10.43c-5.22-.36-11.8-.22-19.84-.75Z"/><path class="cls-19" d="M96.51,453c11.91,3.68,28.15,9,45.25,12.35,0,0,10.33-10.15-5.62-15.61s-12.84-14.44-12.84-14.44c-4.93-1.75-11.3-3.39-18.9-6.08Z"/><path class="cls-20" d="M144.61,344.54C132,330.08,83.77,298,83.77,298l-36.4,1.83s-7.13,29.43,4.85,39.43c0,0,37.77,14.81,47.84,17.62h0l22,6.17S101,427.88,101.28,431.41c0,0,17.43,6.79,23.23,5.16,0,0,16.24-46.32,19.43-51.86S157.22,359,144.61,344.54Z"/><path class="cls-15" d="M52.22,339.24c-9.64,45.86-16.3,88.43-21.91,137,0,0,17.16,6.28,24.72,0l31.9-123,13.13,3.67h0C90,354.05,52.22,339.24,52.22,339.24Z"/><path class="cls-13" d="M23.67,297.78s.84,11.34,0,16.63.17,11.52,3.53,11.6c0,0,1.18,3.7,4.2,1.18,0,0,1.34,3.36,3.7,1.43,0,0,1.59,3,4.12.6,0,0,2,.13,2.53-5.75s-1.61-8.3-3.12-11.66-2.86-16-2.86-16Z"/><path class="cls-21" d="M99.28,206.34C92.85,204.07,83.1,196,83.1,196s-4-5.54-10.3-2.14-51.3,48.28-52.18,54.2-1.39,31.77,0,39.46a161,161,0,0,1,1.89,16.13s10.21,2.4,15.38-1.63c0,0-.89-43.24.5-44.5s11.22-9,11.22-9-3.47,21.93-6,57.89c0,0,45.62-3.3,52.93.36l1.26-32.15.48.61c.83-20.7,7.34-54.31,7.34-54.31S105.7,208.61,99.28,206.34Z"/><path class="cls-13" d="M153.25,301.72s11.2,3.34,12.34,3.48c3.19.4,3.65,4.12,3.65,4.12s2.81,1.29,3.29,2.58a2,2,0,0,1-.81,2.19s2,1.86-.56,3.39c0,0,.75,2.38-2.33,2.54,0,0-.3,1.51-2.74.7-2.7-.89-3-1.56-3-1.56a10.25,10.25,0,0,1-8-4.17,22.48,22.48,0,0,0-7.12-6.47Z"/><path class="cls-12" d="M158.92,308.49A8.77,8.77,0,0,0,162,310a6,6,0,0,0,1.68.2,7.13,7.13,0,0,0,1.66-.22l.55-.13-.14.55a8.23,8.23,0,0,0-.29,2.86,2.27,2.27,0,0,0,.44,1.21,2.09,2.09,0,0,1,.22.2l.26.14a1.65,1.65,0,0,0,.53.11c.26-.07.55-.54.73-1a10.4,10.4,0,0,0,.45-1.4c.25-1,.44-2,.61-3a17.27,17.27,0,0,1-.21,3,9,9,0,0,1-.36,1.51,3.5,3.5,0,0,1-.33.75,1.28,1.28,0,0,1-.71.63.94.94,0,0,1-.52,0,3.39,3.39,0,0,1-.43-.11l-.41-.2a3.38,3.38,0,0,1-.35-.31,2.86,2.86,0,0,1-.63-1.58,8,8,0,0,1,.35-3.13l.41.42a6.49,6.49,0,0,1-3.64-.2,6.25,6.25,0,0,1-1.62-.79A6.91,6.91,0,0,1,158.92,308.49Z"/><path class="cls-12" d="M168.17,313.74a10.16,10.16,0,0,1,1.57,0,4.16,4.16,0,0,1,1.55.41,2.73,2.73,0,0,1-1.62.3,2.83,2.83,0,0,1-.81-.2A1.63,1.63,0,0,1,168.17,313.74Z"/><path class="cls-12" d="M166.76,315.57a4.14,4.14,0,0,0,1,.46l1,.35a9.21,9.21,0,0,1,2,.9,4.54,4.54,0,0,1-2.23-.22,4,4,0,0,1-1-.54A1.6,1.6,0,0,1,166.76,315.57Z"/><path class="cls-12" d="M166.67,315.82a2.36,2.36,0,0,0-.53,1.13,1.14,1.14,0,0,0,.43.9,6.72,6.72,0,0,0,1,.75c.36.26.76.47,1.13.78a4.27,4.27,0,0,1-2.65-1,2.3,2.3,0,0,1-.45-.68,2.07,2.07,0,0,1-.1-.43,1.49,1.49,0,0,1,.07-.43A1.61,1.61,0,0,1,166.67,315.82Z"/><path class="cls-12" d="M158.53,310.91a4.26,4.26,0,0,1,2,.29,3.76,3.76,0,0,1,1.66,1.25,3.3,3.3,0,0,1,.66,2,4.31,4.31,0,0,1-.1,1,7.51,7.51,0,0,1-.34.94c0-.34,0-.66,0-1l0-.47a1.74,1.74,0,0,0-.06-.45,3.58,3.58,0,0,0-.68-1.61A6.3,6.3,0,0,0,158.53,310.91Z"/><path class="cls-22" d="M118.94,298.23c6.93,5.17,30.25,14.37,30.25,14.37s4.54-4.28,4.92-12.47c0,0-32.27-23.32-36.05-30.76S107.82,228,105.58,221c0,0-6.51,33.61-7.34,54.31C100.75,278.48,112.75,293.62,118.94,298.23Z"/><path class="cls-22" d="M49.61,248.56s21.3-25.83,23.82-21.92L43.57,306.45Z"/><path class="cls-12" d="M38.94,328.92l-.28-7.49S37,323.83,38.94,328.92Z"/><path class="cls-12" d="M35.1,328.62v-6.89S33.59,324.28,35.1,328.62Z"/><path class="cls-12" d="M31.48,326.94v-5.21S30,323.66,31.48,326.94Z"/><path class="cls-12" d="M27.3,325.47v-4S25.81,323,27.3,325.47Z"/><path class="cls-12" d="M94.35,181.58a1.32,1.32,0,0,1-.75.93,1.6,1.6,0,0,1-1.25-.06A6.49,6.49,0,0,1,90.4,181a5.39,5.39,0,0,1-1.23-2.16,4.05,4.05,0,0,1,.08-2.55,2.59,2.59,0,0,1,.79-1.1,1.64,1.64,0,0,1,1.42-.32,2.19,2.19,0,0,1,1.12.78,4.82,4.82,0,0,1,.69,1,5.65,5.65,0,0,1,.59,2.38,1.53,1.53,0,0,1-.43,1.19.59.59,0,0,1-.64,0,2.14,2.14,0,0,1-.44-.41,2.13,2.13,0,0,0,.49.31.43.43,0,0,0,.48,0,1.33,1.33,0,0,0,.18-1,5.36,5.36,0,0,0-.73-2.12c-.39-.61-.9-1.28-1.48-1.41s-1.12.37-1.35,1a4.26,4.26,0,0,0,.91,4.06,5.89,5.89,0,0,0,1.66,1.53,1.32,1.32,0,0,0,1,.21A1.36,1.36,0,0,0,94.35,181.58Z"/><path class="cls-12" d="M93.71,178.63c-.28-.43-.75-.93-1.08-.69a1.13,1.13,0,0,0-.39,1.16,2.74,2.74,0,0,0,.7,1.26,2,2,0,0,0,1.29.75,1.16,1.16,0,0,1-.84,0,2.46,2.46,0,0,1-.76-.42,2.62,2.62,0,0,1-.93-1.49,1.45,1.45,0,0,1,.77-1.63.74.74,0,0,1,.53,0,.94.94,0,0,1,.37.3A2.12,2.12,0,0,1,93.71,178.63Z"/><rect class="cls-10" y="499.33" width="143.93" height="13.32" transform="translate(143.93 1011.99) rotate(180)"/><rect class="cls-10" x="176.51" y="456.73" width="124.74" height="13.32" transform="translate(477.76 926.78) rotate(180)"/><rect class="cls-10" x="337.7" y="414.12" width="143.93" height="13.32" transform="translate(819.34 841.57) rotate(180)"/><path class="cls-24" d="M69.83,98.36A18.91,18.91,0,1,0,101.6,84.51,11.24,11.24,0,0,1,98,76.28V72.49H79.49v3.79a11.09,11.09,0,0,1-3.57,8.18A18.88,18.88,0,0,0,69.83,98.36Z"/><path class="cls-25" d="M95.56,103.17a5.29,5.29,0,0,1-5.28-5.29V92.6h5.28a5.29,5.29,0,1,1,0,10.57Zm-3.62-8.91v3.62a3.63,3.63,0,1,0,3.62-3.62Z"/><path class="cls-25" d="M81.92,103.17a5.29,5.29,0,1,1,0-10.57H87.2v5.28A5.29,5.29,0,0,1,81.92,103.17Zm0-8.91a3.63,3.63,0,1,0,3.62,3.62V94.26Z"/><rect class="cls-25" x="90.28" y="67.09" width="1.66" height="27.04"/><rect class="cls-25" x="85.54" y="67.09" width="1.66" height="27.04"/><rect class="cls-25" x="84.42" y="92.6" width="8.24" height="1.66"/><path class="cls-26" d="M78.07,53H99.41a1.12,1.12,0,0,1,1.12,1.12v7.05A11.27,11.27,0,0,1,89.26,72.49h-1A11.27,11.27,0,0,1,77,61.22V54.16A1.12,1.12,0,0,1,78.07,53Z" transform="translate(177.48 125.53) rotate(180)"/><path class="cls-24" d="M88.54,131.7a.83.83,0,0,1-.83-.83v-8a.83.83,0,1,1,1.66,0v8A.83.83,0,0,1,88.54,131.7Z"/><path class="cls-24" d="M109.64,124.17a.83.83,0,0,1-.64-.3l-5.14-6.13a.83.83,0,1,1,1.27-1.06l5.14,6.12a.83.83,0,0,1-.1,1.17A.81.81,0,0,1,109.64,124.17Z"/><path class="cls-24" d="M121,104.83h-.14l-7.88-1.39a.83.83,0,0,1,.29-1.63l7.88,1.39a.82.82,0,0,1,.67,1A.83.83,0,0,1,121,104.83Z"/><path class="cls-24" d="M110.28,86.74a.86.86,0,0,1-.72-.41.84.84,0,0,1,.31-1.14l6.93-4a.83.83,0,0,1,.83,1.44l-6.93,4A.91.91,0,0,1,110.28,86.74Z"/><path class="cls-24" d="M67.43,124.17a.81.81,0,0,1-.53-.2.83.83,0,0,1-.1-1.17l5.14-6.12a.83.83,0,1,1,1.27,1.06l-5.14,6.13A.83.83,0,0,1,67.43,124.17Z"/><path class="cls-24" d="M56.11,104.83a.83.83,0,0,1-.82-.68.82.82,0,0,1,.67-1l7.88-1.39a.83.83,0,0,1,.29,1.63l-7.88,1.39Z"/><path class="cls-24" d="M66.79,86.74a.91.91,0,0,1-.42-.11l-6.92-4a.83.83,0,0,1-.31-1.13.84.84,0,0,1,1.14-.31l6.92,4a.83.83,0,0,1-.41,1.55Z"/><rect class="cls-26" x="87.29" width="2.49" height="61.26"/><circle class="cls-27" cx="387.66" cy="146.95" r="37.46"/><path class="cls-5" d="M387.66,173.63A26.68,26.68,0,1,1,414.34,147,26.71,26.71,0,0,1,387.66,173.63Zm0-49.94A23.26,23.26,0,1,0,410.92,147,23.29,23.29,0,0,0,387.66,123.69Z"/><path class="cls-5" d="M387.66,157.08A10.14,10.14,0,1,1,397.8,147,10.14,10.14,0,0,1,387.66,157.08Zm0-16.85a6.72,6.72,0,1,0,6.72,6.72A6.72,6.72,0,0,0,387.66,140.23Z"/><polygon class="cls-28" points="453.35 124.66 471.08 116.25 461.95 112.55 465.28 102.56 465.07 102.12 446.77 110.8 444.12 118.66 398.48 140.31 395.93 134.93 386.47 147.91 402.51 148.79 399.95 143.4 445.58 121.75 453.35 124.66"/></g></g></svg>
