<svg width="20" height="20" viewBox="0 0 20 20" fill="none" xmlns="http://www.w3.org/2000/svg">
<path d="M16.667 10.2286C16.667 10.5451 16.4319 10.8065 16.1268 10.8479L16.042 10.8536L3.54199 10.8536C3.19682 10.8536 2.91699 10.5738 2.91699 10.2286C2.91699 9.91222 3.15212 9.65073 3.45718 9.60934L3.54199 9.60364L16.042 9.60364C16.3872 9.60364 16.667 9.88346 16.667 10.2286Z" fill="#1A1A1A"/>
<path d="M9.024 14.8061C9.2686 15.0496 9.26945 15.4454 9.0259 15.69C8.80449 15.9123 8.45731 15.9332 8.21225 15.7522L8.14202 15.6919L3.10035 10.6719C2.87732 10.4498 2.85703 10.1014 3.03949 9.8563L3.10032 9.78611L8.14198 4.76527C8.38656 4.5217 8.78229 4.52252 9.02586 4.7671C9.24729 4.98945 9.26675 5.33671 9.08469 5.58101L9.02403 5.65099L4.42734 10.2292L9.024 14.8061Z" fill="#1A1A1A"/>
</svg>
