<svg width="15" height="12" viewBox="0 0 15 12" fill="none" xmlns="http://www.w3.org/2000/svg">
<path d="M0.333496 5.77148C0.333496 5.45507 0.568624 5.19358 0.873687 5.15219L0.958496 5.14648L13.4585 5.14648C13.8037 5.14648 14.0835 5.42631 14.0835 5.77148C14.0835 6.0879 13.8484 6.34939 13.5433 6.39078L13.4585 6.39648L0.958496 6.39648C0.613318 6.39648 0.333496 6.11666 0.333496 5.77148Z" fill="#1A1A1A"/>
<path d="M7.976 1.19405C7.7314 0.950499 7.73055 0.554771 7.9741 0.310169C8.19551 0.0878029 8.54269 0.066884 8.78775 0.247902L8.85798 0.308266L13.8996 5.32827C14.1227 5.55034 14.143 5.89877 13.9605 6.14383L13.8997 6.21401L8.85802 11.2348C8.61344 11.4784 8.21771 11.4776 7.97414 11.233C7.75271 11.0107 7.73325 10.6634 7.91531 10.4191L7.97597 10.3491L12.5727 5.77091L7.976 1.19405Z" fill="#1A1A1A"/>
</svg>
