<svg width="75" height="77" viewBox="0 0 75 77" fill="none" xmlns="http://www.w3.org/2000/svg">
<path d="M61.4298 13.009C67.7005 19.522 72.546 26.4629 73.8761 34.0693C75.2063 41.6282 72.9735 49.8526 69.0781 57.5541C65.2302 65.2556 59.6721 72.4817 52.3563 75.3817C45.0405 78.2816 35.967 76.9029 26.7035 74.2407C17.4875 71.5784 8.0815 67.6802 3.61602 60.6442C-0.849463 53.5607 -0.374412 43.3396 2.23837 34.3545C4.80365 25.3219 9.55417 17.5729 16.1574 11.1074C22.7606 4.68949 31.264 -0.444848 39.3399 0.0305536C47.4158 0.505955 55.1116 6.54355 61.4298 13.009Z" fill="#FFCC00"/>
<path fill-rule="evenodd" clip-rule="evenodd" d="M26 20C24.5081 20 23.138 20.4059 22.0532 21.3072C20.9725 22.2049 20.316 23.477 20.0296 24.9532L17.0387 39.16C17.0134 39.2693 17 39.3831 17 39.5V50L17 50.0044C17.0046 51.5931 17.6378 53.1154 18.7612 54.2388C19.8846 55.3622 21.4069 55.9954 22.9956 56L23 56H53L53.0044 56C54.5931 55.9954 56.1154 55.3622 57.2388 54.2388C58.3622 53.1154 58.9954 51.5931 59 50.0044L59 50V39.5C59 39.3831 58.9866 39.2693 58.9613 39.1601L55.9714 24.958C55.6826 23.4183 54.9929 22.14 53.8923 21.2562C52.7945 20.3746 51.4307 20 50 20H26ZM44 38H55.6513L53.0322 25.559C53.0297 25.5471 53.0273 25.5351 53.0251 25.5231C52.843 24.54 52.4557 23.9501 52.0139 23.5954C51.5649 23.2348 50.9131 23 50 23H26C25.0544 23 24.4088 23.2504 23.9702 23.6147C23.5308 23.9798 23.1568 24.5777 22.973 25.5333L22.9678 25.559L20.3487 38H32C32.8284 38 33.5 38.6716 33.5 39.5C33.5 40.6935 33.9741 41.8381 34.818 42.682C35.6619 43.5259 36.8065 44 38 44C39.1935 44 40.3381 43.5259 41.182 42.682C42.0259 41.8381 42.5 40.6935 42.5 39.5C42.5 38.6716 43.1716 38 44 38ZM45.3485 41C45.0565 42.4302 44.3509 43.7557 43.3033 44.8033C41.8968 46.2098 39.9891 47 38 47C36.0109 47 34.1032 46.2098 32.6967 44.8033C31.6491 43.7557 30.9435 42.4302 30.6515 41H20V49.9976C20.0028 50.793 20.32 51.555 20.8825 52.1175C21.445 52.68 22.2071 52.9972 23.0026 53H52.9974C53.7929 52.9972 54.555 52.68 55.1175 52.1175C55.68 51.555 55.9972 50.7929 56 49.9974V41H45.3485ZM26 27.5C26 26.6716 26.6716 26 27.5 26H48.5C49.3284 26 50 26.6716 50 27.5C50 28.3284 49.3284 29 48.5 29H27.5C26.6716 29 26 28.3284 26 27.5ZM26 32C25.1716 32 24.5 32.6716 24.5 33.5C24.5 34.3284 25.1716 35 26 35H50C50.8284 35 51.5 34.3284 51.5 33.5C51.5 32.6716 50.8284 32 50 32H26Z" fill="#888888"/>
</svg>
