<svg width="76" height="71" viewBox="0 0 76 71" fill="none" xmlns="http://www.w3.org/2000/svg">
<path d="M74.3658 18.8213C79.8424 32.4629 70.9907 54.1743 56.2167 64.1013C41.4426 74.0283 20.8099 72.235 9.92045 62.8844C-0.969034 53.5338 -2.11529 36.6258 2.72448 23.8168C7.56424 11.0718 18.39 2.42565 33.7372 0.952612C49.0844 -0.52043 68.8892 5.1796 74.3658 18.8213Z" fill="#FFCC00"/>
<path fill-rule="evenodd" clip-rule="evenodd" d="M20 36C20 26.0589 28.0589 18 38 18C47.9411 18 56 26.0589 56 36C56 45.9411 47.9411 54 38 54C28.0589 54 20 45.9411 20 36ZM38 15C26.402 15 17 24.402 17 36C17 47.598 26.402 57 38 57C49.598 57 59 47.598 59 36C59 24.402 49.598 15 38 15ZM33.5 33.75C33.5 34.9926 32.4926 36 31.25 36C30.0074 36 29 34.9926 29 33.75C29 32.5074 30.0074 31.5 31.25 31.5C32.4926 31.5 33.5 32.5074 33.5 33.75ZM29.0319 41.4534C30.1653 45.2315 33.7466 48 38.0047 48C42.2628 48 45.845 45.2315 46.9691 41.4534C47.0008 41.341 47.0058 41.2227 46.9837 41.108C46.9616 40.9933 46.913 40.8853 46.8418 40.7927C46.7706 40.7001 46.6787 40.6254 46.5735 40.5746C46.4683 40.5238 46.3528 40.4982 46.2359 40.5H29.765C29.6482 40.4982 29.5326 40.5238 29.4274 40.5746C29.3222 40.6254 29.2304 40.7001 29.1592 40.7927C29.088 40.8853 29.0394 40.9933 29.0173 41.108C28.9952 41.2227 29.0002 41.341 29.0319 41.4534ZM44.75 36C45.9926 36 47 34.9926 47 33.75C47 32.5074 45.9926 31.5 44.75 31.5C43.5074 31.5 42.5 32.5074 42.5 33.75C42.5 34.9926 43.5074 36 44.75 36Z" fill="#888888"/>
</svg>
