<svg width="77" height="76" viewBox="0 0 77 76" fill="none" xmlns="http://www.w3.org/2000/svg">
<path d="M13.0721 7.43289C4.55166 13.9895 -1.19835 25.1252 0.21302 34.908C1.62438 44.6388 10.3017 52.9646 18.8221 60.5619C27.2903 68.1592 35.6539 75.028 44.8539 75.9126C54.0539 76.7452 64.1426 71.5416 70.0494 63.9443C75.9562 56.347 77.7335 46.304 76.7403 37.3017C75.7471 28.2994 71.9835 20.2338 66.0767 13.6772C60.1699 7.1727 52.0676 2.07315 42.4494 0.51206C32.7789 -1.04903 21.5926 0.876315 13.0721 7.43289Z" fill="#FFCC00"/>
<path fill-rule="evenodd" clip-rule="evenodd" d="M21 28.0131C21 27.1774 21.6774 26.5 22.5131 26.5H55.4869C56.3225 26.5 57 27.1774 57 28.0131V50.4869C57 51.3225 56.3225 52 55.4869 52H22.5131C21.6775 52 21 51.3225 21 50.4869V28.0131ZM22.5131 23.5C20.0206 23.5 18 25.5206 18 28.0131V50.4869C18 51.6449 18.4361 52.701 19.1531 53.5H16.5C15.6716 53.5 15 54.1716 15 55C15 55.8284 15.6716 56.5 16.5 56.5H61.5C62.3284 56.5 63 55.8284 63 55C63 54.1716 62.3284 53.5 61.5 53.5H58.8469C59.5639 52.701 60 51.6449 60 50.4869V28.0131C60 25.5206 57.9794 23.5 55.4869 23.5H22.5131ZM25.3125 33.25C25.3125 32.4216 25.9841 31.75 26.8125 31.75H48.2812C49.1097 31.75 49.7812 32.4216 49.7812 33.25C49.7812 34.0784 49.1097 34.75 48.2812 34.75H26.8125C25.9841 34.75 25.3125 34.0784 25.3125 33.25ZM26.8125 37.75C25.9841 37.75 25.3125 38.4216 25.3125 39.25C25.3125 40.0784 25.9841 40.75 26.8125 40.75H39.375C40.2034 40.75 40.875 40.0784 40.875 39.25C40.875 38.4216 40.2034 37.75 39.375 37.75H26.8125Z" fill="#888888"/>
</svg>
