<svg id="Layer_1" data-name="Layer 1" xmlns="http://www.w3.org/2000/svg" viewBox="0 0 32 32"><defs><style>.cls-1{fill:#747987;}</style></defs><title>Money Growth</title><path class="cls-1" d="M24,13.94a4.62,4.62,0,0,0-4.42,2.44,1,1,0,0,0-.23.62v1.57a5.56,5.56,0,0,0-3.26-1,4.66,4.66,0,0,0-4.37,2.34,1,1,0,0,0-.28.68v1.69A5.44,5.44,0,0,0,8,21.22c-2.6,0-4.65,1.54-4.65,3.5S5.44,28.23,8,28.23a5,5,0,0,0,4-1.73,5,5,0,0,0,4,1.73A5.07,5.07,0,0,0,20,26.58a5.11,5.11,0,0,0,4,1.65c2.6,0,4.65-1.54,4.65-3.5v0h0V17a1,1,0,0,0-.24-.62A4.59,4.59,0,0,0,24,13.94ZM8,26.23c-1.56,0-2.65-.79-2.65-1.51s1.09-1.5,2.65-1.5,2.65.79,2.65,1.5S9.6,26.23,8,26.23Zm10.66-1.5c0,.71-1.09,1.5-2.65,1.5s-2.65-.79-2.65-1.5V24a6.06,6.06,0,0,0,5.3,0Zm-2.65-2.14c-1.56,0-2.65-.79-2.65-1.51s1.09-1.5,2.65-1.5,2.65.79,2.65,1.5S17.61,22.59,16.05,22.59ZM24,15.94c1.56,0,2.65.79,2.65,1.5S25.52,19,24,19s-2.65-.79-2.65-1.51S22.4,15.94,24,15.94Zm-2.65,4.4a6.06,6.06,0,0,0,5.3,0v.74c0,.72-1.09,1.51-2.65,1.51s-2.65-.79-2.65-1.51Zm5.3,4.39c0,.71-1.09,1.5-2.65,1.5s-2.65-.79-2.65-1.5v0h0V24a6.06,6.06,0,0,0,5.3,0v.72h0Z"/><path class="cls-1" d="M5.8,19.18a1,1,0,0,0,.74-.32l5.05-5.54,5.23,1.89A1,1,0,0,0,17.88,15L24,8.51l-.23,1.24a1,1,0,0,0,.8,1.17h.18a1,1,0,0,0,1-.81l1-5.11a1,1,0,0,0-.33-.94,1,1,0,0,0-1-.19L20.46,5.6a1,1,0,0,0-.61,1.28,1,1,0,0,0,1.27.61l1.61-.56L16.88,13.1l-5.24-1.88a1,1,0,0,0-1.08.26l-5.49,6a1,1,0,0,0,.06,1.41A1,1,0,0,0,5.8,19.18Z"/></svg>