<svg id="Layer_1" data-name="Layer 1" xmlns="http://www.w3.org/2000/svg" viewBox="0 0 32 32"><defs><style>.cls-1{fill:#747987;}</style></defs><title>Presentation</title><path class="cls-1" d="M27.36,5.36a1,1,0,0,0,0-2H4.64a1,1,0,1,0,0,2h.44V20.85H4.64a1,1,0,1,0,0,2H15v1.51l-3.79,2.43a1,1,0,0,0-.31,1.39,1,1,0,0,0,.85.46.94.94,0,0,0,.53-.16L16,26.1l3.72,2.38a.94.94,0,0,0,.53.16,1,1,0,0,0,.85-.46,1,1,0,0,0-.31-1.39L17,24.36V22.85H27.36a1,1,0,0,0,0-2h-.44V5.36ZM24.92,20.85H7.08V5.36H24.92Z"/><path class="cls-1" d="M11,18.46a1,1,0,0,0,1-1V14a1,1,0,0,0-2,0v3.5A1,1,0,0,0,11,18.46Z"/><path class="cls-1" d="M16.07,18.46a1,1,0,0,0,1-1V12a1,1,0,0,0-2,0v5.5A1,1,0,0,0,16.07,18.46Z"/><path class="cls-1" d="M21,18.46a1,1,0,0,0,1-1V9.68a1,1,0,0,0-2,0v7.78A1,1,0,0,0,21,18.46Z"/></svg>