<svg id="Layer_1" data-name="Layer 1" xmlns="http://www.w3.org/2000/svg" viewBox="0 0 32 32"><defs><style>.cls-1{fill:#747987;}</style></defs><title>Smart Solution</title><path class="cls-1" d="M17.78,3.31a8.77,8.77,0,0,0-7,15.62,3,3,0,0,1,1.29,2.4V22h-.19a1,1,0,1,0,0,2h.19v1.5c0,2.33,1.49,3.39,2.88,3.39h2.12A2.88,2.88,0,0,0,19.94,26V24h.19a1,1,0,0,0,0-2h-.19v-.61A3,3,0,0,1,21.2,19,8.77,8.77,0,0,0,17.78,3.31ZM17.94,26a.87.87,0,0,1-.88.87H14.94c-.81,0-.88-1.06-.88-1.39V24h3.88ZM20,17.34a5,5,0,0,0-2.07,4V22H14.06v-.64a5,5,0,0,0-2.09-4,6.77,6.77,0,0,1-.26-10.66A6.78,6.78,0,0,1,16,5.14a7.14,7.14,0,0,1,1.37.13A6.76,6.76,0,0,1,20,17.34Z"/><path class="cls-1" d="M20.75,10.59H19.17a4.06,4.06,0,0,0-.22-.52L20.06,9a1,1,0,1,0-1.42-1.42L17.52,8.66A4,4,0,0,0,17,8.45V6.88a1,1,0,1,0-2,0V8.46a4.77,4.77,0,0,0-.52.22L13.37,7.57A1,1,0,1,0,12,9l1.12,1.12a3,3,0,0,0-.22.52H11.29a1,1,0,0,0,0,2h1.59a3.38,3.38,0,0,0,.22.52L12,14.26a1,1,0,0,0,0,1.41,1,1,0,0,0,1.41,0l1.12-1.12a3.38,3.38,0,0,0,.52.22v1.57a1,1,0,0,0,2,0V14.75a2.71,2.71,0,0,0,.52-.22l1.11,1.11a1,1,0,0,0,.71.3,1,1,0,0,0,.71-1.71L19,13.11a4.71,4.71,0,0,0,.21-.52h1.57a1,1,0,0,0,0-2Zm-3.41,1A1.32,1.32,0,1,1,16,10.29,1.32,1.32,0,0,1,17.34,11.61Z"/></svg>