<svg id="Layer_1" data-name="Layer 1" xmlns="http://www.w3.org/2000/svg" viewBox="0 0 32 32"><defs><style>.cls-1{fill:#747987;}</style></defs><title>Strategy</title><path class="cls-1" d="M27.62,4.45a1,1,0,0,0-1-1H5.38a1,1,0,0,0-1,1,1,1,0,0,0,.7.94v13.5a1,1,0,0,0,.3,1.94H15v2.34L11.05,27a1,1,0,0,0,0,1.41,1,1,0,0,0,.72.31,1,1,0,0,0,.69-.29L15,26v1.77a1,1,0,1,0,2,0V26l2.56,2.48a1,1,0,0,0,.69.29,1,1,0,0,0,.72-.31A1,1,0,0,0,21,27L17,23.17V20.83h9.62a1,1,0,0,0,.3-1.94V5.39A1,1,0,0,0,27.62,4.45Zm-2.7,14.38H7.08V5.45H24.92Z"/><path class="cls-1" d="M10.17,9.68l-.81.89A1,1,0,0,0,9.43,12a1,1,0,0,0,.67.26,1,1,0,0,0,.74-.32l.81-.89.89.8a1,1,0,0,0,.67.26,1,1,0,0,0,.74-.32,1,1,0,0,0-.07-1.42L13,9.55l.81-.89a1,1,0,0,0-1.48-1.35l-.81.89-.89-.8a1,1,0,0,0-1.41.06,1,1,0,0,0,.07,1.42Z"/><path class="cls-1" d="M19.13,15.76a2.24,2.24,0,1,0,2.23-2.24A2.23,2.23,0,0,0,19.13,15.76Zm2.47,0c0,.26-.47.26-.47,0a.23.23,0,0,1,.23-.24A.24.24,0,0,1,21.6,15.76Z"/><path class="cls-1" d="M10.69,14.89a1,1,0,0,0,0,2h0c.5,0,5.32-.09,7.32-3.57a11.57,11.57,0,0,1,2-2.54l-.07.51a1,1,0,0,0,.87,1.12H21a1,1,0,0,0,1-.88L22.3,8.7h0s0,0,0,0a1.41,1.41,0,0,0,0-.29l0,0a.61.61,0,0,0-.05-.12,2,2,0,0,0-.1-.21L22,7.9a1.29,1.29,0,0,0-.17-.15l-.11-.07a1,1,0,0,0-.24-.07s-.05,0-.08,0h-.08L17.87,7.4a1,1,0,1,0-.1,2l.76,0a13.6,13.6,0,0,0-2.22,2.89c-1.46,2.54-5.47,2.57-5.6,2.57Z"/></svg>