<svg id="Layer_1" data-name="Layer 1" xmlns="http://www.w3.org/2000/svg" xmlns:xlink="http://www.w3.org/1999/xlink" viewBox="0 0 500 500"><defs><style>.cls-1{fill:#f4d9ce;}.cls-2{clip-path:url(#clip-path);}.cls-3{fill:#ffbdab;}.cls-4{fill:#fff;}.cls-5{fill:#383838;}</style><clipPath id="clip-path"><circle class="cls-1" cx="250" cy="250" r="215.67"/></clipPath></defs><circle class="cls-1" cx="250" cy="250" r="215.67"/><g class="cls-2"><path class="cls-3" d="M339.39,207.33c4.77-10.42,5.71-21,2.19-24.66-.34-.35-.68-.66-1-.95a50.5,50.5,0,0,1-6.81,7.57,16.49,16.49,0,0,1-1.93,2.93,124.64,124.64,0,0,1-4.56,30.07C331.36,220.43,335.92,214.93,339.39,207.33Z"/><path class="cls-3" d="M161.12,197.09c-.91,3.49.11,9.17,2.91,15.59,3.5,8,8.82,15.12,13.58,18.53A100.72,100.72,0,0,1,171.24,206,36.51,36.51,0,0,1,161.12,197.09Z"/><path class="cls-3" d="M320.09,174.3a80.4,80.4,0,0,1-8.23-6c-5.2-1.34-16.89-4.06-22.87-3.21-7.83,1.11-19.89,7.45-19.89,7.45l-1.24-7.08s17.14-14.34,36.43-4.18a126.34,126.34,0,0,1-23.51-35.05c-15.6,19.76-36,32.12-54.43,39.81a30.49,30.49,0,0,1,3.75,2.55l-1.24,7.09a107.29,107.29,0,0,0-13-5.65A165.87,165.87,0,0,1,179,178.41c-2.19,11.85,5,23.58,5,23.58a28,28,0,0,1-8.75-3.8,95.49,95.49,0,0,0,3.37,21.58c5.57,20.21,20.85,49.11,62,72.06a28.44,28.44,0,0,0,29.77-1.11c20.62-13.78,53.2-43.36,56.64-94a32.38,32.38,0,0,1-5.11,3.1ZM227,195.55a1.24,1.24,0,0,1-1.43.15l-.15-.08c-.63-.34-1.3-.69-2-1a18.39,18.39,0,0,1,.56,4.48c0,8-5.06,14.51-11.28,14.51s-11.28-6.51-11.28-14.51a17.65,17.65,0,0,1,2-8.22l-1,.1c-.78.09-1.58.11-2.36.23l-2.37.38c-.4.06-.8.09-1.19.17l-1.18.28-2.39.5c-1.15.28-2.29.61-3.46.89.09.42.18.85.29,1.27.26,1.06.55,2.13.9,3.17a20.92,20.92,0,0,0,2.9,5.95,21.71,21.71,0,0,1-4.54-5.14c-.65-1-1.24-1.95-1.81-3s-1.11-2-1.62-3.13h0l-.6-1.22,1.6-1a48,48,0,0,1,4.73-2.58l2.54-1,1.28-.46c.43-.14.88-.23,1.32-.35.89-.23,1.78-.43,2.68-.63s1.82-.25,2.73-.36l1.37-.15c.46,0,.93,0,1.39,0,.93,0,1.85,0,2.77,0l2.77.3c.92.09,1.82.36,2.72.54a27,27,0,0,1,2.67.74,23.82,23.82,0,0,1,2.59,1,24.9,24.9,0,0,1,9,6.31A1.26,1.26,0,0,1,227,195.55Zm15.83,28a1.36,1.36,0,0,1,1.33.58l.19.27a12.77,12.77,0,0,0,1.42,1.82,5.84,5.84,0,0,0,1.67,1.25,5.5,5.5,0,0,0,1.83.52,7.78,7.78,0,0,0,2.08-.12,7.19,7.19,0,0,0,2-.65,8.87,8.87,0,0,0,1.75-1.26,12.38,12.38,0,0,0,1.51-1.81,20.37,20.37,0,0,0,1.24-2.14l.1-.19a1.35,1.35,0,0,1,2.55.7,11.12,11.12,0,0,1-.69,3.21,11.76,11.76,0,0,1-1.61,2.94,10.58,10.58,0,0,1-2.61,2.37,9.59,9.59,0,0,1-3.34,1.31,10.27,10.27,0,0,1-3.59.12,8.85,8.85,0,0,1-3.48-1.42,8.39,8.39,0,0,1-2.41-2.68,9.43,9.43,0,0,1-.7-1.56,8.31,8.31,0,0,1-.4-1.7A1.37,1.37,0,0,1,242.83,223.54Zm19.95,54-1.27.06c-.42,0-.83,0-1.25,0-1.67.08-3.32.2-5,.34s-3.26.41-4.9.7a47,47,0,0,0-4.92,1.21,12.71,12.71,0,0,1,4.48-2.75,20.14,20.14,0,0,1,5.12-1.23,21.52,21.52,0,0,1,5.26.09,24.15,24.15,0,0,1,2.56.51,21.37,21.37,0,0,1,2.47.89C264.49,277.56,263.63,277.55,262.78,277.59Zm7.52-16.49a50.81,50.81,0,0,1-12.4,3.06,49.54,49.54,0,0,1-12.76-.08,42.76,42.76,0,0,1-6.25-1.28,24.94,24.94,0,0,1-3-1c-1-.38-2-.78-2.94-1.24,2.16-.22,4.21-.13,6.28-.25s4.08-.08,6.1-.24c4-.15,8-.54,12-1s7.92-1.09,11.89-1.83,7.95-1.59,12.09-2.57A35.8,35.8,0,0,1,270.3,261.1ZM314.52,190h0c-.51,1.12-1,2.11-1.61,3.13s-1.17,2-1.82,3a22,22,0,0,1-4.53,5.15,21.07,21.07,0,0,0,2.89-6c.35-1,.64-2.11.91-3.17.1-.42.19-.84.29-1.27-1.18-.28-2.32-.61-3.46-.89l-2.39-.5-1.18-.28c-.4-.08-.8-.11-1.19-.17-.8-.11-1.59-.25-2.37-.38s-1.58-.13-2.37-.23l-1-.1a17.53,17.53,0,0,1,2,8.22c0,8-5.06,14.51-11.28,14.51s-11.28-6.51-11.28-14.51a18.51,18.51,0,0,1,.56-4.48c-.68.33-1.35.67-2,1l-.15.08a1.26,1.26,0,0,1-1.56-1.92,24.9,24.9,0,0,1,9-6.31,23,23,0,0,1,2.58-1,27,27,0,0,1,2.67-.74c.91-.18,1.81-.44,2.73-.54l2.76-.3c.92,0,1.85,0,2.77,0,.46,0,.93,0,1.39,0l1.37.14c.92.11,1.84.18,2.74.36s1.79.41,2.67.63c.44.12.89.21,1.32.36l1.29.45,2.53,1a46,46,0,0,1,4.74,2.57l1.59,1Z"/><path class="cls-4" d="M193.42,203.53s9.39,11.77,19.06,12.13a46.23,46.23,0,0,0,4.75-.06c12.71-.8,17.73-17.68,6.49-23.66l-.26-.13c-8.56-4.4-36.58-.33-36.58-.33S188.12,198.86,193.42,203.53Z"/><path class="cls-4" d="M307.06,200.7s-9.4,11.77-19.06,12.13a46.23,46.23,0,0,1-4.75-.06c-12.71-.8-17.73-17.68-6.49-23.66L277,189c8.56-4.4,36.58-.33,36.58-.33S312.36,196,307.06,200.7Z"/><path class="cls-3" d="M272.9,294.52a32.79,32.79,0,0,1-18.28,5.56,33.41,33.41,0,0,1-16.26-4.25,163.09,163.09,0,0,1-29-20.36l1.46,28C223,320,245,345.65,253.6,345.65s31.53-27.16,44.39-44.76l-2-25.49A146,146,0,0,1,272.9,294.52Z"/><path class="cls-4" d="M207.07,306.1c-.78-.34-1.49-.72-2.22-1.12A26.8,26.8,0,0,1,201.9,303a19.28,19.28,0,0,1-2.55-2.39,11.65,11.65,0,0,1-1.8-2.88,11,11,0,0,0,2.54,2A16.81,16.81,0,0,0,203,301a23.21,23.21,0,0,0,3,.74h.13l-.78-15-15.77,7v15c.7,3.06,9.19,37.93,37.66,53.16L235.36,339C223,327.34,210,310.14,207.07,306.1Z"/><path class="cls-4" d="M315.18,311.32l-2.76-21.25-10.84-2.18.79,10.34c.71-.35,1.41-.73,2.09-1.15a28.23,28.23,0,0,0,4.81-3.73,31,31,0,0,1-5.36,7.9c-.58.6-1.13,1.17-1.79,1.74a337.7,337.7,0,0,1-25.3,30.76c4.88,6.95,7.74,17.56,8.94,22.89C304.53,343.9,314,315.23,315.18,311.32Z"/><path class="cls-4" d="M243,367.19l-1.54-3.87-4.68-14.66-6.95,19.63-2.3-1.1c-13.31-6.39-22.67-16.52-29.17-26.52l59.83,171.18-28.56-81.71Z"/><path class="cls-4" d="M285.31,362.3l-2.82,1.6-.56-3.19a95.93,95.93,0,0,0-4.5-15.88l-3.61,15.48v6.36l12,52,25.46-86C305.67,343.33,297.15,355.59,285.31,362.3Z"/><path d="M164,212.68c-2.8-6.42-3.82-12.1-2.91-15.59q-1.6-2-3.11-4.19c-4,6.36-.11,17.18,1.82,21.6,4.32,9.94,12.46,21.06,20.57,23.11-1-2.18-2-4.32-2.79-6.4C172.85,227.8,167.53,220.73,164,212.68Z"/><path d="M341.58,182.67c3.52,3.64,2.58,14.24-2.19,24.66-3.47,7.6-8,13.1-12.13,15-.49,1.76-1,3.5-1.58,5.19,7.41-.94,14-9.78,17.87-18.25,4.81-10.51,7.08-23.78,1.32-29.74a16.72,16.72,0,0,0-1.68-1.52c-.89,1.37-1.78,2.62-2.63,3.75C340.9,182,341.24,182.32,341.58,182.67Z"/><path d="M267.86,165.45l1.24,7.08s12.06-6.34,19.89-7.45c6-.85,17.67,1.87,22.87,3.21a94.23,94.23,0,0,1-7.57-7C285,151.11,267.86,165.45,267.86,165.45Z"/><path d="M230.1,168.58a30.49,30.49,0,0,0-3.75-2.55c-3.58,1.5-7.09,2.82-10.48,4a107.29,107.29,0,0,1,13,5.65Z"/><path d="M257.3,259.07c-4,.44-8,.83-12,1-2,.16-4,.14-6.1.24s-4.12,0-6.28.25c1,.46,1.94.86,2.94,1.24a24.94,24.94,0,0,0,3,1,42.76,42.76,0,0,0,6.25,1.28,49.54,49.54,0,0,0,12.76.08,50.81,50.81,0,0,0,12.4-3.06,35.8,35.8,0,0,0,11-6.43c-4.14,1-8.11,1.83-12.09,2.57S261.27,258.64,257.3,259.07Z"/><path d="M260.34,276.05a21.52,21.52,0,0,0-5.26-.09,20.14,20.14,0,0,0-5.12,1.23,12.71,12.71,0,0,0-4.48,2.75,47,47,0,0,1,4.92-1.21c1.64-.29,3.26-.52,4.9-.7s3.29-.26,5-.34c.42,0,.83,0,1.25,0l1.27-.06c.85,0,1.71,0,2.59-.14a21.37,21.37,0,0,0-2.47-.89A24.15,24.15,0,0,0,260.34,276.05Z"/><path d="M242.05,226.8a9.43,9.43,0,0,0,.7,1.56,8.39,8.39,0,0,0,2.41,2.68,8.85,8.85,0,0,0,3.48,1.42,10.27,10.27,0,0,0,3.59-.12,9.59,9.59,0,0,0,3.34-1.31,10.58,10.58,0,0,0,2.61-2.37,11.76,11.76,0,0,0,1.61-2.94,11.12,11.12,0,0,0,.69-3.21,1.35,1.35,0,0,0-2.55-.7l-.1.19a20.37,20.37,0,0,1-1.24,2.14,12.38,12.38,0,0,1-1.51,1.81,8.87,8.87,0,0,1-1.75,1.26,7.19,7.19,0,0,1-2,.65,7.78,7.78,0,0,1-2.08.12,5.5,5.5,0,0,1-1.83-.52,5.84,5.84,0,0,1-1.67-1.25,12.77,12.77,0,0,1-1.42-1.82l-.19-.27a1.39,1.39,0,0,0-2.51,1A8.31,8.31,0,0,0,242.05,226.8Z"/><path d="M311,188.9h0c-.1.62-.23,1.26-.37,1.91.45.11.9.21,1.37.3Z"/><path d="M308.79,185.2l-2.53-1-1.29-.45c-.43-.15-.88-.24-1.32-.36-.88-.22-1.78-.43-2.67-.63s-1.82-.25-2.74-.36l-1.37-.14c-.46-.05-.93,0-1.39,0-.92,0-1.85,0-2.77,0l-2.76.3c-.92.1-1.82.36-2.73.54a27,27,0,0,0-2.67.74,23,23,0,0,0-2.58,1,24.9,24.9,0,0,0-9,6.31,1.26,1.26,0,0,0,1.56,1.92l.15-.08c.62-.34,1.29-.68,2-1a16.16,16.16,0,0,1,2.08-4.86l3.07,2a8.48,8.48,0,0,0-.59,1c.79-.26,1.58-.5,2.38-.71a20.62,20.62,0,0,1,2.33-.52,20.27,20.27,0,0,1,2.33-.41c.79-.07,1.56-.21,2.35-.25l1.64-.08a8.13,8.13,0,0,0-1.51-1.43l2.11-3a12.75,12.75,0,0,1,3.81,4.48l1,.1c.79.1,1.58.11,2.37.23s1.57.27,2.37.38c.39.06.79.09,1.19.17l1.18.28,2.39.5c1.14.28,2.28.61,3.46.89.14-.65.27-1.29.37-1.91h0l1,2.21c-.47-.09-.92-.19-1.37-.3-.1.43-.19.85-.29,1.27-.27,1.06-.56,2.13-.91,3.17a21.07,21.07,0,0,1-2.89,6,22,22,0,0,0,4.53-5.15c.65-1,1.24-1.95,1.82-3s1.1-2,1.61-3.13h0l.6-1.22-1.59-1A46,46,0,0,0,308.79,185.2Z"/><path d="M293,188.16l-.72,0a12.91,12.91,0,0,1,2.75,8.28c0,6-3.42,10.85-7.62,10.85s-7.61-4.87-7.61-10.85a13.92,13.92,0,0,1,1.45-6.31q-1.09.36-2.19.78c-.79.32-1.59.68-2.37,1.05a18.51,18.51,0,0,0-.56,4.48c0,8,5.06,14.51,11.28,14.51s11.28-6.51,11.28-14.51a17.53,17.53,0,0,0-2-8.22,11.65,11.65,0,0,0-1.32,0C294.54,188.21,293.75,188.15,293,188.16Z"/><path d="M292.84,183.78l-2.11,3a8.13,8.13,0,0,1,1.51,1.43l.72,0c.79,0,1.58.05,2.37.05a11.65,11.65,0,0,1,1.32,0A12.75,12.75,0,0,0,292.84,183.78Z"/><path d="M281.21,190.17a8.48,8.48,0,0,1,.59-1l-3.07-2a16.16,16.16,0,0,0-2.08,4.86c.78-.37,1.58-.73,2.37-1.05S280.48,190.41,281.21,190.17Z"/><path d="M218.13,187.46a23.82,23.82,0,0,0-2.59-1,27,27,0,0,0-2.67-.74c-.9-.18-1.8-.45-2.72-.54l-2.77-.3c-.92,0-1.84,0-2.77,0-.46,0-.93,0-1.39,0l-1.37.15c-.91.11-1.84.18-2.73.36s-1.79.4-2.68.63c-.44.12-.89.21-1.32.35l-1.28.46-2.54,1a48,48,0,0,0-4.73,2.58l-1.6,1,.6,1.22h0c.51,1.11,1.05,2.11,1.62,3.13s1.16,2,1.81,3a21.71,21.71,0,0,0,4.54,5.14,20.92,20.92,0,0,1-2.9-5.95c-.35-1-.64-2.11-.9-3.17-.11-.42-.2-.85-.29-1.27-.45.11-.91.21-1.37.29l1-2.2h0c.1.62.23,1.26.38,1.91,1.17-.28,2.31-.61,3.46-.89l2.39-.5,1.18-.28c.39-.08.79-.11,1.19-.17l2.37-.38c.78-.12,1.58-.14,2.36-.23l1-.1a12.86,12.86,0,0,1,3.81-4.48l2.11,3a8.41,8.41,0,0,0-1.51,1.42l1.64.09c.79,0,1.56.17,2.35.25a43,43,0,0,1,4.66.93c.8.2,1.59.44,2.38.7a11,11,0,0,0-.58-1l3.06-2a15.8,15.8,0,0,1,2.08,4.86c.68.32,1.35.67,2,1l.15.08a1.24,1.24,0,0,0,1.43-.15,1.26,1.26,0,0,0,.12-1.78A24.9,24.9,0,0,0,218.13,187.46Z"/><path d="M189.07,191.51l-1,2.2c.46-.08.92-.18,1.37-.29-.15-.65-.28-1.29-.38-1.91Z"/><path d="M218.88,192.77a14,14,0,0,1,1.46,6.32c0,6-3.42,10.85-7.62,10.85s-7.62-4.87-7.62-10.85a13,13,0,0,1,2.75-8.29l-.72,0c-.78,0-1.57,0-2.36,0a12,12,0,0,0-1.33.06,17.65,17.65,0,0,0-2,8.22c0,8,5.06,14.51,11.28,14.51S224,207.09,224,199.09a18.39,18.39,0,0,0-.56-4.48c-.78-.38-1.58-.73-2.37-1.05S219.61,193,218.88,192.77Z"/><path d="M207.13,190.77l.72,0a8.41,8.41,0,0,1,1.51-1.42l-2.11-3a12.86,12.86,0,0,0-3.81,4.48,12,12,0,0,1,1.33-.06C205.56,190.82,206.35,190.76,207.13,190.77Z"/><path d="M218.3,191.76a11,11,0,0,1,.58,1c.73.25,1.46.51,2.19.79s1.59.67,2.37,1.05a15.8,15.8,0,0,0-2.08-4.86Z"/><path d="M209.08,269.93l.29,5.54a163.09,163.09,0,0,0,29,20.36,33.41,33.41,0,0,0,16.26,4.25,32.79,32.79,0,0,0,18.28-5.56A146,146,0,0,0,296,275.4l-.39-5.18,4.56-.35.08,1a122.91,122.91,0,0,0,25.41-43.4,9.34,9.34,0,0,1-1.29.1l-.55,0,.25-4.57a6.74,6.74,0,0,0,3.17-.7,124.64,124.64,0,0,0,4.56-30.07,26.19,26.19,0,0,1-4.82,4.5c-3.44,50.64-36,80.22-56.64,94a28.44,28.44,0,0,1-29.77,1.11c-41.14-22.95-56.42-51.85-62-72.06a95.49,95.49,0,0,1-3.37-21.58c-.79-.5-1.27-.84-1.27-.84l-.25,9.81a21.41,21.41,0,0,1-2.47-1.19,100.72,100.72,0,0,0,6.37,25.24,11,11,0,0,0,4.64,2.12l-.62,4.53a10.73,10.73,0,0,1-1.23-.25A116.5,116.5,0,0,0,204.55,271l0-.81Z"/><path d="M182.25,233.33a11,11,0,0,1-4.64-2.12c.82,2.08,1.75,4.22,2.79,6.4a10.73,10.73,0,0,0,1.23.25Z"/><path d="M324.09,223l-.25,4.57.55,0a9.34,9.34,0,0,0,1.29-.1c.56-1.69,1.09-3.43,1.58-5.19A6.74,6.74,0,0,1,324.09,223Z"/><path d="M170.81,187.61a55.81,55.81,0,0,1,1.06-7.7l4.45,1-2.22-.52,2.23.52a72.2,72.2,0,0,0-1.1,17.24A28,28,0,0,0,184,202s-7.18-11.73-5-23.58A165.87,165.87,0,0,0,215.87,170a38.64,38.64,0,0,0-6.9-1.81c-7.83-1.11-25.48,3.91-25.48,3.91C201,154.41,218.8,161.57,226.35,166c18.44-7.69,38.83-20.05,54.43-39.81a126.34,126.34,0,0,0,23.51,35.05A41.49,41.49,0,0,1,314.47,169s-1-.28-2.61-.7a80.4,80.4,0,0,0,8.23,6l1.8,25.52a32.38,32.38,0,0,0,5.11-3.1,134.69,134.69,0,0,0-.06-18.83l3-.22a10.83,10.83,0,0,1,6.41-2.33h0a10.76,10.76,0,0,1,6.78,2.63c8.51-13.07,17.66-37,3.17-69.53C321.89,53.47,280.78,76,280.78,76s-47.86-36.59-103,9.8c-42.61,35.86-36,83.13-19.79,107.14.08-.13.14-.26.23-.38C161.66,187.67,166.11,186,170.81,187.61Zm157.4-56.27c-.85-2.42-1.56-4.65-2.39-6.87s-1.71-4.37-2.62-6.54l-2.79-6.55c-.93-2.21-1.86-4.44-2.68-6.85a25,25,0,0,1,5.18,5.44,34.34,34.34,0,0,1,3.66,6.54,29.75,29.75,0,0,1,2,7.27A19.07,19.07,0,0,1,328.21,131.34Zm13.41,39c13-51.69-29-88.6-29-88.6C364.38,118.64,341.62,170.31,341.62,170.31Zm-33.16-47.06c.53,1.49,1.06,3,1.62,4.41.09-1.4.15-2.84.24-4.28.07-1.06.12-2.14.23-3.23.05-.55.11-1.1.2-1.67,0-.29.09-.58.16-.88a5.28,5.28,0,0,1,.33-1.09l.1-.19a1.46,1.46,0,0,1,.14-.24,1.73,1.73,0,0,1,.75-.62,1.67,1.67,0,0,1,1.15-.07,2.09,2.09,0,0,1,.54.27,3.73,3.73,0,0,1,.85.87,11.32,11.32,0,0,1,.92,1.51c.51,1,.95,2,1.37,3a51.81,51.81,0,0,1,2,6.17c-1.27-1.77-2.42-3.58-3.63-5.32-.55-.82-1.1-1.63-1.68-2.38,0,.26,0,.53,0,.8l0,3.17a58.79,58.79,0,0,1-.25,6.56,13.55,13.55,0,0,1-.33,1.82,5.44,5.44,0,0,1-.17.54l-.11.29-.18.35-.1.17a1.7,1.7,0,0,1-.17.23l-.19.23-.11.11-.18.13a3.14,3.14,0,0,1-.39.24c-.08,0-.12.06-.22.09l-.39.09a2.14,2.14,0,0,1-1.25-.21,2.56,2.56,0,0,1-.87-.73,4,4,0,0,1-.37-.52,9.56,9.56,0,0,1-.46-.89,16,16,0,0,1-.64-1.62A56.15,56.15,0,0,1,305.7,124a82.13,82.13,0,0,1-1.77-12.8C305.63,115.21,307,119.25,308.46,123.25ZM297,120.47a18.47,18.47,0,0,1,2.37,4.07,31.87,31.87,0,0,1,1.49,4.2,40.2,40.2,0,0,1,.93,4.3l.17,1.09c0,.37.09.73.14,1.09a13,13,0,0,0,.41,2.27,3.31,3.31,0,0,1-1.12-.61c-.17-.13-.33-.28-.49-.42l-.42-.46a7.63,7.63,0,0,1-.75-1c-.23-.33-.46-.67-.65-1a18.51,18.51,0,0,1-1.75-4.3,21.45,21.45,0,0,1-.75-4.52A15.09,15.09,0,0,1,297,120.47Zm-47.82,13.34a13.38,13.38,0,0,1,2.38-3.61,9.89,9.89,0,0,1,3.58-2.54,25.46,25.46,0,0,1-1.15,4.07c-.46,1.24-1,2.41-1.47,3.56s-1,2.27-1.55,3.42l-1.66,3.75a7.39,7.39,0,0,1-1.16-4.35A11.85,11.85,0,0,1,249.14,133.81Zm-7.52,1.84a37,37,0,0,1,1.17-4.22,34,34,0,0,1,1.69-4.07,20,20,0,0,1,2.52-3.92,14.29,14.29,0,0,1,.24,4.72,21.05,21.05,0,0,1-1,4.45,20,20,0,0,1-2,4.15,12,12,0,0,1-3.26,3.46A24.64,24.64,0,0,1,241.62,135.65Zm-5.12-6.57c.28-1.37.57-2.77.94-4.19a26.53,26.53,0,0,1,1.51-4.38,12,12,0,0,1,1.35,4.58,15.47,15.47,0,0,1-.2,4.7,12.93,12.93,0,0,1-1.73,4.5,7.31,7.31,0,0,1-3.75,3.18,39.35,39.35,0,0,0,1.09-4.3C236,131.83,236.22,130.45,236.5,129.08ZM232,122a13.54,13.54,0,0,1,2.79-3.18,13.5,13.5,0,0,1-.12,4.23,20.62,20.62,0,0,1-1.09,3.84,19.92,19.92,0,0,1-1.82,3.56,13.14,13.14,0,0,1-2.8,3.17,13.5,13.5,0,0,1,.12-4.23A20.06,20.06,0,0,1,232,122Zm-4.35-2.49c-.61,1.15-1.24,2.23-1.91,3.29s-1.38,2.07-2.15,3.1a27.06,27.06,0,0,1-2.69,3.14,9.08,9.08,0,0,1,.08-4.34,12.58,12.58,0,0,1,1.67-3.87,13.1,13.1,0,0,1,2.79-3.15,9.34,9.34,0,0,1,3.85-2A26.44,26.44,0,0,1,227.6,119.54ZM226.16,111a38.62,38.62,0,0,1-3.77,4.51c-1.31,1.38-2.64,2.68-4,4s-2.69,2.52-4,3.81-2.63,2.56-4,4.11a11.22,11.22,0,0,1,1.69-5.86,20.69,20.69,0,0,1,3.75-4.7,25.63,25.63,0,0,1,4.72-3.58A19.34,19.34,0,0,1,226.16,111Zm-13.23-.2a11.7,11.7,0,0,1,4.48-1.13,22.88,22.88,0,0,1-2.83,3.48c-1,1-2,2-3,2.86s-2.08,1.76-3.2,2.6a41.13,41.13,0,0,1-3.62,2.53,9.66,9.66,0,0,1,1.46-4.44,15.41,15.41,0,0,1,3-3.46A16.52,16.52,0,0,1,212.93,110.8Zm-3.85-7.07a3.54,3.54,0,0,1,0,.84,3.44,3.44,0,0,1-.12.65c-.05.18-.1.37-.16.54l-.19.46a11.87,11.87,0,0,1-.87,1.55,32.77,32.77,0,0,1-4.07,4.83,58.42,58.42,0,0,1-9.48,7.78c2.38-3.34,4.92-6.48,7.31-9.66a49.65,49.65,0,0,0,3.28-4.77,8.66,8.66,0,0,0,.46-.91l-.11,0a17,17,0,0,0-2.54.93c-.91.37-1.83.79-2.81,1.18a15.7,15.7,0,0,1-3.26,1,4.18,4.18,0,0,1-2.4-.26,2.82,2.82,0,0,1-1.2-1.12,2.93,2.93,0,0,1-.38-1.44,4,4,0,0,1,.7-2.12,8.09,8.09,0,0,1,1.11-1.37,19.59,19.59,0,0,1,2.48-2,27.54,27.54,0,0,1,5.42-2.9c-1.42,1.39-2.94,2.79-4.25,4.26a17.7,17.7,0,0,0-1.82,2.22,6.55,6.55,0,0,0-.62,1.1,1.69,1.69,0,0,0-.16.59A3,3,0,0,0,196,105a15.67,15.67,0,0,0,2.46-1l2.72-1.3a19.75,19.75,0,0,1,3.12-1.18,5.65,5.65,0,0,1,2.22-.16A3.3,3.3,0,0,1,208,102a3.36,3.36,0,0,1,.65.7A2.91,2.91,0,0,1,209.08,103.73Zm-.47-28c-56.1,33.5-51.63,102-51.63,102C144.09,100.83,208.61,75.77,208.61,75.77Z"/><path d="M170.57,192.49c-3.35-1.8-6-1-8.6,2.67a6.1,6.1,0,0,0-.85,1.93A36.51,36.51,0,0,0,171.24,206,96.8,96.8,0,0,1,170.57,192.49Z"/><path d="M340.56,181.72a6.6,6.6,0,0,0-4.15-1.81h0a7.28,7.28,0,0,0-4.64,2.22c.14,3.44.16,6.81.06,10.09a16.49,16.49,0,0,0,1.93-2.93A50.5,50.5,0,0,0,340.56,181.72Z"/><path d="M311.6,131.05l0,0Z"/><path d="M205.52,104.31v0Z"/><path d="M195.44,105.22s0,0,0,0,0-.07-.06-.1A.27.27,0,0,0,195.44,105.22Z"/><path d="M312.43,118l.11.06C312.47,118,312.41,118,312.43,118Z"/><path d="M162,195.16c2.56-3.62,5.25-4.47,8.6-2.67,0-1.8.13-3.43.24-4.88-4.7-1.62-9.15.06-12.57,4.91-.09.12-.15.25-.23.38q1.5,2.23,3.11,4.19A6.1,6.1,0,0,1,162,195.16Z"/><path d="M336.38,175.34a10.83,10.83,0,0,0-6.41,2.33l1.53-.11c.12,1.54.19,3.06.26,4.57a7.28,7.28,0,0,1,4.64-2.22h0a6.6,6.6,0,0,1,4.15,1.81c.85-1.13,1.74-2.38,2.63-3.75a10.76,10.76,0,0,0-6.78-2.63Z"/><path d="M311.86,168.29c1.62.42,2.61.7,2.61.7a41.49,41.49,0,0,0-10.18-7.72A94.23,94.23,0,0,0,311.86,168.29Z"/><path d="M183.49,172.12s17.65-5,25.48-3.91a38.64,38.64,0,0,1,6.9,1.81c3.39-1.17,6.9-2.49,10.48-4C218.8,161.57,201,154.41,183.49,172.12Z"/><path d="M331.76,182.13l-.68.65-3.31-3.16a17.89,17.89,0,0,1,2.2-2l-3,.22a134.69,134.69,0,0,1,.06,18.83,26.19,26.19,0,0,0,4.82-4.5C331.92,188.94,331.9,185.57,331.76,182.13Z"/><path d="M176.33,181l-2.23-.52,2.22.52-4.45-1a55.81,55.81,0,0,0-1.06,7.7,14.39,14.39,0,0,1,3.38,1.72l-2.55,3.79a11,11,0,0,0-1.07-.63,96.8,96.8,0,0,0,.67,13.48,21.41,21.41,0,0,0,2.47,1.19l.25-9.81s.48.34,1.27.84A72.2,72.2,0,0,1,176.33,181Z"/><path d="M174.19,189.33a14.39,14.39,0,0,0-3.38-1.72c-.11,1.45-.2,3.08-.24,4.88a11,11,0,0,1,1.07.63Z"/><path d="M331.08,182.78l.68-.65c-.07-1.51-.14-3-.26-4.57l-1.53.11a17.89,17.89,0,0,0-2.2,2Z"/><path d="M208.42,285.44l-3,1.34.78,15a18.86,18.86,0,0,0,2.88.29l-.91,4.49c-.37-.15-.72-.29-1.06-.45,3,4,15.88,21.24,28.29,32.94l.49-1.39,4.31,1.52-.73,2.07a83.22,83.22,0,0,0,8.75,5c8,4,15.47-2.22,21.52-8.53a7,7,0,0,1,2.89-2c-.17-.23-.35-.45-.53-.67l3.53-2.92c.42.52.83,1.07,1.23,1.64A337.7,337.7,0,0,0,302.12,303c-.22.19-.46.38-.71.58l-2.16-4a17.71,17.71,0,0,0,2.6-1l.52-.27-.79-10.34-3-.6.9-4.48,1.7.34-.94-12.27c-1.41,1.56-2.82,3.07-4.25,4.52l2,25.49c-12.86,17.6-35.84,44.76-44.39,44.76S223,320,210.83,303.5l-1.46-28c-1.68-1.49-3.28-3-4.82-4.49l.57,10.91,1.44-.64Z"/><path d="M209.08,269.93l-4.57.24,0,.81c1.54,1.5,3.14,3,4.82,4.49Z"/><path d="M295.63,270.22l.39,5.18c1.43-1.45,2.84-3,4.25-4.52l-.08-1Z"/><path d="M198.39,340.67c6.5,10,15.86,20.13,29.17,26.52l2.3,1.1,6.95-19.63-1.16-3.6,1.54-4.33c-.61-.55-1.22-1.12-1.83-1.69l-8.09,22.87c-28.47-15.23-37-50.1-37.66-53.16v-15l15.77-7-.26-4.89L185,290.79v18.39l2.29-.18Z"/><path d="M239.43,341.24l.73-2.07-4.31-1.52-.49,1.39c.61.57,1.22,1.14,1.83,1.69l.31-.9A20.81,20.81,0,0,0,239.43,341.24Z"/><polygon points="208.42 285.44 206.56 281.25 205.12 281.89 205.38 286.78 208.42 285.44"/><path d="M312.42,290.07l2.76,21.25c-1.21,3.91-10.65,32.58-29.42,45.32-1.2-5.33-4.06-15.94-8.94-22.89-.67.71-1.34,1.4-2,2.09,2.41,1.12,3.5,5.21,3.5,5.21l-.88,3.78a95.93,95.93,0,0,1,4.5,15.88l.56,3.19,2.82-1.6c11.84-6.71,20.36-19,26-29.69l6.24-21.09,2.32.07-3.3-25.36-15.32-3.08.37,4.74Z"/><path d="M274.81,335.84c.67-.69,1.34-1.38,2-2.09-.4-.57-.81-1.12-1.23-1.64L272.06,335c.18.22.36.44.53.67A3,3,0,0,1,274.81,335.84Z"/><polygon points="298.61 287.29 301.58 287.89 301.21 283.15 299.51 282.81 298.61 287.29"/><path d="M203,301a16.81,16.81,0,0,1-2.9-1.25,11,11,0,0,1-2.54-2,11.65,11.65,0,0,0,1.8,2.88A19.28,19.28,0,0,0,201.9,303a26.8,26.8,0,0,0,2.95,1.94c.73.4,1.44.78,2.22,1.12l-.33-.45-.41-.55-.17-3.33H206A23.21,23.21,0,0,1,203,301Z"/><path d="M206.74,305.65l.33.45c.34.16.69.3,1.06.45l.91-4.49a18.86,18.86,0,0,1-2.88-.29l.17,3.33Z"/><path d="M303.91,301.25a31,31,0,0,0,5.36-7.9,28.23,28.23,0,0,1-4.81,3.73c-.68.42-1.38.8-2.09,1.15l.31,4-.5.68-.06.09C302.78,302.42,303.33,301.85,303.91,301.25Z"/><path d="M302.68,302.22l-.31-4-.52.27a17.71,17.71,0,0,1-2.6,1l2.16,4c.25-.2.49-.39.71-.58l.06-.09Z"/><path class="cls-5" d="M433,516.15c.33-4.64,4.92-11.84,8.16-16.39a12.06,12.06,0,0,0,2-9.36c-7.68-38.32-8.73-147.38-11.19-156.72-2.58-9.79-34.53-8.76-52.06-14.95-15.14-5.34-50.66-6.84-60.05-7.14v.11l-.13.45a120.22,120.22,0,0,1-8.44,20.46l-25.46,86h0l-27.59,93.2L198.39,340.67a100.15,100.15,0,0,1-13.31-31.21l-.05-.23v-.05c-9.49.79-46.06,4.06-60.81,8.52-8.86,2.69-20.24,4.35-29.11,5.32a16.46,16.46,0,0,0-14.64,15.86c-1,31.18-3.15,102.44-3.15,116.44,0,18-5.67,37.12-5.15,43.3s4.12,10.83,5.15,17.53,3.09,103.08,3.09,103.08L122.3,621H251.06l2.06-46.92C245.64,563,179.68,465,176.69,459.71c-2.34-4.17-.31-11.19,1.48-17.39.89-3.06,1.89-6.52,1.69-7.78-.13-.86-2.82-1.41-5-1.85-3.13-.63-6.68-1.36-9.59-3.54-1.34-1-4.13-3.1-14.79-54.46-5.18-25-9.75-49.79-9.8-50a2.29,2.29,0,1,1,4.5-.83c6.79,36.87,19,96.95,22.92,101.73,2.08,1.52,5,2.12,7.68,2.66,3.73.76,8,1.62,8.59,5.63.34,2.26-.61,5.57-1.82,9.75-1.39,4.8-3.29,11.38-1.89,13.88,2.29,4.07,46.47,69.85,72.77,108.93l2-44.66c-2.15-3.24-6.15-12.73-16.73-39.93-7.74-19.9-15.33-40.08-15.4-40.29a2.28,2.28,0,1,1,4.28-1.6C237,465.11,252,504.08,257.48,516c4.69-13.25,17.85-58.41,26.12-87.58a2.29,2.29,0,0,1,4.41,1.25c-.07.23-6.59,23.21-13.28,45.93-3.93,13.35-7.14,24-9.56,31.66-2.86,9-4.22,12.92-5.18,14.63l-2,44.83c26.72-35.55,65.08-88.23,66.48-94.86a48.18,48.18,0,0,0-3.78-8.24c-3.52-6.71-6.56-12.51-2.8-15.14,2.3-1.61,5.93-1.21,9.78-.79,2.25.25,6.39.7,7.22-.09,2.56-4.84,23.08-75.6,36.32-122.26a2.29,2.29,0,1,1,4.4,1.25c-8,28.15-34.28,120.29-37.1,123.82-2.26,2.82-6.87,2.32-11.34,1.83-2.13-.24-5.29-.58-6.43-.13-.07,1.62,2.46,6.44,4,9.38,1.87,3.58,3.65,6.95,4.24,9.61.41,1.81,1.09,4.83-35.45,55.2-16.7,23-33.75,45.64-35.9,48.49l-2,46.23H371.19c1-120.8,11.47-204.31,11.57-205.15a2.29,2.29,0,0,1,4.55.58c-.11.84-10.53,84.08-11.55,204.57h57.61C433.11,591.42,432.57,521.81,433,516.15ZM110.13,483.73h0c-2.5,1.32-5,2.66-7.37,4-1.19.71-2.36,1.42-3.46,2.19a13.21,13.21,0,0,0-2.76,2.43,2.33,2.33,0,0,0-.29.49c-.07.15,0,.13,0,.08a2.65,2.65,0,0,0,.53.87,12.92,12.92,0,0,0,2.74,2.29,67.3,67.3,0,0,0,7,3.88l.07,0a1.83,1.83,0,0,1-1.43,3.36,35.16,35.16,0,0,1-7.94-3.93,15.26,15.26,0,0,1-3.59-3.26,5.74,5.74,0,0,1-1.18-2.94,3.87,3.87,0,0,1,.43-2,5.26,5.26,0,0,1,.88-1.26,15.25,15.25,0,0,1,3.86-2.8,37.31,37.31,0,0,1,4-1.82,53.32,53.32,0,0,1,8.22-2.51.42.42,0,0,1,.52.32A.44.44,0,0,1,110.13,483.73Zm9.48-124.33a1.37,1.37,0,0,1-.28,0,2.29,2.29,0,0,1-2.27-2l-3.35-27.07a2.29,2.29,0,0,1,4.54-.56l3.35,27.06A2.29,2.29,0,0,1,119.61,359.4Zm18.75,253.87a2.3,2.3,0,0,1-2.28,2.07l-.22,0a2.28,2.28,0,0,1-2.06-2.49c5.08-52.76-10.15-197.22-10.3-198.67a2.29,2.29,0,1,1,4.55-.48C128.2,415.13,143.48,560.05,138.36,613.27ZM399.78,331.73c-.07.24-6.79,23.86-6.79,33.39a2.29,2.29,0,1,1-4.57,0c0-10.17,6.67-33.65,7-34.64a2.29,2.29,0,1,1,4.4,1.25ZM421,496.22a15.1,15.1,0,0,1-3.6,3.26,34.75,34.75,0,0,1-7.94,3.93,1.83,1.83,0,0,1-1.43-3.36l.07,0a66.46,66.46,0,0,0,7.05-3.88,12.92,12.92,0,0,0,2.74-2.29,2.65,2.65,0,0,0,.53-.87s.05.07,0-.08a2.07,2.07,0,0,0-.3-.49,13.14,13.14,0,0,0-2.75-2.43c-1.1-.77-2.27-1.48-3.46-2.19-2.4-1.39-4.88-2.73-7.37-4h0a.43.43,0,0,1-.18-.58.41.41,0,0,1,.47-.22,53.44,53.44,0,0,1,8.23,2.51,37.31,37.31,0,0,1,4,1.82,15.25,15.25,0,0,1,3.86,2.8,5.26,5.26,0,0,1,.88,1.26,4,4,0,0,1,.43,2A5.91,5.91,0,0,1,421,496.22Z"/><path d="M185.08,309.46a100.15,100.15,0,0,0,13.31,31.21L187.32,309l-2.29.18v.05Z"/><path d="M311.27,332.61a120.22,120.22,0,0,0,8.44-20.46l.13-.45v-.11l-2.32-.07Z"/><path class="cls-5" d="M273.82,360.31l3.61-15.48a43,43,0,0,0-3.87-7.74c-7.51,7.45-14.9,13.14-20,13.14-3.9,0-9.08-3.19-14.56-7.88l-2.23,6.31,4.68,14.66,1.54,3.87-13.37,62.95,28.56,81.71,27.59-93.2-12-52Zm-4,7.86a29.44,29.44,0,0,1-11.9,2.6A23.86,23.86,0,0,1,246.4,368a2.29,2.29,0,0,1,2.34-3.94c.35.21,8.28,4.69,19.21-.12a2.29,2.29,0,0,1,1.84,4.19Z"/><path d="M253.6,350.23c5.06,0,12.45-5.69,20-13.14-.31-.49-.64-.95-1-1.39a7,7,0,0,0-2.89,2c-6.05,6.31-13.53,12.56-21.52,8.53a83.22,83.22,0,0,1-8.75-5l-.39,1.11C244.52,347,249.7,350.23,253.6,350.23Z"/><path d="M237.19,340.73l-1.54,4.33,1.16,3.6,2.23-6.31C238.42,341.83,237.81,341.28,237.19,340.73Z"/><path d="M239.43,341.24a20.81,20.81,0,0,1-1.93-1.41l-.31.9c.62.55,1.23,1.1,1.85,1.62Z"/><path d="M273.56,337.09a43,43,0,0,1,3.87,7.74l.88-3.78s-1.09-4.09-3.5-5.21Z"/><path d="M274.81,335.84a3,3,0,0,0-2.22-.14c.33.44.66.9,1,1.39Z"/><polygon points="285.81 418.65 285.81 418.65 258.22 511.85 285.81 418.65"/><path class="cls-4" d="M268,364c-10.93,4.81-18.86.33-19.21.12A2.29,2.29,0,0,0,246.4,368a23.86,23.86,0,0,0,11.49,2.73,29.44,29.44,0,0,0,11.9-2.6A2.29,2.29,0,0,0,268,364Z"/><path class="cls-4" d="M118.25,329.79a2.29,2.29,0,0,0-4.54.56l3.35,27.07a2.29,2.29,0,0,0,2.27,2,1.37,1.37,0,0,0,.28,0,2.29,2.29,0,0,0,2-2.55Z"/><path class="cls-4" d="M125.53,411.64a2.28,2.28,0,0,0-2,2.52c.15,1.45,15.38,145.91,10.3,198.67a2.28,2.28,0,0,0,2.06,2.49l.22,0a2.3,2.3,0,0,0,2.28-2.07c5.12-53.22-10.16-198.14-10.31-199.59A2.29,2.29,0,0,0,125.53,411.64Z"/><path class="cls-4" d="M387.31,416.44a2.29,2.29,0,0,0-4.55-.58c-.1.84-10.56,84.35-11.57,205.15h4.57C376.78,500.52,387.2,417.28,387.31,416.44Z"/><path class="cls-4" d="M398.21,328.9a2.29,2.29,0,0,0-2.83,1.58c-.29,1-7,24.47-7,34.64a2.29,2.29,0,1,0,4.57,0c0-9.53,6.72-33.15,6.79-33.39A2.3,2.3,0,0,0,398.21,328.9Z"/><path class="cls-4" d="M180.68,457.47c-1.4-2.5.5-9.08,1.89-13.88,1.21-4.18,2.16-7.49,1.82-9.75-.62-4-4.86-4.87-8.59-5.63-2.63-.54-5.6-1.14-7.68-2.66-3.94-4.78-16.13-64.86-22.92-101.73a2.29,2.29,0,1,0-4.5.83c.05.25,4.62,25.05,9.8,50,10.66,51.36,13.45,53.46,14.79,54.46,2.91,2.18,6.46,2.91,9.59,3.54,2.16.44,4.85,1,5,1.85.2,1.26-.8,4.72-1.69,7.78-1.79,6.2-3.82,13.22-1.48,17.39,3,5.32,68.95,103.28,76.43,114.38l.33-7.69C227.15,527.32,183,461.54,180.68,457.47Z"/><path class="cls-4" d="M293.57,526.29c36.54-50.37,35.86-53.39,35.45-55.2-.59-2.66-2.37-6-4.24-9.61-1.55-2.94-4.08-7.76-4-9.38,1.14-.45,4.3-.11,6.43.13,4.47.49,9.08,1,11.34-1.83,2.82-3.53,29.11-95.67,37.1-123.82a2.29,2.29,0,1,0-4.4-1.25C358,372,337.48,442.75,334.92,447.59c-.83.79-5,.34-7.22.09-3.85-.42-7.48-.82-9.78.79-3.76,2.63-.72,8.43,2.8,15.14a48.18,48.18,0,0,1,3.78,8.24c-1.4,6.63-39.76,59.31-66.48,94.86l-.35,8.07C259.82,571.93,276.87,549.3,293.57,526.29Z"/><path class="cls-4" d="M257.83,518.76a2.28,2.28,0,0,1,2.19,2.38l0,.74c1-1.71,2.32-5.58,5.18-14.63,2.42-7.66,5.63-18.31,9.56-31.66,6.69-22.72,13.21-45.7,13.28-45.93a2.29,2.29,0,0,0-4.41-1.25c-8.27,29.17-21.43,74.33-26.12,87.58C252,504.08,237,465.11,227.56,439.92a2.28,2.28,0,1,0-4.28,1.6c.07.21,7.66,20.39,15.4,40.29,10.58,27.2,14.58,36.69,16.73,39.93l0-.8A2.29,2.29,0,0,1,257.83,518.76Z"/><path class="cls-4" d="M420.83,490.06a15.25,15.25,0,0,0-3.86-2.8,37.31,37.31,0,0,0-4-1.82,53.44,53.44,0,0,0-8.23-2.51.41.41,0,0,0-.47.22.43.43,0,0,0,.18.58h0c2.49,1.32,5,2.66,7.37,4,1.19.71,2.36,1.42,3.46,2.19a13.14,13.14,0,0,1,2.75,2.43,2.07,2.07,0,0,1,.3.49c.07.15,0,.13,0,.08a2.65,2.65,0,0,1-.53.87,12.92,12.92,0,0,1-2.74,2.29,66.46,66.46,0,0,1-7.05,3.88l-.07,0a1.83,1.83,0,0,0,1.43,3.36,34.75,34.75,0,0,0,7.94-3.93,15.1,15.1,0,0,0,3.6-3.26,5.91,5.91,0,0,0,1.18-2.94,4,4,0,0,0-.43-2A5.26,5.26,0,0,0,420.83,490.06Z"/><path class="cls-4" d="M109.83,482.93a53.32,53.32,0,0,0-8.22,2.51,37.31,37.31,0,0,0-4,1.82,15.25,15.25,0,0,0-3.86,2.8,5.26,5.26,0,0,0-.88,1.26,3.87,3.87,0,0,0-.43,2,5.74,5.74,0,0,0,1.18,2.94,15.26,15.26,0,0,0,3.59,3.26,35.16,35.16,0,0,0,7.94,3.93,1.83,1.83,0,0,0,1.43-3.36l-.07,0a67.3,67.3,0,0,1-7-3.88,12.92,12.92,0,0,1-2.74-2.29,2.65,2.65,0,0,1-.53-.87s0,.07,0-.08a2.33,2.33,0,0,1,.29-.49A13.21,13.21,0,0,1,99.29,490c1.1-.77,2.27-1.48,3.46-2.19,2.39-1.39,4.87-2.73,7.37-4h0a.44.44,0,0,0,.22-.48A.42.42,0,0,0,109.83,482.93Z"/><path class="cls-4" d="M208.61,75.77s-64.52,25.06-51.63,102C157,177.73,152.51,109.27,208.61,75.77Z"/><path class="cls-4" d="M341.62,170.31s22.76-51.67-29-88.6C312.59,81.71,354.65,118.62,341.62,170.31Z"/><path class="cls-4" d="M195.4,105.08l0,0a.43.43,0,0,0,0,0S195.38,105.07,195.4,105.08Z"/><path class="cls-4" d="M208,102a3.3,3.3,0,0,0-1.53-.65,5.65,5.65,0,0,0-2.22.16,19.75,19.75,0,0,0-3.12,1.18l-2.72,1.3a15.67,15.67,0,0,1-2.46,1,3,3,0,0,1-.55.09.43.43,0,0,1,0,0s.07.08.06.1,0,.05,0,0a.27.27,0,0,1,0-.11l0,0s0,0,0,0a1.69,1.69,0,0,1,.16-.59,6.55,6.55,0,0,1,.62-1.1,17.7,17.7,0,0,1,1.82-2.22c1.31-1.47,2.83-2.87,4.25-4.26a27.54,27.54,0,0,0-5.42,2.9,19.59,19.59,0,0,0-2.48,2,8.09,8.09,0,0,0-1.11,1.37,4,4,0,0,0-.7,2.12,2.93,2.93,0,0,0,.38,1.44,2.82,2.82,0,0,0,1.2,1.12,4.18,4.18,0,0,0,2.4.26,15.7,15.7,0,0,0,3.26-1c1-.39,1.9-.81,2.81-1.18a17,17,0,0,1,2.54-.93l.11,0,.1-.21.09-.25,0-.19a.21.21,0,0,0,0-.06v0s0,0,0,0h0v0s0,0,0,.06,0,.23.14.32a.51.51,0,0,0,.13.15c.09.09.2.09.15.09a2.64,2.64,0,0,0-.67.09,8.66,8.66,0,0,1-.46.91,49.65,49.65,0,0,1-3.28,4.77c-2.39,3.18-4.93,6.32-7.31,9.66a58.42,58.42,0,0,0,9.48-7.78,32.77,32.77,0,0,0,4.07-4.83,11.87,11.87,0,0,0,.87-1.55l.19-.46c.06-.17.11-.36.16-.54a3.44,3.44,0,0,0,.12-.65,3.54,3.54,0,0,0,0-.84,2.91,2.91,0,0,0-.4-1A3.36,3.36,0,0,0,208,102Z"/><path class="cls-4" d="M205.52,104.31h0S205.52,104.31,205.52,104.31Z"/><path class="cls-4" d="M205.94,105c.05,0-.06,0-.15-.09a.51.51,0,0,1-.13-.15c-.1-.09-.12-.31-.14-.32s0,0,0-.06a.21.21,0,0,1,0,.06l0,.19-.09.25-.1.21A2.64,2.64,0,0,1,205.94,105Z"/><path class="cls-4" d="M206.18,116.7a9.66,9.66,0,0,0-1.46,4.44,41.13,41.13,0,0,0,3.62-2.53c1.12-.84,2.16-1.7,3.2-2.6s2.05-1.83,3-2.86a22.88,22.88,0,0,0,2.83-3.48,11.7,11.7,0,0,0-4.48,1.13,16.52,16.52,0,0,0-3.78,2.44A15.41,15.41,0,0,0,206.18,116.7Z"/><path class="cls-4" d="M212.14,121.54a11.22,11.22,0,0,0-1.69,5.86c1.35-1.55,2.65-2.82,4-4.11s2.66-2.52,4-3.81,2.66-2.59,4-4a38.62,38.62,0,0,0,3.77-4.51,19.34,19.34,0,0,0-5.55,2.26,25.63,25.63,0,0,0-4.72,3.58A20.69,20.69,0,0,0,212.14,121.54Z"/><path class="cls-4" d="M222.6,120.86a12.58,12.58,0,0,0-1.67,3.87,9.08,9.08,0,0,0-.08,4.34,27.06,27.06,0,0,0,2.69-3.14c.77-1,1.47-2.05,2.15-3.1s1.3-2.14,1.91-3.29a26.44,26.44,0,0,0,1.64-3.8,9.34,9.34,0,0,0-3.85,2A13.1,13.1,0,0,0,222.6,120.86Z"/><path class="cls-4" d="M228.91,133.65a13.14,13.14,0,0,0,2.8-3.17,19.92,19.92,0,0,0,1.82-3.56,20.62,20.62,0,0,0,1.09-3.84,13.5,13.5,0,0,0,.12-4.23A13.54,13.54,0,0,0,232,122a20.06,20.06,0,0,0-2.92,7.39A13.5,13.5,0,0,0,228.91,133.65Z"/><path class="cls-4" d="M238.37,134.29a12.93,12.93,0,0,0,1.73-4.5,15.47,15.47,0,0,0,.2-4.7,12,12,0,0,0-1.35-4.58,26.53,26.53,0,0,0-1.51,4.38c-.37,1.42-.66,2.82-.94,4.19s-.49,2.75-.79,4.09a39.35,39.35,0,0,1-1.09,4.3A7.31,7.31,0,0,0,238.37,134.29Z"/><path class="cls-4" d="M244.28,136.76a20,20,0,0,0,2-4.15,21.05,21.05,0,0,0,1-4.45,14.29,14.29,0,0,0-.24-4.72,20,20,0,0,0-2.52,3.92,34,34,0,0,0-1.69,4.07,37,37,0,0,0-1.17,4.22,24.64,24.64,0,0,0-.6,4.57A12,12,0,0,0,244.28,136.76Z"/><path class="cls-4" d="M297.29,129.72A18.51,18.51,0,0,0,299,134c.19.34.42.68.65,1a7.63,7.63,0,0,0,.75,1l.42.46c.16.14.32.29.49.42a3.31,3.31,0,0,0,1.12.61,13,13,0,0,1-.41-2.27c-.05-.36-.1-.72-.14-1.09l-.17-1.09a40.2,40.2,0,0,0-.93-4.3,31.87,31.87,0,0,0-1.49-4.2,18.47,18.47,0,0,0-2.37-4.07,15.09,15.09,0,0,0-.42,4.73A21.45,21.45,0,0,0,297.29,129.72Z"/><path class="cls-4" d="M250.93,138.71c.53-1.15,1.06-2.26,1.55-3.42s1-2.32,1.47-3.56a25.46,25.46,0,0,0,1.15-4.07,9.89,9.89,0,0,0-3.58,2.54,13.38,13.38,0,0,0-2.38,3.61,11.85,11.85,0,0,0-1,4.3,7.39,7.39,0,0,0,1.16,4.35Z"/><path class="cls-4" d="M307.41,130.36a16,16,0,0,0,.64,1.62,9.56,9.56,0,0,0,.46.89,4,4,0,0,0,.37.52,2.56,2.56,0,0,0,.87.73,2.14,2.14,0,0,0,1.25.21l.39-.09c.1,0,.14-.06.22-.09a3.14,3.14,0,0,0,.39-.24l.18-.13.11-.11.19-.23a1.7,1.7,0,0,0,.17-.23l.1-.17.18-.35.11-.29a5.44,5.44,0,0,0,.17-.54,13.55,13.55,0,0,0,.33-1.82,58.79,58.79,0,0,0,.25-6.56l0-3.17c0-.27,0-.54,0-.8l-.13-.18a14,14,0,0,0-.93-1.1l-.19-.17-.11-.06s0,0,.11.06l.07,0a1.16,1.16,0,0,0,.77,0c.4-.23.37-.26.46-.36s.05-.07.05-.06h0s0,.26-.06.47,0,.45,0,.7,0,.48,0,.72c.58.75,1.13,1.56,1.68,2.38,1.21,1.74,2.36,3.55,3.63,5.32a51.81,51.81,0,0,0-2-6.17c-.42-1-.86-2-1.37-3a11.32,11.32,0,0,0-.92-1.51,3.73,3.73,0,0,0-.85-.87,2.09,2.09,0,0,0-.54-.27,1.67,1.67,0,0,0-1.15.07,1.73,1.73,0,0,0-.75.62,1.46,1.46,0,0,0-.14.24l-.1.19a5.28,5.28,0,0,0-.33,1.09c-.07.3-.12.59-.16.88-.09.57-.15,1.12-.2,1.67-.11,1.09-.16,2.17-.23,3.23-.09,1.44-.15,2.88-.24,4.28.18.49.36,1,.56,1.46s.4.92.6,1.32a4.54,4.54,0,0,0,.3.52s0,.07.06.09l0,0h0l0,0a1.3,1.3,0,0,0-.24-.16,1.46,1.46,0,0,0-.86-.14,1.37,1.37,0,0,0-.29.07l-.14.05a.71.71,0,0,0-.22.13.34.34,0,0,0-.09.08l-.05,0-.06.07,0,.08h0s0,0,0,0l0-.08a1,1,0,0,0,.07-.24,12.06,12.06,0,0,0,.22-1.32c.07-.63.12-1.29.17-2-.56-1.45-1.09-2.92-1.62-4.41-1.43-4-2.83-8-4.53-12A82.13,82.13,0,0,0,305.7,124,56.15,56.15,0,0,0,307.41,130.36Z"/><path class="cls-4" d="M313.84,118.09c0-.21.06-.44.06-.47h0s0,0-.05.06-.06.13-.46.36a1.16,1.16,0,0,1-.77,0l-.07,0,.19.17a14,14,0,0,1,.93,1.1l.13.18c0-.24,0-.49,0-.72S313.83,118.3,313.84,118.09Z"/><path class="cls-4" d="M311.64,131.09h0Z"/><path class="cls-4" d="M309.69,130.93a1,1,0,0,1-.07.24l0,.08s0,0,0,0h0l0-.08.06-.07.05,0a.34.34,0,0,1,.09-.08.71.71,0,0,1,.22-.13l.14-.05a1.37,1.37,0,0,1,.29-.07,1.46,1.46,0,0,1,.86.14,1.3,1.3,0,0,1,.24.16s0-.05-.06-.09a4.54,4.54,0,0,1-.3-.52c-.2-.4-.4-.86-.6-1.32s-.38-1-.56-1.46c-.05.66-.1,1.32-.17,2A12.06,12.06,0,0,1,309.69,130.93Z"/><path class="cls-4" d="M326.57,116.51a34.34,34.34,0,0,0-3.66-6.54,25,25,0,0,0-5.18-5.44c.82,2.41,1.75,4.64,2.68,6.85l2.79,6.55c.91,2.17,1.77,4.34,2.62,6.54s1.54,4.45,2.39,6.87a19.07,19.07,0,0,0,.4-7.56A29.75,29.75,0,0,0,326.57,116.51Z"/><path d="M212.72,209.94c4.2,0,7.62-4.87,7.62-10.85a14,14,0,0,0-1.46-6.32c-.79-.26-1.58-.5-2.38-.7a43,43,0,0,0-4.66-.93c-.79-.08-1.56-.21-2.35-.25l-1.64-.09a13,13,0,0,0-2.75,8.29C205.1,205.07,208.52,209.94,212.72,209.94Z"/><path d="M287.37,207.33c4.2,0,7.62-4.87,7.62-10.85a12.91,12.91,0,0,0-2.75-8.28l-1.64.08c-.79,0-1.56.18-2.35.25a20.27,20.27,0,0,0-2.33.41,20.62,20.62,0,0,0-2.33.52c-.8.21-1.59.45-2.38.71a13.92,13.92,0,0,0-1.45,6.31C279.76,202.46,283.17,207.33,287.37,207.33Z"/></g></svg>