<svg xmlns="http://www.w3.org/2000/svg" xmlns:xlink="http://www.w3.org/1999/xlink" viewBox="0 0 500 500"><defs><style>.cls-1{fill:#f4d9ce;}.cls-2{isolation:isolate;}.cls-3{clip-path:url(#clip-path);}.cls-4{fill:#ffbdab;}.cls-5,.cls-7{fill:#fff;}.cls-6{fill:#6f69ac;}.cls-7{mix-blend-mode:overlay;}</style><clipPath id="clip-path"><circle class="cls-1" cx="250" cy="250" r="215.67"/></clipPath></defs><g class="cls-2"><g id="Layer_1" data-name="Layer 1"><circle class="cls-1" cx="250" cy="250" r="215.67"/><g class="cls-3"><path class="cls-4" d="M350.84,215.52c2.92-6.39,4-14.72,0-19-1.91-2-3.79-3-5.59-3h0a7.92,7.92,0,0,0-5.05,2.42,140.38,140.38,0,0,1-2.35,32.59C343.26,227.25,348.14,221.43,350.84,215.52Z"/><path class="cls-4" d="M168.34,216.31c-.86-3.26-1.72-6.65-2.53-10.14-2.62-.54-4.87.68-7,3.75-2.29,3.23-2.18,8.34.28,14,2.85,6.54,8,12,13.16,14.43-.1-.37-.21-.73-.31-1.09A108.36,108.36,0,0,1,168.34,216.31Z"/><path class="cls-4" d="M330.25,201.93s-4.61-4.93-3.55-30.17c0,0-15.22-9.84-21.24-20.82a29.51,29.51,0,0,0,7.79,13.63s-11.69,0-13.28-21.95c0,0-27.62-18.59-53.47,4.42,0,0-27.27-14.87-51.7-1.77,0,0,5.27,19.3-8.87,25.32a23.5,23.5,0,0,0,4.26-19.65s-3.54,15.4-11.86,24.26c0,0,3.37,26,2.66,32.67-.61,5.71-5.15,12.57-3.29,32.34,6.81,21.31,23.71,50,65.1,73.11a30.47,30.47,0,0,0,31.89-1.19c19.17-12.82,48-38.41,57.63-80.48C332.57,223.51,332.35,212.28,330.25,201.93ZM321.77,182s-18.86-5.37-27.23-4.18-21.24,8-21.24,8L272,178.22S297.2,157.11,321.77,182Zm-76.54,54a1.45,1.45,0,0,1,1.39.61l.18.27a12.28,12.28,0,0,0,1.51,2,6.43,6.43,0,0,0,1.79,1.37,6.06,6.06,0,0,0,2,.57,7.9,7.9,0,0,0,2.26-.12,8,8,0,0,0,2.14-.71,9.58,9.58,0,0,0,1.88-1.37,12.71,12.71,0,0,0,1.62-2,19.82,19.82,0,0,0,1.31-2.3l.1-.19a1.39,1.39,0,0,1,1.87-.62,1.42,1.42,0,0,1,.77,1.34,12,12,0,0,1-.75,3.41,12.41,12.41,0,0,1-1.73,3.11,11.36,11.36,0,0,1-2.77,2.52,10.88,10.88,0,0,1-3.54,1.38,11.23,11.23,0,0,1-3.8.12,9.24,9.24,0,0,1-3.69-1.5,8.81,8.81,0,0,1-2.56-2.83,9.75,9.75,0,0,1-.75-1.65,8.63,8.63,0,0,1-.43-1.8A1.43,1.43,0,0,1,245.23,236ZM228.3,210.35a1.31,1.31,0,0,1-1.49.16l-.15-.09c-.71-.4-1.47-.79-2.25-1.16a19.42,19.42,0,0,1,.63,4.9c0,8.51-5.37,15.43-12,15.43s-12-6.92-12-15.43a18.58,18.58,0,0,1,2.22-8.91l-1.27.13c-.84.1-1.7.11-2.54.24s-1.68.29-2.53.41c-.43.07-.86.11-1.28.19l-1.26.31-2.56.54c-1.24.3-2.47.67-3.74,1,.11.48.22,1,.34,1.43.29,1.14.61,2.27,1,3.38a22.08,22.08,0,0,0,3.12,6.35,23.39,23.39,0,0,1-4.82-5.51c-.68-1-1.31-2.09-1.92-3.17s-1.17-2.15-1.71-3.34h0l-.61-1.27,1.64-1a49.11,49.11,0,0,1,5.06-2.72l2.7-1,1.37-.48c.47-.15.94-.25,1.41-.37.95-.24,1.9-.46,2.85-.67s2-.27,2.92-.38l1.46-.16c.49,0,1,0,1.48,0,1,0,2,0,2.95,0l3,.31c1,.1,1.94.39,2.9.57a28,28,0,0,1,2.85.79,27,27,0,0,1,2.76,1.05,26.67,26.67,0,0,1,9.6,6.69A1.29,1.29,0,0,1,228.3,210.35Zm2.53-22.67s-12.88-6.77-21.25-8-27.22,4.18-27.22,4.18c24.57-24.9,49.8-3.79,49.8-3.79Zm35.72,101.8-1.36,0c-.45,0-.9,0-1.34,0-1.79.07-3.55.2-5.3.35s-3.5.44-5.24.77a45.75,45.75,0,0,0-5.25,1.31,13.6,13.6,0,0,1,4.79-2.9,21.94,21.94,0,0,1,5.47-1.31,23.39,23.39,0,0,1,5.61.09,22.88,22.88,0,0,1,2.74.54,20.67,20.67,0,0,1,2.64.93C268.37,289.45,267.46,289.44,266.55,289.48Zm8.3-19.26a54.65,54.65,0,0,1-12.79,4.69,52.89,52.89,0,0,1-13.55,1.44,45.3,45.3,0,0,1-6.78-.59,25.6,25.6,0,0,1-3.33-.7c-1.1-.28-2.19-.58-3.26-.94,2.26-.47,4.45-.61,6.63-1s4.33-.55,6.46-1c4.27-.61,8.46-1.5,12.63-2.43s8.29-2.1,12.41-3.37,8.25-2.67,12.51-4.23A38.64,38.64,0,0,1,274.85,270.22Zm46.9-65.81h0c-.54,1.18-1.1,2.25-1.71,3.34s-1.23,2.14-1.92,3.16a22.93,22.93,0,0,1-4.81,5.51,22.29,22.29,0,0,0,3.12-6.34c.38-1.11.7-2.25,1-3.38.11-.48.23-1,.33-1.44-1.27-.31-2.5-.67-3.74-1l-2.55-.54-1.27-.3c-.42-.09-.85-.13-1.27-.19-.85-.12-1.7-.27-2.54-.41s-1.69-.15-2.53-.25l-1.27-.12a18.66,18.66,0,0,1,2.21,8.91c0,8.51-5.37,15.43-12,15.43s-12-6.92-12-15.43a19.5,19.5,0,0,1,.63-4.91c-.78.38-1.54.77-2.24,1.17l-.15.08a1.31,1.31,0,0,1-1.77-.49,1.33,1.33,0,0,1,.16-1.5,26.6,26.6,0,0,1,9.61-6.68,22.88,22.88,0,0,1,2.75-1.05,26.21,26.21,0,0,1,2.85-.79c1-.19,1.92-.47,2.91-.57l2.94-.32c1,0,2,0,3,0,.49,0,1,0,1.47,0l1.47.15c1,.12,1.95.19,2.91.38s1.91.43,2.85.67c.47.13.95.23,1.41.37l1.37.49,2.71,1a53.13,53.13,0,0,1,5.05,2.72l1.65,1Z"/><path class="cls-5" d="M312.87,216.47s-10.47,10.38-20.49,10.38c-1.75,0-3.39-.08-4.92-.23-13.13-1.32-16.4-19.24-4.53-25l.28-.13c9-4.23,36.33,1.71,36.33,1.71S318.54,211.84,312.87,216.47Z"/><path class="cls-5" d="M192.57,219.21s10.47,10.38,20.49,10.38c1.75,0,3.39-.08,4.92-.23,13.13-1.31,16.4-19.24,4.52-25l-.27-.12c-9-4.24-36.33,1.7-36.33,1.7S186.9,214.58,192.57,219.21Z"/><path d="M213.06,225.82c4.53,0,8.21-5.23,8.21-11.66a14.9,14.9,0,0,0-1.59-6.82c-.84-.28-1.69-.54-2.55-.76a23.05,23.05,0,0,0-2.49-.57,23.34,23.34,0,0,0-2.5-.44c-.84-.08-1.67-.23-2.52-.27l-1.75-.1a13.81,13.81,0,0,0-3,9C204.86,220.59,208.54,225.82,213.06,225.82Z"/><path class="cls-4" d="M277.31,316.05A35,35,0,0,1,257.83,322a35.54,35.54,0,0,1-17.33-4.53,177.72,177.72,0,0,1-27-18.31v19.31c4.94,11.95,17.94,36.29,42,36.29,25.24,0,42.14-24.8,48.08-35.13l-3.09-22.49A157.85,157.85,0,0,1,277.31,316.05Z"/><path d="M159.06,223.94c-2.46-5.68-2.57-10.79-.28-14,2.16-3.07,4.41-4.29,7-3.75-.37-1.59-.73-3.19-1.09-4.81-3.65,0-7,1.93-9.8,5.84-3.25,4.61-3.32,11.4-.18,18.62C158,233.37,165.33,242,174,243.94q-1-2.87-1.75-5.57C167.06,236,161.91,230.48,159.06,223.94Z"/><path d="M340.06,194.11c0,.63.05,1.27.08,1.9a7.92,7.92,0,0,1,5.05-2.42h0c1.8,0,3.68,1,5.59,3,4.09,4.24,3,12.57,0,19-2.7,5.91-7.58,11.73-13,13.08q-.48,2.52-1.06,5c8.44-.74,15.11-8.87,18.4-16.07,4.38-9.57,4-19.07-.95-24.19-2.61-2.7-5.38-4.16-8.24-4.37a21.73,21.73,0,0,1-.61,2.42A8.26,8.26,0,0,0,340.06,194.11Z"/><path d="M294.54,177.83c8.37-1.19,27.23,4.18,27.23,4.18-24.57-24.9-49.8-3.79-49.8-3.79l1.33,7.57S286.18,179,294.54,177.83Z"/><path d="M182.36,183.9s18.86-5.37,27.22-4.18,21.25,8,21.25,8l1.33-7.57S206.93,159,182.36,183.9Z"/><path d="M260.86,269.77c-4.17.93-8.36,1.82-12.63,2.43-2.13.41-4.28.62-6.46,1s-4.37.49-6.63,1c1.07.36,2.16.66,3.26.94a25.6,25.6,0,0,0,3.33.7,45.3,45.3,0,0,0,6.78.59,52.89,52.89,0,0,0,13.55-1.44,54.65,54.65,0,0,0,12.79-4.69,38.64,38.64,0,0,0,10.93-8.05c-4.26,1.56-8.37,3-12.51,4.23S265,268.84,260.86,269.77Z"/><path d="M263.93,287.88a23.39,23.39,0,0,0-5.61-.09,21.94,21.94,0,0,0-5.47,1.31,13.6,13.6,0,0,0-4.79,2.9,45.75,45.75,0,0,1,5.25-1.31c1.74-.33,3.48-.58,5.24-.77s3.51-.28,5.3-.35c.44,0,.89,0,1.34,0l1.36,0c.91,0,1.82,0,2.76-.13a20.67,20.67,0,0,0-2.64-.93A22.88,22.88,0,0,0,263.93,287.88Z"/><path d="M244.45,239.45a9.75,9.75,0,0,0,.75,1.65,8.81,8.81,0,0,0,2.56,2.83,9.24,9.24,0,0,0,3.69,1.5,11.23,11.23,0,0,0,3.8-.12,10.88,10.88,0,0,0,3.54-1.38,11.36,11.36,0,0,0,2.77-2.52,12.41,12.41,0,0,0,1.73-3.11,12,12,0,0,0,.75-3.41,1.42,1.42,0,0,0-.77-1.34,1.39,1.39,0,0,0-1.87.62l-.1.19a19.82,19.82,0,0,1-1.31,2.3,12.71,12.71,0,0,1-1.62,2,9.58,9.58,0,0,1-1.88,1.37,8,8,0,0,1-2.14.71,7.9,7.9,0,0,1-2.26.12,6.06,6.06,0,0,1-2-.57,6.43,6.43,0,0,1-1.79-1.37,12.28,12.28,0,0,1-1.51-2l-.18-.27a1.45,1.45,0,0,0-1.39-.61,1.43,1.43,0,0,0-1.21,1.62A8.63,8.63,0,0,0,244.45,239.45Z"/><path d="M315.67,199.41l-2.71-1-1.37-.49c-.46-.14-.94-.24-1.41-.37-.94-.24-1.9-.45-2.85-.67s-1.94-.26-2.91-.38l-1.47-.15c-.49,0-1,0-1.47,0-1,0-2,0-3,0l-2.94.32c-1,.1-1.94.38-2.91.57a26.21,26.21,0,0,0-2.85.79,22.88,22.88,0,0,0-2.75,1.05,26.6,26.6,0,0,0-9.61,6.68,1.33,1.33,0,0,0-.16,1.5,1.31,1.31,0,0,0,1.77.49l.15-.08c.7-.4,1.46-.79,2.24-1.17a17.24,17.24,0,0,1,2.18-5l3.16,2.07a12,12,0,0,0-.61,1.05c.85-.29,1.7-.55,2.55-.77a24.19,24.19,0,0,1,2.49-.57,23.34,23.34,0,0,1,2.5-.44c.85-.08,1.68-.23,2.52-.27l1.76-.09a8.68,8.68,0,0,0-1.57-1.47l2.18-3.08a13.48,13.48,0,0,1,4,4.6l1.27.12c.84.1,1.69.12,2.53.25s1.69.29,2.54.41c.42.06.85.1,1.27.19l1.27.3,2.55.54c1.24.31,2.47.67,3.74,1,.15-.66.29-1.33.39-2h0l1,2.27c-.48-.09-.95-.2-1.42-.31-.1.48-.22,1-.33,1.44-.29,1.13-.61,2.27-1,3.38a22.29,22.29,0,0,1-3.12,6.34,22.93,22.93,0,0,0,4.81-5.51c.69-1,1.32-2.08,1.92-3.16s1.17-2.16,1.71-3.34h0l.62-1.28-1.65-1A53.13,53.13,0,0,0,315.67,199.41Z"/><path d="M318.14,203.3h0c-.1.63-.24,1.3-.39,2,.47.11.94.22,1.42.31Z"/><path d="M298.78,202.37l-.77,0a13.82,13.82,0,0,1,3,9c0,6.43-3.68,11.66-8.21,11.66s-8.2-5.23-8.2-11.66a15,15,0,0,1,1.58-6.82c-.78.26-1.56.55-2.34.85s-1.6.68-2.39,1.06a19.5,19.5,0,0,0-.63,4.91c0,8.51,5.38,15.43,12,15.43s12-6.92,12-15.43a18.66,18.66,0,0,0-2.21-8.91c-.42,0-.85-.05-1.27,0C300.47,202.43,299.62,202.37,298.78,202.37Z"/><path d="M298.62,197.87,296.44,201a8.68,8.68,0,0,1,1.57,1.47l.77,0c.84,0,1.69.06,2.53.06.42,0,.85,0,1.27,0A13.48,13.48,0,0,0,298.62,197.87Z"/><path d="M286.19,204.56a12,12,0,0,1,.61-1.05l-3.16-2.07a17.24,17.24,0,0,0-2.18,5c.79-.38,1.6-.74,2.39-1.06S285.41,204.82,286.19,204.56Z"/><path d="M218.81,201.83a27,27,0,0,0-2.76-1.05,28,28,0,0,0-2.85-.79c-1-.18-1.92-.47-2.9-.57l-3-.31c-1-.05-2,0-2.95,0-.49,0-1,0-1.48,0l-1.46.16c-1,.11-2,.19-2.92.38s-1.9.43-2.85.67c-.47.12-.94.22-1.41.37l-1.37.48-2.7,1a49.11,49.11,0,0,0-5.06,2.72l-1.64,1,.61,1.27h0c.54,1.19,1.11,2.25,1.71,3.34s1.24,2.14,1.92,3.17a23.39,23.39,0,0,0,4.82,5.51,22.08,22.08,0,0,1-3.12-6.35c-.38-1.11-.7-2.24-1-3.38-.12-.47-.23-.95-.34-1.43-.47.11-.94.22-1.42.31l1-2.27h0c.11.63.24,1.29.39,2,1.27-.31,2.5-.68,3.74-1l2.56-.54,1.26-.31c.42-.08.85-.12,1.28-.19.85-.12,1.69-.26,2.53-.41s1.7-.14,2.54-.24l1.27-.13a13.56,13.56,0,0,1,4-4.6l2.18,3.08a8.7,8.7,0,0,0-1.57,1.47l1.75.1c.85,0,1.68.19,2.52.27a23.34,23.34,0,0,1,2.5.44,23.05,23.05,0,0,1,2.49.57c.86.22,1.71.48,2.55.76-.19-.36-.38-.71-.6-1.05l3.15-2.06a16.61,16.61,0,0,1,2.18,5c.78.37,1.54.76,2.25,1.16l.15.09a1.31,1.31,0,0,0,1.49-.16,1.29,1.29,0,0,0,.11-1.83A26.67,26.67,0,0,0,218.81,201.83Z"/><path d="M187.73,206.09l-1,2.27c.48-.09,1-.2,1.42-.31-.15-.67-.28-1.33-.39-2Z"/><path d="M219.68,207.34a14.9,14.9,0,0,1,1.59,6.82c0,6.43-3.68,11.66-8.21,11.66s-8.2-5.23-8.2-11.66a13.81,13.81,0,0,1,3-9l-.77,0c-.85,0-1.69.05-2.54.05-.42,0-.84,0-1.26,0a18.58,18.58,0,0,0-2.22,8.91c0,8.51,5.38,15.43,12,15.43s12-6.92,12-15.43a19.42,19.42,0,0,0-.63-4.9c-.79-.38-1.6-.74-2.39-1.07S220.46,207.61,219.68,207.34Z"/><path d="M207.1,205.16l.77,0a8.7,8.7,0,0,1,1.57-1.47l-2.18-3.08a13.56,13.56,0,0,0-4,4.6c.42,0,.84-.05,1.26,0C205.41,205.21,206.25,205.15,207.1,205.16Z"/><path d="M219.08,206.29c.22.34.41.69.6,1.05.78.27,1.56.55,2.34.85s1.6.69,2.39,1.07a16.61,16.61,0,0,0-2.18-5Z"/><path d="M213.54,294.07v5.06a177.72,177.72,0,0,0,27,18.31A35.54,35.54,0,0,0,257.83,322a35,35,0,0,0,19.48-5.92,157.85,157.85,0,0,0,23.21-18.94l-.66-4.79,4.67-.64.15,1.13a130.22,130.22,0,0,0,32.05-59.26c-.41,0-.82.08-1.24.08l-.8,0,.27-4.71a9.64,9.64,0,0,0,2.83-.3A140.38,140.38,0,0,0,340.14,196c-.25.23-.48.45-.69.67l-.64-.6a12.65,12.65,0,0,0-.89,6c.65,10.27-6.36,41.1-6.36,41.1s.54-4.67.76-11.56c-9.61,42.07-38.46,67.66-57.63,80.48a30.47,30.47,0,0,1-31.89,1.19c-41.39-23.08-58.29-51.8-65.1-73.11.3,3.19.76,6.69,1.43,10.6,0,0-1.33-3.54-3.3-9.46l-.4,2.87c-.49-.07-1-.17-1.46-.28,5.24,15.21,15.39,33.61,34.85,51.12v-1Z"/><path d="M171.91,237.28c.1.36.21.72.31,1.09a14.68,14.68,0,0,0,2.95,1c-2-6-4.44-14-6.83-23.06A108.36,108.36,0,0,0,171.91,237.28Z"/><path d="M175.83,241.35q-.33-.94-.66-2a14.68,14.68,0,0,1-2.95-1q.76,2.7,1.75,5.57c.48.11,1,.21,1.46.28Z"/><path d="M338.81,196.08l.64.6c.21-.22.44-.44.69-.67,0-.63-.05-1.27-.08-1.9A7.92,7.92,0,0,0,338.81,196.08Z"/><path d="M335,228.9l-.27,4.71.8,0c.42,0,.83,0,1.24-.08q.58-2.43,1.06-5A9.64,9.64,0,0,1,335,228.9Z"/><path d="M316.52,128l.06,0C316.52,128,316.48,127.93,316.52,128Z"/><path d="M168.37,202a60.82,60.82,0,0,1,1.13-8.32l2.3.53,2.29.53h0c-.06.3-4,18.17,2.44,41.52q.53,1.92,1.17,3.93c-1.86-19.77,2.68-26.63,3.29-32.34.71-6.64-2.66-32.67-2.66-32.67,8.32-8.86,11.86-24.26,11.86-24.26a23.5,23.5,0,0,1-4.26,19.65c14.14-6,8.87-25.32,8.87-25.32,24.43-13.1,51.7,1.77,51.7,1.77,25.85-23,53.47-4.42,53.47-4.42,1.59,21.95,13.28,21.95,13.28,21.95a29.51,29.51,0,0,1-7.79-13.63c6,11,21.24,20.82,21.24,20.82-1.06,25.24,3.55,30.17,3.55,30.17,2.1,10.35,2.32,21.58,2.07,29.72a135.52,135.52,0,0,0,2.85-40.14l3.32-.24a11.49,11.49,0,0,1,6.68-2.4h0c.24,0,.48,0,.73,0,1.5-7.54,2-22.58,2-22.58l1.77,3.53c4.78-17.37-7.61-33.8-7.61-33.8,14.52-9,7.79-17.53,7.79-17.53s4.25,0,2.83-6.55-11.68-9-11.68-9c-5.32-12.4-17.53-16.47-17.53-16.47l4-8.76C320.33,70.82,299.14,69,299.14,69c-23.84-31.34-66.81-3.72-66.81-3.72l5.14-6.37c-31.34,3.9-50.29,35.06-50.29,35.06a78,78,0,0,1,21.25-30.1c-33.82,15.76-34.17,53.47-34.17,53.47C145.4,130.22,155,158.64,155,158.64a45,45,0,0,1,10.31-27c-9,16.14-6,44.64-.55,69.72A11.14,11.14,0,0,1,168.37,202Zm15.51-59a12.05,12.05,0,0,1-.29,2.17,11.27,11.27,0,0,1-.69,2.08,8,8,0,0,1-1.2,2,7.64,7.64,0,0,1-.24-2.29,12,12,0,0,1,1-4.25,7.82,7.82,0,0,1,1.21-2A7.33,7.33,0,0,1,183.88,143.05ZM335,136.71a33.74,33.74,0,0,1,3.29-1.35,24.65,24.65,0,0,1-4.76,5.31,34.3,34.3,0,0,1-5.84,4,33.63,33.63,0,0,1-6.59,2.65,20,20,0,0,1-7.11.79c2.05-1.28,4-2.41,6-3.53s3.93-2.18,5.91-3.24,4-2.1,6-3.14C332.89,137.72,333.89,137.17,335,136.71Zm-9.42-25.13a8.29,8.29,0,0,1,2.77.44,4.77,4.77,0,0,1,1.57.9,3.88,3.88,0,0,1,1.16,1.73,3.69,3.69,0,0,1,0,2.21,6.89,6.89,0,0,1-.35.83c-.13.22-.27.46-.41.67a12.08,12.08,0,0,1-1.81,1.93,33,33,0,0,1-3.77,2.74l-3.77,2.35a36.3,36.3,0,0,0-3.45,2.34c-.12.1-.24.2-.33.29l0,0h0a14.9,14.9,0,0,0,4-.91c2.76-.89,5.47-2.07,8.23-3.19a50.47,50.47,0,0,1-7.51,4.9,16.46,16.46,0,0,1-4.46,1.66,3.54,3.54,0,0,1-1.58,0,2.32,2.32,0,0,1-1.72-1.69,2.44,2.44,0,0,1,.08-1.31,3.4,3.4,0,0,1,.41-.81,4.12,4.12,0,0,1,.44-.59,5.45,5.45,0,0,1,.45-.49,26.55,26.55,0,0,1,3.63-3l3.61-2.55A37.22,37.22,0,0,0,326,117.5a7.5,7.5,0,0,0,1.21-1.3l.17-.27c0-.06.05-.11.07-.16l-.05-.06a1,1,0,0,0-.35-.17.86.86,0,0,0-.31-.1l-.37-.07a8.43,8.43,0,0,0-.9-.07,22,22,0,0,0-4,.31c-2.8.39-5.62,1.12-8.46,1.8-5.65,1.46-11.31,3.14-17.05,4.67a100.61,100.61,0,0,1,16.19-7.47,62,62,0,0,1,8.71-2.51A22.59,22.59,0,0,1,325.55,111.58Zm-13.64-10.42c.78.07,1.56.22,2.34.34l1.15.22a11.22,11.22,0,0,1,1.13.33c.75.24,1.49.48,2.21.77-3.12.39-6,.61-8.93,1.21a82,82,0,0,0-8.49,2.06c-2.79.84-5.57,1.78-8.36,2.81l-8.48,3.22a29.18,29.18,0,0,1,7.2-5.89,38.3,38.3,0,0,1,8.57-3.75,32.5,32.5,0,0,1,9.3-1.41C310.34,101.09,311.13,101.12,311.91,101.16ZM266.34,86.37c1.06-.65,2.14-1.26,3.21-1.89l1.62-.93,1.68-.83c1.12-.55,2.23-1.11,3.37-1.63l3.48-1.39c.58-.23,1.15-.48,1.75-.68l1.79-.57,3.58-1.12,8.74-2.74-7.19,5.87c-2.76,2.25-5.53,4.54-8.24,6.88s-5.36,4.74-8,7.16-5.18,4.9-7.56,7.5c-.51.56-1,1.13-1.5,1.7,1.52-1,3.05-1.89,4.61-2.8,3.93-2.3,7.88-4.55,12-6.58a118.21,118.21,0,0,1,12.51-5.53c4.26-1.55,8.73-2.92,13.29-3-4.51.59-8.69,2.38-12.77,4.23-2,.94-4,2-6,3s-3.95,2.14-5.89,3.28c-3.88,2.28-7.72,4.63-11.49,7.09s-7.54,4.94-11.18,7.54l-4.3,3.08,1.66-5a19.54,19.54,0,0,1,2.86-5.24,55.72,55.72,0,0,1,3.55-4.31c2.46-2.73,5.06-5.3,7.7-7.79s5.39-4.87,8.15-7.22l1.17-1c-1.59.6-3.15,1.25-4.68,2l-1.65.73-1.6.83c-1.06.56-2.13,1.1-3.19,1.68-2,1.24-4.14,2.45-6.12,3.83a100.18,100.18,0,0,0-11.43,8.94,97.94,97.94,0,0,0-10.11,10.55,65.83,65.83,0,0,1,4.26-6c.76-1,1.57-1.9,2.35-2.85l2.48-2.74a87.87,87.87,0,0,1,11-9.9C262.16,89.07,264.27,87.76,266.34,86.37ZM217.65,104q2.46-5.39,5.39-10.55a90.85,90.85,0,0,1,6.56-10c2.51-3.14,5.21-6.24,9-8.48l4-2.37-1.47,4.51-2.6,8c-.88,2.66-1.73,5.33-2.63,8l-1.42,4.17a91.69,91.69,0,0,1,6.18-7.18,60.93,60.93,0,0,1,8.24-7.31,29.59,29.59,0,0,1,9.79-4.88,33.38,33.38,0,0,0-8.92,6,72.14,72.14,0,0,0-7.35,7.79c-2.25,2.78-4.42,5.63-6.42,8.6s-4,6-5.69,9.05l-8,14.34,4.88-15.75c.83-2.67,1.69-5.34,2.57-8l2.61-8c.86-2.66,1.79-5.3,2.68-8l.88-2.58a48.42,48.42,0,0,0-3.86,4.1,95.3,95.3,0,0,0-6.92,9.29C223,98,221,101.3,219,104.66s-3.92,6.78-5.78,10.25Q215.15,109.35,217.65,104ZM197.9,126.69a8.15,8.15,0,0,1,2.39-.18,8.19,8.19,0,0,1-1.83,1.54,11.4,11.4,0,0,1-2,1,12.53,12.53,0,0,1-2.18.68,8.08,8.08,0,0,1-2.38.18,8.24,8.24,0,0,1,1.82-1.55,12.59,12.59,0,0,1,4.2-1.72Zm-8-5.33a11,11,0,0,1,1.22-1.78,10.54,10.54,0,0,1,1.53-1.53,7.36,7.36,0,0,1,1.94-1.19,7.52,7.52,0,0,1-.8,2.13,11.77,11.77,0,0,1-2.74,3.32,7.88,7.88,0,0,1-2,1.19A7.47,7.47,0,0,1,189.93,121.36Zm-4.22-6.68a15.36,15.36,0,0,1,1.12-3.22,10.27,10.27,0,0,1,1.95-2.84c-.29,2.3-.76,4.37-1.23,6.48-.23,1.05-.5,2.09-.76,3.15a31,31,0,0,1-1,3.21A13.32,13.32,0,0,1,185.71,114.68Zm-5.46,8.82a9.18,9.18,0,0,0,.52,2.37,13.39,13.39,0,0,0,.93,2.16,19.42,19.42,0,0,0,2.7,3.8c.49.62,1.08,1.15,1.61,1.74s1.17,1.08,1.73,1.66,1.21,1.09,1.82,1.63,1.25,1.07,1.85,1.69c-.81-.26-1.58-.59-2.36-.92s-1.48-.79-2.21-1.23-1.38-1-2-1.52a17.28,17.28,0,0,1-1.82-1.81,12.76,12.76,0,0,1-2.63-4.47c-.13-.42-.25-.84-.34-1.27a11.5,11.5,0,0,1-.15-1.3A5.85,5.85,0,0,1,180.25,123.5ZM179,140.3a6.19,6.19,0,0,1-.76,1.44,6.28,6.28,0,0,1-1.1,1.21,4.78,4.78,0,0,1-1.53.91,4.75,4.75,0,0,1,.32-1.75,6.44,6.44,0,0,1,.76-1.45,6.62,6.62,0,0,1,1.1-1.21,4.54,4.54,0,0,1,1.54-.9A4.78,4.78,0,0,1,179,140.3Zm-6.14-4.72a8.45,8.45,0,0,1,3.09-2,5.79,5.79,0,0,1,2-.39,5.85,5.85,0,0,1-1.14,1.63,8.13,8.13,0,0,1-1.44,1.19,9,9,0,0,1-1.66.85,6,6,0,0,1-2,.4A5.87,5.87,0,0,1,172.84,135.58Z"/><path d="M168.12,207.06a8.55,8.55,0,0,0-2.31-.89c.81,3.49,1.67,6.88,2.53,10.14C168.1,212.91,168.06,209.8,168.12,207.06Z"/><path d="M168.12,207.06c0-1.85.13-3.54.25-5a11.14,11.14,0,0,0-3.65-.66c.36,1.62.72,3.22,1.09,4.81A8.55,8.55,0,0,1,168.12,207.06Z"/><path d="M345.17,188.87a11.49,11.49,0,0,0-6.68,2.4l1.38-.1c.08,1,.13,2,.19,2.94a8.26,8.26,0,0,1,5.27-2.77,21.73,21.73,0,0,0,.61-2.42c-.25,0-.49,0-.73,0Z"/><path d="M338.49,191.27l-3.32.24a135.52,135.52,0,0,1-2.85,40.14c-.22,6.89-.76,11.56-.76,11.56s7-30.83,6.36-41.1a12.65,12.65,0,0,1,.89-6L336,193.43A18.66,18.66,0,0,1,338.49,191.27Z"/><polygon points="174.09 194.76 171.8 194.23 174.09 194.76 174.09 194.76"/><path d="M174.09,194.76l-2.29-.53-2.3-.53a60.82,60.82,0,0,0-1.13,8.32,15.57,15.57,0,0,1,3.48,1.79l-2.63,3.91a11.85,11.85,0,0,0-1.1-.66c-.06,2.74,0,5.85.22,9.25,2.39,9,4.86,17,6.83,23.06.3.07.6.13.9.17l-.24,1.81c2,5.92,3.3,9.46,3.3,9.46-.67-3.91-1.13-7.41-1.43-10.6q-.64-2-1.17-3.93C170.09,212.93,174,195.06,174.09,194.76Z"/><path d="M175.17,239.37q.33,1,.66,2l.24-1.81C175.77,239.5,175.47,239.44,175.17,239.37Z"/><path d="M171.85,203.81a15.57,15.57,0,0,0-3.48-1.79c-.12,1.5-.21,3.19-.25,5a11.85,11.85,0,0,1,1.1.66Z"/><path d="M339.87,191.17l-1.38.1a18.66,18.66,0,0,0-2.46,2.16l2.78,2.65a7.92,7.92,0,0,1,1.25-2C340,193.14,340,192.16,339.87,191.17Z"/><path d="M300.52,297.11l3.09,22.49c1.56-2.71,2.38-4.44,2.38-4.44s.67.58,2,1.51l-3.29-23.86Q302.61,295,300.52,297.11Z"/><path d="M299.86,292.32l.66,4.79q2.09-2.07,4.16-4.3l-.15-1.13Z"/><path d="M213.54,318.44V299.13c-1.63-1.35-3.2-2.7-4.72-4.07V313.2l2.36-1.23S211.94,314.55,213.54,318.44Z"/><path d="M213.54,294.07h-4.72v1c1.52,1.37,3.09,2.72,4.72,4.07Z"/><path class="cls-6" d="M89.5,492.63c.07.9.45,5.29,1,12.06,20.08,9.15,42.35,6.21,42.35,6.21V634.27h253l.91-119.66c17.93,3.39,31.68.35,41.85-4.77.54-6.37.93-10.16.95-10.34l4.69.49c0,.15-.27,2.67-.66,7a56,56,0,0,0,19-20c-8-12.74-6.9-54.18-12.75-98.26s-46.47-58.7-81-58.17c-28,.43-45.29-9.93-50.87-13.89l.36,2.59-4.68.65,0-.31c-5.94,10.33-22.84,35.13-48.08,35.13-24.05,0-37.05-24.34-42-36.29v3.36h-4.72v-8.6l-12.25,6.39c-108,10.26-122.7,53.2-121.11,86.67S67,483.71,67,483.71a49.43,49.43,0,0,0,18.58,18.45c-.44-5.58-.72-8.92-.74-9.12ZM397.47,367a68.23,68.23,0,0,1,2.19-9,43.25,43.25,0,0,1,3.7-8.64,55.09,55.09,0,0,1-.08,9.36c-.25,3.06-.65,6.08-1.16,9.07s-1.13,6-1.84,8.92-1.53,5.87-2.41,8.95a27.5,27.5,0,0,1-1.28-9.39A59.52,59.52,0,0,1,397.47,367ZM384.93,472.59c.62-6.54,1.61-13,2.86-19.48A146.13,146.13,0,0,1,392.74,434c-.23,6.6-.75,13.1-1.29,19.6s-1.22,13-1.83,19.42-1.28,12.91-1.81,19.37-1,12.93-1.45,19.52a94,94,0,0,1-2.26-19.64A170.51,170.51,0,0,1,384.93,472.59ZM281.43,367.7c24.4-10.31,32.58-36.49,32.66-36.76a2.36,2.36,0,0,1,4.51,1.37c-.34,1.16-8.85,28.54-35.33,39.73a2.3,2.3,0,0,1-.92.19,2.36,2.36,0,0,1-.92-4.53ZM237,370.62c4.34-8.11,10-12.76,16.8-13.83,12.33-1.94,23.63,8.8,24.1,9.26l.95.91-7.4,34.22.26,20.67c6.3,12.12,3.82,35.95,3.71,37l-.16,1.53-1.48.47a66.31,66.31,0,0,1-17.93,2.67c-5.74,0-11.9-1-16.94-4-5.36-3.28-8.68-8.45-9.86-15.36-1.3-7.66.17-14,4.36-18.79,6.82-7.81,18.87-9.2,24-9.43v-7.33c-4.79-1.51-17.74-6.49-22.39-17C232.25,385.26,232.91,378.22,237,370.62Zm-40.2-43.85a2.36,2.36,0,0,1,3.05,1.35c.12.31,11.89,30.4,30.8,40.74a2.36,2.36,0,0,1-1.13,4.43,2.32,2.32,0,0,1-1.13-.29c-20.44-11.17-32.44-41.88-32.94-43.18A2.36,2.36,0,0,1,196.78,326.77ZM132.11,448.18c1.25,6.44,2.24,12.93,2.86,19.48a170.42,170.42,0,0,1,.83,19.71A94,94,0,0,1,133.54,507c-.41-6.59-.89-13-1.45-19.51s-1.22-12.92-1.81-19.38-1.27-12.92-1.83-19.42-1.06-13-1.29-19.59A145.31,145.31,0,0,1,132.11,448.18ZM116.54,344.46a43.84,43.84,0,0,1,3.7,8.64,68.23,68.23,0,0,1,2.19,9,59.63,59.63,0,0,1,.88,9.27,27.47,27.47,0,0,1-1.28,9.39c-.88-3.08-1.68-6-2.41-8.94s-1.32-5.93-1.84-8.92-.91-6-1.16-9.08A55.07,55.07,0,0,1,116.54,344.46Z"/><path d="M260.36,404.5l1.77.45v15.69l-2.44-.08h-.37c-2.42,0-15.85.35-22.39,7.86-3.21,3.69-4.31,8.7-3.26,14.89.95,5.58,3.46,9.54,7.66,12.12,9.49,5.81,24.71,2.56,29.51,1.31.44-5.52,1.47-24.1-3.57-33.13l-.29-.53-.28-22.37,6.94-32.11c-2.75-2.31-10.95-8.45-19.15-7.15-5.26.83-9.76,4.67-13.36,11.39-3.35,6.26-3.95,11.9-1.81,16.77C244,400.25,260.19,404.46,260.36,404.5Zm-11.2,45.81a32.51,32.51,0,0,1-4.91-3.23,33.31,33.31,0,0,1-4.29-4A21.65,21.65,0,0,1,236.5,438a21.36,21.36,0,0,1,5.75,2.18,33.93,33.93,0,0,1,4.92,3.23,33.18,33.18,0,0,1,4.29,4,21.39,21.39,0,0,1,3.45,5.09A21.36,21.36,0,0,1,249.16,450.31Zm2.65-9.47a33.18,33.18,0,0,1-4.92-3.24,33.89,33.89,0,0,1-4.28-4,21.45,21.45,0,0,1-3.46-5.08,21.63,21.63,0,0,1,5.74,2.18,34.24,34.24,0,0,1,9.21,7.25,21.72,21.72,0,0,1,3.46,5.09A21.68,21.68,0,0,1,251.81,440.84Zm1-70.65a34.24,34.24,0,0,1,9.21,7.25,21.39,21.39,0,0,1,3.45,5.09,21.68,21.68,0,0,1-5.75-2.17,34.48,34.48,0,0,1-9.2-7.27A21.45,21.45,0,0,1,247,368,21.7,21.7,0,0,1,252.78,370.19Zm-2.65,9.48a33.93,33.93,0,0,1,4.92,3.23,32.54,32.54,0,0,1,4.29,4A21.72,21.72,0,0,1,262.8,392a21.3,21.3,0,0,1-5.76-2.18,33,33,0,0,1-4.91-3.23,34,34,0,0,1-4.29-4,21.65,21.65,0,0,1-3.46-5.08A21.36,21.36,0,0,1,250.13,379.67Z"/><path d="M303.61,319.6l0,.31,4.68-.65-.36-2.59c-1.31-.93-2-1.51-2-1.51S305.17,316.89,303.61,319.6Z"/><path d="M213.54,321.8v-3.36c-1.6-3.89-2.36-6.47-2.36-6.47l-2.36,1.23v8.6Z"/><path d="M429.53,499.5c0,.18-.41,4-.95,10.34a53.58,53.58,0,0,0,5-2.84c.39-4.34.65-6.86.66-7Z"/><path d="M89.5,492.63l-4.7.41c0,.2.3,3.54.74,9.12q2.43,1.39,4.94,2.53C90,497.92,89.57,493.53,89.5,492.63Z"/><path class="cls-5" d="M237.76,76l-1.83,5.37a21.51,21.51,0,0,1,4.39-3.24Z"/><path class="cls-5" d="M227.33,107.54l3.15,1.41c.94-2.64,1.86-5.28,2.75-7.94l1.28-3.78c-.31.41-.63.8-.94,1.21A103.63,103.63,0,0,0,227.33,107.54Z"/><path class="cls-5" d="M225.15,94.73a95.3,95.3,0,0,1,6.92-9.29,48.42,48.42,0,0,1,3.86-4.1L237.76,76l2.56,2.13a21.51,21.51,0,0,0-4.39,3.24l-.88,2.58c-.89,2.65-1.82,5.29-2.68,8l-2.61,8c-.88,2.65-1.74,5.32-2.57,8l-4.88,15.75,8-14.34c1.72-3.06,3.71-6.08,5.69-9.05s4.17-5.82,6.42-8.6a72.14,72.14,0,0,1,7.35-7.79,33.38,33.38,0,0,1,8.92-6,29.59,29.59,0,0,0-9.79,4.88,60.93,60.93,0,0,0-8.24,7.31,91.69,91.69,0,0,0-6.18,7.18L233.23,101c-.89,2.66-1.81,5.3-2.75,7.94l-3.15-1.41a103.63,103.63,0,0,1,6.24-9.1c.31-.41.63-.8.94-1.21l1.42-4.17c.9-2.65,1.75-5.32,2.63-8l2.6-8,1.47-4.51-4,2.37c-3.79,2.24-6.49,5.34-9,8.48a90.85,90.85,0,0,0-6.56,10q-2.92,5.17-5.39,10.55t-4.48,10.93C215,111.44,217,108,219,104.66S223,98,225.15,94.73Z"/><path class="cls-5" d="M286.16,77.65c-2.48,1.92-4.87,3.91-7.26,5.91,2.89-1.08,5.85-2,8.81-2.78Z"/><path class="cls-5" d="M258.77,110.11a16.85,16.85,0,0,1,2.46-4.12c.58-.77,1.21-1.53,1.86-2.29-2.34,1.46-4.65,2.94-7,4.48Z"/><path class="cls-5" d="M249.21,100.53l-2.48,2.74c-.78,1-1.59,1.88-2.35,2.85a65.83,65.83,0,0,0-4.26,6,97.94,97.94,0,0,1,10.11-10.55,100.18,100.18,0,0,1,11.43-8.94c2-1.38,4.07-2.59,6.12-3.83,1.06-.58,2.13-1.12,3.19-1.68l1.6-.83,1.65-.73c1.53-.75,3.09-1.4,4.68-2,2.39-2,4.78-4,7.26-5.91l1.55,3.13c-3,.82-5.92,1.7-8.81,2.78l-1.17,1c-2.76,2.35-5.5,4.73-8.15,7.22s-5.24,5.06-7.7,7.79a55.72,55.72,0,0,0-3.55,4.31,19.54,19.54,0,0,0-2.86,5.24l-1.66,5,4.3-3.08c3.64-2.6,7.42-5.07,11.18-7.54s7.61-4.81,11.49-7.09c1.94-1.14,3.9-2.24,5.89-3.28s4-2.1,6-3c4.08-1.85,8.26-3.64,12.77-4.23-4.56,0-9,1.41-13.29,3a118.21,118.21,0,0,0-12.51,5.53c-4.08,2-8,4.28-12,6.58-1.56.91-3.09,1.85-4.61,2.8-.65.76-1.28,1.52-1.86,2.29a16.85,16.85,0,0,0-2.46,4.12l-2.64-1.93c2.31-1.54,4.62-3,7-4.48.49-.57,1-1.14,1.5-1.7,2.38-2.6,4.94-5.08,7.56-7.5s5.27-4.83,8-7.16,5.48-4.63,8.24-6.88l7.19-5.87-8.74,2.74-3.58,1.12-1.79.57c-.6.2-1.17.45-1.75.68l-3.48,1.39c-1.14.52-2.25,1.08-3.37,1.63l-1.68.83-1.62.93c-1.07.63-2.15,1.24-3.21,1.89-2.07,1.39-4.18,2.7-6.11,4.26A87.87,87.87,0,0,0,249.21,100.53Z"/><path class="cls-5" d="M291.68,106.23a29.18,29.18,0,0,0-7.2,5.89L293,108.9c2.79-1,5.57-2,8.36-2.81a82,82,0,0,1,8.49-2.06c2.89-.6,5.81-.82,8.93-1.21-.72-.29-1.46-.53-2.21-.77a11.22,11.22,0,0,0-1.13-.33l-1.15-.22c-.78-.12-1.56-.27-2.34-.34s-1.57-.07-2.36-.09a32.5,32.5,0,0,0-9.3,1.41A38.3,38.3,0,0,0,291.68,106.23Z"/><path class="cls-5" d="M327.45,115.78c0-.07,0-.11,0,0s0,0,0,0S327.48,115.83,327.45,115.78Z"/><path class="cls-5" d="M316.73,128.2c0,.16,0,.2,0,.23s0-.06.14-.15a2.19,2.19,0,0,1,.22-.24,1.85,1.85,0,0,1-.53,0A.34.34,0,0,1,316.73,128.2Z"/><path class="cls-5" d="M295.9,122.08c5.74-1.53,11.4-3.21,17.05-4.67,2.84-.68,5.66-1.41,8.46-1.8a22,22,0,0,1,4-.31,8.43,8.43,0,0,1,.9.07l.37.07a.86.86,0,0,1,.31.1,1,1,0,0,1,.35.17l.05.06s0,0,0,0,0,0,0,0,0,0,0,0-.05.1-.07.16l-.17.27a7.5,7.5,0,0,1-1.21,1.3,37.22,37.22,0,0,1-3.29,2.58l-3.61,2.55a26.55,26.55,0,0,0-3.63,3,5.45,5.45,0,0,0-.45.49,4.12,4.12,0,0,0-.44.59,3.4,3.4,0,0,0-.41.81,2.44,2.44,0,0,0-.08,1.31,2.32,2.32,0,0,0,1.72,1.69,3.54,3.54,0,0,0,1.58,0,16.46,16.46,0,0,0,4.46-1.66,50.47,50.47,0,0,0,7.51-4.9c-2.76,1.12-5.47,2.3-8.23,3.19a14.9,14.9,0,0,1-4,.91h0a2.19,2.19,0,0,0-.22.24c-.1.09-.09.11-.14.15s0-.07,0-.23a.34.34,0,0,0-.15-.21l-.06,0s0,0,.06,0a1.85,1.85,0,0,0,.53,0l0,0c.09-.09.21-.19.33-.29a36.3,36.3,0,0,1,3.45-2.34l3.77-2.35a33,33,0,0,0,3.77-2.74,12.08,12.08,0,0,0,1.81-1.93c.14-.21.28-.45.41-.67a6.89,6.89,0,0,0,.35-.83,3.69,3.69,0,0,0,0-2.21,3.88,3.88,0,0,0-1.16-1.73,4.77,4.77,0,0,0-1.57-.9,8.29,8.29,0,0,0-2.77-.44,22.59,22.59,0,0,0-4.75.52,62,62,0,0,0-8.71,2.51A100.61,100.61,0,0,0,295.9,122.08Z"/><path class="cls-5" d="M320,144.58c-2,1.12-3.95,2.25-6,3.53a20,20,0,0,0,7.11-.79,33.63,33.63,0,0,0,6.59-2.65,34.3,34.3,0,0,0,5.84-4,24.65,24.65,0,0,0,4.76-5.31,33.74,33.74,0,0,0-3.29,1.35c-1.08.46-2.08,1-3.11,1.49-2,1-4,2.05-6,3.14S321.93,143.48,320,144.58Z"/><path class="cls-5" d="M180.35,128.6a12.76,12.76,0,0,0,2.63,4.47,17.28,17.28,0,0,0,1.82,1.81c.66.54,1.34,1.05,2,1.52s1.46.86,2.21,1.23,1.55.66,2.36.92c-.6-.62-1.23-1.15-1.85-1.69s-1.2-1.11-1.82-1.63-1.18-1.09-1.73-1.66-1.12-1.12-1.61-1.74a19.42,19.42,0,0,1-2.7-3.8,13.39,13.39,0,0,1-.93-2.16,9.18,9.18,0,0,1-.52-2.37,5.85,5.85,0,0,0-.39,2.53,11.5,11.5,0,0,0,.15,1.3C180.1,127.76,180.22,128.18,180.35,128.6Z"/><path class="cls-5" d="M186.79,118.25c.26-1.06.53-2.1.76-3.15.47-2.11.94-4.18,1.23-6.48a10.27,10.27,0,0,0-1.95,2.84,15.36,15.36,0,0,0-1.12,3.22,13.32,13.32,0,0,0,.08,6.78A31,31,0,0,0,186.79,118.25Z"/><path class="cls-5" d="M191.88,130a8.08,8.08,0,0,0,2.38-.18,12.53,12.53,0,0,0,2.18-.68,11.4,11.4,0,0,0,2-1,8.19,8.19,0,0,0,1.83-1.54,8.15,8.15,0,0,0-2.39.18,12.59,12.59,0,0,0-4.2,1.72A8.24,8.24,0,0,0,191.88,130Z"/><path class="cls-5" d="M192.6,120.78a11.53,11.53,0,0,0,1.22-1.79,7.52,7.52,0,0,0,.8-2.13,7.36,7.36,0,0,0-1.94,1.19,10.54,10.54,0,0,0-1.53,1.53,11,11,0,0,0-1.22,1.78,7.47,7.47,0,0,0-.8,2.14,7.88,7.88,0,0,0,2-1.19A11.56,11.56,0,0,0,192.6,120.78Z"/><path class="cls-5" d="M175.31,136a8.13,8.13,0,0,0,1.44-1.19,5.85,5.85,0,0,0,1.14-1.63,5.79,5.79,0,0,0-2,.39,8.45,8.45,0,0,0-3.09,2,5.87,5.87,0,0,0-1.15,1.64,6,6,0,0,0,2-.4A9,9,0,0,0,175.31,136Z"/><path class="cls-5" d="M176.67,140.66a6.44,6.44,0,0,0-.76,1.45,4.75,4.75,0,0,0-.32,1.75,4.78,4.78,0,0,0,1.53-.91,6.28,6.28,0,0,0,1.1-1.21,6.19,6.19,0,0,0,.76-1.44,4.78,4.78,0,0,0,.33-1.75,4.54,4.54,0,0,0-1.54.9A6.62,6.62,0,0,0,176.67,140.66Z"/><path class="cls-5" d="M182.43,142.72a12,12,0,0,0-1,4.25,7.64,7.64,0,0,0,.24,2.29,8,8,0,0,0,1.2-2,11.27,11.27,0,0,0,.69-2.08,12.05,12.05,0,0,0,.29-2.17,7.33,7.33,0,0,0-.24-2.29A7.82,7.82,0,0,0,182.43,142.72Z"/><path class="cls-5" d="M257.42,408.55v7.33c-5.16.23-17.21,1.62-24,9.43-4.19,4.81-5.66,11.13-4.36,18.79,1.18,6.91,4.5,12.08,9.86,15.36,5,3.08,11.2,4,16.94,4a66.31,66.31,0,0,0,17.93-2.67l1.48-.47.16-1.53c.11-1,2.59-24.86-3.71-37l-.26-20.67,7.4-34.22-.95-.91c-.47-.46-11.77-11.2-24.1-9.26-6.8,1.07-12.46,5.72-16.8,13.83-4.07,7.6-4.73,14.64-1.95,20.91C239.68,402.06,252.63,407,257.42,408.55Zm-16.28-35.71c3.6-6.72,8.1-10.56,13.36-11.39,8.2-1.3,16.4,4.84,19.15,7.15l-6.94,32.11.28,22.37.29.53c5,9,4,27.61,3.57,33.13-4.8,1.25-20,4.5-29.51-1.31-4.2-2.58-6.71-6.54-7.66-12.12-1.05-6.19,0-11.2,3.26-14.89,6.54-7.51,20-7.86,22.39-7.86h.37l2.44.08V405l-1.77-.45c-.17,0-16.34-4.25-21-14.89C237.19,384.74,237.79,379.1,241.14,372.84Z"/><path class="cls-7" d="M282.35,372.23a2.3,2.3,0,0,0,.92-.19c26.48-11.19,35-38.57,35.33-39.73a2.36,2.36,0,0,0-4.51-1.37c-.08.27-8.26,26.45-32.66,36.76a2.36,2.36,0,0,0,.92,4.53Z"/><path class="cls-7" d="M228.37,373a2.32,2.32,0,0,0,1.13.29,2.36,2.36,0,0,0,1.13-4.43c-18.91-10.34-30.68-40.43-30.8-40.74a2.36,2.36,0,1,0-4.4,1.7C195.93,331.12,207.93,361.83,228.37,373Z"/><path class="cls-7" d="M117.78,362.9q.78,4.49,1.84,8.92c.73,3,1.53,5.86,2.41,8.94a27.47,27.47,0,0,0,1.28-9.39,59.63,59.63,0,0,0-.88-9.27,68.23,68.23,0,0,0-2.19-9,43.84,43.84,0,0,0-3.7-8.64,55.07,55.07,0,0,0,.08,9.36C116.87,356.88,117.27,359.9,117.78,362.9Z"/><path class="cls-7" d="M130.28,468.11c.59,6.46,1.28,12.91,1.81,19.38s1,12.92,1.45,19.51a94,94,0,0,0,2.26-19.63,170.42,170.42,0,0,0-.83-19.71c-.62-6.55-1.61-13-2.86-19.48a145.31,145.31,0,0,0-5-19.08c.23,6.59.75,13.1,1.29,19.59S129.67,461.65,130.28,468.11Z"/><path class="cls-7" d="M400.28,376.75q1.07-4.42,1.84-8.92c.51-3,.91-6,1.16-9.07a55.09,55.09,0,0,0,.08-9.36,43.25,43.25,0,0,0-3.7,8.64,68.23,68.23,0,0,0-2.19,9,59.52,59.52,0,0,0-.88,9.27,27.5,27.5,0,0,0,1.28,9.39C398.75,382.62,399.55,379.72,400.28,376.75Z"/><path class="cls-5" d="M386.36,511.94c.41-6.59.89-13.05,1.45-19.52s1.22-12.91,1.81-19.37,1.27-12.93,1.83-19.42,1.06-13,1.29-19.6a146.13,146.13,0,0,0-4.95,19.08c-1.25,6.45-2.24,12.94-2.86,19.48a170.51,170.51,0,0,0-.83,19.71A94,94,0,0,0,386.36,511.94Z"/><path class="cls-5" d="M254.78,377.12a33.35,33.35,0,0,0,4.91,3.24,21.68,21.68,0,0,0,5.75,2.17,21.39,21.39,0,0,0-3.45-5.09,34.24,34.24,0,0,0-9.21-7.25A21.7,21.7,0,0,0,247,368a21.45,21.45,0,0,0,3.46,5.08A33.31,33.31,0,0,0,254.78,377.12Z"/><path class="cls-5" d="M252.13,386.6a33,33,0,0,0,4.91,3.23A21.3,21.3,0,0,0,262.8,392a21.72,21.72,0,0,0-3.46-5.09,32.54,32.54,0,0,0-4.29-4,33.93,33.93,0,0,0-4.92-3.23,21.36,21.36,0,0,0-5.75-2.18,21.65,21.65,0,0,0,3.46,5.08A34,34,0,0,0,252.13,386.6Z"/><path class="cls-5" d="M249.81,433.9a33.39,33.39,0,0,0-4.92-3.23,21.63,21.63,0,0,0-5.74-2.18,21.45,21.45,0,0,0,3.46,5.08,33.89,33.89,0,0,0,4.28,4,33.18,33.18,0,0,0,4.92,3.24,21.68,21.68,0,0,0,5.75,2.17,21.72,21.72,0,0,0-3.46-5.09A33.23,33.23,0,0,0,249.81,433.9Z"/><path class="cls-5" d="M247.17,443.38a33.93,33.93,0,0,0-4.92-3.23A21.36,21.36,0,0,0,236.5,438a21.65,21.65,0,0,0,3.46,5.08,33.31,33.31,0,0,0,4.29,4,32.51,32.51,0,0,0,4.91,3.23,21.36,21.36,0,0,0,5.75,2.18,21.39,21.39,0,0,0-3.45-5.09A33.18,33.18,0,0,0,247.17,443.38Z"/><path d="M292.81,223c4.53,0,8.21-5.23,8.21-11.66a13.82,13.82,0,0,0-3-9l-1.76.09c-.84,0-1.67.19-2.52.27a23.34,23.34,0,0,0-2.5.44,24.19,24.19,0,0,0-2.49.57c-.85.22-1.7.48-2.55.77a15,15,0,0,0-1.58,6.82C284.61,217.81,288.29,223,292.81,223Z"/></g></g></g></svg>