<svg id="Layer_1" data-name="Layer 1" xmlns="http://www.w3.org/2000/svg" xmlns:xlink="http://www.w3.org/1999/xlink" viewBox="0 0 500 500"><defs><style>.cls-1{fill:#f4d9ce;}.cls-2{clip-path:url(#clip-path);}.cls-3{fill:#fff;}.cls-4{fill:#ffeadb;}.cls-5{clip-path:url(#clip-path-2);}.cls-6{fill:#ffbdab;}.cls-7{fill:#393f57;}</style><clipPath id="clip-path"><circle class="cls-1" cx="250" cy="-260" r="215.67"/></clipPath><clipPath id="clip-path-2"><circle class="cls-1" cx="250" cy="250" r="215.67"/></clipPath></defs><circle class="cls-1" cx="250" cy="-260" r="215.67"/><g class="cls-2"><path class="cls-3" d="M153-5.55a2.29,2.29,0,0,1-1.8,1.75,105.14,105.14,0,0,1-20,2A86.94,86.94,0,0,1,97.4-8.39c-.1,7.9,1,16.12,3.37,17.58,3.18,1.86,32.23,2.67,59.59,2.43-.28-4.42-.56-7.54-.72-9.13A78.17,78.17,0,0,1,153-5.55Z"/><path class="cls-4" d="M233.77-18.35a3.16,3.16,0,0,1-1.93.7,2.66,2.66,0,0,1-.92-.16c-3.83-1.35-4.86-7.41-5.86-13.27-.24-1.41-.54-3.16-.84-4.38-.59.54-1.27,1.21-1.84,1.77-4.34,4.28-11.61,11.45-19,6.91C193.26-33,206.15-56,208.84-60.56a2.28,2.28,0,0,1,3.13-.81,2.3,2.3,0,0,1,.81,3.14c-5.57,9.41-11.63,24.67-7,27.55,4,2.45,8.58-1.56,13.35-6.27,2.84-2.8,4.9-4.84,7.18-3.57,1.84,1,2.35,3.54,3.22,8.67.38,2.2,1.16,6.79,2.14,8.8,4.3-7.8,14.95-49.53,15.15-86.76,0-.76,0-1.51,0-2.24,0,0,0,0,0,0,0-1.91-.06-3.81-.13-5.69-4.26,11.36-11.07,29.65-13.39,36.69C229.58-69.69,213.63-64.56,213-64.34a2.33,2.33,0,0,1-.68.1,2.29,2.29,0,0,1-2.19-1.6,2.29,2.29,0,0,1,1.5-2.87c.14,0,14.39-4.65,17.41-13.82,2.85-8.65,12.35-34,15.79-43.09-2.85-.4-4.92-.89-5-.91-1.4-.41-2.32-1.78-2.9-3.67q-2.78,4.11-5.73,8.11c-3.19,4.31-6.52,8.52-10.09,12.59a77.55,77.55,0,0,1-5.75,5.88c-.54.47-1.09.92-1.68,1.37a10.6,10.6,0,0,1-2.11,1.26,3.89,3.89,0,0,1-1.87.34,2.61,2.61,0,0,1-1.42-.57,6.59,6.59,0,0,1-.63-.68,4.62,4.62,0,0,1-.75-3,9,9,0,0,1,.51-2.34,15.1,15.1,0,0,1,.83-2,34.2,34.2,0,0,1,2.09-3.6,56.59,56.59,0,0,1,5-6.38.48.48,0,0,1,.68,0,.48.48,0,0,1,.09.6h0a76.76,76.76,0,0,0-3.78,6.94,30.07,30.07,0,0,0-1.49,3.55,15.47,15.47,0,0,0-.5,1.75,5.76,5.76,0,0,0-.17,1.58,3.22,3.22,0,0,0,.05.38,9.07,9.07,0,0,0,1.05-.81c.44-.4.88-.83,1.31-1.28,1.74-1.82,3.41-3.85,5-5.91,3.26-4.11,6.37-8.4,9.5-12.66,3-4.07,6-8.15,9-12.19,0-2.32.09-4.68.26-6.72a35.19,35.19,0,0,0-16.21,11.56,61.31,61.31,0,0,1-18.6,15.64,16.42,16.42,0,0,1,1.14,10.12c-2.31,13.57,4.67,30,4.74,30.15l2.12,4.91-5-1.86c-.64-.23-15.85-5.92-25.81-14.87-5.84-5.25-5.78-12-5.73-17.47,0-4.88-.06-7.7-2.66-9-9.9-4.89-8.88-13.74-6.35-25.72.86-4.1-1.32-6.75-4.95-10.74-4-4.39-9-9.85-5.72-18.93a10.44,10.44,0,0,0,.27-3.57c-7.27,2-26,6.68-33.32,4.42a52,52,0,0,1-10.65-4.95c-3-1.7-5.56-3.16-7.88-3.41-2.48.34-15.89,8.58-28.57,25-11,14.17-23.52,37.44-21.08,67.84,2.21,27.47,13.06,49.33,31.38,63.23C101.26-8.13,125-3.37,150.32-8.3a2.27,2.27,0,0,1,.78,0,67.93,67.93,0,0,1-11.22-37.61c0-55.55,18.45-74.46,19.23-75.24a2.29,2.29,0,0,1,3.24,0,2.28,2.28,0,0,1,0,3.22c-.18.18-17.89,18.63-17.89,72,0,20.17,9,35,18.25,44.85A2.29,2.29,0,0,1,163.93.23a76.42,76.42,0,0,0,18.5,14.08,2.29,2.29,0,0,1-1,4.35,2.21,2.21,0,0,1-1-.23A76.21,76.21,0,0,1,164.65,7.34q.16,2.12.33,4.83a2.27,2.27,0,0,1,.19,3.24c1.35,25,2,78.74-11.5,134.06a2.3,2.3,0,0,1-.77,1.22H254.06L247.8-68.15C243.78-42.48,237.39-21.16,233.77-18.35ZM105.44-43a42,42,0,0,1-.5,5.66,20.32,20.32,0,0,1-.7,2.87,8.06,8.06,0,0,1-1.56,2.89,6.62,6.62,0,0,1-.74.65,4.14,4.14,0,0,1-1,.49,3.68,3.68,0,0,1-1.08.2h-.54l-.5-.09c-.16,0-.32-.06-.5-.12l-.55-.23a5.36,5.36,0,0,1-.82-.57,7.94,7.94,0,0,1-1.18-1.23,26.88,26.88,0,0,1-3-5.08A101,101,0,0,1,88.68-48c-1.22-3.53-2.33-7.09-3.36-10.66s-2-7.16-2.93-10.75c-1.85-7.2-3.49-14.42-4.9-21.72A1.84,1.84,0,0,1,79-93.33,1.85,1.85,0,0,1,81.07-92v0L86.45-70.5c1.84,7.13,3.73,14.25,5.87,21.26,1.09,3.49,2.24,7,3.6,10.29a27.63,27.63,0,0,0,2.35,4.61,6.19,6.19,0,0,0,.69.83,2.82,2.82,0,0,0,.29.25l.08,0,.17,0a1.09,1.09,0,0,0,1.22-.3,5.63,5.63,0,0,0,1.19-1.89,18.05,18.05,0,0,0,.82-2.45,46,46,0,0,0,1-5.33,108.45,108.45,0,0,0,.85-11,.15.15,0,0,1,.15-.13.14.14,0,0,1,.13.12c.24,1.84.39,3.69.49,5.55S105.5-44.88,105.44-43Zm22.69,13.05a.19.19,0,0,1-.22-.07c-1.33-1.93-2.61-3.89-3.87-5.86s-2.47-4-3.67-6c-1.05-1.76-2.09-3.52-3.09-5.31v18.09a1.83,1.83,0,0,1-1.83,1.83,1.83,1.83,0,0,1-1.83-1.83V-61.51l3.46,5.67a93.89,93.89,0,0,1,6.08,12.57c.9,2.16,1.79,4.32,2.64,6.49s1.67,4.37,2.44,6.59A.18.18,0,0,1,128.13-29.95Zm5.18-7a1.82,1.82,0,0,1-1.9-1.62c-.47-4.11-.8-8.23-1.09-12.36s-.47-8.26-.67-12.4-.39-8.26-.53-12.4-.28-8.28-.36-12.42a.55.55,0,0,1,.54-.55.52.52,0,0,1,.54.46q.87,6.16,1.61,12.32c.52,4.11,1,8.22,1.43,12.34s.93,8.22,1.3,12.34.69,8.25.88,12.38A1.83,1.83,0,0,1,133.31-36.93Z"/><path class="cls-3" d="M149.22,148.38C162.52,94,162,41.14,160.63,16.2c-2.57,0-6.06,0-10.11,0-10.93,0-25.82-.15-37-.86l4.21,133.47a2.31,2.31,0,0,1-.85,1.84H150A2.29,2.29,0,0,1,149.22,148.38Z"/><path class="cls-3" d="M373.09,29.55a139.3,139.3,0,0,1-14.47-.7c-.4,14.23-1.79,86.23,9.66,121.84h37L402.56,27.61A253.45,253.45,0,0,1,373.09,29.55Z"/><path class="cls-3" d="M374.85,9.09c-10,1.74-16.6.57-20.92-1.27A97.86,97.86,0,0,1,356,23.93c18.81,2.62,43.76-.44,53.84-1.91a4.12,4.12,0,0,0,3.5-4.45l-1.3-14C406.39,4.29,391,6.26,374.85,9.09Z"/><path class="cls-4" d="M354.05,28.25l-.58-.08-1.86-.31L351.55,26c-.19-6-1.25-15.94-3.29-21.11a96.22,96.22,0,0,1-7.39,6.82,2.32,2.32,0,0,1-1.46.53,2.26,2.26,0,0,1-1.76-.83,2.28,2.28,0,0,1,.29-3.22c24.46-20.31,33-46.61,25.39-78.17a130,130,0,0,0-19.14-42,2.27,2.27,0,0,1,.47-3.2,2.28,2.28,0,0,1,3.2.47,132.12,132.12,0,0,1,19.89,43.54c4.86,20,5.38,47.74-16,72.29,2.19,2.07,8.33,6,22.29,3.5C392.71,1.32,410.3-.81,413.4-1.18c9.28-5.44,18.87-22.12,26.37-45.91,6.47-20.52,9.85-42.24,8-51.65-2.61-13.49-18-34-30.35-50.43-4.91-6.54-9.55-12.72-12.63-17.48C398.12-177,393-175,388.05-172.93c-2.17.89-4.22,1.72-6.32,1.46-4.5-.56-30.05-3.4-38.77-4.36,1.79,13,2.59,22.52-5.56,30.22-3.7,3.49-3,7.56-1.49,13.92s3.21,13.74-2.44,20.88c-5.46,6.9-4.78,8.57-3.76,11.11a14.23,14.23,0,0,1,1.2,7.85c-.89,7.19-5.42,23.26-28,23.26-1.14,0-2.32,0-3.56-.12L294.89-69l2.86-3.44c0-.05,5-6.2,6.4-19.15.13-1.18.25-2.32.37-3.42.71-6.61,1.27-11.79,2.72-15.72-16.52-6.71-33.05-22.17-37.13-30.06-1.92-3.72-5.63-4.33-8.11-4.29a36.41,36.41,0,0,1,.72,9.22l11.36,16.48c3.95,5.66,7.89,11.33,12.09,16.73a68,68,0,0,0,6.66,7.57,14.35,14.35,0,0,0,1.78,1.42,3.26,3.26,0,0,0,.71.37,2.05,2.05,0,0,0,.41-1,7,7,0,0,0,0-2.15,25.1,25.1,0,0,0-1.1-4.78c-.52-1.6-1.12-3.19-1.77-4.77-1.3-3.17-2.82-6.28-4.41-9.32h0a.69.69,0,0,1,.28-.93.7.7,0,0,1,.89.23,97.69,97.69,0,0,1,5.31,9.07,53,53,0,0,1,2.2,4.84,27.16,27.16,0,0,1,1.58,5.25,10.42,10.42,0,0,1,.14,3,5.84,5.84,0,0,1-.47,1.72,4.66,4.66,0,0,1-1.26,1.63,3.69,3.69,0,0,1-.69.4,4.19,4.19,0,0,1-.76.18c-.22,0-.45,0-.67,0l-.56-.1a7.08,7.08,0,0,1-1.65-.67,16.48,16.48,0,0,1-2.38-1.7A71.07,71.07,0,0,1,283-100c-4.58-5.33-8.82-10.87-12.88-16.54-2.89-4.07-5.7-8.17-8.41-12.35-1.32,3-5.62,3.84-10.06,3.84h-.47c4.83,14.62,12.57,32.53,20.43,40.55,11.65,11.89,19.15,14.16,19.22,14.18a2.3,2.3,0,0,1,1.58,2.82,2.29,2.29,0,0,1-2.8,1.59c-.35-.1-8.61-2.47-21.27-15.39-6.84-7-12.79-19.48-16.88-29.67,0,26.66,18,74.94,24.78,89.57,0-.16.05-.32.07-.46.73-5.62,1.43-10.92,5.4-10.92,1.93,0,4.06,1.47,7,3.52,3.6,2.48,8.51,5.88,11.28,4.71,2-2.38-1.26-19.22-7.07-36.93a2.29,2.29,0,0,1,1.46-2.89,2.28,2.28,0,0,1,2.88,1.46c0,.1,3.09,9.42,5.34,19,4.35,18.47,2.12,22.25-.63,23.52-5.12,2.34-11.08-1.77-15.86-5.08a38.37,38.37,0,0,0-4-2.53,35.25,35.25,0,0,0-1.31,6.76c-.57,4.34-.88,6.73-2.63,7.72a2.44,2.44,0,0,1-1.17.31,2.45,2.45,0,0,1-1.27-.36c-3.14-1.86-12.4-27-16.14-38.25-2.19-6.56-5-15.65-7.48-25.32l6.52,227.9H363.48C352,113.11,353.64,41.59,354.05,28.25Zm60-64.33q.41-1.1.75-2.22c.24-.74.51-1.47.74-2.21.46-1.49.92-3,1.3-4.49.82-3,1.55-6,2.16-9.1a179.66,179.66,0,0,0,2.75-18.56c.6-6.25,1-12.54,1.13-18.91a85.27,85.27,0,0,1,1.72,19.07,102.67,102.67,0,0,1-2,19.13c-.32,1.58-.7,3.14-1.08,4.71s-.83,3.11-1.34,4.64a77,77,0,0,1-3.48,9,60.31,60.31,0,0,1-10.47,16.07A114.74,114.74,0,0,0,414.08-36.08ZM390.87-22.52l.27-6.8c.09-2.26.2-4.53.35-6.82s.35-4.61.75-7a24.52,24.52,0,0,1,2.12,6.87,35.41,35.41,0,0,1,.44,7.13,31.7,31.7,0,0,1-1.09,7.09,20.92,20.92,0,0,1-3,6.56C390.65-18,390.81-20.24,390.87-22.52Zm-17.19-2.15c.26-1.58.61-3.13,1-4.67s.82-3.05,1.27-4.55c.24-.76.48-1.51.66-2.2s.41-1.41.56-2.15c.7-2.91,1.15-5.95,1.62-9s.79-6.1,1.2-9.16c.73-6.14,1.41-12.3,2.26-18.49a137.49,137.49,0,0,1,.58,18.71c-.08,3.12-.31,6.24-.61,9.37a76.33,76.33,0,0,1-1.49,9.37c-.77,3.23-1.86,6-2.7,9a45.69,45.69,0,0,0-1.9,8.71,7.83,7.83,0,0,0,.07,2,1.71,1.71,0,0,0,.51,1.05c.05.05,0,0-.05,0s0,0,0,0h.06l.13,0a3.3,3.3,0,0,0,.73-.46,13.69,13.69,0,0,0,1.53-1.52,80.37,80.37,0,0,0,5.46-7.46,43.73,43.73,0,0,1-4,8.54,13.15,13.15,0,0,1-1.53,2,5.37,5.37,0,0,1-1.13.92l-.4.2c-.17,0-.32.1-.5.14a2.56,2.56,0,0,1-.62,0,2.71,2.71,0,0,1-.59-.16,3.25,3.25,0,0,1-1.43-1.16,4.66,4.66,0,0,1-.67-1.44,10.17,10.17,0,0,1-.36-2.66A24.62,24.62,0,0,1,373.68-24.67Z"/><path d="M254.1,152a2.28,2.28,0,0,0,2.28,2.22h.07a2.29,2.29,0,0,0,2.22-2.35l0-1.18h-4.58Z"/><path d="M250.08-85.87c-.6,6-1.38,12-2.28,17.72l6.26,218.84h4.58l-6.52-227.9C251.39-80.07,250.71-83,250.08-85.87Z"/><path d="M153-6.49a2.13,2.13,0,0,1,0,.94,78.17,78.17,0,0,0,6.65,8c-.07-.73-.11-1.14-.12-1.19a2.28,2.28,0,0,1,2-2.53,2.26,2.26,0,0,1,1.16.17c-9.24-9.88-18.24-24.68-18.25-44.85,0-53.37,17.71-71.82,17.89-72a2.28,2.28,0,0,0,0-3.22,2.29,2.29,0,0,0-3.24,0c-.78.78-19.23,19.69-19.23,75.24A67.93,67.93,0,0,0,151.1-8.3,2.27,2.27,0,0,1,153-6.49Z"/><path d="M164.65,7.34a76.21,76.21,0,0,0,15.78,11.09,2.21,2.21,0,0,0,1,.23,2.29,2.29,0,0,0,1-4.35A76.42,76.42,0,0,1,163.93.23a2,2,0,0,1,.14.55C164.09.91,164.34,3.22,164.65,7.34Z"/><path d="M165.76,13.85a2.29,2.29,0,0,0-.78-1.68c.06,1,.13,2.1.19,3.24A2.29,2.29,0,0,0,165.76,13.85Z"/><path d="M111.09,10.67h.08a2.29,2.29,0,0,1,2.28,2.22l.08,2.49c11.17.71,26.06.86,37,.86,4,0,7.54,0,10.11,0-.09-1.65-.18-3.18-.27-4.58-27.36.24-56.41-.57-59.59-2.43C98.42,7.73,97.3-.49,97.4-8.39c-1.53-.64-3-1.34-4.52-2.08-.21,5.5-.21,20,5.46,23.54,1.39.87,5.31,1.51,10.6,2l-.06-2A2.3,2.3,0,0,1,111.09,10.67Z"/><path d="M150.9,151.15a2.57,2.57,0,0,0,.55.06,2.32,2.32,0,0,0,1.45-.52H150A2.4,2.4,0,0,0,150.9,151.15Z"/><path d="M160.15,3l-.51-.54c.16,1.59.44,4.71.72,9.13l3.08,0h0a2.3,2.3,0,0,1,1.51.58q-.16-2.72-.33-4.83C163.17,6,161.67,4.59,160.15,3Z"/><path d="M153.67,149.47c13.51-55.32,12.85-109,11.5-134.06a2.28,2.28,0,0,1-1.67.76l-2.87,0C162,41.14,162.52,94,149.22,148.38a2.29,2.29,0,0,0,.78,2.31h2.9A2.3,2.3,0,0,0,153.67,149.47Z"/><path d="M162.7-1.06,163.93.23A2.29,2.29,0,0,0,162.7-1.06Z"/><path d="M161.54-1.23a2.28,2.28,0,0,0-2,2.53c0,.05,0,.46.12,1.19l.51.54c1.52,1.56,3,3,4.5,4.31-.31-4.12-.56-6.43-.58-6.56a2,2,0,0,0-.14-.55L162.7-1.06A2.26,2.26,0,0,0,161.54-1.23Z"/><path d="M163.44,11.59l-3.08,0c.09,1.4.18,2.93.27,4.58l2.87,0a2.28,2.28,0,0,0,1.67-.76c-.06-1.14-.13-2.22-.19-3.24a2.3,2.3,0,0,0-1.51-.58Z"/><path d="M115.45,151.21h.07a2.18,2.18,0,0,0,1.37-.52H114A2.26,2.26,0,0,0,115.45,151.21Z"/><path d="M117.74,148.85,113.53,15.38c-1.62-.1-3.15-.21-4.59-.34l4.22,134a2.3,2.3,0,0,0,.85,1.69h2.88A2.31,2.31,0,0,0,117.74,148.85Z"/><path d="M113.45,12.89a2.29,2.29,0,0,0-2.28-2.22h-.08A2.3,2.3,0,0,0,108.88,13l.06,2c1.44.13,3,.24,4.59.34Z"/><path d="M346.75,2.13l3.79-2.52c.2.24.38.5.57.78a5.69,5.69,0,0,0,.66.69c21.36-24.55,20.84-52.24,16-72.29a132.12,132.12,0,0,0-19.89-43.54,2.28,2.28,0,0,0-3.2-.47,2.27,2.27,0,0,0-.47,3.2,130,130,0,0,1,19.14,42c7.61,31.56-.93,57.86-25.39,78.17a2.28,2.28,0,0,0-.29,3.22,2.26,2.26,0,0,0,1.76.83,2.32,2.32,0,0,0,1.46-.53,96.22,96.22,0,0,0,7.39-6.82,11.74,11.74,0,0,0-.85-1.77A7.86,7.86,0,0,1,346.75,2.13Z"/><path d="M414.15,3.33a2.3,2.3,0,0,1-2-1.18A2.29,2.29,0,0,1,413-1l.37-.22c-3.1.37-20.69,2.5-39.34,5.76C360.1,7,354,3.15,351.77,1.08Q350.11,3,348.26,4.87c2,5.17,3.1,15.09,3.29,21.11l.06,1.88,1.86.31.58.08c0-1.07.06-1.78.08-2.05a2.28,2.28,0,0,1,2.28-2.2h.09a2.29,2.29,0,0,1,2.2,2.37c0,.09,0,1-.08,2.48a139.3,139.3,0,0,0,14.47.7,253.45,253.45,0,0,0,29.47-1.94l-.06-2.53a2.3,2.3,0,0,1,2.24-2.34h.05A2.29,2.29,0,0,1,407.08,25l0,2.05,3.42-.48a8.69,8.69,0,0,0,7.39-9.4l-1.38-14.9c-.43.28-.86.55-1.29.79A2.27,2.27,0,0,1,414.15,3.33ZM409.88,22c-10.08,1.47-35,4.53-53.84,1.91a97.86,97.86,0,0,0-2.11-16.11c4.32,1.84,11,3,20.92,1.27,16.17-2.83,31.54-4.8,37.23-5.5l1.3,14A4.12,4.12,0,0,1,409.88,22Z"/><path d="M351.11.39c-.19-.28-.37-.54-.57-.78l-3.79,2.52a7.86,7.86,0,0,0,.66,1,11.74,11.74,0,0,1,.85,1.77q1.85-1.87,3.51-3.79A5.69,5.69,0,0,1,351.11.39Z"/><path d="M343-175.83c8.72,1,34.27,3.8,38.77,4.36,2.1.26,4.15-.57,6.32-1.46,4.95-2,10.07-4.12,16.78,6.28,3.08,4.76,7.72,10.94,12.63,17.48,12.36,16.46,27.74,36.94,30.35,50.43,1.81,9.41-1.57,31.13-8,51.65C432.27-23.3,422.68-6.62,413.4-1.18l.48-.05,2.33-.27.34,3.75C439.29-12.49,456.27-79,452.3-99.6c-2.8-14.53-18.54-35.49-31.18-52.32-4.86-6.47-9.45-12.59-12.44-17.22-8.78-13.58-16.95-10.24-22.36-8-1.6.66-3.11,1.27-4,1.16-4.75-.59-32.65-3.69-40-4.5.11.74.21,1.48.31,2.21S342.85-176.64,343-175.83Z"/><path d="M413.88-1.23l-.48.05L413-1a2.29,2.29,0,0,0-.89,3.11,2.3,2.3,0,0,0,2,1.18A2.27,2.27,0,0,0,415.26,3c.43-.24.86-.51,1.29-.79l-.34-3.75Z"/><path d="M366.15,158.22a2.29,2.29,0,1,0,4.23-1.76c-.75-1.79-1.45-3.72-2.1-5.77h-4.8C364.3,153.39,365.19,155.91,366.15,158.22Z"/><path d="M358.62,28.85c-1.55-.17-3.08-.36-4.57-.6-.41,13.34-2.05,84.86,9.43,122.44h4.8C356.83,115.08,358.22,43.08,358.62,28.85Z"/><path d="M356.5,24h-.09a2.28,2.28,0,0,0-2.28,2.2c0,.27,0,1-.08,2.05,1.49.24,3,.43,4.57.6,0-1.52.07-2.39.08-2.48A2.29,2.29,0,0,0,356.5,24Z"/><path d="M405.41,157.39a2.29,2.29,0,0,0,2.29,2.24h.05a2.28,2.28,0,0,0,2.24-2.34l-.15-6.6h-4.57Z"/><path d="M402.56,27.61l2.71,123.08h4.57L407.12,27C405.69,27.22,404.17,27.42,402.56,27.61Z"/><path d="M404.79,22.74h-.05a2.3,2.3,0,0,0-2.24,2.34l.06,2.53c1.61-.19,3.13-.39,4.56-.58l0-2.05A2.29,2.29,0,0,0,404.79,22.74Z"/></g><circle class="cls-1" cx="250" cy="250" r="215.67"/><g class="cls-5"><path class="cls-6" d="M246.73,121.77c-61.87,0-83.71,68.67-83.71,68.67s8.86,53.27,17.36,81.35,74.13,65,74.13,65c50.13-25.13,62.22-59.86,69-75.41s10.2-82.73,10.2-82.73S308.6,121.77,246.73,121.77ZM244,255a1.33,1.33,0,0,1,1.27.56l.18.25a12.31,12.31,0,0,0,1.35,1.74,5.56,5.56,0,0,0,1.59,1.18,5,5,0,0,0,1.74.5,7.85,7.85,0,0,0,2-.11,7.16,7.16,0,0,0,1.88-.62,8.46,8.46,0,0,0,1.67-1.2,11.3,11.3,0,0,0,1.44-1.73,17.49,17.49,0,0,0,1.18-2l.09-.18a1.29,1.29,0,0,1,2.44.67,10.56,10.56,0,0,1-.65,3.06,11.26,11.26,0,0,1-1.54,2.79,10,10,0,0,1-2.49,2.27,9.35,9.35,0,0,1-3.18,1.25,10,10,0,0,1-3.42.11,8.37,8.37,0,0,1-3.31-1.36,7.74,7.74,0,0,1-2.3-2.55,8.52,8.52,0,0,1-.67-1.48,8.37,8.37,0,0,1-.38-1.62A1.33,1.33,0,0,1,244,255Zm-19.44-65c1.13,1.91-.2,6.8-.2,6.8-26.11-7.57-44,4.59-44,4.59C191.94,182.52,223.45,188.05,224.57,190Zm.85,36.35A10.79,10.79,0,1,1,208,217.79l-.59.07a28.74,28.74,0,0,0-9.48,3.32,68.21,68.21,0,0,0-8,5.5l4.44,8-8-7.37-.85-.78.85-1.39h0c.09-.19.2-.37.29-.56a12.76,12.76,0,0,1-3.43-1.44,15.52,15.52,0,0,1-2.88-2.24,12.44,12.44,0,0,1-1.21-1.31,11.67,11.67,0,0,1-1-1.44,24.9,24.9,0,0,0,3,1.58,18.21,18.21,0,0,0,3.08,1,12.66,12.66,0,0,0,3,.35c.57,0,1.11,0,1.66,0a25,25,0,0,1,3.12-3.32,11.22,11.22,0,0,1-1.51-.76,15.6,15.6,0,0,1-2.85-2.16,15,15,0,0,1-2.24-2.68,21.86,21.86,0,0,0,2.87,1.81,20.24,20.24,0,0,0,3,1.28,12.28,12.28,0,0,0,3.06.56h.11l.12-.09a25.14,25.14,0,0,1,5-2.52,16.25,16.25,0,0,1-1.78-2.47,15.35,15.35,0,0,1-1.41-3.19,22.89,22.89,0,0,0,2.26,2.53,19,19,0,0,0,2.54,2.07l.59.38a26,26,0,0,1,5.18-.77,27.23,27.23,0,0,1,12.33,2.59,29.76,29.76,0,0,1,5.26,3.12,23.76,23.76,0,0,1,4.39,4.1,60.24,60.24,0,0,0-6-2.12A10.74,10.74,0,0,1,225.42,226.31Zm40.09,73.41-1.38,0c-.45,0-.91,0-1.36,0s-.91,0-1.36,0-.9.06-1.35.09c-.91,0-1.8.13-2.69.2-1.79.18-3.56.45-5.33.8a43.83,43.83,0,0,0-5.31,1.4,14.42,14.42,0,0,1,4.88-2.88,23.58,23.58,0,0,1,5.55-1.3,25.07,25.07,0,0,1,5.68.07,26.35,26.35,0,0,1,2.79.52,22.79,22.79,0,0,1,2.68.9C267.36,299.72,266.43,299.7,265.51,299.72Zm15.19-19.15a41.67,41.67,0,0,1-5,4.16c-.9.62-1.8,1.21-2.76,1.79a9.22,9.22,0,0,1-3.52,1.17,19,19,0,0,1-3.43.08,20.86,20.86,0,0,0-3,.05,9.68,9.68,0,0,0-2.67.6,11.87,11.87,0,0,0-1.27.55l-.81.39c-.29.13-.6.24-.9.35a9,9,0,0,1-3.94.33,9.3,9.3,0,0,1-3.62-1.35,8.78,8.78,0,0,1-.77-.54l-.28-.2-.2-.14a2.3,2.3,0,0,0-.88-.3,2.5,2.5,0,0,0-.94.07l-.23.07-.3.13-.82.34a14.51,14.51,0,0,1-3.4.94,12.71,12.71,0,0,1-3.54,0,10.92,10.92,0,0,1-6.13-3.09.57.57,0,0,1,0-.8.57.57,0,0,1,.69-.07l.06,0a11,11,0,0,0,5.58,1.62,11.45,11.45,0,0,0,5.51-1.34l.64-.34.42-.21a4.61,4.61,0,0,1,.51-.22,5.4,5.4,0,0,1,2.22-.32,5.92,5.92,0,0,1,2.17.61,4.71,4.71,0,0,1,.48.29l.38.25.56.35a5.7,5.7,0,0,0,4.75.59l.59-.22.64-.29a13.77,13.77,0,0,1,1.68-.69,12.56,12.56,0,0,1,3.57-.7c2.42-.1,4.58.37,6.39.32a7.06,7.06,0,0,0,2.6-.57c.93-.41,1.89-.88,2.82-1.35,1.88-.94,3.74-2,5.57-3h0a.46.46,0,0,1,.55.73Zm41.81-65.07a11.53,11.53,0,0,1-1.2,1.32,15.52,15.52,0,0,1-2.88,2.24A13,13,0,0,1,315,220.5c.1.19.2.37.29.56h0l.85,1.39-.84.78-8,7.37,4.44-8a69.92,69.92,0,0,0-8-5.5,28.71,28.71,0,0,0-9.49-3.32l-.58-.07a10.78,10.78,0,1,1-14.9,1.65,60.41,60.41,0,0,0-6,2.12,24.14,24.14,0,0,1,4.4-4.1,29.68,29.68,0,0,1,5.25-3.12,27.3,27.3,0,0,1,12.34-2.59,26,26,0,0,1,5.17.77l.6-.38A19.66,19.66,0,0,0,303,206a21.14,21.14,0,0,0,2.25-2.54,14.44,14.44,0,0,1-1.41,3.2,16.18,16.18,0,0,1-1.77,2.47,25.7,25.7,0,0,1,5,2.52l.11.09h.12a12.28,12.28,0,0,0,3.06-.56,20.7,20.7,0,0,0,3-1.28,22.54,22.54,0,0,0,2.87-1.81,14.68,14.68,0,0,1-2.25,2.68,15.71,15.71,0,0,1-2.85,2.16,11.1,11.1,0,0,1-1.5.76,25.05,25.05,0,0,1,3.12,3.32c.54,0,1.09.06,1.66,0a12.72,12.72,0,0,0,3-.35,18.82,18.82,0,0,0,3.08-1,24.9,24.9,0,0,0,3-1.58A12,12,0,0,1,322.51,215.5Zm-1.23-18.24s-17.88-12.17-44-4.59c0,0-1.32-4.89-.2-6.8S309.71,178.43,321.28,197.26Z"/><path d="M277.08,185.87c-1.12,1.91.2,6.8.2,6.8,26.12-7.58,44,4.59,44,4.59C309.71,178.43,278.21,184,277.08,185.87Z"/><path class="cls-3" d="M194.6,234.41a41.76,41.76,0,0,0,20.73,5.32,22,22,0,0,0,9.19-1.95,11,11,0,0,0,4.41-16.21l-.12-.17c-3.78-5.41-20.62-7.35-25.64-5.63s-15.35,9-15.35,9Z"/><path class="cls-3" d="M307.26,230.6a41.76,41.76,0,0,1-20.73,5.32,21.79,21.79,0,0,1-9.19-2,11,11,0,0,1-4.41-16.21.91.91,0,0,0,.11-.16c3.79-5.41,20.63-7.35,25.65-5.63S314,221,314,221Z"/><path d="M312.55,223.24v-2.18l-.84,1.53.84.64Z"/><path d="M311,220.44l.63-3.45a11.64,11.64,0,0,1,1.18,0,25.05,25.05,0,0,0-3.12-3.32,14.06,14.06,0,0,1-1.92.67,7.8,7.8,0,0,1-3.81,0l.4-2.59c1-.05,1.89,0,2.86-.05l-.11-.09a25.7,25.7,0,0,0-5-2.52l-.36.4a13.73,13.73,0,0,1-2.89,2.33,7.92,7.92,0,0,1-3.65,1.09l-.34-2.6c.95-.33,1.9-.51,2.85-.89a13.34,13.34,0,0,0,2.18-1,26,26,0,0,0-5.17-.77,27.3,27.3,0,0,0-12.34,2.59,29.68,29.68,0,0,0-5.25,3.12,24.14,24.14,0,0,0-4.4,4.1,60.41,60.41,0,0,1,6-2.12,10.74,10.74,0,0,1,14.9-1.65l.58.07a28.71,28.71,0,0,1,9.49,3.32,69.92,69.92,0,0,1,8,5.5l.84-1.53v2.18h0l-.84-.64-4.44,8,8-7.37.84-.78-.85-1.39h0c-.09-.19-.19-.37-.29-.56l-.1,0A7.43,7.43,0,0,1,311,220.44Z"/><path d="M302.1,209.11a16.18,16.18,0,0,0,1.77-2.47,14.44,14.44,0,0,0,1.41-3.2A21.14,21.14,0,0,1,303,206a19.66,19.66,0,0,1-2.54,2.07l-.6.38c.43.11.86.22,1.29.35S301.79,209,302.1,209.11Z"/><path d="M294.86,210.33l.34,2.6a7.92,7.92,0,0,0,3.65-1.09,13.73,13.73,0,0,0,2.89-2.33l.36-.4c-.31-.11-.61-.23-.92-.33s-.86-.24-1.29-.35a13.34,13.34,0,0,1-2.18,1C296.76,209.82,295.81,210,294.86,210.33Z"/><path d="M311.14,212.9a15.71,15.71,0,0,0,2.85-2.16,14.68,14.68,0,0,0,2.25-2.68,22.54,22.54,0,0,1-2.87,1.81,20.7,20.7,0,0,1-3,1.28,12.28,12.28,0,0,1-3.06.56h-.12a26,26,0,0,1,2.47,1.94A11.1,11.1,0,0,0,311.14,212.9Z"/><path d="M304.31,211.77l-.4,2.59a7.8,7.8,0,0,0,3.81,0,14.06,14.06,0,0,0,1.92-.67,26,26,0,0,0-2.47-1.94C306.2,211.8,305.28,211.72,304.31,211.77Z"/><path d="M317.43,216.67a12.72,12.72,0,0,1-3,.35c-.57,0-1.12,0-1.66,0A22.44,22.44,0,0,1,315,220.5a13,13,0,0,0,3.44-1.44,15.52,15.52,0,0,0,2.88-2.24,11.53,11.53,0,0,0,1.2-1.32,12,12,0,0,0,1-1.43,24.9,24.9,0,0,1-3,1.58A18.82,18.82,0,0,1,317.43,216.67Z"/><path d="M311.58,217l-.63,3.45a7.43,7.43,0,0,0,3.94.09l.1,0a22.44,22.44,0,0,0-2.23-3.52A11.64,11.64,0,0,0,311.58,217Z"/><path d="M283.66,214.14c-1.64.31-3.29.73-4.94,1.21a10.79,10.79,0,1,0,14.9-1.65A32.66,32.66,0,0,0,283.66,214.14Zm10.65,8.08a7.29,7.29,0,1,1-7.28-7.29A7.3,7.3,0,0,1,294.31,222.22Z"/><path d="M278.72,215.35c1.65-.48,3.3-.9,4.94-1.21a32.66,32.66,0,0,1,10-.44,10.74,10.74,0,0,0-14.9,1.65Z"/><path d="M224.37,196.76s1.33-4.89.2-6.8-32.63-7.44-44.19,11.39C180.38,201.35,198.26,189.19,224.37,196.76Z"/><path d="M224.53,217.46a29.76,29.76,0,0,0-5.26-3.12,27.23,27.23,0,0,0-12.33-2.59,26,26,0,0,0-5.18.77,13.5,13.5,0,0,0,2.19,1c.94.37,1.89.55,2.85.88l-.35,2.6a7.8,7.8,0,0,1-3.65-1.09,13.42,13.42,0,0,1-2.88-2.33c-.13-.13-.24-.26-.36-.4a25.14,25.14,0,0,0-5,2.52l-.12.09c1,.08,1.9,0,2.87.05l.39,2.59a7.88,7.88,0,0,1-3.8,0,13.21,13.21,0,0,1-1.92-.68,25,25,0,0,0-3.12,3.32,9.33,9.33,0,0,1,1.18,0l.63,3.44a7.46,7.46,0,0,1-4,.09l-.1,0c-.09.19-.2.37-.29.56h0l-.85,1.39.85.78,8,7.37-4.44-8-.85.65h0v-2.17l.84,1.52a68.21,68.21,0,0,1,8-5.5,28.74,28.74,0,0,1,9.48-3.32l.59-.07a10.77,10.77,0,0,1,14.9,1.65,60.24,60.24,0,0,1,6,2.12A23.76,23.76,0,0,0,224.53,217.46Z"/><path d="M189.11,227.33h0l.85-.65-.84-1.52Z"/><path d="M201.76,212.52l-.59-.38a19,19,0,0,1-2.54-2.07,22.89,22.89,0,0,1-2.26-2.53,15.35,15.35,0,0,0,1.41,3.19,16.25,16.25,0,0,0,1.78,2.47c.31-.11.61-.23.92-.33S201.33,212.63,201.76,212.52Z"/><path d="M202.8,215.93a7.8,7.8,0,0,0,3.65,1.09l.35-2.6c-1-.33-1.91-.51-2.85-.88a13.5,13.5,0,0,1-2.19-1c-.43.11-.86.22-1.28.35s-.61.22-.92.33c.12.14.23.27.36.4A13.42,13.42,0,0,0,202.8,215.93Z"/><path d="M194.37,215.8a12.28,12.28,0,0,1-3.06-.56,20.24,20.24,0,0,1-3-1.28,21.86,21.86,0,0,1-2.87-1.81,15,15,0,0,0,2.24,2.68,15.6,15.6,0,0,0,2.85,2.16,11.22,11.22,0,0,0,1.51.76,25.91,25.91,0,0,1,2.46-1.94Z"/><path d="M197.74,218.45l-.39-2.59c-1-.05-1.9,0-2.87-.05a25.91,25.91,0,0,0-2.46,1.94,13.21,13.21,0,0,0,1.92.68A7.88,7.88,0,0,0,197.74,218.45Z"/><path d="M187.24,221.11a12.66,12.66,0,0,1-3-.35,18.21,18.21,0,0,1-3.08-1,24.9,24.9,0,0,1-3-1.58,11.67,11.67,0,0,0,1,1.44,12.44,12.44,0,0,0,1.21,1.31,15.52,15.52,0,0,0,2.88,2.24,12.76,12.76,0,0,0,3.43,1.44,23.25,23.25,0,0,1,2.24-3.52C188.35,221.09,187.81,221.13,187.24,221.11Z"/><path d="M190.71,224.53l-.63-3.44a9.33,9.33,0,0,0-1.18,0,23.25,23.25,0,0,0-2.24,3.52l.1,0A7.46,7.46,0,0,0,190.71,224.53Z"/><path d="M208,217.79a10.78,10.78,0,1,0,14.9,1.65c-1.65-.48-3.3-.9-4.94-1.21A32.68,32.68,0,0,0,208,217.79Zm13.88,8.52a7.29,7.29,0,1,1-7.29-7.28A7.3,7.3,0,0,1,221.92,226.31Z"/><path d="M214.63,215.53a10.74,10.74,0,0,0-6.59,2.26,32.68,32.68,0,0,1,10,.44c1.64.31,3.29.73,4.94,1.21A10.77,10.77,0,0,0,214.63,215.53Z"/><path d="M243.26,258.09a8.52,8.52,0,0,0,.67,1.48,7.74,7.74,0,0,0,2.3,2.55,8.37,8.37,0,0,0,3.31,1.36,10,10,0,0,0,3.42-.11,9.35,9.35,0,0,0,3.18-1.25,10,10,0,0,0,2.49-2.27,11.26,11.26,0,0,0,1.54-2.79,10.56,10.56,0,0,0,.65-3.06,1.29,1.29,0,0,0-2.44-.67l-.09.18a17.49,17.49,0,0,1-1.18,2,11.3,11.3,0,0,1-1.44,1.73,8.46,8.46,0,0,1-1.67,1.2,7.16,7.16,0,0,1-1.88.62,7.85,7.85,0,0,1-2,.11,5,5,0,0,1-1.74-.5,5.56,5.56,0,0,1-1.59-1.18,12.31,12.31,0,0,1-1.35-1.74l-.18-.25a1.32,1.32,0,0,0-2.4.94A8.37,8.37,0,0,0,243.26,258.09Z"/><path d="M280.15,279.84h0c-1.83,1-3.69,2.09-5.57,3-.93.47-1.89.94-2.82,1.35a7.06,7.06,0,0,1-2.6.57c-1.81.05-4-.42-6.39-.32a12.56,12.56,0,0,0-3.57.7,13.77,13.77,0,0,0-1.68.69l-.64.29-.59.22a5.7,5.7,0,0,1-4.75-.59l-.56-.35-.38-.25a4.71,4.71,0,0,0-.48-.29,5.92,5.92,0,0,0-2.17-.61,5.4,5.4,0,0,0-2.22.32,4.61,4.61,0,0,0-.51.22l-.42.21-.64.34a11.45,11.45,0,0,1-5.51,1.34,11,11,0,0,1-5.58-1.62l-.06,0a.57.57,0,0,0-.69.07.57.57,0,0,0,0,.8,10.92,10.92,0,0,0,6.13,3.09,12.71,12.71,0,0,0,3.54,0,14.51,14.51,0,0,0,3.4-.94l.82-.34.3-.13.23-.07a2.5,2.5,0,0,1,.94-.07,2.3,2.3,0,0,1,.88.3l.2.14.28.2a8.78,8.78,0,0,0,.77.54A9.3,9.3,0,0,0,253.4,290a9,9,0,0,0,3.94-.33c.3-.11.61-.22.9-.35l.81-.39a11.87,11.87,0,0,1,1.27-.55,9.68,9.68,0,0,1,2.67-.6,20.86,20.86,0,0,1,3-.05,19,19,0,0,0,3.43-.08,9.22,9.22,0,0,0,3.52-1.17c1-.58,1.86-1.17,2.76-1.79a41.67,41.67,0,0,0,5-4.16.46.46,0,0,0-.55-.73Z"/><path d="M262.84,298.22a25.07,25.07,0,0,0-5.68-.07,23.58,23.58,0,0,0-5.55,1.3,14.42,14.42,0,0,0-4.88,2.88,43.83,43.83,0,0,1,5.31-1.4c1.77-.35,3.54-.62,5.33-.8.89-.07,1.78-.19,2.69-.2.45,0,.9-.09,1.35-.09s.9,0,1.36,0,.91,0,1.36,0l1.38,0c.92,0,1.85,0,2.8-.08a22.79,22.79,0,0,0-2.68-.9A26.35,26.35,0,0,0,262.84,298.22Z"/><path class="cls-7" d="M367,230.6c4.44-36-12.45-170.8-122.82-162-121,9.61-113.66,166.79-113.66,166.79s-38.92,93.1-67.22,167C40.15,462.75,52.68,602.16,58,651.06H289.24c-6.73-5.82-13.29-11.83-19.77-17.91-3.26-3-6.45-6.11-9.68-9.16l-9.56-9.28c-6.33-6.23-12.64-12.49-18.84-18.85S219,583.09,213.05,576.5c6.72,5.83,13.27,11.84,19.75,17.91s12.89,12.24,19.26,18.43l9.49,9.36c3.12,3.16,6.28,6.28,9.37,9.48,6.21,6.35,12.36,12.77,18.32,19.38h161c-.23-45.9-1.45-170.37-7.83-218.17C434.48,373.77,367,230.6,367,230.6ZM94,624.68a42.31,42.31,0,0,1-8.18-9.17,56.3,56.3,0,0,1-5.65-10.93,69.66,69.66,0,0,1-3.33-11.84A133.25,133.25,0,0,1,75,568.45c0-8.08.29-16.11.1-24.18,1.26,8,1.54,16.1,1.92,24.13s.83,16.05,2.31,23.86a67.63,67.63,0,0,0,3.1,11.44,60.11,60.11,0,0,0,5.05,10.7,41.29,41.29,0,0,0,17.06,16.21A32.47,32.47,0,0,1,94,624.68Zm2.7-83a105.7,105.7,0,0,1-3.08-14.29,134.38,134.38,0,0,1-1.22-14.57,182,182,0,0,1,1.79-29.07c1.3-9.6,3.14-19.1,5.22-28.54-1,9.61-2.3,19.19-3.21,28.78A234.48,234.48,0,0,0,95,512.72,131.55,131.55,0,0,0,96.05,527a122.65,122.65,0,0,0,2.59,14.1,97.84,97.84,0,0,0,10.76,26.6A79.15,79.15,0,0,1,96.65,541.65Zm25.68-208.08c-2.6,7.9-5.33,15.75-8.1,23.59L110,368.89c-1.47,3.89-2.88,7.8-4.4,11.67-3,7.77-6,15.5-9.35,23.14,2.27-8,4.79-15.94,7.41-23.83,1.28-4,2.66-7.88,4-11.82l4.14-11.77c2.82-7.82,5.67-15.63,8.67-23.39s6-15.5,9.33-23.15C127.47,317.75,124.94,325.68,122.33,333.57ZM149.1,219c1.36,5.42,2.11,10.93,3,16.35.42,2.7.91,5.39,1.52,8a75.39,75.39,0,0,0,2.15,7.86,41.6,41.6,0,0,0,7.89,14.2,32.13,32.13,0,0,1-9.82-13.47,60,60,0,0,1-2.65-8c-.67-2.72-1.21-5.47-1.67-8.22-.86-5.49-1.49-11-2.41-16.35a68.71,68.71,0,0,0-4.46-15.79A46.31,46.31,0,0,1,149.1,219ZM140,496.82l-.07,17.05-.2,17.06-.3,17c-.48,22.73-1.24,45.46-2.44,68.16q.18-34.1.37-68.18l.07-34.09v-17l-.05-17q-.09-34.08-.5-68.17T136,343.43c1.35,22.7,2.26,45.42,2.9,68.14s1,45.47,1.09,68.2Zm10.59-192.64-1.87-4.47-1.74-4.53-1.67-4.55c-2.1-6.11-4-12.31-5.48-18.59a159.93,159.93,0,0,1-3.5-19.05c1.8,6.2,3.56,12.38,5.45,18.51s3.86,12.23,6,18.26l1.6,4.54,1.67,4.5,1.69,4.5c.59,1.49,1.17,3,1.74,4.49,2.34,6,4.8,11.9,7.23,17.88a155.27,155.27,0,0,1-9.13-17.07C151.86,307.13,151.2,305.65,150.55,304.18Zm21.56,258.66-2.89-17.68-2.54-17.73-2.17-17.78-1.86-17.82q-3.3-35.67-3.87-71.52c-.36-23.88.22-47.76,1.89-71.57-.6,23.86-.61,47.7.13,71.52s2.2,47.61,4.45,71.33l1.8,17.78,2.11,17.74,2.36,17.71,2.63,17.68c3.7,23.54,8.14,47,13.14,70.3C181.21,609.73,176.2,586.36,172.11,562.84Zm50.27-138.51-7-5.26-6.66-5.64A143.84,143.84,0,0,1,186,387.14a129.29,129.29,0,0,1-15.42-31.05,162.2,162.2,0,0,0,40,55.4l6.5,5.59,6.81,5.22,7.07,4.88,7.32,4.5a165.91,165.91,0,0,0,31.44,14,128.31,128.31,0,0,1-32.45-12.2l-7.55-4.34Zm-39-110.3c4.46,5.09,8.91,10.13,13.51,15s9.31,9.67,14.18,14.28l3.66,3.45,3.73,3.37,3.77,3.34c1.27,1.08,2.55,2.18,3.81,3.29,5.12,4.35,10.36,8.55,15.66,12.77a145.33,145.33,0,0,1-16.95-11.16c-1.35-1-2.68-2.07-4-3.12L216.82,352,213,348.68l-3.74-3.45a182.09,182.09,0,0,1-13.9-14.83A151,151,0,0,1,183.38,314ZM295.25,581.14A102,102,0,0,1,293.2,594l-.78,3.16-.85,3.15-1,3.11c-.34,1-.7,2.05-1.07,3.07a76.64,76.64,0,0,1-5.43,11.83l3.46-12.45c.26-1,.53-2.08.82-3.11l.79-3.11.78-3.11.71-3.12c1-4.16,1.8-8.36,2.6-12.57s1.47-8.45,2.23-12.72A78.39,78.39,0,0,1,295.25,581.14ZM313.82,412a221.12,221.12,0,0,1-19.32,44l-6.3,10.26-6.83,9.93L274,485.71l-7.88,9.1a201.67,201.67,0,0,1-36.27,31.34,248,248,0,0,0,34.73-32.72l7.61-9.17,7.16-9.53,6.7-9.85,6.18-10.17a244,244,0,0,0,19.67-43.33,245.66,245.66,0,0,0,10.87-46.46A202,202,0,0,1,313.82,412Zm-30.17-43.73c3.39-3.57,6.72-7.12,9.91-10.78.77-.93,1.56-1.85,2.36-2.76l2.3-2.81,2.27-2.84,2.19-2.9c2.91-3.86,5.62-7.87,8.23-12s5-8.32,7.46-12.59a78.61,78.61,0,0,1-5.71,13.6,96.91,96.91,0,0,1-7.88,12.53l-2.28,2.92-2.36,2.85-2.49,2.75c-.85.89-1.71,1.77-2.59,2.64A77.41,77.41,0,0,1,283.65,368.27Zm39.88-106.86c-6.8,15.55-18.89,50.28-69,75.41,0,0-65.64-36.95-74.13-65S163,190.44,163,190.44s21.84-68.67,83.71-68.67,87,56.91,87,56.91S330.33,245.86,323.53,261.41ZM342.82,234c.34-1.31.7-2.63,1.06-3.93l1-4,1-3.95.91-4c1.22-5.29,2.25-10.62,3.21-16s1.76-10.74,2.6-16.17a113,113,0,0,1-.6,16.45,142.32,142.32,0,0,1-2.66,16.28l-1,4-1.05,4-1.2,3.94c-.43,1.31-.86,2.62-1.32,3.91a108.76,108.76,0,0,1-6.53,15.12C339.81,244.49,341.38,239.27,342.82,234Zm10.71,242.5-.42,16-.69,16-1,16-1.34,16c-2,21.3-4.85,42.51-8.69,63.54,2.74-21.2,5-42.43,6.63-63.72l1.09-16,.85-16,.64-16,.35-16c.36-21.33,0-42.68-.94-64s-2.57-42.63-4.68-63.9c3.17,21.14,5.35,42.44,6.7,63.79S353.83,455.13,353.53,476.52Zm5.66-203a157.45,157.45,0,0,1-1.73,20.22l-.85,5-1,5-1.16,4.95c-.43,1.63-.86,3.27-1.32,4.9a129.63,129.63,0,0,1-7,19c1.81-6.51,3.52-13,5-19.53.33-1.64.69-3.27,1.06-4.9l1-4.92.91-4.94.79-4.95c1-6.61,1.75-13.26,2.29-19.93s.8-13.38,1-20.13A132.7,132.7,0,0,1,359.19,273.54ZM374.73,488l-.31,18-.38,18-.54,18-.65,18c-.94,23.95-2.21,47.89-4,71.8l1.89-71.87.74-35.93.34-18,.25-18c.34-23.95.49-47.91.58-71.88s0-47.92,0-71.89c1.09,23.94,1.72,47.91,2,71.88S375,464,374.73,488Zm14.43-143.44-3.66-7.77c-2.39-5.21-4.74-10.43-7-15.72s-4.38-10.6-6.31-16c2.9,5,5.56,10.05,8.15,15.17s5.07,10.28,7.5,15.47l3.56,7.82c1.14,2.63,2.33,5.23,3.42,7.88,2.24,5.28,4.39,10.6,6.3,16-2.92-5-5.59-10-8.17-15.16C391.66,349.68,390.44,347.09,389.16,344.52ZM402,520.34l-.47,7-.57,7-.74,6.93-.88,6.92c-1.27,9.21-2.91,18.37-5.09,27.4,1.09-9.22,2.15-18.42,3-27.64l.62-6.91.56-6.92.51-6.91.41-6.93c.53-9.23.82-18.47,1-27.73s.09-18.51,0-27.8c1.15,9.22,1.77,18.5,2,27.79S402.48,511.05,402,520.34Zm23.26,56.76-1.35,7L422.23,591l-2,6.8-2.36,6.7A127.52,127.52,0,0,1,405,629.65a193.61,193.61,0,0,0,10.89-25.87l2.1-6.68,1.82-6.75,1.58-6.81,1.28-6.87a176.6,176.6,0,0,0,2.45-27.84,189.43,189.43,0,0,0-1.9-28,128.48,128.48,0,0,1,3.92,28A143.51,143.51,0,0,1,425.25,577.1Z"/><path class="cls-3" d="M357.17,273.44c-.54,6.67-1.27,13.32-2.29,19.93l-.79,4.95-.91,4.94-1,4.92c-.37,1.63-.73,3.26-1.06,4.9-1.48,6.54-3.19,13-5,19.53a129.63,129.63,0,0,0,7-19c.46-1.63.89-3.27,1.32-4.9l1.16-4.95,1-5,.85-5a157.45,157.45,0,0,0,1.73-20.22,132.7,132.7,0,0,0-1-20.23C358,260.06,357.69,266.76,357.17,273.44Z"/><path class="cls-3" d="M149.53,235.71c.46,2.75,1,5.5,1.67,8.22a60,60,0,0,0,2.65,8,32.13,32.13,0,0,0,9.82,13.47,41.6,41.6,0,0,1-7.89-14.2,75.39,75.39,0,0,1-2.15-7.86c-.61-2.65-1.1-5.34-1.52-8-.9-5.42-1.65-10.93-3-16.35a46.31,46.31,0,0,0-6.44-15.38,68.71,68.71,0,0,1,4.46,15.79C148,224.76,148.67,230.22,149.53,235.71Z"/><path class="cls-3" d="M346.11,230.73l1.2-3.94,1.05-4,1-4A142.32,142.32,0,0,0,352,202.51a113,113,0,0,0,.6-16.45c-.84,5.43-1.65,10.81-2.6,16.17s-2,10.69-3.21,16l-.91,4-1,3.95-1,4c-.36,1.3-.72,2.62-1.06,3.93-1.44,5.25-3,10.47-4.56,15.74a108.76,108.76,0,0,0,6.53-15.12C345.25,233.35,345.68,232,346.11,230.73Z"/><path class="cls-3" d="M154.44,307.79c-.57-1.51-1.15-3-1.74-4.49L151,298.8l-1.67-4.5-1.6-4.54c-2.14-6-4.1-12.13-6-18.26s-3.65-12.31-5.45-18.51a159.93,159.93,0,0,0,3.5,19.05c1.51,6.28,3.38,12.48,5.48,18.59l1.67,4.55,1.74,4.53,1.87,4.47c.65,1.47,1.31,2.95,2,4.42a155.27,155.27,0,0,0,9.13,17.07C159.24,319.69,156.78,313.76,154.44,307.79Z"/><path class="cls-3" d="M209.27,345.23l3.74,3.45,3.81,3.36,3.92,3.24c1.33,1.05,2.66,2.09,4,3.12a145.33,145.33,0,0,0,16.95,11.16c-5.3-4.22-10.54-8.42-15.66-12.77-1.26-1.11-2.54-2.21-3.81-3.29l-3.77-3.34-3.73-3.37-3.66-3.45c-4.87-4.61-9.57-9.39-14.18-14.28s-9-9.94-13.51-15a151,151,0,0,0,12,16.37A182.09,182.09,0,0,0,209.27,345.23Z"/><path class="cls-3" d="M297.65,356.27l2.49-2.75,2.36-2.85,2.28-2.92a96.91,96.91,0,0,0,7.88-12.53,78.61,78.61,0,0,0,5.71-13.6c-2.43,4.27-4.86,8.49-7.46,12.59s-5.32,8.11-8.23,12l-2.19,2.9-2.27,2.84-2.3,2.81c-.8.91-1.59,1.83-2.36,2.76-3.19,3.66-6.52,7.21-9.91,10.78a77.41,77.41,0,0,0,11.41-9.36C295.94,358,296.8,357.16,297.65,356.27Z"/><path class="cls-3" d="M269.66,445.68a165.91,165.91,0,0,1-31.44-14l-7.32-4.5-7.07-4.88L217,417.08l-6.5-5.59a162.2,162.2,0,0,1-40-55.4A129.29,129.29,0,0,0,186,387.14a143.84,143.84,0,0,0,22.79,26.29l6.66,5.64,7,5.26,7.28,4.81,7.55,4.34A128.31,128.31,0,0,0,269.66,445.68Z"/><path class="cls-3" d="M292.23,454.71l-6.18,10.17-6.7,9.85-7.16,9.53-7.61,9.17a248,248,0,0,1-34.73,32.72,201.67,201.67,0,0,0,36.27-31.34l7.88-9.1,7.37-9.51,6.83-9.93L294.5,456a221.12,221.12,0,0,0,19.32-44,202,202,0,0,0,8.95-47.08,245.66,245.66,0,0,1-10.87,46.46A244,244,0,0,1,292.23,454.71Z"/><path class="cls-3" d="M111.76,356.28l-4.14,11.77c-1.32,3.94-2.7,7.86-4,11.82-2.62,7.89-5.14,15.82-7.41,23.83,3.31-7.64,6.38-15.37,9.35-23.14,1.52-3.87,2.93-7.78,4.4-11.67l4.25-11.73c2.77-7.84,5.5-15.69,8.1-23.59s5.14-15.82,7.43-23.83c-3.3,7.65-6.36,15.39-9.33,23.15S114.58,348.46,111.76,356.28Z"/><path class="cls-3" d="M136,343.43q.45,34.1.88,68.18t.5,68.17l.05,17v17L137.32,548q-.18,34.09-.37,68.18c1.2-22.7,2-45.43,2.44-68.16l.3-17,.2-17.06.07-17.05V479.77q-.15-34.09-1.09-68.2C138.23,388.85,137.32,366.13,136,343.43Z"/><path class="cls-3" d="M171.52,544.82l-2.36-17.71-2.11-17.74-1.8-17.78c-2.25-23.72-3.69-47.51-4.45-71.33s-.73-47.66-.13-71.52c-1.67,23.81-2.25,47.69-1.89,71.57s1.67,47.74,3.87,71.52l1.86,17.82,2.17,17.78,2.54,17.73,2.89,17.68c4.09,23.52,9.1,46.89,15.18,70-5-23.33-9.44-46.76-13.14-70.3Z"/><path class="cls-3" d="M345.29,348.58c2.11,21.27,3.72,42.57,4.68,63.9s1.3,42.67.94,64l-.35,16-.64,16-.85,16-1.09,16c-1.62,21.29-3.89,42.52-6.63,63.72,3.84-21,6.68-42.24,8.69-63.54l1.34-16,1-16,.69-16,.42-16c.3-21.39-.17-42.8-1.54-64.15S348.46,369.72,345.29,348.58Z"/><path class="cls-3" d="M96.05,527A131.55,131.55,0,0,1,95,512.72,234.48,234.48,0,0,1,96.15,484c.91-9.59,2.18-19.17,3.21-28.78-2.08,9.44-3.92,18.94-5.22,28.54a182,182,0,0,0-1.79,29.07,134.38,134.38,0,0,0,1.22,14.57,105.7,105.7,0,0,0,3.08,14.29,79.15,79.15,0,0,0,12.75,26.07,97.84,97.84,0,0,1-10.76-26.6A122.65,122.65,0,0,1,96.05,527Z"/><path class="cls-3" d="M372.69,344.15c0,24,.08,47.93,0,71.89s-.24,47.93-.58,71.88l-.25,18-.34,18-.74,35.93-1.89,71.87c1.74-23.91,3-47.85,4-71.8l.65-18,.54-18,.38-18,.31-18c.29-24,.33-47.95,0-71.93S373.78,368.09,372.69,344.15Z"/><path class="cls-3" d="M400.37,464.66c.08,9.29.14,18.55,0,27.8s-.45,18.5-1,27.73l-.41,6.93-.51,6.91L397.9,541l-.62,6.91c-.89,9.22-1.95,18.42-3,27.64,2.18-9,3.82-18.19,5.09-27.4l.88-6.92.74-6.93.57-7,.47-7c.49-9.29.66-18.59.4-27.89S401.52,473.88,400.37,464.66Z"/><path class="cls-3" d="M394.85,351.35c-1.09-2.65-2.28-5.25-3.42-7.88l-3.56-7.82c-2.43-5.19-4.9-10.36-7.5-15.47S375.12,310,372.22,305c1.93,5.42,4.08,10.74,6.31,16s4.58,10.51,7,15.72l3.66,7.77c1.28,2.57,2.5,5.16,3.82,7.7,2.58,5.12,5.25,10.2,8.17,15.16C399.24,362,397.09,356.63,394.85,351.35Z"/><circle cx="214.63" cy="226.31" r="7.29"/><path d="M279.74,222.22a7.29,7.29,0,1,0,7.29-7.29A7.3,7.3,0,0,0,279.74,222.22Z"/></g></svg>