<svg id="Layer_1" data-name="Layer 1" xmlns="http://www.w3.org/2000/svg" xmlns:xlink="http://www.w3.org/1999/xlink" viewBox="0 0 500 500"><defs><style>.cls-1{fill:#f4d9ce;}.cls-2{clip-path:url(#clip-path);}.cls-3{fill:#ffbdab;}.cls-4{fill:#fff;}.cls-5{clip-path:url(#clip-path-2);}.cls-6{fill:#ddd;}</style><clipPath id="clip-path"><circle class="cls-1" cx="250" cy="-260" r="215.67"/></clipPath><clipPath id="clip-path-2"><circle class="cls-1" cx="250" cy="250" r="215.67"/></clipPath></defs><circle class="cls-1" cx="250" cy="-260" r="215.67"/><g class="cls-2"><path class="cls-3" d="M163.82-3c-10.73-10.82-20.2-24.74-21-63.4-.51-25.77-15.35-63.92-23.26-86.94-2.74,4.77-7,16.06-9.27,41.86-4.57,52.05.75,136,15.81,249.41l-4.54.6h33.77C158.68,102.22,172.7,6,163.82-3Z"/><path class="cls-3" d="M409.59-115c-3.06-27.67-7.35-38.12-9.9-42-9.15,23.49-28.25,79.3-28.25,79.3,13.4,50.51-.52,63.39-7.51,77.31-5.46,10.87,2.18,100.28,5.8,139h37.53C414.44,21.35,415.23-63.93,409.59-115Z"/><path d="M235.42,101.31a4.67,4.67,0,1,0,4.67,4.67A4.68,4.68,0,0,0,235.42,101.31Z"/><path d="M363.93-.38c7-13.92,20.91-26.8,7.51-77.31,0,0,19.1-55.81,28.25-79.3-1.28-2-2.13-2.28-2.16-2.28a1.38,1.38,0,0,0,.44,0l-.48-4.55c.57-.07,2.11,0,4,1.81l.14.14c.7-1.7,1.3-3.06,1.76-4,5.67-11.34-14.95-9.28-17.53-10.31-2.33-.93-73.71-9.71-87.54-11.4v.1l-20.12,47.81-1,.35a49.67,49.67,0,0,1-5.74,1.67l-16.91,34.66L237.9-139.41a55.46,55.46,0,0,1-5.67-2l-.87-.37-20-50,0-.11-34.22,6.64c-.59,7.78-.66,12.17-.66,12.17a52.52,52.52,0,0,1-18.32-8.48c-20.63,4-39.78,7.8-42.62,8.48-1.8.43-.55,5.87,2.2,14.32a7.27,7.27,0,0,1,2.45-2l1.8,4.21.13-.07a10,10,0,0,0-2.56,3.28c7.91,23,22.75,61.17,23.26,86.94.78,38.66,10.25,52.58,21,63.4,8.88,9-5.14,105.18-8.47,141.53h101.7l-2.8-109.14c-3.8-5.32-30.6-43.25-36.51-60a34.89,34.89,0,0,1,3.44-30.14c-3.24-1-8.33-3.42-14.66-9.13-10.41-9.36-44.17-92.89-48-102.39a2.27,2.27,0,0,1,1.27-3,2.28,2.28,0,0,1,3,1.27c10.26,25.52,38.66,93.37,46.8,100.69,9.35,8.42,15.45,8.69,15.51,8.69l4.75.13-3,3.64c-.42.5-10.4,12.66-4.74,28.68C226.67-19,245.44,8.78,254,21.16l-2.9-112.71a2.29,2.29,0,0,1,2.23-2.35,2.31,2.31,0,0,1,2.35,2.23L258.65,22.5c9.27-11.43,32.21-41,35.11-56.8,3.45-18.82-5.92-26.32-6.32-26.63l-4.1-3.17,5.09-.9c.08,0,9.27-1.91,21-16.07C320.39-94.26,335.8-121,347-173.53a2.28,2.28,0,0,1,2.71-1.76,2.29,2.29,0,0,1,1.76,2.72C333.06-86.31,303.44-66.22,293-61.73c3.31,4.17,8.06,13.12,5.28,28.26-3.62,19.79-34.67,57.3-39.43,63l2.8,109.08h108.1C366.11,99.9,358.47,10.49,363.93-.38ZM235.42,115.23a9.25,9.25,0,1,1,9.25-9.25A9.26,9.26,0,0,1,235.42,115.23Zm-1.09-70.74a9.25,9.25,0,1,1-9.24,9.25A9.26,9.26,0,0,1,234.33,44.49Zm-75.48-161.9a2.29,2.29,0,0,1,3.21-.41,2.29,2.29,0,0,1,.41,3.21c-.15.19-14.92,20.07-8.52,61.82A2.28,2.28,0,0,1,152-50.18l-.35,0a2.29,2.29,0,0,1-2.26-1.94C142.7-96,158.19-116.55,158.85-117.41Zm192-.37a2.29,2.29,0,0,1-.1-3.23,2.29,2.29,0,0,1,3.23-.11c.68.64,16.57,15.81,15.15,41.66a2.28,2.28,0,0,1-2.28,2.16h-.13a2.28,2.28,0,0,1-2.15-2.41A51.54,51.54,0,0,0,350.8-117.78Z"/><path d="M234.33,58.41a4.67,4.67,0,1,0-4.67-4.67A4.67,4.67,0,0,0,234.33,58.41Z"/><path d="M110.31-111.44c2.26-25.8,6.53-37.09,9.27-41.86-.66-1.92-1.27-3.74-1.82-5.43-3.28,3.74-8.68,14.09-11.6,42.53-3.66,35.67-4,108.82,15.42,254.77l4.54-.6C111.06,24.52,105.74-59.39,110.31-111.44Z"/><path d="M401.64-161.86c-.58,1.39-1.24,3-1.95,4.87,2.55,3.91,6.84,14.36,9.9,42,5.64,51,4.85,136.31-2.33,253.53h4.59C426.91-107.64,409.9-153.62,401.64-161.86Z"/><path class="cls-4" d="M222.06-32.07c-5.66-16,4.32-28.18,4.74-28.68l3-3.64-4.75-.13c-.06,0-6.16-.27-15.51-8.69-8.14-7.32-36.54-75.17-46.8-100.69a2.28,2.28,0,0,0-3-1.27,2.27,2.27,0,0,0-1.27,3c3.81,9.5,37.57,93,48,102.39,6.33,5.71,11.42,8.11,14.66,9.13a34.89,34.89,0,0,0-3.44,30.14c5.91,16.72,32.71,54.65,36.51,60L254,21.16C245.44,8.78,226.67-19,222.06-32.07Z"/><path class="cls-4" d="M298.26-33.47c2.78-15.14-2-24.09-5.28-28.26,10.46-4.49,40.08-24.58,58.53-110.84a2.29,2.29,0,0,0-1.76-2.72,2.28,2.28,0,0,0-2.71,1.76C335.8-121,320.39-94.26,309.45-81.07c-11.75,14.16-20.94,16-21,16.07l-5.09.9,4.1,3.17c.4.31,9.77,7.81,6.32,26.63-2.9,15.82-25.84,45.37-35.11,56.8l.18,7C263.59,23.83,294.64-13.68,298.26-33.47Z"/><path class="cls-4" d="M258.65,22.5,255.71-91.67a2.31,2.31,0,0,0-2.35-2.23,2.29,2.29,0,0,0-2.23,2.35L254,21.16l2.63,3.76C257.22,24.25,257.89,23.43,258.65,22.5Z"/><path class="cls-4" d="M258.83,29.49l-.57.67-1.9,2.23L254.66,30l-.41-.58,2.8,109.14h4.58Z"/><path class="cls-4" d="M256.36,32.39l1.9-2.23.57-.67-.18-7c-.76.93-1.43,1.75-2,2.42L254,21.16l.22,8.27.41.58Z"/><path class="cls-4" d="M234.33,63a9.25,9.25,0,1,0-9.24-9.25A9.26,9.26,0,0,0,234.33,63Zm0-13.92a4.67,4.67,0,1,1-4.67,4.67A4.68,4.68,0,0,1,234.33,49.07Z"/><path class="cls-4" d="M235.42,96.74a9.25,9.25,0,1,0,9.25,9.24A9.25,9.25,0,0,0,235.42,96.74Zm0,13.91a4.67,4.67,0,1,1,4.67-4.67A4.68,4.68,0,0,1,235.42,110.65Z"/></g><circle class="cls-1" cx="250" cy="250" r="215.67"/><g class="cls-5"><path class="cls-3" d="M329.06,224.2s-4.92-5.27-3.78-32.21c0,0-16.25-10.5-22.68-22.21a31.57,31.57,0,0,0,8.31,14.55s-12.47,0-14.17-23.44c0,0-29.47-19.84-57.06,4.73,0,0-29.1-15.87-55.18-1.89,0,0,5.63,20.6-9.47,27a25.1,25.1,0,0,0,4.56-21s-3.78,16.43-12.66,25.88c0,0,3.59,27.78,2.83,34.87-.66,6.18-5.63,13.61-3.42,35.4a113.81,113.81,0,0,0,8.06,18.66,12.58,12.58,0,0,1-.3-4,8.49,8.49,0,0,1,.51-2.35,8.71,8.71,0,0,1,.94,2.22,13.51,13.51,0,0,1,.41,2.27,12.62,12.62,0,0,1,0,2.3,8.5,8.5,0,0,1-.33,1.83q1.58,2.78,3.39,5.61a13.26,13.26,0,0,1-.31-1.87,13.58,13.58,0,0,1,0-2.3,8.85,8.85,0,0,1,.51-2.36,8.51,8.51,0,0,1,.94,2.22,13.59,13.59,0,0,1,.43,4.58,9.54,9.54,0,0,1-.28,1.64c1.14,1.71,2.34,3.42,3.62,5.14a13.57,13.57,0,0,1-.38-4.38,8.5,8.5,0,0,1,.52-2.36A8.82,8.82,0,0,1,185,295a13.73,13.73,0,0,1,.42,2.27,12.72,12.72,0,0,1,0,2.31,9.86,9.86,0,0,1-.27,1.58q1.4,1.8,2.88,3.6a13.87,13.87,0,0,1-.33-1.91,13.71,13.71,0,0,1,0-2.31,8.85,8.85,0,0,1,.51-2.36,8.65,8.65,0,0,1,.94,2.22,12.74,12.74,0,0,1,.41,2.27,13.7,13.7,0,0,1,0,2.31,11.14,11.14,0,0,1-.22,1.37c1.14,1.34,2.34,2.67,3.57,4-.07-.22-.15-.45-.21-.67a12.74,12.74,0,0,1-.41-2.27,13.69,13.69,0,0,1,0-2.31,8.51,8.51,0,0,1,.52-2.35,8.82,8.82,0,0,1,.93,2.22,13.73,13.73,0,0,1,.42,2.27,12.62,12.62,0,0,1,0,2.3,9.45,9.45,0,0,1-.32,1.8q1.71,1.83,3.55,3.65c-.09-.24-.17-.49-.24-.73a13.26,13.26,0,0,1-.42-4.58,8.13,8.13,0,0,1,.51-2.36,8.61,8.61,0,0,1,.93,2.22,13.73,13.73,0,0,1,.42,2.27,12.73,12.73,0,0,1,0,2.31,9.06,9.06,0,0,1-.31,1.75c1.43,1.4,2.9,2.79,4.44,4.17-.11-.29-.21-.59-.3-.89a13.26,13.26,0,0,1-.42-4.58,8.86,8.86,0,0,1,.51-2.35,8.51,8.51,0,0,1,.94,2.22,12.74,12.74,0,0,1,.41,2.27,13.58,13.58,0,0,1,0,2.3,9.15,9.15,0,0,1-.32,1.77q1.83,1.62,3.76,3.23l-.09-.29a13.17,13.17,0,0,1-.42-4.57,8.13,8.13,0,0,1,.51-2.36,9,9,0,0,1,.94,2.22,13.7,13.7,0,0,1,.41,2.27,12.73,12.73,0,0,1,0,2.31,10.81,10.81,0,0,1-.21,1.37q2,1.62,4.05,3.22c-.11-.3-.21-.6-.29-.9a12.74,12.74,0,0,1-.41-2.27,13.69,13.69,0,0,1,0-2.31,8.51,8.51,0,0,1,.52-2.35,8.82,8.82,0,0,1,.93,2.22,13.59,13.59,0,0,1,.43,4.58,9,9,0,0,1-.29,1.67c1.36,1,2.76,2.06,4.19,3.08-.14-.35-.25-.71-.36-1.06a13.26,13.26,0,0,1-.42-4.58,8.7,8.7,0,0,1,.51-2.35,8.37,8.37,0,0,1,.94,2.22,12.58,12.58,0,0,1,.41,2.27,13.58,13.58,0,0,1,0,2.3,10,10,0,0,1-.31,1.76q2,1.43,4.15,2.84c-.11-.3-.21-.61-.3-.91a13.51,13.51,0,0,1-.41-2.27,12.62,12.62,0,0,1,0-2.3,8.85,8.85,0,0,1,.51-2.36,8.51,8.51,0,0,1,.94,2.22,13.7,13.7,0,0,1,.41,2.27,12.72,12.72,0,0,1,0,2.31,10.53,10.53,0,0,1-.27,1.62q1.93,1.27,4,2.53c-.05-.16-.1-.31-.14-.46a13.26,13.26,0,0,1-.42-4.58,8.14,8.14,0,0,1,.51-2.35,8.33,8.33,0,0,1,.93,2.22,13.54,13.54,0,0,1,.42,2.27,12.62,12.62,0,0,1,0,2.3,11.12,11.12,0,0,1-.19,1.27c1.21.74,2.43,1.48,3.69,2.21a12.18,12.18,0,0,1-.36-2.06,13.58,13.58,0,0,1,0-2.3,8.85,8.85,0,0,1,.51-2.36,8.65,8.65,0,0,1,.94,2.22,13.59,13.59,0,0,1,.43,4.58c0,.24-.06.48-.09.73l2,1.17c.59.33,1.2.63,1.8.92l-.21-.65a13.23,13.23,0,0,1-.42-4.57,8.85,8.85,0,0,1,.51-2.36,8.51,8.51,0,0,1,.94,2.22,13.59,13.59,0,0,1,.43,4.58,11,11,0,0,1-.19,1.26,32.47,32.47,0,0,0,3.89,1.44c-.13-.34-.24-.67-.34-1a13.26,13.26,0,0,1-.42-4.58,8.14,8.14,0,0,1,.51-2.35,8.33,8.33,0,0,1,.93,2.22,13.54,13.54,0,0,1,.42,2.27,12.62,12.62,0,0,1,0,2.3,9.56,9.56,0,0,1-.22,1.39,30.93,30.93,0,0,0,3.66.77c-.1-.38-.16-.76-.22-1.13a13.78,13.78,0,0,1-.09-2.31,13.58,13.58,0,0,1,.31-2.28,8.55,8.55,0,0,1,.83-2.27,8.58,8.58,0,0,1,.62,2.33,12.95,12.95,0,0,1-.21,4.59,8.5,8.5,0,0,1-.35,1.19c.8.1,1.61.17,2.41.2a9.38,9.38,0,0,1-.31-1.45,12.8,12.8,0,0,1-.09-2.31,12.63,12.63,0,0,1,.31-2.28,8.55,8.55,0,0,1,.83-2.27,8.58,8.58,0,0,1,.62,2.33,13.6,13.6,0,0,1-.21,4.59,10.75,10.75,0,0,1-.45,1.43c.84,0,1.67,0,2.5,0a11,11,0,0,1-.3-1.45,13.79,13.79,0,0,1-.1-2.31,13.58,13.58,0,0,1,.31-2.28,8.91,8.91,0,0,1,.83-2.27,8.23,8.23,0,0,1,.62,2.33,12.95,12.95,0,0,1-.21,4.59,9.73,9.73,0,0,1-.4,1.34q1.19-.09,2.37-.27c-.1-.38-.16-.76-.22-1.13a12.8,12.8,0,0,1-.09-2.31,13.58,13.58,0,0,1,.31-2.28,8.55,8.55,0,0,1,.83-2.27,8.58,8.58,0,0,1,.62,2.33,13.6,13.6,0,0,1-.21,4.59c-.07.31-.16.62-.26.93q1.05-.19,2.1-.45a5.07,5.07,0,0,1-.09-.54,12.8,12.8,0,0,1-.09-2.31,12.61,12.61,0,0,1,.3-2.28,9,9,0,0,1,.84-2.27,9,9,0,0,1,.62,2.33,13.74,13.74,0,0,1,.09,2.31A12.73,12.73,0,0,1,261,346l0,.1c.89-.26,1.77-.55,2.63-.89a9.24,9.24,0,0,1-.41-1.81,13.6,13.6,0,0,1,.21-4.59,8.39,8.39,0,0,1,.84-2.26,8.76,8.76,0,0,1,.62,2.33,13.66,13.66,0,0,1,.09,2.3,12.73,12.73,0,0,1-.31,2.29,10.93,10.93,0,0,1-.47,1.51,33.57,33.57,0,0,0,3.57-1.74,9.17,9.17,0,0,1-.45-1.88,13.3,13.3,0,0,1,.22-4.59,8.49,8.49,0,0,1,.83-2.26,8.49,8.49,0,0,1,.62,2.33,13,13,0,0,1-.21,4.59,10.8,10.8,0,0,1-.47,1.5c.54-.32,1.07-.64,1.59-1,1.07-.71,2.16-1.46,3.28-2.25a9.26,9.26,0,0,1-.45-1.89,12.65,12.65,0,0,1-.09-2.3,13.84,13.84,0,0,1,.31-2.29,8.61,8.61,0,0,1,.83-2.26,8.58,8.58,0,0,1,.62,2.33,12.95,12.95,0,0,1-.21,4.59,9.3,9.3,0,0,1-.44,1.42q2.2-1.56,4.5-3.32a9.34,9.34,0,0,1-.39-1.75,13.27,13.27,0,0,1,.22-4.59,8.36,8.36,0,0,1,.83-2.26,8.4,8.4,0,0,1,.62,2.33,13.63,13.63,0,0,1-.21,4.59c-.09.37-.19.74-.32,1.11,1.4-1.08,2.83-2.22,4.27-3.41a9.39,9.39,0,0,1-.28-1.36,13.63,13.63,0,0,1,.21-4.59,9,9,0,0,1,.84-2.26,8.86,8.86,0,0,1,.62,2.33,13.6,13.6,0,0,1-.21,4.59c0,.13-.07.26-.1.39,1.15-1,2.32-2,3.49-3a8.29,8.29,0,0,1-.5-2,13,13,0,0,1,.21-4.59,8.65,8.65,0,0,1,.84-2.26,8.55,8.55,0,0,1,.61,2.33,12.95,12.95,0,0,1-.21,4.59,10,10,0,0,1-.48,1.53q2.16-1.95,4.35-4.06a9.53,9.53,0,0,1-.38-1.69,12.69,12.69,0,0,1-.09-2.3,11.9,11.9,0,0,1,.31-2.29,8.49,8.49,0,0,1,.83-2.26,8.49,8.49,0,0,1,.62,2.33,13.63,13.63,0,0,1-.21,4.59c-.07.26-.14.52-.22.78q2.07-2,4.13-4.23a10.83,10.83,0,0,1-.36-1.65,12.69,12.69,0,0,1-.09-2.3,13.7,13.7,0,0,1,.31-2.29,8.49,8.49,0,0,1,.83-2.26,8.49,8.49,0,0,1,.62,2.33,13.6,13.6,0,0,1-.21,4.59c-.05.19-.09.37-.15.56.88-.95,1.75-1.93,2.62-2.92a9.41,9.41,0,0,1-.33-1.54,13.3,13.3,0,0,1,.22-4.59,8.49,8.49,0,0,1,.83-2.26,8.49,8.49,0,0,1,.62,2.33,13.63,13.63,0,0,1-.21,4.59l-.07.25c1-1.14,1.95-2.32,2.92-3.52a8.75,8.75,0,0,1-.43-1.84,12.7,12.7,0,0,1-.1-2.3,13.7,13.7,0,0,1,.31-2.29,8.85,8.85,0,0,1,.83-2.26,8.15,8.15,0,0,1,.62,2.33,13,13,0,0,1-.21,4.59c-.06.25-.13.5-.2.75,1.19-1.52,2.37-3.09,3.54-4.69a8.45,8.45,0,0,1-.58-2.23,12.7,12.7,0,0,1-.1-2.3,13.7,13.7,0,0,1,.31-2.29,8.49,8.49,0,0,1,.83-2.26,8.15,8.15,0,0,1,.62,2.33,13,13,0,0,1-.21,4.59,9.46,9.46,0,0,1-.57,1.73c1.32-1.84,2.62-3.73,3.88-5.69a9,9,0,0,1-.49-2,12.69,12.69,0,0,1-.09-2.3,13.7,13.7,0,0,1,.31-2.29,8.61,8.61,0,0,1,.83-2.26,8.58,8.58,0,0,1,.62,2.33,13.6,13.6,0,0,1-.21,4.59q-.07.33-.18.66c1.08-1.72,2.14-3.47,3.16-5.28a10.88,10.88,0,0,1-.34-1.56,13.3,13.3,0,0,1,.22-4.59,8.61,8.61,0,0,1,.83-2.26,8.58,8.58,0,0,1,.62,2.33,13.75,13.75,0,0,1,.1,2.31,12.75,12.75,0,0,1-.17,1.5,130.17,130.17,0,0,0,12.31-32.31C331.55,248.17,331.39,235.67,329.06,224.2ZM216.67,301.85a8.51,8.51,0,0,1-.52,2.35,8.37,8.37,0,0,1-.94-2.22,13.23,13.23,0,0,1-.42-4.57,8.85,8.85,0,0,1,.51-2.36,8.51,8.51,0,0,1,.94,2.22,13.59,13.59,0,0,1,.43,4.58Zm2.91-4.39a8.86,8.86,0,0,1-.51,2.35,8.05,8.05,0,0,1-.94-2.22,12.58,12.58,0,0,1-.41-2.27,13.58,13.58,0,0,1,0-2.3,8.85,8.85,0,0,1,.51-2.36,8.51,8.51,0,0,1,.94,2.22,13.59,13.59,0,0,1,.43,4.58Zm.63-64.35a1.28,1.28,0,0,1-1.5.15l-.13-.08c-.85-.5-1.76-1-2.7-1.43a20.86,20.86,0,0,1,.74,5.5c0,9-5.66,16.31-12.63,16.31s-12.62-7.32-12.62-16.31a19.73,19.73,0,0,1,2.51-9.79l-.33,0-1.36.14c-.9.11-1.82.12-2.72.25s-1.81.33-2.72.46c-.45.08-.91.12-1.37.21l-1.34.33-2.74.6c-1.36.35-2.71.76-4.09,1.11.13.58.27,1.15.42,1.72.32,1.21.67,2.41,1.09,3.6a23.75,23.75,0,0,0,3.4,6.74,24.88,24.88,0,0,1-5.07-5.92c-.72-1.1-1.37-2.23-2-3.39s-1.22-2.3-1.78-3.57h0l-.61-1.28,1.62-.95a57.79,57.79,0,0,1,5.4-2.85l2.88-1.08,1.46-.51c.49-.16,1-.26,1.5-.39,1-.25,2-.46,3-.69s2.06-.29,3.09-.42l1.56-.16c.52-.05,1,0,1.57,0,1,0,2.09,0,3.13,0l3.13.33a41.83,41.83,0,0,1,6.11,1.41,25.76,25.76,0,0,1,2.92,1.11,28.5,28.5,0,0,1,10.25,7A1.28,1.28,0,0,1,220.21,233.11Zm-19.93-32.62c-8.93-1.27-29.05,4.46-29.05,4.46,26.21-26.58,53.14-4,53.14-4L223,209S209.21,201.76,200.28,200.49Zm24.79,93.65a8.85,8.85,0,0,1-.51,2.36,8.18,8.18,0,0,1-.94-2.22,12.74,12.74,0,0,1-.41-2.27,13.69,13.69,0,0,1,0-2.31,8.86,8.86,0,0,1,.51-2.35,8.37,8.37,0,0,1,.94,2.22,13.57,13.57,0,0,1,.43,4.57ZM320,202.93s-20.13-5.73-29.06-4.46-22.67,8.5-22.67,8.5l-1.42-8.08S293.79,176.36,320,202.93Zm-48.25,83.91a8.86,8.86,0,0,1-.51,2.35,8.05,8.05,0,0,1-.94-2.22,12.58,12.58,0,0,1-.41-2.27,13.58,13.58,0,0,1,0-2.3,8.85,8.85,0,0,1,.51-2.36,8.51,8.51,0,0,1,.94,2.22,13.59,13.59,0,0,1,.43,4.58Zm-7.15-3.16a8.78,8.78,0,0,1,.51-2.35,8.37,8.37,0,0,1,.94,2.22,13.57,13.57,0,0,1,.43,4.57,8.5,8.5,0,0,1-.52,2.36,8.51,8.51,0,0,1-.94-2.22,13.7,13.7,0,0,1-.41-2.27A12.73,12.73,0,0,1,264.61,283.68Zm-5.27,0a8.07,8.07,0,0,1,.51-2.35,8.33,8.33,0,0,1,.93,2.22,13.54,13.54,0,0,1,.42,2.27,12.62,12.62,0,0,1,0,2.3,8.47,8.47,0,0,1-.51,2.36,8.51,8.51,0,0,1-.94-2.22,13.26,13.26,0,0,1-.42-4.58Zm-21-23a1.4,1.4,0,0,1,1.4.64l.15.24a13.11,13.11,0,0,0,1.6,2.16,7,7,0,0,0,2,1.52,6.45,6.45,0,0,0,2.19.65,9,9,0,0,0,2.47-.13,8.18,8.18,0,0,0,2.34-.79,10,10,0,0,0,2-1.5,13.7,13.7,0,0,0,1.73-2.14,20.69,20.69,0,0,0,1.38-2.51l.08-.16a1.37,1.37,0,0,1,2.61.68,12.52,12.52,0,0,1-.82,3.6,13.46,13.46,0,0,1-1.84,3.27,12.12,12.12,0,0,1-2.92,2.64,11.2,11.2,0,0,1-3.72,1.44,11.57,11.57,0,0,1-4,.14,9.8,9.8,0,0,1-3.86-1.56,9.39,9.39,0,0,1-2.71-3,11,11,0,0,1-.81-1.74,9.34,9.34,0,0,1-.46-1.89A1.4,1.4,0,0,1,238.33,260.68Zm17.61,27.44a8.5,8.5,0,0,1-.52,2.36,8.47,8.47,0,0,1-.93-2.22,11.9,11.9,0,0,1-.41-2.27,13.7,13.7,0,0,1,0-2.31,8.78,8.78,0,0,1,.51-2.35,8.37,8.37,0,0,1,.94,2.22,13.57,13.57,0,0,1,.43,4.57Zm-13.65,1.45a8.43,8.43,0,0,1-.52,2.35,8.37,8.37,0,0,1-.94-2.22,13.23,13.23,0,0,1-.42-4.57,8.85,8.85,0,0,1,.51-2.36,8.51,8.51,0,0,1,.94,2.22,13.59,13.59,0,0,1,.43,4.58Zm-8.54-4.44a8.13,8.13,0,0,1,.51-2.36,8.47,8.47,0,0,1,.93,2.22,13.73,13.73,0,0,1,.42,2.27,12.72,12.72,0,0,1,0,2.31,8.41,8.41,0,0,1-.51,2.35,8.37,8.37,0,0,1-.94-2.22,13.23,13.23,0,0,1-.42-4.57Zm-5.07,1.26a8.85,8.85,0,0,1,.51-2.36,8.65,8.65,0,0,1,.94,2.22,13.59,13.59,0,0,1,.43,4.58,8.36,8.36,0,0,1-.52,2.35,8.33,8.33,0,0,1-.93-2.22,11.8,11.8,0,0,1-.41-2.26A13.71,13.71,0,0,1,228.68,286.39Zm32.4,31.19-1.45,0c-.48,0-1,0-1.43,0s-1,0-1.43,0-.95.06-1.42.09c-.95,0-1.88.14-2.83.21-1.87.19-3.73.48-5.59.84a46.44,46.44,0,0,0-5.58,1.47,14.94,14.94,0,0,1,5.12-3,25.45,25.45,0,0,1,5.84-1.37,27.08,27.08,0,0,1,6,.08,26.79,26.79,0,0,1,2.92.55,25.25,25.25,0,0,1,2.82.95C263,317.58,262.05,317.55,261.08,317.58Zm8.79-20.67a61,61,0,0,1-28.06,6.54,51.29,51.29,0,0,1-7.22-.57,28.92,28.92,0,0,1-3.55-.7c-1.17-.29-2.34-.58-3.49-.94,2.41-.46,4.75-.57,7.08-.92s4.63-.54,6.91-1c4.57-.62,9.05-1.55,13.51-2.55s8.87-2.27,13.27-3.65,8.78-2.94,13.27-4.68A42.31,42.31,0,0,1,269.87,296.91Zm5.4-15.1a8.86,8.86,0,0,1,.51-2.35,8.51,8.51,0,0,1,.94,2.22,12.74,12.74,0,0,1,.41,2.27,13.58,13.58,0,0,1,0,2.3,8.5,8.5,0,0,1-.52,2.36,8.51,8.51,0,0,1-.94-2.22,13.26,13.26,0,0,1-.42-4.58Zm7.26,4.44a8.13,8.13,0,0,1-.51,2.36,8.51,8.51,0,0,1-.94-2.22,13.26,13.26,0,0,1-.42-4.58,8.49,8.49,0,0,1,.51-2.35,8.51,8.51,0,0,1,.94,2.22,13.7,13.7,0,0,1,.41,2.27A12.62,12.62,0,0,1,282.53,286.25Zm4.7,3.32a8.78,8.78,0,0,1-.51,2.35,8.05,8.05,0,0,1-.94-2.22,12.58,12.58,0,0,1-.41-2.27,13.58,13.58,0,0,1,0-2.3,8.85,8.85,0,0,1,.51-2.36,8.51,8.51,0,0,1,.94,2.22,13.59,13.59,0,0,1,.43,4.58Zm4.7,5.39a8.5,8.5,0,0,1-.52,2.36,8.51,8.51,0,0,1-.94-2.22,13.7,13.7,0,0,1-.41-2.27,12.72,12.72,0,0,1,0-2.31,8.86,8.86,0,0,1,.51-2.35,8.37,8.37,0,0,1,.94,2.22,13.57,13.57,0,0,1,.43,4.57Zm27.91-68.17h0c-.56,1.26-1.15,2.4-1.78,3.57s-1.29,2.29-2,3.39a24.6,24.6,0,0,1-5.06,5.91,23.75,23.75,0,0,0,3.4-6.74c.42-1.18.77-2.39,1.09-3.6.15-.56.29-1.14.42-1.71-1.38-.35-2.73-.77-4.09-1.11l-2.74-.6-1.35-.33c-.45-.09-.91-.14-1.36-.21-.92-.13-1.82-.31-2.72-.46s-1.82-.15-2.73-.26l-1.36-.13-.32,0a19.69,19.69,0,0,1,2.51,9.78c0,9-5.66,16.32-12.62,16.32s-12.63-7.32-12.63-16.32a20.43,20.43,0,0,1,.74-5.49c-.94.45-1.85.93-2.7,1.43l-.13.08a1.29,1.29,0,0,1-1.75-.46,1.26,1.26,0,0,1,.16-1.5,32.55,32.55,0,0,1,16.2-8.94,29.34,29.34,0,0,1,3.08-.59l3.13-.33c1-.05,2.09-.05,3.13,0,.53,0,1.05,0,1.57,0l1.56.16c1,.12,2.07.21,3.09.42s2,.44,3,.69c.5.13,1,.23,1.5.39l1.45.51,2.89,1.08a57.71,57.71,0,0,1,5.4,2.84l1.62,1Z"/><path class="cls-6" d="M239.4,406.23c-41.58-4.51-57.35-34.94-58-36.28l-.1-.23a25.24,25.24,0,0,1-1-3.56c-13.76,4.82-65.86,22.65-87.77,24l1.42,35.38-5.79-35.29c-20.65.24-22.73,4.36-24.36,11-1.67,6.82-7.69,181.52,5.29,278.63h44.39c4.23-91-17.5-232.27-17.73-233.73l4.59-.72c.23,1.47,22,142.91,17.78,234.45H228.17V421.45Z"/><path class="cls-6" d="M197.22,346.08c-4.38-3.37-7.88-6.34-10.13-8.32-.53,2-1.19,4.74-1.75,7.83l44.14,25.51a18.6,18.6,0,0,1,9.25,16v14.32c.88.11,1.77.22,2.68.3v-31.9c-16-4.09-32.21-14.67-43.26-23.08h-.93Z"/><path d="M227.15,375.12l-42.57-24.61c-.73,6-.82,12.48,1,17.46.95,1.78,14.85,26.63,48.51,32.79V387.14A13.92,13.92,0,0,0,227.15,375.12Z"/><path class="cls-3" d="M254.5,367.64l44.63-25.9-2.57-15.48a168.12,168.12,0,0,1-24.11,19.56,37.18,37.18,0,0,1-20.68,6.29,37.72,37.72,0,0,1-18.4-4.82,187.08,187.08,0,0,1-31.51-21.85v18.28c11.14,8.35,27.17,18.63,42.38,22l1.81.41v35.56l11.29-1Z"/><path class="cls-3" d="M156.54,240.59c-1-3.86-2-7.9-3-12.06-2.83-.54-5.31.8-7.62,4.07-2.48,3.51-2.38,9,.29,15.16C149.31,255,155,261,160.71,263.43c-.15-.52-.3-1.05-.44-1.56A115.51,115.51,0,0,1,156.54,240.59Z"/><path d="M269.38,385.08l2.13,12.62c33.65-9.73,42.75-27.86,43.53-29.55a41.32,41.32,0,0,0,.15-17.73l-41,24.34A10.1,10.1,0,0,0,269.38,385.08Z"/><path class="cls-4" d="M182,242.51s10.21,12.8,20.71,13.19c1.84.06,3.56,0,5.17-.06,13.81-.88,19.27-19.23,7-25.73l-.28-.14c-9.3-4.78-39.76-.36-39.76-.36S176.21,237.44,182,242.51Z"/><path class="cls-4" d="M310.79,239.84s-10.21,12.8-20.71,13.18a51.59,51.59,0,0,1-5.17-.06c-13.81-.87-19.27-19.22-7.05-25.72l.28-.15c9.3-4.78,39.76-.35,39.76-.35S316.56,234.77,310.79,239.84Z"/><path class="cls-6" d="M261.94,400.09c1.75-.37,3.42-.77,5.07-1.18l-2.21-13.06a14.78,14.78,0,0,1,7-15.08l42.27-25.08a57.69,57.69,0,0,0-2.07-6.05l-52.62,30.54Z"/><path class="cls-3" d="M351.22,238.78c3.14-6.88,4.33-15.87-.1-20.45-2.08-2.15-4.13-3.23-6.1-3.23h0c-1.82,0-3.7.91-5.59,2.69a149.5,149.5,0,0,1-2.55,35.13C342.88,251.59,348.26,245.24,351.22,238.78Z"/><path class="cls-6" d="M441,469.38c3.33-27,8.37-67.8-3.19-79.2-2.44-2.41-5.55-3.32-9.5-2.77a81.09,81.09,0,0,1-12.07.56l-5,22.75.74-22.88c-32.64-1.51-83.18-13.66-93.57-16.23-3.4,6.11-17.22,25.67-58.19,33.54l-2.53.49,0-.25-11.68,1v.34l-1.21-.07-12,16.31V679.82h155c-3.58-88.68,16.52-227.52,16.73-228.94l4.59.67C409,453,388.88,591.6,392.48,679.82h40.65c.56-28.8,3.38-167.68,6.18-195.65C439.74,479.89,440.37,474.78,441,469.38Zm-181.19,146a9.39,9.39,0,1,1,9.39-9.38A9.4,9.4,0,0,1,259.85,615.38Zm0-82a9.39,9.39,0,1,1,9.39-9.38A9.4,9.4,0,0,1,259.85,533.33Zm0-82a9.39,9.39,0,1,1,9.39-9.39A9.4,9.4,0,0,1,259.85,451.29Zm109.53,73.39v37.08l-29.84,15.49-29.85-15.49V504.38h59.69Z"/><path class="cls-4" d="M259.85,437.15a4.75,4.75,0,1,0,4.75,4.75A4.75,4.75,0,0,0,259.85,437.15Z"/><path d="M146.19,247.76c-2.67-6.12-2.77-11.65-.29-15.16,2.31-3.27,4.79-4.61,7.62-4.07-.37-1.57-.72-3.15-1.07-4.75-3.86,0-7.43,2-10.34,6.15-3.44,4.86-3.5,12-.18,19.68,3.5,8,11.3,17.21,20.49,19.24-.64-1.85-1.2-3.66-1.71-5.42C155,261,149.31,255,146.19,247.76Z"/><path d="M339.34,216.06c0,.58.05,1.15.07,1.73,1.89-1.78,3.77-2.69,5.59-2.69h0c2,0,4,1.08,6.1,3.23,4.43,4.58,3.24,13.57.1,20.45-3,6.46-8.34,12.81-14.36,14.14-.32,1.64-.67,3.26-1,4.85,9-.7,16.11-9.39,19.62-17.06,4.63-10.14,4.25-20.19-1-25.61-2.76-2.85-5.68-4.38-8.7-4.6a21.62,21.62,0,0,1-.61,2.39A8.82,8.82,0,0,0,339.34,216.06Z"/><path d="M291,198.47c8.93-1.27,29.06,4.46,29.06,4.46-26.22-26.57-53.15-4-53.15-4l1.42,8.08S282,199.74,291,198.47Z"/><path d="M171.23,205s20.12-5.73,29.05-4.46S223,209,223,209l1.42-8.08S197.44,178.37,171.23,205Z"/><path d="M255.05,296.81c-4.46,1-8.94,1.93-13.51,2.55-2.28.42-4.58.62-6.91,1s-4.67.46-7.08.92c1.15.36,2.32.65,3.49.94a28.92,28.92,0,0,0,3.55.7,51.29,51.29,0,0,0,7.22.57,61,61,0,0,0,28.06-6.54,42.31,42.31,0,0,0,11.72-8.43c-4.49,1.74-8.86,3.28-13.27,4.68S259.52,295.81,255.05,296.81Z"/><path d="M258.28,316a27.08,27.08,0,0,0-6-.08,25.45,25.45,0,0,0-5.84,1.37,14.94,14.94,0,0,0-5.12,3,46.44,46.44,0,0,1,5.58-1.47c1.86-.36,3.72-.65,5.59-.84.95-.07,1.88-.2,2.83-.21.47,0,.94-.09,1.42-.09s1,0,1.43,0,.95,0,1.43,0l1.45,0c1,0,1.94,0,2.94-.09a25.25,25.25,0,0,0-2.82-.95A26.79,26.79,0,0,0,258.28,316Z"/><path d="M237.61,264.17a11,11,0,0,0,.81,1.74,9.39,9.39,0,0,0,2.71,3,9.8,9.8,0,0,0,3.86,1.56,11.57,11.57,0,0,0,4-.14,11.2,11.2,0,0,0,3.72-1.44,12.12,12.12,0,0,0,2.92-2.64,13.46,13.46,0,0,0,1.84-3.27,12.52,12.52,0,0,0,.82-3.6,1.37,1.37,0,0,0-2.61-.68l-.08.16a20.69,20.69,0,0,1-1.38,2.51,13.7,13.7,0,0,1-1.73,2.14,10,10,0,0,1-2,1.5,8.18,8.18,0,0,1-2.34.79,9,9,0,0,1-2.47.13,6.45,6.45,0,0,1-2.19-.65,7,7,0,0,1-2-1.52,13.11,13.11,0,0,1-1.6-2.16l-.15-.24a1.41,1.41,0,0,0-2.58,1A9.34,9.34,0,0,0,237.61,264.17Z"/><path d="M313.43,221.71l-2.89-1.08-1.45-.51c-.49-.16-1-.26-1.5-.39-1-.25-2-.47-3-.69s-2.06-.3-3.09-.42l-1.56-.16c-.52-.05-1,0-1.57,0-1,0-2.09,0-3.13,0l-3.13.33a29.34,29.34,0,0,0-3.08.59,32.43,32.43,0,0,0-16.2,8.94,1.26,1.26,0,0,0-.16,1.5,1.29,1.29,0,0,0,1.75.46l.13-.08c.85-.5,1.76-1,2.7-1.43a17.54,17.54,0,0,1,2.23-5l3.1,2c-.21.33-.41.68-.6,1,.91-.32,1.82-.6,2.74-.85a46.72,46.72,0,0,1,9.94-1.53,9.52,9.52,0,0,0-1.56-1.43l2.14-3a14.2,14.2,0,0,1,4,4.5l.32,0,1.36.13c.91.11,1.82.12,2.73.26s1.8.33,2.72.46c.45.07.91.12,1.36.21l1.35.33,2.74.6c1.36.34,2.71.76,4.09,1.11.15-.64.29-1.29.4-1.91h0l1,2.24c-.48-.1-.94-.21-1.41-.33-.13.57-.27,1.15-.42,1.71-.32,1.21-.67,2.42-1.09,3.6a23.75,23.75,0,0,1-3.4,6.74,24.6,24.6,0,0,0,5.06-5.91c.73-1.1,1.38-2.24,2-3.39s1.22-2.31,1.78-3.57h0l.61-1.28-1.62-1A57.71,57.71,0,0,0,313.43,221.71Z"/><path d="M316.29,225.7h0c-.11.62-.25,1.27-.4,1.91.47.12.93.23,1.41.33Z"/><path d="M295.46,224.4l-.83,0a14.82,14.82,0,0,1,3.39,9.82c0,6.95-4,12.6-8.91,12.6s-8.92-5.65-8.92-12.6a16,16,0,0,1,1.76-7.44q-1.24.43-2.49.93c-.74.31-1.5.66-2.24,1a20.43,20.43,0,0,0-.74,5.49c0,9,5.66,16.32,12.63,16.32s12.62-7.32,12.62-16.32a19.69,19.69,0,0,0-2.51-9.78l-1,0C297.28,224.47,296.37,224.4,295.46,224.4Z"/><path d="M282,226.83c.19-.36.39-.71.6-1l-3.1-2a17.54,17.54,0,0,0-2.23,5c.74-.36,1.5-.71,2.24-1S281.12,227.12,282,226.83Z"/><path d="M295.21,220l-2.14,3a9.52,9.52,0,0,1,1.56,1.43l.83,0c.91,0,1.82.07,2.72.07l1,0A14.2,14.2,0,0,0,295.21,220Z"/><path d="M176.81,228.68l-1,2.23,1.41-.33c-.15-.64-.29-1.28-.4-1.9Z"/><path d="M210.05,224.29a25.76,25.76,0,0,0-2.92-1.11,41.83,41.83,0,0,0-6.11-1.41l-3.13-.33c-1-.05-2.09-.05-3.13,0-.53,0-1,0-1.57,0l-1.56.16c-1,.13-2.07.21-3.09.42s-2,.44-3,.69c-.5.13-1,.23-1.5.39l-1.46.51-2.88,1.08a57.79,57.79,0,0,0-5.4,2.85l-1.62.95.61,1.28h0c.56,1.27,1.15,2.41,1.78,3.57s1.29,2.29,2,3.39a24.88,24.88,0,0,0,5.07,5.92,23.75,23.75,0,0,1-3.4-6.74c-.42-1.19-.77-2.39-1.09-3.6-.15-.57-.29-1.14-.42-1.72l-1.41.33,1-2.23h0c.11.62.25,1.26.4,1.9,1.38-.35,2.73-.76,4.09-1.11l2.74-.6,1.34-.33c.46-.09.92-.13,1.37-.21.91-.13,1.82-.3,2.72-.46s1.82-.14,2.72-.25l1.36-.14.33,0a14.2,14.2,0,0,1,4-4.5l2.14,3a9.59,9.59,0,0,0-1.56,1.44,46.09,46.09,0,0,1,9.94,1.53c.92.24,1.83.53,2.74.84a11.81,11.81,0,0,0-.61-1l3.11-2a17.67,17.67,0,0,1,2.23,5c.94.45,1.85.93,2.7,1.43l.13.08a1.27,1.27,0,0,0,1.59-1.95A28.5,28.5,0,0,0,210.05,224.29Z"/><path d="M211.15,229.8a16,16,0,0,1,1.76,7.45c0,6.95-4,12.6-8.92,12.6s-8.91-5.65-8.91-12.6a14.78,14.78,0,0,1,3.39-9.82l-.83-.05c-.91,0-1.82.06-2.73.06l-1,0a19.73,19.73,0,0,0-2.51,9.79c0,9,5.66,16.31,12.62,16.31s12.63-7.32,12.63-16.31a20.86,20.86,0,0,0-.74-5.5c-.74-.36-1.5-.71-2.25-1S212,230.09,211.15,229.8Z"/><path d="M210.54,228.76a11.81,11.81,0,0,1,.61,1c.83.29,1.66.6,2.48.93s1.51.66,2.25,1a17.67,17.67,0,0,0-2.23-5Z"/><path d="M197.64,227.38l.83.05A9.59,9.59,0,0,1,200,226l-2.14-3a14.2,14.2,0,0,0-4,4.5l1,0C195.82,227.44,196.73,227.37,197.64,227.38Z"/><path d="M201.86,320.32v5.12a187.08,187.08,0,0,0,31.51,21.85,37.72,37.72,0,0,0,18.4,4.82,37.18,37.18,0,0,0,20.68-6.29,168.12,168.12,0,0,0,24.11-19.56l-.75-4.5,4.58-.76.19,1.17c14.73-15.53,28.76-36.7,35.24-64.4-.39,0-.78.05-1.17.05s-.56,0-.84,0l.26-4.63a10.48,10.48,0,0,0,2.79-.25,149.5,149.5,0,0,0,2.55-35.13c-.22.21-.45.43-.68.67l-.53-.51a13.42,13.42,0,0,0-1,6.43c.7,11-6.78,43.87-6.78,43.87s.53-4.53.77-11.34a130.17,130.17,0,0,1-12.31,32.31c0,.26-.08.52-.14.78a8.36,8.36,0,0,1-.83,2.26,6,6,0,0,1-.29-.77c-1,1.81-2.08,3.56-3.16,5.28a7.52,7.52,0,0,1-.66,1.6,3.62,3.62,0,0,1-.13-.35c-1.26,2-2.56,3.85-3.88,5.69-.08.18-.16.35-.26.53a.42.42,0,0,1,0-.1c-1.17,1.6-2.35,3.17-3.54,4.69a8.07,8.07,0,0,1-.63,1.51,2.92,2.92,0,0,1-.19-.49c-1,1.2-1.94,2.38-2.92,3.52a7.91,7.91,0,0,1-.77,2,6.29,6.29,0,0,1-.29-.79c-.87,1-1.74,2-2.62,2.92a7.41,7.41,0,0,1-.69,1.7c-.1-.23-.18-.45-.26-.68q-2.06,2.19-4.13,4.23a7.18,7.18,0,0,1-.62,1.48c-.09-.21-.17-.43-.24-.64q-2.19,2.11-4.35,4.06a6.06,6.06,0,0,1-.35.73,2.85,2.85,0,0,1-.12-.31c-1.17,1.05-2.34,2.06-3.49,3a7.91,7.91,0,0,1-.74,1.87,6.23,6.23,0,0,1-.34-1c-1.44,1.19-2.87,2.33-4.27,3.41a7.29,7.29,0,0,1-.52,1.15c-.08-.2-.16-.39-.23-.58q-2.3,1.75-4.5,3.32a6.4,6.4,0,0,1-.4.84c-.06-.15-.12-.29-.17-.44-1.12.79-2.21,1.54-3.28,2.25-.52.35-1.05.67-1.59,1a6.53,6.53,0,0,1-.36.76c-.07-.15-.12-.3-.18-.45a33.57,33.57,0,0,1-3.57,1.74c-.11.25-.22.5-.36.75-.08-.18-.15-.35-.21-.52-.86.34-1.74.63-2.63.89a8.14,8.14,0,0,1-.81,2.16,7.08,7.08,0,0,1-.53-1.78q-1,.25-2.1.45a7,7,0,0,1-.58,1.33,6.66,6.66,0,0,1-.4-1.19q-1.19.18-2.37.27a7,7,0,0,1-.43.92,7.64,7.64,0,0,1-.32-.87c-.83,0-1.66.06-2.5,0a5.67,5.67,0,0,1-.39.83,6,6,0,0,1-.31-.87c-.8,0-1.61-.1-2.41-.2a6.76,6.76,0,0,1-.48,1.07,7,7,0,0,1-.41-1.19,30.93,30.93,0,0,1-3.66-.77,6.26,6.26,0,0,1-.29,1,7.16,7.16,0,0,1-.6-1.21,32.47,32.47,0,0,1-3.89-1.44,6.46,6.46,0,0,1-.33,1.09,7.4,7.4,0,0,1-.73-1.57c-.6-.29-1.21-.59-1.8-.92l-2-1.17a7.75,7.75,0,0,1-.42,1.62,8.05,8.05,0,0,1-.94-2.22c0-.07,0-.14,0-.21-1.26-.73-2.48-1.47-3.69-2.21a7.86,7.86,0,0,1-.32,1.09,7.44,7.44,0,0,1-.8-1.76q-2-1.26-4-2.53a6.91,6.91,0,0,1-.24.73,7.53,7.53,0,0,1-.64-1.31q-2.13-1.41-4.15-2.84-.09.3-.21.6a7.85,7.85,0,0,1-.58-1.16c-1.43-1-2.83-2-4.19-3.08a6,6,0,0,1-.22.68,7.33,7.33,0,0,1-.65-1.32q-2.09-1.61-4.05-3.22a7.33,7.33,0,0,1-.3,1,7.79,7.79,0,0,1-.85-1.93q-1.94-1.61-3.76-3.23a4.56,4.56,0,0,1-.2.59,7.7,7.7,0,0,1-.64-1.33c-1.54-1.38-3-2.77-4.44-4.17a5.41,5.41,0,0,1-.2.61,6.92,6.92,0,0,1-.7-1.49q-1.84-1.81-3.55-3.65c-.06.19-.12.37-.19.56a7.49,7.49,0,0,1-.73-1.55c-1.23-1.34-2.43-2.67-3.57-4a6.11,6.11,0,0,1-.3,1,8.71,8.71,0,0,1-.94-2.22c0-.11-.05-.23-.08-.35q-1.49-1.8-2.88-3.6a5.68,5.68,0,0,1-.24.77,8.37,8.37,0,0,1-.94-2.22c0-.06,0-.13-.05-.19-1.28-1.72-2.48-3.43-3.62-5.14-.07.24-.14.47-.23.71a8.05,8.05,0,0,1-.94-2.22c0-.13-.06-.27-.1-.4q-1.82-2.83-3.39-5.61c0,.17-.11.35-.18.53a8.51,8.51,0,0,1-.94-2.22c-.05-.18-.08-.36-.12-.54a113.81,113.81,0,0,1-8.06-18.66c.32,3.16.79,6.62,1.44,10.43,0,0-1.42-3.78-3.53-10.09l-.39,2.86c-.48-.07-1-.17-1.44-.28,5.36,15.6,15.56,34.35,34.8,52.4v-.93Z"/><path d="M160.27,261.87c.14.51.29,1,.44,1.56a15.37,15.37,0,0,0,2.91.94c-2-6.22-4.59-14.46-7.08-23.78A115.51,115.51,0,0,0,160.27,261.87Z"/><path d="M164.25,266.27c-.2-.61-.41-1.25-.63-1.9a15.37,15.37,0,0,1-2.91-.94c.51,1.76,1.07,3.57,1.71,5.42.48.11,1,.21,1.44.28Z"/><path d="M338.2,218l.53.51c.23-.24.46-.46.68-.67,0-.58,0-1.15-.07-1.73A8.47,8.47,0,0,0,338.2,218Z"/><path d="M334.07,253.17l-.26,4.63c.28,0,.56,0,.84,0s.78,0,1.17-.05c.37-1.59.72-3.21,1-4.85A10.48,10.48,0,0,1,334.07,253.17Z"/><path d="M314.37,145.36h0C314.35,145.33,314.32,145.32,314.37,145.36Z"/><path d="M156.47,224.57a66.69,66.69,0,0,1,1.22-9.12L160,216l2.27.52h0c-.05.23-4.29,19.36,2.6,44.38.45,1.63,1,3.32,1.53,5.05-2.21-21.79,2.76-29.22,3.42-35.4.76-7.09-2.83-34.87-2.83-34.87,8.88-9.45,12.66-25.88,12.66-25.88a25.1,25.1,0,0,1-4.56,21c15.1-6.42,9.47-27,9.47-27,26.08-14,55.18,1.89,55.18,1.89,27.59-24.57,57.06-4.73,57.06-4.73,1.7,23.44,14.17,23.44,14.17,23.44a31.57,31.57,0,0,1-8.31-14.55C309,181.49,325.28,192,325.28,192c-1.14,26.94,3.78,32.21,3.78,32.21,2.33,11.47,2.49,24,2.17,32.71a144.7,144.7,0,0,0,3.28-43.85l3.73-.27a11.79,11.79,0,0,1,6.74-2.33h0c.25,0,.5,0,.74,0,1.64-8,2.19-24.29,2.19-24.29l1.89,3.77c5.1-18.54-8.12-36.08-8.12-36.08,15.49-9.63,8.31-18.7,8.31-18.7s4.53,0,3-7-12.47-9.63-12.47-9.63C334.91,105.34,321.87,101,321.87,101l4.26-9.35c-7.66-7.37-30.27-9.35-30.27-9.35-25.44-33.45-71.3-4-71.3-4l5.48-6.8c-33.45,4.15-53.66,37.41-53.66,37.41a83.07,83.07,0,0,1,22.67-32.12c-36.09,16.81-36.47,57.06-36.47,57.06C131.78,147.67,142,178,142,178a47.94,47.94,0,0,1,11-28.82c-9.63,17.26-6.4,47.79-.54,74.6A12,12,0,0,1,156.47,224.57Zm16.32-63.23a12.61,12.61,0,0,1-.33,2.31,13.75,13.75,0,0,1-.71,2.23,8.86,8.86,0,0,1-1.23,2.1,8.45,8.45,0,0,1-.19-2.43,13.53,13.53,0,0,1,.32-2.31,12.88,12.88,0,0,1,.72-2.23,8.23,8.23,0,0,1,1.23-2.1A8.82,8.82,0,0,1,172.79,161.34Zm161.35-6.69a37.75,37.75,0,0,1,3.47-1.5,27.82,27.82,0,0,1-5.15,5.56,37.62,37.62,0,0,1-6.24,4.23,36.75,36.75,0,0,1-7,2.86,22.05,22.05,0,0,1-7.55.95c2.21-1.3,4.33-2.48,6.45-3.65l6.34-3.43c2.1-1.16,4.23-2.25,6.38-3.39C331.94,155.76,333,155.16,334.14,154.65ZM324,127.92a8.83,8.83,0,0,1,2.91.46,5,5,0,0,1,1.62.93,4,4,0,0,1,1.19,1.78,3.24,3.24,0,0,1,.17,1.19,4.14,4.14,0,0,1-.19,1.08,7.39,7.39,0,0,1-.36.86c-.14.23-.28.47-.43.69a12.05,12.05,0,0,1-1.9,2,36.05,36.05,0,0,1-4,2.93l-4,2.51a39.72,39.72,0,0,0-3.7,2.52l-.35.32a1.9,1.9,0,0,0-.2.22h.29a16.65,16.65,0,0,0,4.26-1c2.94-1,5.83-2.25,8.75-3.48a53.69,53.69,0,0,1-8,5.16,17.9,17.9,0,0,1-4.73,1.74,3.85,3.85,0,0,1-1.65,0,2.22,2.22,0,0,1-.52-.19,1.92,1.92,0,0,1-.53-.36,2,2,0,0,1-.44-.52,1.89,1.89,0,0,1-.26-.65,2.46,2.46,0,0,1,.07-1.34,4.68,4.68,0,0,1,.43-.84,5.55,5.55,0,0,1,.46-.62c.16-.19.32-.35.48-.51a27.15,27.15,0,0,1,3.87-3.12l3.85-2.72a39.4,39.4,0,0,0,3.54-2.75,9.42,9.42,0,0,0,1.32-1.42l.18-.31.1-.22s0,0,0-.06l-.12-.14a1.6,1.6,0,0,0-.42-.21l-.15-.07-.2,0-.42-.09c-.32,0-.61-.08-1-.07a25.39,25.39,0,0,0-4.34.34c-3,.43-6,1.22-9,2-6,1.58-12.05,3.4-18.16,5.09a112.07,112.07,0,0,1,17.32-7.85c1.5-.54,3-1.05,4.56-1.48s3.11-.85,4.71-1.17A25.61,25.61,0,0,1,324,127.92Zm-14.55-11.17c.83.07,1.66.22,2.49.34l1.23.21c.4.1.8.21,1.2.34.8.24,1.59.49,2.36.79-3.32.34-6.44.54-9.53,1.16a80.29,80.29,0,0,0-9.1,2.17c-3,.9-6,1.91-8.93,3s-5.92,2.32-9,3.55a32.3,32.3,0,0,1,7.74-6.18,42.64,42.64,0,0,1,9.13-4,35.31,35.31,0,0,1,9.9-1.52C307.82,116.69,308.66,116.72,309.49,116.75ZM260.91,101c1.13-.69,2.29-1.34,3.43-2,.58-.33,1.15-.67,1.73-1l1.78-.88c1.2-.59,2.39-1.18,3.6-1.73l3.71-1.48c.62-.24,1.23-.51,1.86-.73l1.91-.6,3.82-1.19,8.6-2.69-7.08,5.77c-2.95,2.4-5.91,4.84-8.8,7.34s-5.73,5.06-8.53,7.64-5.52,5.24-8.07,8c-.74.81-1.45,1.64-2.15,2.48q2.79-1.77,5.65-3.45c4.18-2.45,8.4-4.86,12.75-7a125.92,125.92,0,0,1,13.32-5.94,64.63,64.63,0,0,1,7-2.2,30.87,30.87,0,0,1,7.2-1c-4.81.61-9.28,2.49-13.64,4.46-2.19,1-4.33,2.09-6.44,3.22s-4.23,2.28-6.3,3.49c-4.15,2.43-8.26,4.92-12.29,7.54s-8.06,5.27-11.94,8l-4.23,3,1.63-4.91a20.54,20.54,0,0,1,3-5.54c1.19-1.62,2.47-3.12,3.78-4.59,2.62-2.91,5.39-5.64,8.21-8.3s5.75-5.19,8.69-7.7L275,97.44a61.32,61.32,0,0,0-5.8,2.44l-1.76.78-1.7.89c-1.13.6-2.28,1.18-3.41,1.8-2.19,1.34-4.42,2.63-6.53,4.11A106.65,106.65,0,0,0,243.62,117a104.57,104.57,0,0,0-10.75,11.31,68.23,68.23,0,0,1,4.58-6.39c.81-1,1.67-2,2.51-3l2.65-2.91a94.34,94.34,0,0,1,11.78-10.53C256.45,103.84,258.71,102.44,260.91,101Zm-52,18.72q2.66-5.73,5.79-11.24a96.61,96.61,0,0,1,7-10.63c2.67-3.34,5.56-6.64,9.57-9l4-2.33-1.44,4.43-2.78,8.52c-.94,2.84-1.85,5.69-2.81,8.52l-1.77,5.22a98.29,98.29,0,0,1,7.07-8.32A65.71,65.71,0,0,1,242.31,97a31.47,31.47,0,0,1,10.41-5.26,35.34,35.34,0,0,0-9.55,6.32,77.26,77.26,0,0,0-7.89,8.29c-2.41,3-4.73,6-6.88,9.17s-4.25,6.39-6.09,9.67l-7.93,14.09,4.83-15.48c.89-2.85,1.81-5.7,2.75-8.53l2.79-8.52c.92-2.84,1.9-5.66,2.86-8.5L228.72,95a49,49,0,0,0-4.55,4.77,101.49,101.49,0,0,0-7.36,9.95c-2.31,3.44-4.46,7-6.59,10.62s-4.15,7.25-6.11,11C205.54,127.38,207.16,123.5,208.94,119.69ZM187.84,144a9.38,9.38,0,0,1,2.52-.25,9.42,9.42,0,0,1-2,1.59,14.32,14.32,0,0,1-2.17,1.11,13.94,13.94,0,0,1-2.32.74,9,9,0,0,1-2.52.24,9.42,9.42,0,0,1,2-1.59,14.32,14.32,0,0,1,2.17-1.11A15.25,15.25,0,0,1,187.84,144Zm-8.48-5.7a13.15,13.15,0,0,1,2.93-3.54,8.36,8.36,0,0,1,2-1.31,8.75,8.75,0,0,1-.9,2.24,13,13,0,0,1-1.31,1.89,12.63,12.63,0,0,1-1.62,1.65,8.53,8.53,0,0,1-2,1.31A8.29,8.29,0,0,1,179.36,138.25Zm-4.48-7.16a17.38,17.38,0,0,1,1.18-3.43,11.32,11.32,0,0,1,2-3c-.37,2.43-.89,4.64-1.39,6.9-.24,1.12-.53,2.24-.8,3.37s-.57,2.27-1,3.43a12.06,12.06,0,0,1-.44-3.62A16.79,16.79,0,0,1,174.88,131.09Zm-5.9,9.4a10.13,10.13,0,0,0,.51,2.54,15.77,15.77,0,0,0,1,2.32,20.67,20.67,0,0,0,2.89,4.08c.52.66,1.15,1.23,1.72,1.86s1.26,1.16,1.86,1.77,1.3,1.15,2,1.72,1.35,1.13,2,1.77c-.85-.29-1.66-.65-2.49-1s-1.57-.86-2.34-1.33-1.47-1.06-2.17-1.63a18.6,18.6,0,0,1-1.94-1.93,13.94,13.94,0,0,1-2.8-4.74c-.14-.45-.27-.89-.37-1.34a13.32,13.32,0,0,1-.17-1.38A6.31,6.31,0,0,1,169,140.49Zm-1.41,17.89a7.06,7.06,0,0,1-.83,1.53,7.5,7.5,0,0,1-1.15,1.31,5.46,5.46,0,0,1-1.59,1,5.28,5.28,0,0,1,.4-1.84,7,7,0,0,1,.82-1.53,7.5,7.5,0,0,1,1.16-1.3,5.26,5.26,0,0,1,1.59-1A5.23,5.23,0,0,1,167.57,158.38Zm-6.47-4.94a9.74,9.74,0,0,1,1.54-1.26,10.14,10.14,0,0,1,1.76-.92,6.62,6.62,0,0,1,2.06-.48,6.54,6.54,0,0,1-1.26,1.7,9.16,9.16,0,0,1-1.54,1.25,9.89,9.89,0,0,1-1.77.92,6.56,6.56,0,0,1-2,.48A6.66,6.66,0,0,1,161.1,153.44Z"/><path d="M156.23,229.55a9.26,9.26,0,0,0-2.71-1c1,4.16,2,8.2,3,12.06A107.91,107.91,0,0,1,156.23,229.55Z"/><path d="M156.23,229.55c0-1.81.13-3.48.24-5a12,12,0,0,0-4-.79c.35,1.6.7,3.18,1.07,4.75A9.26,9.26,0,0,1,156.23,229.55Z"/><path d="M345,210.46a11.79,11.79,0,0,0-6.74,2.33l.9-.06c.08,1.12.14,2.23.2,3.33a8.82,8.82,0,0,1,5.81-3.17,21.62,21.62,0,0,0,.61-2.39c-.24,0-.49,0-.74,0Z"/><path d="M162.21,216.5,160,216l-2.26-.53a66.69,66.69,0,0,0-1.22,9.12,16.61,16.61,0,0,1,3.43,1.79l-2.58,3.85c-.37-.25-.74-.46-1.09-.66a107.91,107.91,0,0,0,.31,11c2.49,9.32,5,17.56,7.08,23.78.29.06.58.12.87.16l-.24,1.74c2.11,6.31,3.53,10.09,3.53,10.09-.65-3.81-1.12-7.27-1.44-10.43-.57-1.73-1.08-3.42-1.53-5.05C157.92,235.86,162.16,216.73,162.21,216.5Z"/><polygon points="162.22 216.5 159.96 215.98 162.21 216.5 162.22 216.5"/><path d="M338.24,212.79l-3.73.27a144.7,144.7,0,0,1-3.28,43.85c-.24,6.81-.77,11.34-.77,11.34s7.48-32.91,6.78-43.87a13.42,13.42,0,0,1,1-6.43l-2.83-2.69A19,19,0,0,1,338.24,212.79Z"/><path d="M163.62,264.37c.22.65.43,1.29.63,1.9l.24-1.74C164.2,264.49,163.91,264.43,163.62,264.37Z"/><path d="M159.9,226.36a16.61,16.61,0,0,0-3.43-1.79c-.11,1.5-.2,3.17-.24,5,.35.2.72.41,1.09.66Z"/><path d="M339.14,212.73l-.9.06a19,19,0,0,0-2.87,2.47L338.2,218a8.47,8.47,0,0,1,1.14-1.89C339.28,215,339.22,213.85,339.14,212.73Z"/><path class="cls-4" d="M219.35,123.53l3.1,1.39c1-2.82,2-5.64,2.92-8.48l1.11-3.26-.5.64A113.67,113.67,0,0,0,219.35,123.53Z"/><path class="cls-4" d="M230.5,89.81,228.72,95A22.79,22.79,0,0,1,233,91.91Z"/><path class="cls-4" d="M216.81,109.74a101.49,101.49,0,0,1,7.36-9.95A49,49,0,0,1,228.72,95l1.78-5.21,2.51,2.1A22.79,22.79,0,0,0,228.72,95l-1.11,3.27c-1,2.84-1.94,5.66-2.86,8.5L222,115.31c-.94,2.83-1.86,5.68-2.75,8.53l-4.83,15.48,7.93-14.09c1.84-3.28,4-6.51,6.09-9.67s4.47-6.21,6.88-9.17a77.26,77.26,0,0,1,7.89-8.29,35.34,35.34,0,0,1,9.55-6.32A31.47,31.47,0,0,0,242.31,97a65.71,65.71,0,0,0-8.76,7.82,98.29,98.29,0,0,0-7.07,8.32l-1.11,3.26c-1,2.84-1.92,5.66-2.92,8.48l-3.1-1.39a113.67,113.67,0,0,1,6.63-9.71l.5-.64,1.77-5.22c1-2.83,1.87-5.68,2.81-8.52l2.78-8.52,1.44-4.43-4,2.33c-4,2.36-6.9,5.66-9.57,9a96.61,96.61,0,0,0-7,10.63q-3.14,5.51-5.79,11.24c-1.78,3.81-3.4,7.69-4.83,11.63,2-3.71,4-7.35,6.11-11S214.5,113.18,216.81,109.74Z"/><path class="cls-4" d="M252.64,126.16a17.6,17.6,0,0,1,2.64-4.44c.46-.61,1-1.21,1.44-1.8-2.24,1.41-4.46,2.86-6.68,4.34Z"/><path class="cls-4" d="M282.1,91.68c-2.42,1.88-4.77,3.81-7.1,5.76,2.83-1,5.73-1.88,8.62-2.68Z"/><path class="cls-4" d="M242.61,116,240,118.93c-.84,1-1.7,2-2.51,3a68.23,68.23,0,0,0-4.58,6.39A104.57,104.57,0,0,1,243.62,117a106.65,106.65,0,0,1,12.18-9.58c2.11-1.48,4.34-2.77,6.53-4.11,1.13-.62,2.28-1.2,3.41-1.8l1.7-.89,1.76-.78a61.32,61.32,0,0,1,5.8-2.44c2.33-2,4.68-3.88,7.1-5.76l1.52,3.08c-2.89.8-5.79,1.65-8.62,2.68L273.11,99c-2.94,2.51-5.86,5-8.69,7.7s-5.59,5.39-8.21,8.3c-1.31,1.47-2.59,3-3.78,4.59a20.54,20.54,0,0,0-3,5.54l-1.63,4.91,4.23-3c3.88-2.78,7.92-5.42,11.94-8s8.14-5.11,12.29-7.54q3.11-1.81,6.3-3.49c2.11-1.13,4.25-2.22,6.44-3.22,4.36-2,8.83-3.85,13.64-4.46a30.87,30.87,0,0,0-7.2,1,64.63,64.63,0,0,0-7,2.2,125.92,125.92,0,0,0-13.32,5.94c-4.35,2.17-8.57,4.58-12.75,7q-2.87,1.68-5.65,3.45c-.49.59-1,1.19-1.44,1.8a17.6,17.6,0,0,0-2.64,4.44l-2.6-1.9c2.22-1.48,4.44-2.93,6.68-4.34.7-.84,1.41-1.67,2.15-2.48,2.55-2.78,5.28-5.43,8.07-8s5.64-5.15,8.53-7.64,5.85-4.94,8.8-7.34l7.08-5.77-8.6,2.69-3.82,1.19-1.91.6c-.63.22-1.24.49-1.86.73l-3.71,1.48c-1.21.55-2.4,1.14-3.6,1.73l-1.78.88c-.58.32-1.15.66-1.73,1-1.14.67-2.3,1.32-3.43,2-2.2,1.47-4.46,2.87-6.52,4.52A94.34,94.34,0,0,0,242.61,116Z"/><path class="cls-4" d="M288,122.17a32.3,32.3,0,0,0-7.74,6.18c3.08-1.23,6-2.43,9-3.55s5.94-2.14,8.93-3a80.29,80.29,0,0,1,9.1-2.17c3.09-.62,6.21-.82,9.53-1.16-.77-.3-1.56-.55-2.36-.79-.4-.13-.8-.24-1.2-.34l-1.23-.21c-.83-.12-1.66-.27-2.49-.34s-1.67-.06-2.51-.07a35.31,35.31,0,0,0-9.9,1.52A42.64,42.64,0,0,0,288,122.17Z"/><path class="cls-4" d="M309.72,131.12A112.07,112.07,0,0,0,292.4,139c6.11-1.69,12.13-3.51,18.16-5.09,3-.74,6-1.53,9-2a25.39,25.39,0,0,1,4.34-.34c.36,0,.65.06,1,.07l.42.09.2,0,.15.07a1.6,1.6,0,0,1,.42.21l.12.14s0,0,0,0,0,0,0,0,0,0,0,.06l-.1.22-.18.31a9.42,9.42,0,0,1-1.32,1.42,39.4,39.4,0,0,1-3.54,2.75l-3.85,2.72a27.15,27.15,0,0,0-3.87,3.12c-.16.16-.32.32-.48.51a5.55,5.55,0,0,0-.46.62,4.68,4.68,0,0,0-.43.84,2.46,2.46,0,0,0-.07,1.34,1.89,1.89,0,0,0,.26.65,2,2,0,0,0,.44.52,1.92,1.92,0,0,0,.53.36,2.22,2.22,0,0,0,.52.19,3.85,3.85,0,0,0,1.65,0,17.9,17.9,0,0,0,4.73-1.74,53.69,53.69,0,0,0,8-5.16c-2.92,1.23-5.81,2.5-8.75,3.48a16.65,16.65,0,0,1-4.26,1h-.29l-.08.08c-.1.11-.1.14-.15.19s0,0,0-.18a.33.33,0,0,0-.11-.16h0c-.05,0,0,0,0,0a1.2,1.2,0,0,0,.37.07,1.9,1.9,0,0,1,.2-.22l.35-.32a39.72,39.72,0,0,1,3.7-2.52l4-2.51a36.05,36.05,0,0,0,4-2.93,12.05,12.05,0,0,0,1.9-2c.15-.22.29-.46.43-.69a7.39,7.39,0,0,0,.36-.86,4.14,4.14,0,0,0,.19-1.08,3.24,3.24,0,0,0-.17-1.19,4,4,0,0,0-1.19-1.78,5,5,0,0,0-1.62-.93,8.83,8.83,0,0,0-2.91-.46,25.61,25.61,0,0,0-5.05.55c-1.6.32-3.17.73-4.71,1.17S311.22,130.58,309.72,131.12Z"/><path class="cls-4" d="M326.22,132.2s0,0,0,0S326.22,132.18,326.22,132.2Z"/><path class="cls-4" d="M314.52,145.53c0,.15,0,.17,0,.18s.05-.08.15-.19l.08-.08a1.2,1.2,0,0,1-.37-.07A.33.33,0,0,1,314.52,145.53Z"/><path class="cls-4" d="M318.12,163.1c-2.12,1.17-4.24,2.35-6.45,3.65a22.05,22.05,0,0,0,7.55-.95,36.75,36.75,0,0,0,7-2.86,37.62,37.62,0,0,0,6.24-4.23,27.82,27.82,0,0,0,5.15-5.56,37.75,37.75,0,0,0-3.47,1.5c-1.14.51-2.2,1.11-3.3,1.63-2.15,1.14-4.28,2.23-6.38,3.39Z"/><path class="cls-4" d="M168.77,144.57c.1.45.23.89.37,1.34a13.94,13.94,0,0,0,2.8,4.74,18.6,18.6,0,0,0,1.94,1.93c.7.57,1.42,1.13,2.17,1.63s1.54.93,2.34,1.33,1.64.72,2.49,1c-.64-.64-1.32-1.21-2-1.77s-1.29-1.17-2-1.72-1.26-1.16-1.86-1.77-1.2-1.2-1.72-1.86a20.67,20.67,0,0,1-2.89-4.08,15.77,15.77,0,0,1-1-2.32,10.13,10.13,0,0,1-.51-2.54,6.31,6.31,0,0,0-.38,2.7A13.32,13.32,0,0,0,168.77,144.57Z"/><path class="cls-4" d="M175.89,134.88c.27-1.13.56-2.25.8-3.37.5-2.26,1-4.47,1.39-6.9a11.32,11.32,0,0,0-2,3,17.38,17.38,0,0,0-1.18,3.43,16.79,16.79,0,0,0-.43,3.6,12.06,12.06,0,0,0,.44,3.62C175.32,137.15,175.59,136,175.89,134.88Z"/><path class="cls-4" d="M181.38,147.38a9,9,0,0,0,2.52-.24,13.94,13.94,0,0,0,2.32-.74,14.32,14.32,0,0,0,2.17-1.11,9.42,9.42,0,0,0,2-1.59,9.38,9.38,0,0,0-2.52.25,15.25,15.25,0,0,0-2.32.73,14.32,14.32,0,0,0-2.17,1.11A9.42,9.42,0,0,0,181.38,147.38Z"/><path class="cls-4" d="M182.1,137.53a13,13,0,0,0,1.31-1.89,8.75,8.75,0,0,0,.9-2.24,8.36,8.36,0,0,0-2,1.31,13.15,13.15,0,0,0-2.93,3.54,8.29,8.29,0,0,0-.91,2.24,8.53,8.53,0,0,0,2-1.31A12.63,12.63,0,0,0,182.1,137.53Z"/><path class="cls-4" d="M163.66,153.73a9.16,9.16,0,0,0,1.54-1.25,6.54,6.54,0,0,0,1.26-1.7,6.62,6.62,0,0,0-2.06.48,10.14,10.14,0,0,0-1.76.92,9.74,9.74,0,0,0-1.54,1.26,6.66,6.66,0,0,0-1.26,1.69,6.56,6.56,0,0,0,2-.48A9.89,9.89,0,0,0,163.66,153.73Z"/><path class="cls-4" d="M165.22,158.85a7,7,0,0,0-.82,1.53,5.28,5.28,0,0,0-.4,1.84,5.46,5.46,0,0,0,1.59-1,7.5,7.5,0,0,0,1.15-1.31,7.06,7.06,0,0,0,.83-1.53,5.23,5.23,0,0,0,.4-1.83,5.26,5.26,0,0,0-1.59,1A7.5,7.5,0,0,0,165.22,158.85Z"/><path class="cls-4" d="M171.37,161a12.88,12.88,0,0,0-.72,2.23,13.53,13.53,0,0,0-.32,2.31,8.45,8.45,0,0,0,.19,2.43,8.86,8.86,0,0,0,1.23-2.1,13.75,13.75,0,0,0,.71-2.23,12.61,12.61,0,0,0,.33-2.31,8.82,8.82,0,0,0-.19-2.43A8.23,8.23,0,0,0,171.37,161Z"/><path d="M197.22,346.78h.93l-.93-.7Z"/><path d="M201.86,325.44c-1.6-1.39-3.14-2.79-4.64-4.19v18.88c1.43,1.13,3,2.34,4.64,3.59Z"/><path d="M201.86,320.32h-4.64v.93c1.5,1.4,3,2.8,4.64,4.19Z"/><path d="M296.56,326.26l2.57,15.48,4.28-2.49-2.83-17.08C299.24,323.58,297.9,325,296.56,326.26Z"/><path d="M295.81,321.76l.75,4.5c1.34-1.31,2.68-2.68,4-4.09l-.19-1.17Z"/><path d="M183.55,365l-3.29,1.17a25.24,25.24,0,0,0,1,3.56l.1.23c.67,1.34,16.44,31.77,58,36.28l3.08-4.18,3.57-.31V366.18l-1.81-.41c-15.21-3.42-31.24-13.7-42.38-22v3.06h-3.71c11,8.41,27.26,19,43.26,23.08v31.9c-.91-.08-1.8-.19-2.68-.3v2.81h-4.64v-3.51c-33.66-6.16-47.56-31-48.51-32.79-1.82-5-1.73-11.49-1-17.46l-3-1.72,2.32-4,1.41.82c.56-3.09,1.22-5.83,1.75-7.83,2.25,2,5.75,4.95,10.13,8.32v-5.95c-5.92-4.71-9.63-8.17-9.74-8.27l-2.66-2.5-1.13,3.47c-.25.77-5.09,15.73-4.1,28.64l2.4-.84Z"/><polygon points="244.84 406.67 246.05 406.74 246.05 406.4 244.97 406.49 244.84 406.67"/><path d="M198.15,346.78h3.71v-3.06c-1.66-1.25-3.21-2.46-4.64-3.59v5.95Z"/><path d="M299.62,344.72l-.49-3-44.63,25.9,2.84,33.12,2.31-.2.4,4.63-2.32.2,0,.25,2.53-.49c41-7.87,54.79-27.43,58.19-33.54l-1.81-.45,1.14-4.5,2.18.54c3.1-16-4.52-31.25-4.87-31.92L314,333.09l-10.6,6.16.79,4.71Zm14.44,1,1.53-.9,2.37,4-2.77,1.64a41.32,41.32,0,0,1-.15,17.73c-.78,1.69-9.88,19.82-43.53,29.55l.43,2.55-4.58.77-.35-2.11c-1.65.41-3.32.81-5.07,1.18l-2.57-29.91L312,339.64A57.69,57.69,0,0,1,314.06,345.69Z"/><polygon points="299.62 344.72 304.2 343.96 303.42 339.25 299.13 341.74 299.62 344.72"/><path d="M229.48,371.1l-44.14-25.51c-.29,1.56-.55,3.22-.76,4.92l42.57,24.61a13.92,13.92,0,0,1,6.94,12v13.62c1.5.27,3.06.5,4.64.7V387.14A18.6,18.6,0,0,0,229.48,371.1Z"/><path d="M234.09,404.27h4.64v-2.81c-1.58-.2-3.14-.43-4.64-.7Z"/><path d="M183.93,344.77l-2.32,4,3,1.72c.21-1.7.47-3.36.76-4.92Z"/><path d="M264.8,385.85,267,398.91c1.55-.39,3-.79,4.5-1.21l-2.13-12.62a10.1,10.1,0,0,1,4.78-10.32l41-24.34c-.33-1.69-.72-3.28-1.13-4.73l-42.27,25.08A14.78,14.78,0,0,0,264.8,385.85Z"/><path d="M267.36,401l4.58-.77-.43-2.55c-1.46.42-2.95.82-4.5,1.21Z"/><path d="M318,348.78l-2.37-4-1.53.9c.41,1.45.8,3,1.13,4.73Z"/><path d="M63.76,401.19c1.63-6.6,3.71-10.72,24.36-11l-.35-2.1,4.62-.47.1,2.48c21.91-1.33,74-19.16,87.77-24a37,37,0,0,1-.67-4.69c-12.43,4.36-69.85,24.1-89.51,24.1-23.32,0-28.36,4.48-30.82,14.51-2.39,9.74-7.32,185.4,5.11,279.74h4.68C56.07,582.71,62.09,408,63.76,401.19Z"/><path d="M183.55,365,182,360.63l-2.4.84a37,37,0,0,0,.67,4.69Z"/><path d="M445.64,470c3.65-29.57,8.65-70.07-4.53-83.07-3.49-3.45-8-4.82-13.4-4.07C401,386.51,333.05,370.4,320,367.2c-.14.76-.31,1.53-.5,2.29l-.11.3a15.66,15.66,0,0,1-.9,1.82c10.39,2.57,60.93,14.72,93.57,16.23l.08-2.52,4.61.57-.46,2.08a81.09,81.09,0,0,0,12.07-.56c3.95-.55,7.06.36,9.5,2.77,11.56,11.4,6.52,52.2,3.19,79.2-.67,5.4-1.3,10.51-1.73,14.79-2.8,28-5.62,166.85-6.18,195.65h4.64c.56-29,3.38-167.41,6.16-195.19C444.35,480.4,445,475.32,445.64,470Z"/><path d="M316.67,371.16l1.81.45a15.66,15.66,0,0,0,.9-1.82l.11-.3c.19-.76.36-1.53.5-2.29l-2.18-.54Z"/><path d="M244.84,406.67l-1.26-.08c-1.42-.09-2.81-.22-4.18-.36l-11.23,15.22V679.82h4.64V423Z"/><polygon points="246.05 401.74 246.05 406.4 257.73 405.39 257.34 400.76 246.05 401.74"/><path d="M242.48,402.05l-3.08,4.18c1.37.14,2.76.27,4.18.36l1.26.08.13-.18,1.08-.09v-4.66Z"/><rect x="257.53" y="400.66" width="2.32" height="4.64" transform="translate(-33.74 23.78) rotate(-4.94)"/><path d="M100.3,445.37l-4.59.72c.23,1.46,22,142.7,17.73,233.73h4.64C122.29,588.28,100.53,446.84,100.3,445.37Z"/><path d="M409.16,451.55l-4.59-.67c-.21,1.42-20.31,140.26-16.73,228.94h4.64C388.88,591.6,409,453,409.16,451.55Z"/><path d="M416.28,388c-1.37,0-2.78-.07-4.23-.13l-.74,22.88Z"/><path d="M416.74,385.89l-4.61-.57-.08,2.52c1.45.06,2.86.11,4.23.13Z"/><path d="M88.12,390.23l5.79,35.29-1.42-35.38c-.85.05-1.66.08-2.41.08Z"/><path d="M87.77,388.13l.35,2.1h2c.75,0,1.56,0,2.41-.08l-.1-2.48Z"/><path d="M259.85,432.51a9.39,9.39,0,1,0,9.39,9.39A9.4,9.4,0,0,0,259.85,432.51Zm0,14.14a4.75,4.75,0,1,1,4.75-4.75A4.75,4.75,0,0,1,259.85,446.65Z"/><path d="M219.15,292.88a8.51,8.51,0,0,0-.94-2.22,8.85,8.85,0,0,0-.51,2.36,13.58,13.58,0,0,0,0,2.3,12.58,12.58,0,0,0,.41,2.27,8.05,8.05,0,0,0,.94,2.22,8.86,8.86,0,0,0,.51-2.35,13.59,13.59,0,0,0-.43-4.58Z"/><path d="M216.24,297.27a8.51,8.51,0,0,0-.94-2.22,8.85,8.85,0,0,0-.51,2.36,13.23,13.23,0,0,0,.42,4.57,8.37,8.37,0,0,0,.94,2.22,8.51,8.51,0,0,0,.52-2.35,13.59,13.59,0,0,0-.43-4.58Z"/><path d="M224.64,289.57a8.37,8.37,0,0,0-.94-2.22,8.86,8.86,0,0,0-.51,2.35,13.69,13.69,0,0,0,0,2.31,12.74,12.74,0,0,0,.41,2.27,8.18,8.18,0,0,0,.94,2.22,8.85,8.85,0,0,0,.51-2.36,13.57,13.57,0,0,0-.43-4.57Z"/><path d="M176,282.69a13.51,13.51,0,0,0-.41-2.27,8.71,8.71,0,0,0-.94-2.22,8.49,8.49,0,0,0-.51,2.35,12.58,12.58,0,0,0,.3,4c.4.74.82,1.48,1.24,2.23A8.5,8.5,0,0,0,176,285,12.62,12.62,0,0,0,176,282.69Z"/><path d="M174.52,285.13a8.51,8.51,0,0,0,.94,2.22c.07-.18.13-.36.18-.53-.42-.75-.84-1.49-1.24-2.23C174.44,284.77,174.47,285,174.52,285.13Z"/><path d="M180.56,290.39a12.74,12.74,0,0,0-.41-2.27,8.51,8.51,0,0,0-.94-2.22,8.85,8.85,0,0,0-.51,2.36,13.58,13.58,0,0,0,0,2.3,13.26,13.26,0,0,0,.31,1.87c.41.63.84,1.27,1.27,1.91a9.54,9.54,0,0,0,.28-1.64A12.72,12.72,0,0,0,180.56,290.39Z"/><path d="M179.13,292.83a8.05,8.05,0,0,0,.94,2.22c.09-.24.16-.47.23-.71-.43-.64-.86-1.28-1.27-1.91C179.07,292.56,179.09,292.7,179.13,292.83Z"/><path d="M185.41,297.23A13.73,13.73,0,0,0,185,295a8.82,8.82,0,0,0-.93-2.22,8.5,8.5,0,0,0-.52,2.36,13.57,13.57,0,0,0,.38,4.38l1.23,1.64a9.86,9.86,0,0,0,.27-1.58A12.72,12.72,0,0,0,185.41,297.23Z"/><path d="M184,299.67a8.37,8.37,0,0,0,.94,2.22,5.68,5.68,0,0,0,.24-.77l-1.23-1.64C183.94,299.54,184,299.61,184,299.67Z"/><path d="M189.55,302.63a12.74,12.74,0,0,0-.41-2.27,8.65,8.65,0,0,0-.94-2.22,8.85,8.85,0,0,0-.51,2.36,13.71,13.71,0,0,0,0,2.31,13.87,13.87,0,0,0,.33,1.91c.44.53.87,1.06,1.32,1.59a11.14,11.14,0,0,0,.22-1.37A13.7,13.7,0,0,0,189.55,302.63Z"/><path d="M188.11,305.07a8.71,8.71,0,0,0,.94,2.22,6.11,6.11,0,0,0,.3-1c-.45-.53-.88-1.06-1.32-1.59C188.06,304.84,188.08,305,188.11,305.07Z"/><path d="M194.15,307.21a13.73,13.73,0,0,0-.42-2.27,8.82,8.82,0,0,0-.93-2.22,8.51,8.51,0,0,0-.52,2.35,13.69,13.69,0,0,0,0,2.31,12.74,12.74,0,0,0,.41,2.27c.06.22.14.45.21.67l.92,1a9.45,9.45,0,0,0,.32-1.8A12.62,12.62,0,0,0,194.15,307.21Z"/><path d="M193.65,311.87c.07-.19.13-.37.19-.56l-.92-1A7.49,7.49,0,0,0,193.65,311.87Z"/><path d="M198.59,311.78a13.73,13.73,0,0,0-.42-2.27,8.61,8.61,0,0,0-.93-2.22,8.13,8.13,0,0,0-.51,2.36,13.26,13.26,0,0,0,.42,4.58c.07.24.15.49.24.73l.9.88a9.06,9.06,0,0,0,.31-1.75A12.73,12.73,0,0,0,198.59,311.78Z"/><path d="M198.09,316.45a5.41,5.41,0,0,0,.2-.61l-.9-.88A6.92,6.92,0,0,0,198.09,316.45Z"/><path d="M203.87,316.68a12.74,12.74,0,0,0-.41-2.27,8.51,8.51,0,0,0-.94-2.22,8.86,8.86,0,0,0-.51,2.35,13.26,13.26,0,0,0,.42,4.58c.09.3.19.6.3.89l.84.74a9.15,9.15,0,0,0,.32-1.77A13.58,13.58,0,0,0,203.87,316.68Z"/><path d="M203.37,321.34a4.56,4.56,0,0,0,.2-.59l-.84-.74A7.7,7.7,0,0,0,203.37,321.34Z"/><path d="M208.68,321.25a13.7,13.7,0,0,0-.41-2.27,9,9,0,0,0-.94-2.22,8.13,8.13,0,0,0-.51,2.36,13.17,13.17,0,0,0,.42,4.57l.09.29c.38.32.76.64,1.15.95a10.81,10.81,0,0,0,.21-1.37A12.73,12.73,0,0,0,208.68,321.25Z"/><path d="M208.18,325.91a7.33,7.33,0,0,0,.3-1c-.39-.31-.77-.63-1.15-.95A7.79,7.79,0,0,0,208.18,325.91Z"/><path d="M213.67,324.81a12.74,12.74,0,0,0-.41-2.27,8.82,8.82,0,0,0-.93-2.22,8.51,8.51,0,0,0-.52,2.35,13.69,13.69,0,0,0,0,2.31,12.74,12.74,0,0,0,.41,2.27c.08.3.18.6.29.9l.87.64a9,9,0,0,0,.29-1.67A12.72,12.72,0,0,0,213.67,324.81Z"/><path d="M213.18,329.47a6,6,0,0,0,.22-.68l-.87-.64A7.33,7.33,0,0,0,213.18,329.47Z"/><path d="M218.67,328.37a12.58,12.58,0,0,0-.41-2.27,8.37,8.37,0,0,0-.94-2.22,8.7,8.7,0,0,0-.51,2.35,13.26,13.26,0,0,0,.42,4.58c.11.35.22.71.36,1.06l.79.56a10,10,0,0,0,.31-1.76A13.58,13.58,0,0,0,218.67,328.37Z"/><path d="M218.17,333q.12-.3.21-.6l-.79-.56A7.85,7.85,0,0,0,218.17,333Z"/><path d="M223.67,331.92a13.7,13.7,0,0,0-.41-2.27,8.51,8.51,0,0,0-.94-2.22,8.85,8.85,0,0,0-.51,2.36,12.62,12.62,0,0,0,0,2.3,13.51,13.51,0,0,0,.41,2.27c.09.3.19.61.3.91l.88.58a10.53,10.53,0,0,0,.27-1.62A12.72,12.72,0,0,0,223.67,331.92Z"/><path d="M223.17,336.58a6.91,6.91,0,0,0,.24-.73l-.88-.58A7.53,7.53,0,0,0,223.17,336.58Z"/><path d="M228.67,335.48a13.54,13.54,0,0,0-.42-2.27,8.33,8.33,0,0,0-.93-2.22,8.14,8.14,0,0,0-.51,2.35,13.26,13.26,0,0,0,.42,4.58c0,.15.09.3.14.46l1.12.67a11.12,11.12,0,0,0,.19-1.27A12.62,12.62,0,0,0,228.67,335.48Z"/><path d="M228.17,340.14a7.86,7.86,0,0,0,.32-1.09l-1.12-.67A7.44,7.44,0,0,0,228.17,340.14Z"/><path d="M233.66,339a12.74,12.74,0,0,0-.41-2.27,8.65,8.65,0,0,0-.94-2.22,8.85,8.85,0,0,0-.51,2.36,13.58,13.58,0,0,0,0,2.3,12.18,12.18,0,0,0,.36,2.06l1.41.81c0-.25.07-.49.09-.73A12.72,12.72,0,0,0,233.66,339Z"/><path d="M232.23,341.47a8.05,8.05,0,0,0,.94,2.22,7.75,7.75,0,0,0,.42-1.62l-1.41-.81C232.2,341.33,232.21,341.4,232.23,341.47Z"/><path d="M238.66,341.07a13.7,13.7,0,0,0-.41-2.27,8.51,8.51,0,0,0-.94-2.22,8.85,8.85,0,0,0-.51,2.36,13.23,13.23,0,0,0,.42,4.57l.21.65c.35.17.7.32,1.06.48a11,11,0,0,0,.19-1.26A13.69,13.69,0,0,0,238.66,341.07Z"/><path d="M238.16,345.73a6.46,6.46,0,0,0,.33-1.09c-.36-.16-.71-.31-1.06-.48A7.4,7.4,0,0,0,238.16,345.73Z"/><path d="M243.48,342.63a13.54,13.54,0,0,0-.42-2.27,8.33,8.33,0,0,0-.93-2.22,8.14,8.14,0,0,0-.51,2.35,13.26,13.26,0,0,0,.42,4.58c.1.34.21.67.34,1,.29.09.59.16.89.24a9.56,9.56,0,0,0,.22-1.39A12.62,12.62,0,0,0,243.48,342.63Z"/><path d="M243,347.29a6.26,6.26,0,0,0,.29-1c-.3-.08-.6-.15-.89-.24A7.16,7.16,0,0,0,243,347.29Z"/><path d="M248.48,343.74a13.75,13.75,0,0,0-.1-2.31,8.58,8.58,0,0,0-.62-2.33,8.55,8.55,0,0,0-.83,2.27,13.58,13.58,0,0,0-.31,2.28,13.78,13.78,0,0,0,.09,2.31c.06.37.12.75.22,1.13l.89.12a8.5,8.5,0,0,0,.35-1.19A13.72,13.72,0,0,0,248.48,343.74Z"/><path d="M247.34,348.28a6.76,6.76,0,0,0,.48-1.07l-.89-.12A7,7,0,0,0,247.34,348.28Z"/><path d="M251.68,343.74a12.76,12.76,0,0,0-.09-2.31,8.58,8.58,0,0,0-.62-2.33,8.55,8.55,0,0,0-.83,2.27,12.63,12.63,0,0,0-.31,2.28,12.8,12.8,0,0,0,.09,2.31,9.38,9.38,0,0,0,.31,1.45l.7,0a10.75,10.75,0,0,0,.45-1.43A12.73,12.73,0,0,0,251.68,343.74Z"/><path d="M250.23,347.41a6,6,0,0,0,.31.87,5.67,5.67,0,0,0,.39-.83Z"/><path d="M254.89,343.74a13.75,13.75,0,0,0-.1-2.31,8.23,8.23,0,0,0-.62-2.33,8.91,8.91,0,0,0-.83,2.27,13.58,13.58,0,0,0-.31,2.28,13.79,13.79,0,0,0,.1,2.31,11,11,0,0,0,.3,1.45l.75-.05a9.73,9.73,0,0,0,.4-1.34A13.72,13.72,0,0,0,254.89,343.74Z"/><path d="M253.75,348.28a7,7,0,0,0,.43-.92l-.75.05A7.64,7.64,0,0,0,253.75,348.28Z"/><path d="M258.09,343.74a12.76,12.76,0,0,0-.09-2.31,8.58,8.58,0,0,0-.62-2.33,8.55,8.55,0,0,0-.83,2.27,13.58,13.58,0,0,0-.31,2.28,12.8,12.8,0,0,0,.09,2.31c.06.37.12.75.22,1.13.33,0,.65-.08,1-.14.1-.31.19-.62.26-.93A12.73,12.73,0,0,0,258.09,343.74Z"/><path d="M257,348.28a7,7,0,0,0,.58-1.33c-.33.06-.65.1-1,.14A6.66,6.66,0,0,0,257,348.28Z"/><path d="M261.3,343.74a13.74,13.74,0,0,0-.09-2.31,9,9,0,0,0-.62-2.33,9,9,0,0,0-.84,2.27,12.61,12.61,0,0,0-.3,2.28,12.8,12.8,0,0,0,.09,2.31,5.07,5.07,0,0,0,.09.54c.45-.11.89-.25,1.34-.38l0-.1A12.73,12.73,0,0,0,261.3,343.74Z"/><path d="M260.16,348.28a8.14,8.14,0,0,0,.81-2.16c-.45.13-.89.27-1.34.38A7.08,7.08,0,0,0,260.16,348.28Z"/><path d="M265,341.2a13.66,13.66,0,0,0-.09-2.3,8.76,8.76,0,0,0-.62-2.33,8.39,8.39,0,0,0-.84,2.26,13.6,13.6,0,0,0-.21,4.59,9.24,9.24,0,0,0,.41,1.81l.57-.23a10.93,10.93,0,0,0,.47-1.51A12.73,12.73,0,0,0,265,341.2Z"/><path d="M263.81,345.75c.14-.25.25-.5.36-.75l-.57.23C263.66,345.4,263.73,345.57,263.81,345.75Z"/><path d="M269.06,339.16a13.67,13.67,0,0,0-.1-2.3,8.49,8.49,0,0,0-.62-2.33,8.49,8.49,0,0,0-.83,2.26,13.3,13.3,0,0,0-.22,4.59,9.17,9.17,0,0,0,.45,1.88l.54-.31a10.8,10.8,0,0,0,.47-1.5A13.7,13.7,0,0,0,269.06,339.16Z"/><path d="M267.92,343.71a6.53,6.53,0,0,0,.36-.76l-.54.31C267.8,343.41,267.85,343.56,267.92,343.71Z"/><path d="M274.47,335.61a13.75,13.75,0,0,0-.1-2.31,8.58,8.58,0,0,0-.62-2.33,8.61,8.61,0,0,0-.83,2.26,13.84,13.84,0,0,0-.31,2.29,12.65,12.65,0,0,0,.09,2.3,9.26,9.26,0,0,0,.45,1.89l.57-.4a9.3,9.3,0,0,0,.44-1.42A13.72,13.72,0,0,0,274.47,335.61Z"/><path d="M273.32,340.15a6.4,6.4,0,0,0,.4-.84l-.57.4C273.2,339.86,273.26,340,273.32,340.15Z"/><path d="M279.59,332a12.69,12.69,0,0,0-.09-2.3,8.4,8.4,0,0,0-.62-2.33,8.36,8.36,0,0,0-.83,2.26,13.27,13.27,0,0,0-.22,4.59,9.34,9.34,0,0,0,.39,1.75l.75-.57c.13-.37.23-.74.32-1.11A12.72,12.72,0,0,0,279.59,332Z"/><path d="M278.45,336.57a7.29,7.29,0,0,0,.52-1.15l-.75.57C278.29,336.18,278.37,336.37,278.45,336.57Z"/><path d="M284.72,328.44a12.76,12.76,0,0,0-.09-2.31,8.86,8.86,0,0,0-.62-2.33,9,9,0,0,0-.84,2.26,13.63,13.63,0,0,0-.21,4.59,9.39,9.39,0,0,0,.28,1.36l1.08-.9c0-.13.07-.26.1-.39A12.73,12.73,0,0,0,284.72,328.44Z"/><path d="M283.58,333a7.91,7.91,0,0,0,.74-1.87l-1.08.9A6.23,6.23,0,0,0,283.58,333Z"/><path d="M289.07,323.85a12.77,12.77,0,0,0-.1-2.31,8.55,8.55,0,0,0-.61-2.33,8.65,8.65,0,0,0-.84,2.26,13,13,0,0,0-.21,4.59,8.29,8.29,0,0,0,.5,2l.47-.42a10,10,0,0,0,.48-1.53A12.75,12.75,0,0,0,289.07,323.85Z"/><path d="M287.93,328.39a6.06,6.06,0,0,0,.35-.73l-.47.42A2.85,2.85,0,0,0,287.93,328.39Z"/><path d="M294,319.69a12.69,12.69,0,0,0-.09-2.3,8.49,8.49,0,0,0-.62-2.33,8.49,8.49,0,0,0-.83,2.26,11.9,11.9,0,0,0-.31,2.29,12.69,12.69,0,0,0,.09,2.3,9.53,9.53,0,0,0,.38,1.69l.86-.84c.08-.26.15-.52.22-.78A12.72,12.72,0,0,0,294,319.69Z"/><path d="M292.87,324.24a7.18,7.18,0,0,0,.62-1.48l-.86.84C292.7,323.81,292.78,324,292.87,324.24Z"/><path d="M299,314.67a12.76,12.76,0,0,0-.09-2.31,8.49,8.49,0,0,0-.62-2.33,8.49,8.49,0,0,0-.83,2.26,13.7,13.7,0,0,0-.31,2.29,12.69,12.69,0,0,0,.09,2.3,10.83,10.83,0,0,0,.36,1.65l.95-1c.06-.19.1-.37.15-.56A12.73,12.73,0,0,0,299,314.67Z"/><path d="M297.88,319.21a7.41,7.41,0,0,0,.69-1.7l-.95,1C297.7,318.76,297.78,319,297.88,319.21Z"/><path d="M302.62,310.83a12.69,12.69,0,0,0-.09-2.3,8.49,8.49,0,0,0-.62-2.33,8.49,8.49,0,0,0-.83,2.26,13.3,13.3,0,0,0-.22,4.59,9.41,9.41,0,0,0,.33,1.54c.36-.4.71-.81,1.06-1.22l.07-.25A12.72,12.72,0,0,0,302.62,310.83Z"/><path d="M301.48,315.38a7.91,7.91,0,0,0,.77-2c-.35.41-.7.82-1.06,1.22A6.29,6.29,0,0,0,301.48,315.38Z"/><path d="M306.5,305.79a13.67,13.67,0,0,0-.1-2.3,8.15,8.15,0,0,0-.62-2.33,8.85,8.85,0,0,0-.83,2.26,13.7,13.7,0,0,0-.31,2.29,12.7,12.7,0,0,0,.1,2.3,8.75,8.75,0,0,0,.43,1.84l.82-1c.07-.25.14-.5.2-.75A13.7,13.7,0,0,0,306.5,305.79Z"/><path d="M305.36,310.34a8.07,8.07,0,0,0,.63-1.51l-.82,1A2.92,2.92,0,0,0,305.36,310.34Z"/><path d="M310.71,299.69a13.67,13.67,0,0,0-.1-2.3,8.15,8.15,0,0,0-.62-2.33,8.49,8.49,0,0,0-.83,2.26,13.7,13.7,0,0,0-.31,2.29,12.7,12.7,0,0,0,.1,2.3,8.45,8.45,0,0,0,.58,2.23l.3-.43a9.46,9.46,0,0,0,.57-1.73A13.7,13.7,0,0,0,310.71,299.69Z"/><path d="M309.57,304.24c.1-.18.18-.35.26-.53l-.3.43A.42.42,0,0,0,309.57,304.24Z"/><path d="M315,293.83a12.76,12.76,0,0,0-.09-2.31,8.58,8.58,0,0,0-.62-2.33,8.61,8.61,0,0,0-.83,2.26,13.7,13.7,0,0,0-.31,2.29,12.69,12.69,0,0,0,.09,2.3,9,9,0,0,0,.49,2l.79-1.25q.11-.33.18-.66A12.73,12.73,0,0,0,315,293.83Z"/><path d="M313.84,298.37a7.52,7.52,0,0,0,.66-1.6l-.79,1.25A3.62,3.62,0,0,0,313.84,298.37Z"/><path d="M319,285.41a8.58,8.58,0,0,0-.62-2.33,8.61,8.61,0,0,0-.83,2.26,13.3,13.3,0,0,0-.22,4.59,10.88,10.88,0,0,0,.34,1.56c.43-.75.85-1.51,1.26-2.27a12.75,12.75,0,0,0,.17-1.5A13.75,13.75,0,0,0,319,285.41Z"/><path d="M318,292.26a8.36,8.36,0,0,0,.83-2.26c.06-.26.1-.52.14-.78-.41.76-.83,1.52-1.26,2.27A6,6,0,0,0,318,292.26Z"/><path d="M229.11,291a8.33,8.33,0,0,0,.93,2.22,8.36,8.36,0,0,0,.52-2.35,13.59,13.59,0,0,0-.43-4.58,8.65,8.65,0,0,0-.94-2.22,8.85,8.85,0,0,0-.51,2.36,13.71,13.71,0,0,0,0,2.31A11.8,11.8,0,0,0,229.11,291Z"/><path d="M234.17,289.7a8.37,8.37,0,0,0,.94,2.22,8.41,8.41,0,0,0,.51-2.35,12.72,12.72,0,0,0,0-2.31,13.73,13.73,0,0,0-.42-2.27,8.47,8.47,0,0,0-.93-2.22,8.13,8.13,0,0,0-.51,2.36,13.23,13.23,0,0,0,.42,4.57Z"/><path d="M240.92,282.77a8.85,8.85,0,0,0-.51,2.36,13.23,13.23,0,0,0,.42,4.57,8.37,8.37,0,0,0,.94,2.22,8.43,8.43,0,0,0,.52-2.35,13.59,13.59,0,0,0-.43-4.58A8.51,8.51,0,0,0,240.92,282.77Z"/><path d="M254.57,281.33a8.78,8.78,0,0,0-.51,2.35,13.7,13.7,0,0,0,0,2.31,11.9,11.9,0,0,0,.41,2.27,8.47,8.47,0,0,0,.93,2.22,8.5,8.5,0,0,0,.52-2.36,13.57,13.57,0,0,0-.43-4.57A8.37,8.37,0,0,0,254.57,281.33Z"/><path d="M259.76,288.26a8.51,8.51,0,0,0,.94,2.22,8.47,8.47,0,0,0,.51-2.36,12.62,12.62,0,0,0,0-2.3,13.54,13.54,0,0,0-.42-2.27,8.33,8.33,0,0,0-.93-2.22,8.07,8.07,0,0,0-.51,2.35,13.26,13.26,0,0,0,.42,4.58Z"/><path d="M265,288.26a8.51,8.51,0,0,0,.94,2.22,8.5,8.5,0,0,0,.52-2.36,13.57,13.57,0,0,0-.43-4.57,8.37,8.37,0,0,0-.94-2.22,8.78,8.78,0,0,0-.51,2.35,12.73,12.73,0,0,0,0,2.31A13.7,13.7,0,0,0,265,288.26Z"/><path d="M270.39,280a8.85,8.85,0,0,0-.51,2.36,13.58,13.58,0,0,0,0,2.3,12.58,12.58,0,0,0,.41,2.27,8.05,8.05,0,0,0,.94,2.22,8.86,8.86,0,0,0,.51-2.35,13.59,13.59,0,0,0-.43-4.58A8.51,8.51,0,0,0,270.39,280Z"/><path d="M282.11,281.68a8.51,8.51,0,0,0-.94-2.22,8.49,8.49,0,0,0-.51,2.35,13.26,13.26,0,0,0,.42,4.58,8.51,8.51,0,0,0,.94,2.22,8.13,8.13,0,0,0,.51-2.36,12.62,12.62,0,0,0,0-2.3A13.7,13.7,0,0,0,282.11,281.68Z"/><path d="M291.5,290.39a8.37,8.37,0,0,0-.94-2.22,8.86,8.86,0,0,0-.51,2.35,12.72,12.72,0,0,0,0,2.31,13.7,13.7,0,0,0,.41,2.27,8.51,8.51,0,0,0,.94,2.22,8.5,8.5,0,0,0,.52-2.36,13.57,13.57,0,0,0-.43-4.57Z"/><path d="M286.8,285a8.51,8.51,0,0,0-.94-2.22,8.85,8.85,0,0,0-.51,2.36,13.58,13.58,0,0,0,0,2.3,12.58,12.58,0,0,0,.41,2.27,8.05,8.05,0,0,0,.94,2.22,8.78,8.78,0,0,0,.51-2.35,13.59,13.59,0,0,0-.43-4.58Z"/><path d="M276.63,288.61a8.5,8.5,0,0,0,.52-2.36,13.58,13.58,0,0,0,0-2.3,12.74,12.74,0,0,0-.41-2.27,8.51,8.51,0,0,0-.94-2.22,8.86,8.86,0,0,0-.51,2.35,13.26,13.26,0,0,0,.42,4.58A8.51,8.51,0,0,0,276.63,288.61Z"/><path d="M204,249.85c4.92,0,8.92-5.65,8.92-12.6a16,16,0,0,0-1.76-7.45c-.91-.31-1.82-.6-2.74-.84a46.09,46.09,0,0,0-9.94-1.53,14.78,14.78,0,0,0-3.39,9.82C195.08,244.2,199.08,249.85,204,249.85Z"/><path d="M289.11,246.87c4.91,0,8.91-5.65,8.91-12.6a14.82,14.82,0,0,0-3.39-9.82,46.72,46.72,0,0,0-9.94,1.53c-.92.25-1.83.53-2.74.85a16,16,0,0,0-1.76,7.44C280.19,241.22,284.19,246.87,289.11,246.87Z"/></g></svg>